<svg width="12" height="16" viewBox="0 0 12 16" fill="none" xmlns="http://www.w3.org/2000/svg">
<path d="M11.0425 9.25473L11.0125 9.2981C10.9758 9.35314 10.9375 9.4065 10.8992 9.46488L6.55582 15.7091C6.49333 15.7989 6.41008 15.8722 6.31315 15.9229C6.21623 15.9735 6.1085 16 5.99915 16C5.8898 16 5.78208 15.9735 5.68515 15.9229C5.58822 15.8722 5.50497 15.7989 5.44249 15.7091L1.10915 9.46988C1.06749 9.41151 1.02749 9.3548 0.987487 9.3031L0.960819 9.26307C0.375272 8.35646 0.0448151 7.30864 0.00423336 6.22993C-0.0363483 5.15121 0.214448 4.0815 0.730221 3.1334C1.24599 2.18529 2.00766 1.39388 2.93505 0.842453C3.86244 0.29103 4.92124 0 5.99999 0C7.07874 0 8.13753 0.29103 9.06492 0.842453C9.99231 1.39388 10.754 2.18529 11.2697 3.1334C11.7855 4.0815 12.0363 5.15121 11.9957 6.22993C11.9552 7.30864 11.6247 8.35646 11.0392 9.26307L11.0425 9.25473ZM5.99915 3.50585C5.5047 3.50585 5.02135 3.65257 4.61023 3.92746C4.1991 4.20235 3.87867 4.59306 3.68945 5.05018C3.50023 5.50731 3.45073 6.01031 3.54719 6.49559C3.64365 6.98088 3.88175 7.42663 4.23139 7.7765C4.58102 8.12637 5.02647 8.36463 5.51143 8.46116C5.99638 8.55769 6.49904 8.50815 6.95586 8.3188C7.41268 8.12945 7.80312 7.80881 8.07783 7.3974C8.35253 6.986 8.49915 6.50233 8.49915 6.00754C8.49915 5.34405 8.23576 4.70773 7.76692 4.23857C7.29808 3.76942 6.66219 3.50585 5.99915 3.50585Z" fill="#5095EA"/>
</svg>
