<svg width="181" height="25" viewBox="0 0 181 25" fill="none" xmlns="http://www.w3.org/2000/svg">
<path d="M13.3043 24.3151H0V6.06164C0 4.37214 0.523703 3.0137 1.57111 1.9863C2.28424 1.30137 3.0865 0.856164 3.97791 0.650685C4.86932 0.445205 5.9613 0.342465 7.25384 0.342465H13.3043V3.35616H6.81928C4.3679 3.35616 3.14222 4.40639 3.14222 6.50685V10.411H10.864V13.4247H3.14222V21.3014H13.3043V24.3151Z" fill="black"/>
<path d="M33.1207 0.342465V11.8836C33.1207 14.9658 32.4299 17.6484 31.0482 19.9315C29.6665 22.1918 27.6163 23.8813 24.8975 25C22.201 23.9041 20.1507 22.2489 18.7467 20.0342C17.3428 17.8196 16.6408 15.2055 16.6408 12.1918V0.342465H19.8499V11.7808C19.8499 14.0639 20.2176 15.9817 20.953 17.5342C21.6884 19.0868 23.0144 20.3995 24.9309 21.4726C26.8029 20.3767 28.1065 19.0525 28.842 17.5C29.5997 15.9475 29.9785 14.0411 29.9785 11.7808V0.342465H33.1207Z" fill="black"/>
<path d="M39.9246 24.3151H36.9495V9.24658C36.9495 6.78082 37.7184 4.68037 39.256 2.94521C40.816 1.21005 42.8217 0.342465 45.273 0.342465H52.928V24.3151H49.7858V3.35616H45.273C43.6462 3.35616 42.3425 3.84703 41.362 4.82877C40.4037 5.8105 39.9246 7.37443 39.9246 9.52055V12.4315C41.1726 11.0845 42.9554 10.411 45.273 10.411H48.315V13.4247H45.273C43.9805 13.4247 42.922 13.5845 42.0974 13.9041C41.2951 14.2237 40.5709 14.7717 39.9246 15.5479V24.3151Z" fill="black"/>
<path d="M70.5578 21.3014V24.3151H65.6773C64.7636 24.3151 64.0394 24.3037 63.5045 24.2808C62.992 24.2352 62.3457 24.0982 61.5657 23.8699C60.7857 23.6187 60.1283 23.2534 59.5935 22.774C58.7689 21.9977 58.2341 21.0731 57.9889 20C57.7438 18.9041 57.6212 17.6256 57.6212 16.1644V0.342465H60.7635V16.0959C60.7635 17.4201 60.9083 18.4589 61.198 19.2123C61.7774 20.605 62.992 21.3014 64.8416 21.3014H70.5578Z" fill="black"/>
<path d="M86.9181 0.342465H90.0603V16.7808C90.0603 19.4977 89.3695 21.4954 87.9878 22.774C86.6284 24.0297 84.567 24.6575 81.8037 24.6575C79.0403 24.6575 76.9789 24.0297 75.6195 22.774C74.2601 21.4954 73.5804 19.4977 73.5804 16.7808V0.342465H76.7226V17.226C76.7226 18.7785 77.1795 19.9087 78.0932 20.6164C79.0292 21.3014 80.2548 21.6438 81.7702 21.6438C83.3302 21.6438 84.5782 21.3014 85.5142 20.6164C86.4501 19.9087 86.9181 18.7785 86.9181 17.226V0.342465Z" fill="black"/>
<path d="M123.93 24.3151H120.788V0.342465H129.045C131.808 0.342465 133.87 0.981735 135.229 2.26027C136.588 3.51598 137.268 5.50228 137.268 8.21918V24.3151H134.126V7.77397C134.126 6.22146 133.658 5.10274 132.722 4.41781C131.808 3.71005 130.594 3.35616 129.078 3.35616H123.93V24.3151Z" fill="black"/>
<path d="M160.063 12.4315C160.041 11.153 159.852 9.94292 159.495 8.80137C159.161 7.65982 158.66 6.66667 157.991 5.82192C157.345 4.95434 156.554 4.26941 155.618 3.76712C154.682 3.26484 153.623 3.0137 152.442 3.0137C151.261 3.0137 150.202 3.26484 149.266 3.76712C148.33 4.26941 147.528 4.95434 146.859 5.82192C146.213 6.66667 145.712 7.65982 145.355 8.80137C145.021 9.94292 144.843 11.153 144.82 12.4315C144.843 13.7329 145.021 14.9429 145.355 16.0616C145.712 17.1804 146.213 18.1507 146.859 18.9726C147.528 19.7945 148.33 20.4452 149.266 20.9247C150.202 21.4041 151.261 21.6438 152.442 21.6438C153.623 21.6438 154.682 21.4041 155.618 20.9247C156.554 20.4452 157.345 19.7945 157.991 18.9726C158.66 18.1507 159.161 17.1804 159.495 16.0616C159.852 14.9429 160.041 13.7329 160.063 12.4315ZM141.444 12.4315C141.466 10.5365 141.745 8.8242 142.28 7.29452C142.815 5.76484 143.561 4.46347 144.52 3.39041C145.478 2.29452 146.625 1.46119 147.963 0.890412C149.3 0.296804 150.793 0 152.442 0C154.069 0 155.551 0.296804 156.888 0.890412C158.247 1.46119 159.406 2.29452 160.364 3.39041C161.323 4.46347 162.069 5.76484 162.604 7.29452C163.139 8.8242 163.417 10.5365 163.44 12.4315C163.417 14.3265 163.139 16.0274 162.604 17.5342C162.091 19.0411 161.356 20.3196 160.398 21.3699C159.439 22.4201 158.281 23.2306 156.921 23.8014C155.584 24.3721 154.091 24.6575 152.442 24.6575C150.793 24.6575 149.289 24.3721 147.929 23.8014C146.592 23.2306 145.444 22.4201 144.486 21.3699C143.528 20.3196 142.781 19.0411 142.246 17.5342C141.734 16.0274 141.466 14.3265 141.444 12.4315Z" fill="black"/>
<path d="M166.292 3.35616V0.342465H181V3.35616H175.217V24.3151H172.075V3.35616H166.292Z" fill="black"/>
<path d="M113.06 19.6233V22.3972C111.077 23.9497 108.815 24.726 106.274 24.726C102.887 24.726 100.001 23.5388 97.6166 21.1644C95.2544 18.7671 94.0732 15.8447 94.0732 12.3972C94.0732 9.88582 94.6861 7.70545 95.9118 5.85613C97.1597 3.98399 98.7309 2.53422 100.625 1.50682C102.274 0.616409 104.102 0.171204 106.107 0.171204C107.89 0.171204 109.517 0.525085 110.988 1.23285C112.548 2.03193 113.874 3.20773 114.966 4.76025C116.058 6.28993 116.604 8.15066 116.604 10.3424C116.604 12.557 116.08 14.452 115.033 16.0274C114.007 17.6027 112.804 18.3904 111.422 18.3904C109.751 18.3904 108.915 17.2831 108.915 15.0685V13.4246C108.915 10.3881 107.823 8.86983 105.639 8.86983C104.659 8.86983 103.879 9.22372 103.299 9.93148C102.742 10.6164 102.464 11.4612 102.464 12.4657C102.464 13.4475 102.787 14.2465 103.433 14.863C104.079 15.4794 104.87 15.7876 105.806 15.7876C106.631 15.7876 107.355 15.5365 107.979 15.0342V17.7055C107.311 18.1621 106.497 18.3904 105.539 18.3904C103.934 18.3904 102.575 17.8424 101.461 16.7465C100.369 15.6507 99.8228 14.2009 99.8228 12.3972C99.8228 9.90865 100.893 8.09358 103.032 6.95202C103.834 6.4954 104.77 6.26709 105.84 6.26709C107.756 6.26709 109.249 6.99769 110.319 8.45888C111.144 9.5776 111.556 11.2671 111.556 13.5274V14.8972C111.556 15.3995 111.712 15.6507 112.024 15.6507C112.492 15.6507 112.927 15.137 113.328 14.1096C113.729 13.0822 113.929 11.9292 113.929 10.6507C113.929 7.54563 112.693 5.25111 110.219 3.76709H110.252C108.982 3.08216 107.511 2.7397 105.84 2.7397C104.258 2.7397 102.753 3.15066 101.327 3.97257C99.9677 4.79449 98.8534 5.95887 97.9843 7.46572C97.1375 8.97257 96.714 10.6621 96.714 12.5342C96.714 15.2968 97.6054 17.5913 99.3883 19.4178C101.171 21.2214 103.422 22.1233 106.141 22.1233C107.656 22.1233 108.893 21.9406 109.851 21.5753C110.809 21.1872 111.879 20.5365 113.06 19.6233Z" fill="#5095EA"/>
</svg>
