<svg width="18" height="21" viewBox="0 0 18 21" fill="none" xmlns="http://www.w3.org/2000/svg">
<path d="M2.59525 7.72866L4.34446 7.03319C4.23908 6.88567 4.17586 6.73815 4.11263 6.56955C4.04941 6.40095 4.00726 6.23235 3.98618 6.06375L2.19482 6.78029C2.3002 6.92782 2.3845 7.07534 2.4688 7.22287C2.51095 7.39146 2.5531 7.56006 2.59525 7.72866Z" fill="#FF862F"/>
<path d="M3.85991 3.91411C3.43842 2.8393 2.38468 2.27028 1.54168 2.60747C0.677617 2.94467 0.340419 4.08271 0.782991 5.15753C0.972664 5.6001 1.24664 5.95837 1.58383 6.21127L4.00744 5.24183C4.07066 4.82033 4.02851 4.35668 3.85991 3.91411Z" fill="#FF862F"/>
<path d="M5.7566 12.9974C5.63015 12.323 5.54586 11.6064 5.54586 10.8899C5.54586 9.98366 5.71445 9.14066 5.9252 8.42412C5.56693 8.08692 5.20866 7.81295 4.91361 7.6022L2.57431 8.55057C2.32141 9.66754 2.23711 11.48 2.93258 13.2292C3.29085 14.0932 3.71235 14.8519 4.19707 15.4842C4.21814 15.5263 4.26029 15.5474 4.28137 15.5896C4.49211 14.578 5.01898 13.6717 5.7566 12.9974Z" fill="#FF862F"/>
<path d="M13.9125 6.56955C13.8493 6.73815 13.765 6.88567 13.6807 7.03319L15.4299 7.72866C15.4509 7.56006 15.5142 7.39146 15.5774 7.22287C15.6406 7.05427 15.746 6.90674 15.8514 6.78029L14.06 6.06375C13.9968 6.23235 13.9757 6.40095 13.9125 6.56955Z" fill="#FF862F"/>
<path d="M16.4626 2.60747C15.6196 2.27027 14.5659 2.86037 14.1444 3.91411C13.9547 4.35668 13.9337 4.82033 13.9969 5.22075L16.4205 6.19019C16.7577 5.93729 17.0317 5.60009 17.2213 5.13645C17.6639 4.08271 17.3056 2.94467 16.4626 2.60747Z" fill="#FF862F"/>
<path d="M13.0907 7.62329C12.7746 7.83404 12.4163 8.10801 12.0791 8.44521C12.3109 9.16175 12.4584 9.98367 12.4584 10.911C12.4584 11.6275 12.3952 12.344 12.2477 13.0184C12.9853 13.6928 13.5122 14.5991 13.7019 15.6317C13.744 15.5896 13.7651 15.5685 13.7862 15.5263C14.2709 14.8941 14.7135 14.1354 15.0507 13.2713C15.7461 11.5221 15.6618 9.7097 15.4089 8.59273L13.0907 7.62329Z" fill="#FF862F"/>
<path d="M10.309 3.8509C10.5197 3.49262 10.6672 3.07113 10.6672 2.58641C10.6672 1.44837 9.92961 0.5 9.00231 0.5C8.07502 0.5 7.3374 1.42729 7.3374 2.58641C7.3374 3.07113 7.46385 3.5137 7.69567 3.8509H10.309Z" fill="#FF862F"/>
<path d="M9.00219 11.7329C9.92948 11.7329 10.8146 12.0069 11.5522 12.4705C11.6365 11.9647 11.6787 11.4589 11.6787 10.911C11.6787 9.01423 10.92 7.37039 10.2667 6.42203H7.7377C7.08438 7.37039 6.32568 9.01423 6.32568 10.911C6.32568 11.4589 6.36783 11.9858 6.45213 12.4705C7.18975 12.0069 8.07489 11.7329 9.00219 11.7329Z" fill="#FF862F"/>
<path d="M8.03271 4.60959C8.07486 4.77819 8.11701 4.94679 8.11701 5.11538C8.11701 5.28398 8.09594 5.45258 8.05379 5.62118H9.95052C9.90837 5.45258 9.8873 5.28398 9.8873 5.11538C9.8873 4.94679 9.92945 4.77819 9.9716 4.60959H8.03271Z" fill="#FF862F"/>
<path d="M9.00226 12.4916C6.78941 12.4916 4.99805 14.2829 4.99805 16.4958C4.99805 18.7086 6.78941 20.5 9.00226 20.5C11.2151 20.5 13.0065 18.7086 13.0065 16.4958C13.0065 14.2829 11.2151 12.4916 9.00226 12.4916ZM7.33735 16.0954C7.02123 16.1164 6.74726 15.8846 6.72618 15.5685C6.70511 15.2524 6.93693 14.9784 7.25305 14.9573C7.56917 14.9363 7.84315 15.1681 7.86422 15.4842C7.86422 15.7792 7.6324 16.0743 7.33735 16.0954ZM8.22249 14.2619C8.34894 13.9668 8.68614 13.8614 8.98119 13.9879C9.27623 14.1143 9.38161 14.4515 9.25516 14.7466C9.12871 15.0416 8.79151 15.147 8.49647 15.0206C8.22249 14.8941 8.09604 14.5358 8.22249 14.2619ZM9.23408 16.7487C8.98119 16.9384 8.62291 16.8751 8.43324 16.6012C8.24357 16.3483 8.30679 15.99 8.58077 15.8003C8.83366 15.6106 9.19194 15.6739 9.38161 15.9478C9.55021 16.2218 9.48698 16.559 9.23408 16.7487Z" fill="#FF862F"/>
</svg>
