<svg width="24" height="24" viewBox="0 0 20 20" fill="none" xmlns="http://www.w3.org/2000/svg">
<path fill-rule="evenodd" clip-rule="evenodd" d="M4.34311 1.51474C3.56206 0.733693 2.29573 0.733693 1.51468 1.51474C0.733632 2.29579 0.733632 3.56212 1.51468 4.34317L7.17154 10L1.51468 15.6569C0.733633 16.4379 0.733633 17.7043 1.51468 18.4853C2.29573 19.2664 3.56206 19.2664 4.34311 18.4853L9.99996 12.8285L15.6568 18.4853C16.4379 19.2664 17.7042 19.2664 18.4852 18.4853C19.2663 17.7043 19.2663 16.4379 18.4852 15.6569L12.8284 10L18.4852 4.34317C19.2663 3.56212 19.2663 2.29579 18.4852 1.51474C17.7042 0.733693 16.4379 0.733693 15.6568 1.51474L9.99996 7.1716L4.34311 1.51474Z" fill="#DE6D1B"/>
</svg>
