<svg width="24" height="24" viewBox="0 0 24 18" fill="none" xmlns="http://www.w3.org/2000/svg">
<path fill-rule="evenodd" clip-rule="evenodd" d="M0 2C0 0.895431 0.895431 0 2 0H22C23.1046 0 24 0.895431 24 2C24 3.10457 23.1046 4 22 4H2C0.89543 4 0 3.10457 0 2ZM0 16C0 14.8954 0.895431 14 2 14H22C23.1046 14 24 14.8954 24 16C24 17.1046 23.1046 18 22 18H2C0.89543 18 0 17.1046 0 16ZM2 7C0.895431 7 0 7.89543 0 9C0 10.1046 0.89543 11 2 11H22C23.1046 11 24 10.1046 24 9C24 7.89543 23.1046 7 22 7H2Z" fill="#DE6D1B"/>
</svg>
