<svg width="40" height="40" viewBox="0 0 40 40" fill="none" xmlns="http://www.w3.org/2000/svg">
<circle cx="20" cy="20" r="20" fill="white"/>
<path fill-rule="evenodd" clip-rule="evenodd" d="M8 13C8 11.8954 8.89543 11 10 11H30C31.1046 11 32 11.8954 32 13C32 14.1046 31.1046 15 30 15H10C8.89543 15 8 14.1046 8 13ZM8 27C8 25.8954 8.89543 25 10 25H30C31.1046 25 32 25.8954 32 27C32 28.1046 31.1046 29 30 29H10C8.89543 29 8 28.1046 8 27ZM10 18C8.89543 18 8 18.8954 8 20C8 21.1046 8.89543 22 10 22H30C31.1046 22 32 21.1046 32 20C32 18.8954 31.1046 18 30 18H10Z" fill="#DE6D1B"/>
</svg>
