<svg width="24" height="22" viewBox="0 0 24 22" fill="none" xmlns="http://www.w3.org/2000/svg">
<path d="M19.1331 3.5H17.5296L16.7537 2.35333C16.4721 1.93671 16.0903 1.59513 15.6422 1.35901C15.1942 1.12289 14.6938 0.999562 14.1856 1H9.81438C9.30621 0.999562 8.80582 1.12289 8.35776 1.35901C7.9097 1.59513 7.52788 1.93671 7.24631 2.35333L6.47038 3.5H4.86692C3.8417 3.5011 2.85878 3.90269 2.13383 4.61665C1.40889 5.33062 1.00112 6.29864 1 7.30833V17.1917C1.00112 18.2014 1.40889 19.1694 2.13383 19.8833C2.85878 20.5973 3.8417 20.9989 4.86692 21H19.1331C20.1583 20.9989 21.1412 20.5973 21.8662 19.8833C22.5911 19.1694 22.9989 18.2014 23 17.1917V7.30833C22.9989 6.29864 22.5911 5.33062 21.8662 4.61665C21.1412 3.90269 20.1583 3.5011 19.1331 3.5ZM12 16.8333C10.9959 16.8333 10.0143 16.5401 9.17941 15.9907C8.34452 15.4413 7.6938 14.6604 7.30954 13.7467C6.92527 12.8331 6.82473 11.8278 7.02063 10.8579C7.21652 9.88798 7.70005 8.99706 8.41007 8.2978C9.12009 7.59854 10.0247 7.12233 11.0095 6.92941C11.9944 6.73648 13.0152 6.8355 13.9429 7.21394C14.8705 7.59237 15.6634 8.23324 16.2213 9.05548C16.7792 9.87773 17.0769 10.8444 17.0769 11.8333C17.0756 13.159 16.5403 14.43 15.5884 15.3674C14.6366 16.3048 13.3461 16.832 12 16.8333Z" fill="white"/>
</svg>
