<svg width="24" height="24" viewBox="0 0 24 24" fill="none" xmlns="http://www.w3.org/2000/svg">
<path fill-rule="evenodd" clip-rule="evenodd" d="M23.7829 2.84172C24.0724 3.13204 24.0724 3.60214 23.7829 3.89157L4.49275 23.1818C4.29141 23.3832 4.03164 23.5162 3.7503 23.562L1.14903 23.9872C0.836234 24.0384 0.514447 23.9341 0.289735 23.7103C0.0650225 23.4856 -0.0383447 23.1647 0.0128896 22.8501L0.438045 20.2489C0.483886 19.9675 0.617815 19.7077 0.818258 19.5073L20.1084 0.217072C20.3979 -0.0723575 20.868 -0.0723575 21.1583 0.217072L23.7829 2.84172ZM22.4706 3.27946L20.7206 1.52939C20.672 1.48176 20.5938 1.48176 20.5453 1.52939L19.4082 2.66734L21.3327 4.59178L22.4706 3.45473C22.5191 3.40619 22.5191 3.32799 22.4706 3.27946Z" fill="white"/>
</svg>
