<svg width="24" height="25" viewBox="0 0 24 25" fill="none" xmlns="http://www.w3.org/2000/svg">
<path fill-rule="evenodd" clip-rule="evenodd" d="M5.51553 16.6356V11.8799L11.1018 14.1794C11.3892 14.2962 11.6945 14.2943 11.9814 14.1773L17.709 11.8203V16.6356C17.7081 16.7114 17.693 16.7887 17.6612 16.8629C17.6584 16.8702 16.5647 19.4715 11.6674 19.8488C11.6354 19.8519 11.6021 19.8524 11.5689 19.8498C7.11568 19.5106 5.80173 17.3335 5.59444 16.9281C5.54427 16.8419 5.51553 16.742 5.51553 16.6356ZM2.35856 8.87978L11.3202 5.19209C11.4672 5.13179 11.6245 5.13627 11.7609 5.19209L20.7223 8.87978C21.0832 9.02818 21.1946 9.48304 20.9529 9.78173V15.335L21.9119 16.8702C22.154 17.2596 21.8669 17.7592 21.4186 17.7578L19.3233 17.7592C18.8461 17.7592 18.5797 17.2191 18.8489 16.84L19.7888 15.3355V10.3372L11.7609 13.6407C11.6139 13.701 11.4566 13.6965 11.3202 13.6407L2.35856 9.95322C1.87543 9.75488 1.88556 9.07411 2.35856 8.87978Z" fill="#FF862F"/>
</svg>
