<svg width="432" height="288" viewBox="0 0 432 288" fill="none" xmlns="http://www.w3.org/2000/svg">
<g filter="url(#filter0_d)">
<rect x="10" y="10" width="392" height="248" fill="white"/>
</g>
<path d="M31.8291 37.5566H27.7412V40.6191H32.5195V42H26.0117V32.0469H32.4717V33.4414H27.7412V36.1895H31.8291V37.5566ZM36.1973 39.8945L37.7627 34.6035H39.4785L36.915 42H35.4727L32.8887 34.6035H34.6113L36.1973 39.8945ZM40.1006 38.2334C40.1006 37.5088 40.2441 36.8571 40.5312 36.2783C40.8184 35.695 41.2217 35.2484 41.7412 34.9385C42.2607 34.624 42.8577 34.4668 43.5322 34.4668C44.5303 34.4668 45.3392 34.7881 45.959 35.4307C46.5833 36.0732 46.9206 36.9255 46.9707 37.9873L46.9775 38.377C46.9775 39.1061 46.8363 39.7578 46.5537 40.332C46.2757 40.9062 45.8747 41.3506 45.3506 41.665C44.8311 41.9795 44.2295 42.1367 43.5459 42.1367C42.5023 42.1367 41.666 41.7904 41.0371 41.0977C40.4128 40.4004 40.1006 39.473 40.1006 38.3154V38.2334ZM41.7617 38.377C41.7617 39.138 41.9189 39.735 42.2334 40.168C42.5479 40.5964 42.9854 40.8105 43.5459 40.8105C44.1064 40.8105 44.5417 40.5918 44.8516 40.1543C45.166 39.7168 45.3232 39.0765 45.3232 38.2334C45.3232 37.486 45.1615 36.8936 44.8379 36.4561C44.5189 36.0186 44.0837 35.7998 43.5322 35.7998C42.9899 35.7998 42.5592 36.0163 42.2402 36.4492C41.9212 36.8776 41.7617 37.5202 41.7617 38.377ZM50.1494 42H48.4883V31.5H50.1494V42ZM56.4453 41.2754C55.9577 41.8496 55.265 42.1367 54.3672 42.1367C53.5651 42.1367 52.9567 41.902 52.542 41.4326C52.1318 40.9632 51.9268 40.2842 51.9268 39.3955V34.6035H53.5879V39.375C53.5879 40.3138 53.9775 40.7832 54.7568 40.7832C55.5635 40.7832 56.1081 40.4938 56.3906 39.915V34.6035H58.0518V42H56.4863L56.4453 41.2754ZM61.8252 32.8057V34.6035H63.1309V35.834H61.8252V39.9629C61.8252 40.2454 61.8799 40.4505 61.9893 40.5781C62.1032 40.7012 62.3037 40.7627 62.5908 40.7627C62.7822 40.7627 62.9759 40.7399 63.1719 40.6943V41.9795C62.7936 42.0843 62.429 42.1367 62.0781 42.1367C60.8021 42.1367 60.1641 41.4326 60.1641 40.0244V35.834H58.9473V34.6035H60.1641V32.8057H61.8252ZM66.1729 42H64.5117V34.6035H66.1729V42ZM64.4092 32.6826C64.4092 32.4274 64.4889 32.2155 64.6484 32.0469C64.8125 31.8783 65.0449 31.7939 65.3457 31.7939C65.6465 31.7939 65.8789 31.8783 66.043 32.0469C66.207 32.2155 66.2891 32.4274 66.2891 32.6826C66.2891 32.9333 66.207 33.1429 66.043 33.3115C65.8789 33.4756 65.6465 33.5576 65.3457 33.5576C65.0449 33.5576 64.8125 33.4756 64.6484 33.3115C64.4889 33.1429 64.4092 32.9333 64.4092 32.6826ZM67.6768 38.2334C67.6768 37.5088 67.8203 36.8571 68.1074 36.2783C68.3945 35.695 68.7979 35.2484 69.3174 34.9385C69.8369 34.624 70.4339 34.4668 71.1084 34.4668C72.1064 34.4668 72.9154 34.7881 73.5352 35.4307C74.1595 36.0732 74.4967 36.9255 74.5469 37.9873L74.5537 38.377C74.5537 39.1061 74.4124 39.7578 74.1299 40.332C73.8519 40.9062 73.4508 41.3506 72.9268 41.665C72.4072 41.9795 71.8057 42.1367 71.1221 42.1367C70.0785 42.1367 69.2422 41.7904 68.6133 41.0977C67.9889 40.4004 67.6768 39.473 67.6768 38.3154V38.2334ZM69.3379 38.377C69.3379 39.138 69.4951 39.735 69.8096 40.168C70.124 40.5964 70.5615 40.8105 71.1221 40.8105C71.6826 40.8105 72.1178 40.5918 72.4277 40.1543C72.7422 39.7168 72.8994 39.0765 72.8994 38.2334C72.8994 37.486 72.7376 36.8936 72.4141 36.4561C72.0951 36.0186 71.6598 35.7998 71.1084 35.7998C70.5661 35.7998 70.1354 36.0163 69.8164 36.4492C69.4974 36.8776 69.3379 37.5202 69.3379 38.377ZM77.5 34.6035L77.5479 35.458C78.0947 34.7972 78.8125 34.4668 79.7012 34.4668C81.2415 34.4668 82.0254 35.3486 82.0527 37.1123V42H80.3916V37.208C80.3916 36.7386 80.2891 36.3923 80.084 36.1689C79.8835 35.9411 79.5531 35.8271 79.0928 35.8271C78.4229 35.8271 77.9238 36.1302 77.5957 36.7363V42H75.9346V34.6035H77.5ZM86.9268 38.2471C86.9268 37.1077 87.1911 36.194 87.7197 35.5059C88.2484 34.8132 88.957 34.4668 89.8457 34.4668C90.6296 34.4668 91.263 34.7402 91.7461 35.2871V31.5H93.4072V42H91.9033L91.8213 41.2344C91.3245 41.8359 90.6615 42.1367 89.832 42.1367C88.9661 42.1367 88.2643 41.7881 87.7266 41.0908C87.1934 40.3936 86.9268 39.4456 86.9268 38.2471ZM88.5879 38.3906C88.5879 39.1426 88.7314 39.7305 89.0186 40.1543C89.3102 40.5736 89.7227 40.7832 90.2559 40.7832C90.9349 40.7832 91.4316 40.4801 91.7461 39.874V36.7158C91.4408 36.1234 90.9486 35.8271 90.2695 35.8271C89.7318 35.8271 89.3171 36.0413 89.0254 36.4697C88.7337 36.8936 88.5879 37.5339 88.5879 38.3906ZM98.3975 42.1367C97.3447 42.1367 96.4902 41.8063 95.834 41.1455C95.1823 40.4801 94.8564 39.596 94.8564 38.4932V38.2881C94.8564 37.5498 94.9977 36.8913 95.2803 36.3125C95.5674 35.7292 95.9684 35.2757 96.4834 34.9521C96.9984 34.6286 97.5726 34.4668 98.2061 34.4668C99.2132 34.4668 99.9902 34.7881 100.537 35.4307C101.089 36.0732 101.364 36.9824 101.364 38.1582V38.8281H96.5312C96.5814 39.4388 96.7842 39.9219 97.1396 40.2773C97.4997 40.6328 97.9508 40.8105 98.4932 40.8105C99.2542 40.8105 99.874 40.5029 100.353 39.8877L101.248 40.7422C100.952 41.1842 100.555 41.5283 100.059 41.7744C99.5664 42.016 99.0127 42.1367 98.3975 42.1367ZM98.1992 35.7998C97.7435 35.7998 97.3743 35.9593 97.0918 36.2783C96.8138 36.5973 96.6361 37.0417 96.5586 37.6113H99.7236V37.4883C99.6872 36.9323 99.5391 36.513 99.2793 36.2305C99.0195 35.9434 98.6595 35.7998 98.1992 35.7998ZM106.806 39.9902C106.806 39.694 106.683 39.4684 106.437 39.3135C106.195 39.1585 105.792 39.0218 105.227 38.9033C104.661 38.7848 104.19 38.6344 103.812 38.4521C102.982 38.0511 102.567 37.4701 102.567 36.709C102.567 36.071 102.836 35.5378 103.374 35.1094C103.912 34.681 104.595 34.4668 105.425 34.4668C106.309 34.4668 107.022 34.6855 107.564 35.123C108.111 35.5605 108.385 36.1279 108.385 36.8252H106.724C106.724 36.5062 106.605 36.2419 106.368 36.0322C106.131 35.818 105.817 35.7109 105.425 35.7109C105.06 35.7109 104.762 35.7952 104.529 35.9639C104.301 36.1325 104.188 36.3581 104.188 36.6406C104.188 36.8958 104.295 37.0941 104.509 37.2354C104.723 37.3766 105.156 37.5202 105.808 37.666C106.459 37.8073 106.97 37.9782 107.339 38.1787C107.713 38.3747 107.988 38.6117 108.166 38.8896C108.348 39.1676 108.439 39.5049 108.439 39.9014C108.439 40.5667 108.164 41.1068 107.612 41.5215C107.061 41.9316 106.339 42.1367 105.445 42.1367C104.839 42.1367 104.299 42.0273 103.825 41.8086C103.351 41.5898 102.982 41.2891 102.718 40.9062C102.453 40.5234 102.321 40.111 102.321 39.6689H103.935C103.957 40.0609 104.105 40.3639 104.379 40.5781C104.652 40.7878 105.015 40.8926 105.466 40.8926C105.903 40.8926 106.236 40.8105 106.464 40.6465C106.692 40.4779 106.806 40.2591 106.806 39.9902ZM119.855 38.377C119.855 39.5208 119.596 40.4346 119.076 41.1182C118.557 41.7972 117.859 42.1367 116.984 42.1367C116.173 42.1367 115.524 41.8701 115.036 41.3369V44.8438H113.375V34.6035H114.906L114.975 35.3555C115.462 34.763 116.125 34.4668 116.964 34.4668C117.866 34.4668 118.573 34.804 119.083 35.4785C119.598 36.1484 119.855 37.0804 119.855 38.2744V38.377ZM118.201 38.2334C118.201 37.4951 118.053 36.9095 117.757 36.4766C117.465 36.0436 117.046 35.8271 116.499 35.8271C115.82 35.8271 115.332 36.1074 115.036 36.668V39.9492C115.337 40.5234 115.829 40.8105 116.513 40.8105C117.041 40.8105 117.454 40.5986 117.75 40.1748C118.051 39.7464 118.201 39.0993 118.201 38.2334ZM125.14 36.1211C124.921 36.0846 124.695 36.0664 124.463 36.0664C123.702 36.0664 123.189 36.3581 122.925 36.9414V42H121.264V34.6035H122.85L122.891 35.4307C123.292 34.7881 123.848 34.4668 124.559 34.4668C124.796 34.4668 124.992 34.4987 125.146 34.5625L125.14 36.1211ZM127.956 42H126.295V34.6035H127.956V42ZM126.192 32.6826C126.192 32.4274 126.272 32.2155 126.432 32.0469C126.596 31.8783 126.828 31.7939 127.129 31.7939C127.43 31.7939 127.662 31.8783 127.826 32.0469C127.99 32.2155 128.072 32.4274 128.072 32.6826C128.072 32.9333 127.99 33.1429 127.826 33.3115C127.662 33.4756 127.43 33.5576 127.129 33.5576C126.828 33.5576 126.596 33.4756 126.432 33.3115C126.272 33.1429 126.192 32.9333 126.192 32.6826ZM132.427 37.0371L133.835 34.6035H135.681L133.418 38.2471L135.756 42H133.924L132.447 39.4707L130.978 42H129.132L131.47 38.2471L129.214 34.6035H131.046L132.427 37.0371ZM144.718 42C144.645 41.8587 144.581 41.6286 144.526 41.3096C143.998 41.861 143.351 42.1367 142.585 42.1367C141.842 42.1367 141.236 41.9248 140.767 41.501C140.297 41.0771 140.062 40.5531 140.062 39.9287C140.062 39.1403 140.354 38.5365 140.938 38.1172C141.525 37.6934 142.364 37.4814 143.453 37.4814H144.472V36.9961C144.472 36.6133 144.365 36.3079 144.15 36.0801C143.936 35.8477 143.61 35.7314 143.173 35.7314C142.795 35.7314 142.485 35.8271 142.243 36.0186C142.002 36.2054 141.881 36.4447 141.881 36.7363H140.22C140.22 36.3307 140.354 35.9525 140.623 35.6016C140.892 35.2461 141.257 34.9681 141.717 34.7676C142.182 34.5671 142.699 34.4668 143.269 34.4668C144.134 34.4668 144.825 34.6855 145.34 35.123C145.855 35.556 146.119 36.1667 146.133 36.9551V40.291C146.133 40.9564 146.226 41.4873 146.413 41.8838V42H144.718ZM142.893 40.8037C143.221 40.8037 143.528 40.724 143.815 40.5645C144.107 40.4049 144.326 40.1908 144.472 39.9219V38.5273H143.576C142.961 38.5273 142.498 38.6344 142.188 38.8486C141.879 39.0628 141.724 39.3659 141.724 39.7578C141.724 40.0768 141.828 40.332 142.038 40.5234C142.252 40.7103 142.537 40.8037 142.893 40.8037ZM144.191 33.5713H142.811L140.965 31.5H142.858L144.191 33.5713ZM153.126 42H151.465V31.5H153.126V42ZM155.286 35L154.438 34.4736C154.849 33.8766 155.061 33.2454 155.074 32.5801V31.5H156.53V32.4434C156.53 32.9128 156.41 33.3867 156.168 33.8652C155.931 34.3392 155.637 34.7174 155.286 35ZM162.054 42C161.981 41.8587 161.917 41.6286 161.862 41.3096C161.334 41.861 160.687 42.1367 159.921 42.1367C159.178 42.1367 158.572 41.9248 158.103 41.501C157.633 41.0771 157.398 40.5531 157.398 39.9287C157.398 39.1403 157.69 38.5365 158.273 38.1172C158.861 37.6934 159.7 37.4814 160.789 37.4814H161.808V36.9961C161.808 36.6133 161.701 36.3079 161.486 36.0801C161.272 35.8477 160.946 35.7314 160.509 35.7314C160.131 35.7314 159.821 35.8271 159.579 36.0186C159.338 36.2054 159.217 36.4447 159.217 36.7363H157.556C157.556 36.3307 157.69 35.9525 157.959 35.6016C158.228 35.2461 158.592 34.9681 159.053 34.7676C159.518 34.5671 160.035 34.4668 160.604 34.4668C161.47 34.4668 162.161 34.6855 162.676 35.123C163.191 35.556 163.455 36.1667 163.469 36.9551V40.291C163.469 40.9564 163.562 41.4873 163.749 41.8838V42H162.054ZM160.229 40.8037C160.557 40.8037 160.864 40.724 161.151 40.5645C161.443 40.4049 161.662 40.1908 161.808 39.9219V38.5273H160.912C160.297 38.5273 159.834 38.6344 159.524 38.8486C159.215 39.0628 159.06 39.3659 159.06 39.7578C159.06 40.0768 159.164 40.332 159.374 40.5234C159.588 40.7103 159.873 40.8037 160.229 40.8037ZM168.247 40.8105C168.662 40.8105 169.006 40.6898 169.279 40.4482C169.553 40.2067 169.699 39.9082 169.717 39.5527H171.282C171.264 40.013 171.12 40.4437 170.852 40.8447C170.583 41.2412 170.218 41.5557 169.758 41.7881C169.298 42.0205 168.801 42.1367 168.268 42.1367C167.233 42.1367 166.413 41.8018 165.807 41.1318C165.201 40.4619 164.897 39.5368 164.897 38.3564V38.1855C164.897 37.0599 165.198 36.1598 165.8 35.4854C166.401 34.8063 167.222 34.4668 168.261 34.4668C169.14 34.4668 169.856 34.7243 170.407 35.2393C170.963 35.7497 171.255 36.4219 171.282 37.2559H169.717C169.699 36.832 169.553 36.4834 169.279 36.21C169.01 35.9365 168.666 35.7998 168.247 35.7998C167.709 35.7998 167.295 35.9958 167.003 36.3877C166.711 36.7751 166.563 37.3652 166.559 38.1582V38.4248C166.559 39.2269 166.702 39.8262 166.989 40.2227C167.281 40.6146 167.7 40.8105 168.247 40.8105ZM174.174 35.4102C174.716 34.7812 175.402 34.4668 176.231 34.4668C177.808 34.4668 178.608 35.3669 178.631 37.167V42H176.97V37.2285C176.97 36.7181 176.858 36.3581 176.635 36.1484C176.416 35.9342 176.092 35.8271 175.664 35.8271C174.999 35.8271 174.502 36.1234 174.174 36.7158V42H172.513V31.5H174.174V35.4102ZM184.735 42C184.662 41.8587 184.599 41.6286 184.544 41.3096C184.015 41.861 183.368 42.1367 182.603 42.1367C181.86 42.1367 181.254 41.9248 180.784 41.501C180.315 41.0771 180.08 40.5531 180.08 39.9287C180.08 39.1403 180.372 38.5365 180.955 38.1172C181.543 37.6934 182.382 37.4814 183.471 37.4814H184.489V36.9961C184.489 36.6133 184.382 36.3079 184.168 36.0801C183.954 35.8477 183.628 35.7314 183.19 35.7314C182.812 35.7314 182.502 35.8271 182.261 36.0186C182.019 36.2054 181.898 36.4447 181.898 36.7363H180.237C180.237 36.3307 180.372 35.9525 180.641 35.6016C180.91 35.2461 181.274 34.9681 181.734 34.7676C182.199 34.5671 182.716 34.4668 183.286 34.4668C184.152 34.4668 184.842 34.6855 185.357 35.123C185.872 35.556 186.137 36.1667 186.15 36.9551V40.291C186.15 40.9564 186.244 41.4873 186.431 41.8838V42H184.735ZM182.91 40.8037C183.238 40.8037 183.546 40.724 183.833 40.5645C184.125 40.4049 184.343 40.1908 184.489 39.9219V38.5273H183.594C182.979 38.5273 182.516 38.6344 182.206 38.8486C181.896 39.0628 181.741 39.3659 181.741 39.7578C181.741 40.0768 181.846 40.332 182.056 40.5234C182.27 40.7103 182.555 40.8037 182.91 40.8037ZM189.972 32.8057V34.6035H191.277V35.834H189.972V39.9629C189.972 40.2454 190.026 40.4505 190.136 40.5781C190.25 40.7012 190.45 40.7627 190.737 40.7627C190.929 40.7627 191.122 40.7399 191.318 40.6943V41.9795C190.94 42.0843 190.576 42.1367 190.225 42.1367C188.949 42.1367 188.311 41.4326 188.311 40.0244V35.834H187.094V34.6035H188.311V32.8057H189.972Z" fill="black"/>
<rect width="168" height="160" transform="translate(26 74)" fill="#F5F7FA"/>
<rect x="26" y="74" width="168" height="160" rx="8" fill="#F5F7FA"/>
<path d="M26 82C26 77.5817 29.5817 74 34 74H186C190.418 74 194 77.5817 194 82V114H26V82Z" fill="#EEF0F3"/>
<path d="M46.6836 95.6094H42.8105L41.9316 98H41.1758L44.4043 89.4688H45.0898L48.3184 98H47.5684L46.6836 95.6094ZM43.0332 94.9941H46.4551L44.7441 90.3477L43.0332 94.9941ZM51.7578 97.5254C52.2461 97.5254 52.6543 97.3887 52.9824 97.1152C53.3145 96.8379 53.4941 96.4805 53.5215 96.043H54.1953C54.1758 96.4297 54.0547 96.7832 53.832 97.1035C53.6094 97.4199 53.3125 97.668 52.9414 97.8477C52.5742 98.0273 52.1797 98.1172 51.7578 98.1172C50.9258 98.1172 50.2656 97.8281 49.7773 97.25C49.293 96.6719 49.0508 95.8945 49.0508 94.918V94.707C49.0508 94.082 49.1602 93.5293 49.3789 93.0488C49.5977 92.5684 49.9102 92.1973 50.3164 91.9355C50.7266 91.6738 51.2051 91.543 51.752 91.543C52.4473 91.543 53.0195 91.75 53.4688 92.1641C53.9219 92.5781 54.1641 93.123 54.1953 93.7988H53.5215C53.4902 93.3027 53.3105 92.9023 52.9824 92.5977C52.6582 92.293 52.248 92.1406 51.752 92.1406C51.1191 92.1406 50.627 92.3691 50.2754 92.8262C49.9277 93.2832 49.7539 93.9238 49.7539 94.748V94.9531C49.7539 95.7617 49.9277 96.3926 50.2754 96.8457C50.627 97.2988 51.1211 97.5254 51.7578 97.5254ZM56.2988 92.7324C56.5293 92.3535 56.8242 92.0605 57.1836 91.8535C57.543 91.6465 57.9355 91.543 58.3613 91.543C59.041 91.543 59.5469 91.7344 59.8789 92.1172C60.2109 92.5 60.3789 93.0742 60.3828 93.8398V98H59.6855V93.834C59.6816 93.2676 59.5605 92.8457 59.3223 92.5684C59.0879 92.291 58.7109 92.1523 58.1914 92.1523C57.7578 92.1523 57.373 92.2891 57.0371 92.5625C56.7051 92.832 56.459 93.1973 56.2988 93.6582V98H55.6016V89H56.2988V92.7324ZM66.1895 98C66.1191 97.8008 66.0742 97.5059 66.0547 97.1152C65.8086 97.4355 65.4941 97.6836 65.1113 97.8594C64.7324 98.0312 64.3301 98.1172 63.9043 98.1172C63.2949 98.1172 62.8008 97.9473 62.4219 97.6074C62.0469 97.2676 61.8594 96.8379 61.8594 96.3184C61.8594 95.7012 62.1152 95.2129 62.627 94.8535C63.1426 94.4941 63.8594 94.3145 64.7773 94.3145H66.0488V93.5938C66.0488 93.1406 65.9082 92.7852 65.627 92.5273C65.3496 92.2656 64.9434 92.1348 64.4082 92.1348C63.9199 92.1348 63.5156 92.2598 63.1953 92.5098C62.875 92.7598 62.7148 93.0605 62.7148 93.4121L62.0117 93.4062C62.0117 92.9023 62.2461 92.4668 62.7148 92.0996C63.1836 91.7285 63.7598 91.543 64.4434 91.543C65.1504 91.543 65.707 91.7207 66.1133 92.0762C66.5234 92.4277 66.7344 92.9199 66.7461 93.5527V96.5527C66.7461 97.166 66.8105 97.625 66.9395 97.9297V98H66.1895ZM63.9863 97.4961C64.4551 97.4961 64.873 97.3828 65.2402 97.1562C65.6113 96.9297 65.8809 96.627 66.0488 96.248V94.8535H64.7949C64.0957 94.8613 63.5488 94.9902 63.1543 95.2402C62.7598 95.4863 62.5625 95.8262 62.5625 96.2598C62.5625 96.6152 62.6934 96.9102 62.9551 97.1445C63.2207 97.3789 63.5645 97.4961 63.9863 97.4961ZM69.7109 90.0371V91.6602H71.0234V92.2344H69.7109V96.459C69.7109 96.8105 69.7734 97.0723 69.8984 97.2441C70.0273 97.416 70.2402 97.502 70.5371 97.502C70.6543 97.502 70.8438 97.4824 71.1055 97.4434L71.1348 98.0176C70.9512 98.084 70.7012 98.1172 70.3848 98.1172C69.9043 98.1172 69.5547 97.9785 69.3359 97.7012C69.1172 97.4199 69.0078 97.0078 69.0078 96.4648V92.2344H67.8418V91.6602H69.0078V90.0371H69.7109ZM79.3965 98C79.3262 97.8008 79.2812 97.5059 79.2617 97.1152C79.0156 97.4355 78.7012 97.6836 78.3184 97.8594C77.9395 98.0312 77.5371 98.1172 77.1113 98.1172C76.502 98.1172 76.0078 97.9473 75.6289 97.6074C75.2539 97.2676 75.0664 96.8379 75.0664 96.3184C75.0664 95.7012 75.3223 95.2129 75.834 94.8535C76.3496 94.4941 77.0664 94.3145 77.9844 94.3145H79.2559V93.5938C79.2559 93.1406 79.1152 92.7852 78.834 92.5273C78.5566 92.2656 78.1504 92.1348 77.6152 92.1348C77.127 92.1348 76.7227 92.2598 76.4023 92.5098C76.082 92.7598 75.9219 93.0605 75.9219 93.4121L75.2188 93.4062C75.2188 92.9023 75.4531 92.4668 75.9219 92.0996C76.3906 91.7285 76.9668 91.543 77.6504 91.543C78.3574 91.543 78.9141 91.7207 79.3203 92.0762C79.7305 92.4277 79.9414 92.9199 79.9531 93.5527V96.5527C79.9531 97.166 80.0176 97.625 80.1465 97.9297V98H79.3965ZM77.1934 97.4961C77.6621 97.4961 78.0801 97.3828 78.4473 97.1562C78.8184 96.9297 79.0879 96.627 79.2559 96.248V94.8535H78.002C77.3027 94.8613 76.7559 94.9902 76.3613 95.2402C75.9668 95.4863 75.7695 95.8262 75.7695 96.2598C75.7695 96.6152 75.9004 96.9102 76.1621 97.1445C76.4277 97.3789 76.7715 97.4961 77.1934 97.4961ZM86.9258 94.8945C86.9258 95.8828 86.707 96.668 86.2695 97.25C85.832 97.8281 85.2461 98.1172 84.5117 98.1172C83.6445 98.1172 82.9805 97.8125 82.5195 97.2031V100.438H81.8223V91.6602H82.4727L82.5078 92.5566C82.9648 91.8809 83.627 91.543 84.4941 91.543C85.252 91.543 85.8457 91.8301 86.2754 92.4043C86.709 92.9785 86.9258 93.7754 86.9258 94.7949V94.8945ZM86.2227 94.7715C86.2227 93.9629 86.0566 93.3242 85.7246 92.8555C85.3926 92.3867 84.9297 92.1523 84.3359 92.1523C83.9062 92.1523 83.5371 92.2559 83.2285 92.4629C82.9199 92.6699 82.6836 92.9707 82.5195 93.3652V96.4062C82.6875 96.7695 82.9277 97.0469 83.2402 97.2383C83.5527 97.4297 83.9219 97.5254 84.3477 97.5254C84.9375 97.5254 85.3965 97.291 85.7246 96.8223C86.0566 96.3496 86.2227 95.666 86.2227 94.7715ZM93.582 94.8945C93.582 95.8828 93.3633 96.668 92.9258 97.25C92.4883 97.8281 91.9023 98.1172 91.168 98.1172C90.3008 98.1172 89.6367 97.8125 89.1758 97.2031V100.438H88.4785V91.6602H89.1289L89.1641 92.5566C89.6211 91.8809 90.2832 91.543 91.1504 91.543C91.9082 91.543 92.502 91.8301 92.9316 92.4043C93.3652 92.9785 93.582 93.7754 93.582 94.7949V94.8945ZM92.8789 94.7715C92.8789 93.9629 92.7129 93.3242 92.3809 92.8555C92.0488 92.3867 91.5859 92.1523 90.9922 92.1523C90.5625 92.1523 90.1934 92.2559 89.8848 92.4629C89.5762 92.6699 89.3398 92.9707 89.1758 93.3652V96.4062C89.3438 96.7695 89.584 97.0469 89.8965 97.2383C90.209 97.4297 90.5781 97.5254 91.0039 97.5254C91.5938 97.5254 92.0527 97.291 92.3809 96.8223C92.7129 96.3496 92.8789 95.666 92.8789 94.7715ZM99.1426 98C99.0723 97.8008 99.0273 97.5059 99.0078 97.1152C98.7617 97.4355 98.4473 97.6836 98.0645 97.8594C97.6855 98.0312 97.2832 98.1172 96.8574 98.1172C96.248 98.1172 95.7539 97.9473 95.375 97.6074C95 97.2676 94.8125 96.8379 94.8125 96.3184C94.8125 95.7012 95.0684 95.2129 95.5801 94.8535C96.0957 94.4941 96.8125 94.3145 97.7305 94.3145H99.002V93.5938C99.002 93.1406 98.8613 92.7852 98.5801 92.5273C98.3027 92.2656 97.8965 92.1348 97.3613 92.1348C96.873 92.1348 96.4688 92.2598 96.1484 92.5098C95.8281 92.7598 95.668 93.0605 95.668 93.4121L94.9648 93.4062C94.9648 92.9023 95.1992 92.4668 95.668 92.0996C96.1367 91.7285 96.7129 91.543 97.3965 91.543C98.1035 91.543 98.6602 91.7207 99.0664 92.0762C99.4766 92.4277 99.6875 92.9199 99.6992 93.5527V96.5527C99.6992 97.166 99.7637 97.625 99.8926 97.9297V98H99.1426ZM96.9395 97.4961C97.4082 97.4961 97.8262 97.3828 98.1934 97.1562C98.5645 96.9297 98.834 96.627 99.002 96.248V94.8535H97.748C97.0488 94.8613 96.502 94.9902 96.1074 95.2402C95.7129 95.4863 95.5156 95.8262 95.5156 96.2598C95.5156 96.6152 95.6465 96.9102 95.9082 97.1445C96.1738 97.3789 96.5176 97.4961 96.9395 97.4961ZM104.504 92.2578C104.355 92.2305 104.197 92.2168 104.029 92.2168C103.592 92.2168 103.221 92.3398 102.916 92.5859C102.615 92.8281 102.4 93.1816 102.271 93.6465V98H101.574V91.6602H102.26L102.271 92.668C102.643 91.918 103.238 91.543 104.059 91.543C104.254 91.543 104.408 91.5684 104.521 91.6191L104.504 92.2578ZM107 90.0371V91.6602H108.312V92.2344H107V96.459C107 96.8105 107.062 97.0723 107.188 97.2441C107.316 97.416 107.529 97.502 107.826 97.502C107.943 97.502 108.133 97.4824 108.395 97.4434L108.424 98.0176C108.24 98.084 107.99 98.1172 107.674 98.1172C107.193 98.1172 106.844 97.9785 106.625 97.7012C106.406 97.4199 106.297 97.0078 106.297 96.4648V92.2344H105.131V91.6602H106.297V90.0371H107ZM112.221 98.1172C111.682 98.1172 111.193 97.9844 110.756 97.7188C110.322 97.4531 109.984 97.084 109.742 96.6113C109.5 96.1348 109.379 95.6016 109.379 95.0117V94.7598C109.379 94.1504 109.496 93.6016 109.73 93.1133C109.969 92.625 110.299 92.2422 110.721 91.9648C111.143 91.6836 111.6 91.543 112.092 91.543C112.861 91.543 113.471 91.8066 113.92 92.334C114.373 92.8574 114.6 93.5742 114.6 94.4844V94.877H110.076V95.0117C110.076 95.7305 110.281 96.3301 110.691 96.8105C111.105 97.2871 111.625 97.5254 112.25 97.5254C112.625 97.5254 112.955 97.457 113.24 97.3203C113.529 97.1836 113.791 96.9648 114.025 96.6641L114.465 96.998C113.949 97.7441 113.201 98.1172 112.221 98.1172ZM112.092 92.1406C111.564 92.1406 111.119 92.334 110.756 92.7207C110.396 93.1074 110.178 93.627 110.1 94.2793H113.902V94.2031C113.883 93.5938 113.709 93.0977 113.381 92.7148C113.053 92.332 112.623 92.1406 112.092 92.1406ZM116.604 91.6602L116.627 92.6914C116.861 92.3086 117.154 92.0215 117.506 91.8301C117.857 91.6387 118.248 91.543 118.678 91.543C119.678 91.543 120.312 91.9531 120.582 92.7734C120.809 92.3789 121.111 92.0762 121.49 91.8652C121.869 91.6504 122.287 91.543 122.744 91.543C124.104 91.543 124.797 92.2852 124.824 93.7695V98H124.121V93.8223C124.117 93.2559 123.994 92.8359 123.752 92.5625C123.514 92.2891 123.123 92.1523 122.58 92.1523C122.076 92.1602 121.65 92.3242 121.303 92.6445C120.955 92.9609 120.762 93.3477 120.723 93.8047V98H120.02V93.7695C120.016 93.2266 119.887 92.8223 119.633 92.5566C119.383 92.2871 118.996 92.1523 118.473 92.1523C118.031 92.1523 117.652 92.2793 117.336 92.5332C117.02 92.7832 116.785 93.1562 116.633 93.6523V98H115.93V91.6602H116.604ZM129.061 98.1172C128.521 98.1172 128.033 97.9844 127.596 97.7188C127.162 97.4531 126.824 97.084 126.582 96.6113C126.34 96.1348 126.219 95.6016 126.219 95.0117V94.7598C126.219 94.1504 126.336 93.6016 126.57 93.1133C126.809 92.625 127.139 92.2422 127.561 91.9648C127.982 91.6836 128.439 91.543 128.932 91.543C129.701 91.543 130.311 91.8066 130.76 92.334C131.213 92.8574 131.439 93.5742 131.439 94.4844V94.877H126.916V95.0117C126.916 95.7305 127.121 96.3301 127.531 96.8105C127.945 97.2871 128.465 97.5254 129.09 97.5254C129.465 97.5254 129.795 97.457 130.08 97.3203C130.369 97.1836 130.631 96.9648 130.865 96.6641L131.305 96.998C130.789 97.7441 130.041 98.1172 129.061 98.1172ZM128.932 92.1406C128.404 92.1406 127.959 92.334 127.596 92.7207C127.236 93.1074 127.018 93.627 126.939 94.2793H130.742V94.2031C130.723 93.5938 130.549 93.0977 130.221 92.7148C129.893 92.332 129.463 92.1406 128.932 92.1406ZM133.473 91.6602L133.496 92.7441C133.734 92.3535 134.031 92.0566 134.387 91.8535C134.742 91.6465 135.135 91.543 135.564 91.543C136.244 91.543 136.75 91.7344 137.082 92.1172C137.414 92.5 137.582 93.0742 137.586 93.8398V98H136.889V93.834C136.885 93.2676 136.764 92.8457 136.525 92.5684C136.291 92.291 135.914 92.1523 135.395 92.1523C134.961 92.1523 134.576 92.2891 134.24 92.5625C133.908 92.832 133.662 93.1973 133.502 93.6582V98H132.805V91.6602H133.473ZM140.492 90.0371V91.6602H141.805V92.2344H140.492V96.459C140.492 96.8105 140.555 97.0723 140.68 97.2441C140.809 97.416 141.021 97.502 141.318 97.502C141.436 97.502 141.625 97.4824 141.887 97.4434L141.916 98.0176C141.732 98.084 141.482 98.1172 141.166 98.1172C140.686 98.1172 140.336 97.9785 140.117 97.7012C139.898 97.4199 139.789 97.0078 139.789 96.4648V92.2344H138.623V91.6602H139.789V90.0371H140.492Z" fill="black"/>
<path d="M46.8535 134.191H43.3496V136.816H47.4453V138H41.8672V129.469H47.4043V130.664H43.3496V133.02H46.8535V134.191ZM50.5977 136.195L51.9395 131.66H53.4102L51.2129 138H49.9766L47.7617 131.66H49.2383L50.5977 136.195ZM53.9434 134.771C53.9434 134.15 54.0664 133.592 54.3125 133.096C54.5586 132.596 54.9043 132.213 55.3496 131.947C55.7949 131.678 56.3066 131.543 56.8848 131.543C57.7402 131.543 58.4336 131.818 58.9648 132.369C59.5 132.92 59.7891 133.65 59.832 134.561L59.8379 134.895C59.8379 135.52 59.7168 136.078 59.4746 136.57C59.2363 137.062 58.8926 137.443 58.4434 137.713C57.998 137.982 57.4824 138.117 56.8965 138.117C56.002 138.117 55.2852 137.82 54.7461 137.227C54.2109 136.629 53.9434 135.834 53.9434 134.842V134.771ZM55.3672 134.895C55.3672 135.547 55.502 136.059 55.7715 136.43C56.041 136.797 56.416 136.98 56.8965 136.98C57.377 136.98 57.75 136.793 58.0156 136.418C58.2852 136.043 58.4199 135.494 58.4199 134.771C58.4199 134.131 58.2812 133.623 58.0039 133.248C57.7305 132.873 57.3574 132.686 56.8848 132.686C56.4199 132.686 56.0508 132.871 55.7773 133.242C55.5039 133.609 55.3672 134.16 55.3672 134.895ZM62.5566 138H61.1328V129H62.5566V138ZM67.9531 137.379C67.5352 137.871 66.9414 138.117 66.1719 138.117C65.4844 138.117 64.9629 137.916 64.6074 137.514C64.2559 137.111 64.0801 136.529 64.0801 135.768V131.66H65.5039V135.75C65.5039 136.555 65.8379 136.957 66.5059 136.957C67.1973 136.957 67.6641 136.709 67.9062 136.213V131.66H69.3301V138H67.9883L67.9531 137.379ZM72.5645 130.119V131.66H73.6836V132.715H72.5645V136.254C72.5645 136.496 72.6113 136.672 72.7051 136.781C72.8027 136.887 72.9746 136.939 73.2207 136.939C73.3848 136.939 73.5508 136.92 73.7188 136.881V137.982C73.3945 138.072 73.082 138.117 72.7812 138.117C71.6875 138.117 71.1406 137.514 71.1406 136.307V132.715H70.0977V131.66H71.1406V130.119H72.5645ZM76.291 138H74.8672V131.66H76.291V138ZM74.7793 130.014C74.7793 129.795 74.8477 129.613 74.9844 129.469C75.125 129.324 75.3242 129.252 75.582 129.252C75.8398 129.252 76.0391 129.324 76.1797 129.469C76.3203 129.613 76.3906 129.795 76.3906 130.014C76.3906 130.229 76.3203 130.408 76.1797 130.553C76.0391 130.693 75.8398 130.764 75.582 130.764C75.3242 130.764 75.125 130.693 74.9844 130.553C74.8477 130.408 74.7793 130.229 74.7793 130.014ZM77.5801 134.771C77.5801 134.15 77.7031 133.592 77.9492 133.096C78.1953 132.596 78.541 132.213 78.9863 131.947C79.4316 131.678 79.9434 131.543 80.5215 131.543C81.377 131.543 82.0703 131.818 82.6016 132.369C83.1367 132.92 83.4258 133.65 83.4688 134.561L83.4746 134.895C83.4746 135.52 83.3535 136.078 83.1113 136.57C82.873 137.062 82.5293 137.443 82.0801 137.713C81.6348 137.982 81.1191 138.117 80.5332 138.117C79.6387 138.117 78.9219 137.82 78.3828 137.227C77.8477 136.629 77.5801 135.834 77.5801 134.842V134.771ZM79.0039 134.895C79.0039 135.547 79.1387 136.059 79.4082 136.43C79.6777 136.797 80.0527 136.98 80.5332 136.98C81.0137 136.98 81.3867 136.793 81.6523 136.418C81.9219 136.043 82.0566 135.494 82.0566 134.771C82.0566 134.131 81.918 133.623 81.6406 133.248C81.3672 132.873 80.9941 132.686 80.5215 132.686C80.0566 132.686 79.6875 132.871 79.4141 133.242C79.1406 133.609 79.0039 134.16 79.0039 134.895ZM86 131.66L86.041 132.393C86.5098 131.826 87.125 131.543 87.8867 131.543C89.207 131.543 89.8789 132.299 89.9023 133.811V138H88.4785V133.893C88.4785 133.49 88.3906 133.193 88.2148 133.002C88.043 132.807 87.7598 132.709 87.3652 132.709C86.791 132.709 86.3633 132.969 86.082 133.488V138H84.6582V131.66H86ZM99.8984 134.895C99.8984 135.875 99.6758 136.658 99.2305 137.244C98.7852 137.826 98.1875 138.117 97.4375 138.117C96.7422 138.117 96.1855 137.889 95.7676 137.432V140.438H94.3438V131.66H95.6562L95.7148 132.305C96.1328 131.797 96.7012 131.543 97.4199 131.543C98.1934 131.543 98.7988 131.832 99.2363 132.41C99.6777 132.984 99.8984 133.783 99.8984 134.807V134.895ZM98.4805 134.771C98.4805 134.139 98.3535 133.637 98.0996 133.266C97.8496 132.895 97.4902 132.709 97.0215 132.709C96.4395 132.709 96.0215 132.949 95.7676 133.43V136.242C96.0254 136.734 96.4473 136.98 97.0332 136.98C97.4863 136.98 97.8398 136.799 98.0938 136.436C98.3516 136.068 98.4805 135.514 98.4805 134.771ZM104.896 138C104.834 137.879 104.779 137.682 104.732 137.408C104.279 137.881 103.725 138.117 103.068 138.117C102.432 138.117 101.912 137.936 101.51 137.572C101.107 137.209 100.906 136.76 100.906 136.225C100.906 135.549 101.156 135.031 101.656 134.672C102.16 134.309 102.879 134.127 103.812 134.127H104.686V133.711C104.686 133.383 104.594 133.121 104.41 132.926C104.227 132.727 103.947 132.627 103.572 132.627C103.248 132.627 102.982 132.709 102.775 132.873C102.568 133.033 102.465 133.238 102.465 133.488H101.041C101.041 133.141 101.156 132.816 101.387 132.516C101.617 132.211 101.93 131.973 102.324 131.801C102.723 131.629 103.166 131.543 103.654 131.543C104.396 131.543 104.988 131.73 105.43 132.105C105.871 132.477 106.098 133 106.109 133.676V136.535C106.109 137.105 106.189 137.561 106.35 137.9V138H104.896ZM103.332 136.975C103.613 136.975 103.877 136.906 104.123 136.77C104.373 136.633 104.561 136.449 104.686 136.219V135.023H103.918C103.391 135.023 102.994 135.115 102.729 135.299C102.463 135.482 102.33 135.742 102.33 136.078C102.33 136.352 102.42 136.57 102.6 136.734C102.783 136.895 103.027 136.975 103.332 136.975ZM111.154 136.277C111.154 136.023 111.049 135.83 110.838 135.697C110.631 135.564 110.285 135.447 109.801 135.346C109.316 135.244 108.912 135.115 108.588 134.959C107.877 134.615 107.521 134.117 107.521 133.465C107.521 132.918 107.752 132.461 108.213 132.094C108.674 131.727 109.26 131.543 109.971 131.543C110.729 131.543 111.34 131.73 111.805 132.105C112.273 132.48 112.508 132.967 112.508 133.564H111.084C111.084 133.291 110.982 133.064 110.779 132.885C110.576 132.701 110.307 132.609 109.971 132.609C109.658 132.609 109.402 132.682 109.203 132.826C109.008 132.971 108.91 133.164 108.91 133.406C108.91 133.625 109.002 133.795 109.186 133.916C109.369 134.037 109.74 134.16 110.299 134.285C110.857 134.406 111.295 134.553 111.611 134.725C111.932 134.893 112.168 135.096 112.32 135.334C112.477 135.572 112.555 135.861 112.555 136.201C112.555 136.771 112.318 137.234 111.846 137.59C111.373 137.941 110.754 138.117 109.988 138.117C109.469 138.117 109.006 138.023 108.6 137.836C108.193 137.648 107.877 137.391 107.65 137.062C107.424 136.734 107.311 136.381 107.311 136.002H108.693C108.713 136.338 108.84 136.598 109.074 136.781C109.309 136.961 109.619 137.051 110.006 137.051C110.381 137.051 110.666 136.98 110.861 136.84C111.057 136.695 111.154 136.508 111.154 136.277ZM117.354 136.277C117.354 136.023 117.248 135.83 117.037 135.697C116.83 135.564 116.484 135.447 116 135.346C115.516 135.244 115.111 135.115 114.787 134.959C114.076 134.615 113.721 134.117 113.721 133.465C113.721 132.918 113.951 132.461 114.412 132.094C114.873 131.727 115.459 131.543 116.17 131.543C116.928 131.543 117.539 131.73 118.004 132.105C118.473 132.48 118.707 132.967 118.707 133.564H117.283C117.283 133.291 117.182 133.064 116.979 132.885C116.775 132.701 116.506 132.609 116.17 132.609C115.857 132.609 115.602 132.682 115.402 132.826C115.207 132.971 115.109 133.164 115.109 133.406C115.109 133.625 115.201 133.795 115.385 133.916C115.568 134.037 115.939 134.16 116.498 134.285C117.057 134.406 117.494 134.553 117.811 134.725C118.131 134.893 118.367 135.096 118.52 135.334C118.676 135.572 118.754 135.861 118.754 136.201C118.754 136.771 118.518 137.234 118.045 137.59C117.572 137.941 116.953 138.117 116.188 138.117C115.668 138.117 115.205 138.023 114.799 137.836C114.393 137.648 114.076 137.391 113.85 137.062C113.623 136.734 113.51 136.381 113.51 136.002H114.893C114.912 136.338 115.039 136.598 115.273 136.781C115.508 136.961 115.818 137.051 116.205 137.051C116.58 137.051 116.865 136.98 117.061 136.84C117.256 136.695 117.354 136.508 117.354 136.277ZM122.791 138.117C121.889 138.117 121.156 137.834 120.594 137.268C120.035 136.697 119.756 135.939 119.756 134.994V134.818C119.756 134.186 119.877 133.621 120.119 133.125C120.365 132.625 120.709 132.236 121.15 131.959C121.592 131.682 122.084 131.543 122.627 131.543C123.49 131.543 124.156 131.818 124.625 132.369C125.098 132.92 125.334 133.699 125.334 134.707V135.281H121.191C121.234 135.805 121.408 136.219 121.713 136.523C122.021 136.828 122.408 136.98 122.873 136.98C123.525 136.98 124.057 136.717 124.467 136.189L125.234 136.922C124.98 137.301 124.641 137.596 124.215 137.807C123.793 138.014 123.318 138.117 122.791 138.117ZM122.621 132.686C122.23 132.686 121.914 132.822 121.672 133.096C121.434 133.369 121.281 133.75 121.215 134.238H123.928V134.133C123.896 133.656 123.77 133.297 123.547 133.055C123.324 132.809 123.016 132.686 122.621 132.686ZM122.943 129H124.566L122.943 130.775H121.801L122.943 129ZM129.236 138.117C128.334 138.117 127.602 137.834 127.039 137.268C126.48 136.697 126.201 135.939 126.201 134.994V134.818C126.201 134.186 126.322 133.621 126.564 133.125C126.811 132.625 127.154 132.236 127.596 131.959C128.037 131.682 128.529 131.543 129.072 131.543C129.936 131.543 130.602 131.818 131.07 132.369C131.543 132.92 131.779 133.699 131.779 134.707V135.281H127.637C127.68 135.805 127.854 136.219 128.158 136.523C128.467 136.828 128.854 136.98 129.318 136.98C129.971 136.98 130.502 136.717 130.912 136.189L131.68 136.922C131.426 137.301 131.086 137.596 130.66 137.807C130.238 138.014 129.764 138.117 129.236 138.117ZM129.066 132.686C128.676 132.686 128.359 132.822 128.117 133.096C127.879 133.369 127.727 133.75 127.66 134.238H130.373V134.133C130.342 133.656 130.215 133.297 129.992 133.055C129.77 132.809 129.461 132.686 129.066 132.686Z" fill="black"/>
<path d="M51.7188 173.484H57.6562V176.953H51.7188V183.719H48.0312V176.953H42.0625V173.484H48.0312V167.156H51.7188V173.484ZM75.8438 186H60.5469V183.391L68.125 175.125C69.2188 173.906 69.9948 172.891 70.4531 172.078C70.9219 171.255 71.1562 170.432 71.1562 169.609C71.1562 168.526 70.849 167.651 70.2344 166.984C69.6302 166.318 68.8125 165.984 67.7812 165.984C66.5521 165.984 65.599 166.359 64.9219 167.109C64.2448 167.859 63.9062 168.885 63.9062 170.188H60.1094C60.1094 168.802 60.4219 167.557 61.0469 166.453C61.6823 165.339 62.5833 164.474 63.75 163.859C64.9271 163.245 66.2812 162.938 67.8125 162.938C70.0208 162.938 71.7604 163.495 73.0312 164.609C74.3125 165.714 74.9531 167.245 74.9531 169.203C74.9531 170.339 74.6302 171.531 73.9844 172.781C73.349 174.021 72.3021 175.432 70.8438 177.016L65.2812 182.969H75.8438V186ZM89.5 176.484C88.2292 177.828 86.7448 178.5 85.0469 178.5C83.0469 178.5 81.4531 177.802 80.2656 176.406C79.0781 175 78.4844 173.156 78.4844 170.875C78.4844 169.375 78.7865 168.016 79.3906 166.797C79.9948 165.578 80.8542 164.63 81.9688 163.953C83.0833 163.276 84.375 162.938 85.8438 162.938C88.1354 162.938 89.9531 163.792 91.2969 165.5C92.6406 167.208 93.3125 169.495 93.3125 172.359V173.422C93.3125 177.526 92.3854 180.656 90.5312 182.812C88.6771 184.969 85.9115 186.062 82.2344 186.094H81.7812V182.953H82.3281C84.5677 182.922 86.2865 182.385 87.4844 181.344C88.6823 180.292 89.3542 178.672 89.5 176.484ZM85.8438 175.531C86.6042 175.531 87.3177 175.312 87.9844 174.875C88.651 174.438 89.1667 173.833 89.5312 173.062V171.578C89.5312 169.901 89.1875 168.552 88.5 167.531C87.8125 166.51 86.9219 166 85.8281 166C84.7344 166 83.8594 166.453 83.2031 167.359C82.5573 168.255 82.2344 169.391 82.2344 170.766C82.2344 172.193 82.5625 173.344 83.2188 174.219C83.875 175.094 84.75 175.531 85.8438 175.531ZM99.5312 182C100.24 182 100.786 182.203 101.172 182.609C101.557 183.005 101.75 183.505 101.75 184.109C101.75 184.703 101.557 185.198 101.172 185.594C100.786 185.979 100.24 186.172 99.5312 186.172C98.8542 186.172 98.3177 185.979 97.9219 185.594C97.526 185.208 97.3281 184.714 97.3281 184.109C97.3281 183.505 97.5208 183.005 97.9062 182.609C98.2917 182.203 98.8333 182 99.5312 182ZM110.25 172.891H112.562C113.729 172.88 114.651 172.578 115.328 171.984C116.016 171.391 116.359 170.531 116.359 169.406C116.359 168.323 116.073 167.484 115.5 166.891C114.938 166.286 114.073 165.984 112.906 165.984C111.885 165.984 111.047 166.281 110.391 166.875C109.734 167.458 109.406 168.224 109.406 169.172H105.609C105.609 168.005 105.917 166.943 106.531 165.984C107.156 165.026 108.021 164.281 109.125 163.75C110.24 163.208 111.484 162.938 112.859 162.938C115.13 162.938 116.911 163.51 118.203 164.656C119.505 165.792 120.156 167.375 120.156 169.406C120.156 170.427 119.828 171.391 119.172 172.297C118.526 173.193 117.688 173.87 116.656 174.328C117.906 174.755 118.854 175.427 119.5 176.344C120.156 177.26 120.484 178.354 120.484 179.625C120.484 181.667 119.781 183.292 118.375 184.5C116.979 185.708 115.141 186.312 112.859 186.312C110.672 186.312 108.88 185.729 107.484 184.562C106.089 183.396 105.391 181.844 105.391 179.906H109.188C109.188 180.906 109.521 181.719 110.188 182.344C110.865 182.969 111.771 183.281 112.906 183.281C114.083 183.281 115.01 182.969 115.688 182.344C116.365 181.719 116.703 180.812 116.703 179.625C116.703 178.427 116.349 177.505 115.641 176.859C114.932 176.214 113.88 175.891 112.484 175.891H110.25V172.891ZM123.891 167.625C123.891 166.25 124.333 165.125 125.219 164.25C126.104 163.365 127.266 162.922 128.703 162.922C130.161 162.922 131.328 163.365 132.203 164.25C133.089 165.125 133.531 166.276 133.531 167.703V168.828C133.531 170.193 133.089 171.312 132.203 172.188C131.328 173.062 130.172 173.5 128.734 173.5C127.328 173.5 126.167 173.073 125.25 172.219C124.344 171.354 123.891 170.193 123.891 168.734V167.625ZM126.547 168.828C126.547 169.547 126.745 170.13 127.141 170.578C127.547 171.016 128.078 171.234 128.734 171.234C129.38 171.234 129.901 171.016 130.297 170.578C130.693 170.13 130.891 169.526 130.891 168.766V167.625C130.891 166.906 130.688 166.323 130.281 165.875C129.885 165.427 129.359 165.203 128.703 165.203C128.047 165.203 127.521 165.432 127.125 165.891C126.74 166.339 126.547 166.932 126.547 167.672V168.828ZM134.828 180.422C134.828 179.026 135.281 177.896 136.188 177.031C137.094 176.167 138.25 175.734 139.656 175.734C141.073 175.734 142.229 176.167 143.125 177.031C144.031 177.896 144.484 179.062 144.484 180.531V181.641C144.484 182.995 144.047 184.115 143.172 185C142.307 185.875 141.146 186.312 139.688 186.312C138.229 186.312 137.052 185.88 136.156 185.016C135.271 184.141 134.828 182.99 134.828 181.562V180.422ZM137.484 181.641C137.484 182.349 137.688 182.932 138.094 183.391C138.51 183.839 139.042 184.062 139.688 184.062C140.354 184.062 140.875 183.849 141.25 183.422C141.635 182.984 141.828 182.375 141.828 181.594V180.422C141.828 179.693 141.625 179.109 141.219 178.672C140.812 178.234 140.292 178.016 139.656 178.016C139.01 178.016 138.484 178.234 138.078 178.672C137.682 179.109 137.484 179.714 137.484 180.484V181.641ZM129.516 184.297L127.562 183.172L138.672 165.391L140.625 166.516L129.516 184.297Z" fill="#1CCF2E"/>
<path d="M41.4629 214.783C41.4629 213.807 41.6895 213.023 42.1426 212.434C42.5957 211.84 43.2031 211.543 43.9648 211.543C44.6367 211.543 45.1797 211.777 45.5938 212.246V209H47.0176V218H45.7285L45.6582 217.344C45.2324 217.859 44.6641 218.117 43.9531 218.117C43.2109 218.117 42.6094 217.818 42.1484 217.221C41.6914 216.623 41.4629 215.811 41.4629 214.783ZM42.8867 214.906C42.8867 215.551 43.0098 216.055 43.2559 216.418C43.5059 216.777 43.8594 216.957 44.3164 216.957C44.8984 216.957 45.3242 216.697 45.5938 216.178V213.471C45.332 212.963 44.9102 212.709 44.3281 212.709C43.8672 212.709 43.5117 212.893 43.2617 213.26C43.0117 213.623 42.8867 214.172 42.8867 214.906ZM51.2949 218.117C50.3926 218.117 49.6602 217.834 49.0977 217.268C48.5391 216.697 48.2598 215.939 48.2598 214.994V214.818C48.2598 214.186 48.3809 213.621 48.623 213.125C48.8691 212.625 49.2129 212.236 49.6543 211.959C50.0957 211.682 50.5879 211.543 51.1309 211.543C51.9941 211.543 52.6602 211.818 53.1289 212.369C53.6016 212.92 53.8379 213.699 53.8379 214.707V215.281H49.6953C49.7383 215.805 49.9121 216.219 50.2168 216.523C50.5254 216.828 50.9121 216.98 51.377 216.98C52.0293 216.98 52.5605 216.717 52.9707 216.189L53.7383 216.922C53.4844 217.301 53.1445 217.596 52.7188 217.807C52.2969 218.014 51.8223 218.117 51.2949 218.117ZM51.125 212.686C50.7344 212.686 50.418 212.822 50.1758 213.096C49.9375 213.369 49.7852 213.75 49.7188 214.238H52.4316V214.133C52.4004 213.656 52.2734 213.297 52.0508 213.055C51.8281 212.809 51.5195 212.686 51.125 212.686ZM63.582 218H57.8457V217.021L60.6875 213.922C61.0977 213.465 61.3887 213.084 61.5605 212.779C61.7363 212.471 61.8242 212.162 61.8242 211.854C61.8242 211.447 61.709 211.119 61.4785 210.869C61.252 210.619 60.9453 210.494 60.5586 210.494C60.0977 210.494 59.7402 210.635 59.4863 210.916C59.2324 211.197 59.1055 211.582 59.1055 212.07H57.6816C57.6816 211.551 57.7988 211.084 58.0332 210.67C58.2715 210.252 58.6094 209.928 59.0469 209.697C59.4883 209.467 59.9961 209.352 60.5703 209.352C61.3984 209.352 62.0508 209.561 62.5273 209.979C63.0078 210.393 63.248 210.967 63.248 211.701C63.248 212.127 63.127 212.574 62.8848 213.043C62.6465 213.508 62.2539 214.037 61.707 214.631L59.6211 216.863H63.582V218ZM70.2266 214.408C70.2266 215.635 69.9961 216.561 69.5352 217.186C69.0781 217.807 68.3809 218.117 67.4434 218.117C66.5215 218.117 65.8262 217.814 65.3574 217.209C64.8926 216.6 64.6543 215.699 64.6426 214.508V213.031C64.6426 211.805 64.8711 210.885 65.3281 210.271C65.7891 209.658 66.4902 209.352 67.4316 209.352C68.3652 209.352 69.0605 209.65 69.5176 210.248C69.9785 210.846 70.2148 211.74 70.2266 212.932V214.408ZM68.8027 212.814C68.8027 212.014 68.6934 211.428 68.4746 211.057C68.2559 210.682 67.9082 210.494 67.4316 210.494C66.9668 210.494 66.625 210.672 66.4062 211.027C66.1875 211.379 66.0723 211.93 66.0605 212.68V214.613C66.0605 215.41 66.1719 216.004 66.3945 216.395C66.6172 216.785 66.9668 216.98 67.4434 216.98C67.9004 216.98 68.2383 216.801 68.457 216.441C68.6758 216.078 68.791 215.512 68.8027 214.742V212.814ZM75.3418 218H73.9238V211.15L71.832 211.865V210.664L75.1602 209.439H75.3418V218ZM83.123 214.959H84.1836V216.102H83.123V218H81.6992V216.102H78.0137L77.9727 215.234L81.6523 209.469H83.123V214.959ZM79.4668 214.959H81.6992V211.396L81.5938 211.584L79.4668 214.959ZM91.9941 218C91.9316 217.879 91.877 217.682 91.8301 217.408C91.377 217.881 90.8223 218.117 90.166 218.117C89.5293 218.117 89.0098 217.936 88.6074 217.572C88.2051 217.209 88.0039 216.76 88.0039 216.225C88.0039 215.549 88.2539 215.031 88.7539 214.672C89.2578 214.309 89.9766 214.127 90.9102 214.127H91.7832V213.711C91.7832 213.383 91.6914 213.121 91.5078 212.926C91.3242 212.727 91.0449 212.627 90.6699 212.627C90.3457 212.627 90.0801 212.709 89.873 212.873C89.666 213.033 89.5625 213.238 89.5625 213.488H88.1387C88.1387 213.141 88.2539 212.816 88.4844 212.516C88.7148 212.211 89.0273 211.973 89.4219 211.801C89.8203 211.629 90.2637 211.543 90.752 211.543C91.4941 211.543 92.0859 211.73 92.5273 212.105C92.9688 212.477 93.1953 213 93.207 213.676V216.535C93.207 217.105 93.2871 217.561 93.4473 217.9V218H91.9941ZM90.4297 216.975C90.7109 216.975 90.9746 216.906 91.2207 216.77C91.4707 216.633 91.6582 216.449 91.7832 216.219V215.023H91.0156C90.4883 215.023 90.0918 215.115 89.8262 215.299C89.5605 215.482 89.4277 215.742 89.4277 216.078C89.4277 216.352 89.5176 216.57 89.6973 216.734C89.8809 216.895 90.125 216.975 90.4297 216.975ZM91.543 210.775H90.3594L88.7773 209H90.4004L91.543 210.775ZM103.332 218H97.5957V217.021L100.438 213.922C100.848 213.465 101.139 213.084 101.311 212.779C101.486 212.471 101.574 212.162 101.574 211.854C101.574 211.447 101.459 211.119 101.229 210.869C101.002 210.619 100.695 210.494 100.309 210.494C99.8477 210.494 99.4902 210.635 99.2363 210.916C98.9824 211.197 98.8555 211.582 98.8555 212.07H97.4316C97.4316 211.551 97.5488 211.084 97.7832 210.67C98.0215 210.252 98.3594 209.928 98.7969 209.697C99.2383 209.467 99.7461 209.352 100.32 209.352C101.148 209.352 101.801 209.561 102.277 209.979C102.758 210.393 102.998 210.967 102.998 211.701C102.998 212.127 102.877 212.574 102.635 213.043C102.396 213.508 102.004 214.037 101.457 214.631L99.3711 216.863H103.332V218ZM109.977 214.408C109.977 215.635 109.746 216.561 109.285 217.186C108.828 217.807 108.131 218.117 107.193 218.117C106.271 218.117 105.576 217.814 105.107 217.209C104.643 216.6 104.404 215.699 104.393 214.508V213.031C104.393 211.805 104.621 210.885 105.078 210.271C105.539 209.658 106.24 209.352 107.182 209.352C108.115 209.352 108.811 209.65 109.268 210.248C109.729 210.846 109.965 211.74 109.977 212.932V214.408ZM108.553 212.814C108.553 212.014 108.443 211.428 108.225 211.057C108.006 210.682 107.658 210.494 107.182 210.494C106.717 210.494 106.375 210.672 106.156 211.027C105.938 211.379 105.822 211.93 105.811 212.68V214.613C105.811 215.41 105.922 216.004 106.145 216.395C106.367 216.785 106.717 216.98 107.193 216.98C107.65 216.98 107.988 216.801 108.207 216.441C108.426 216.078 108.541 215.512 108.553 214.742V212.814ZM115.092 218H113.674V211.15L111.582 211.865V210.664L114.91 209.439H115.092V218ZM122.094 214.432C121.617 214.936 121.061 215.188 120.424 215.188C119.674 215.188 119.076 214.926 118.631 214.402C118.186 213.875 117.963 213.184 117.963 212.328C117.963 211.766 118.076 211.256 118.303 210.799C118.529 210.342 118.852 209.986 119.27 209.732C119.688 209.479 120.172 209.352 120.723 209.352C121.582 209.352 122.264 209.672 122.768 210.312C123.271 210.953 123.523 211.811 123.523 212.885V213.283C123.523 214.822 123.176 215.996 122.48 216.805C121.785 217.613 120.748 218.023 119.369 218.035H119.199V216.857H119.404C120.244 216.846 120.889 216.645 121.338 216.254C121.787 215.859 122.039 215.252 122.094 214.432ZM120.723 214.074C121.008 214.074 121.275 213.992 121.525 213.828C121.775 213.664 121.969 213.438 122.105 213.148V212.592C122.105 211.963 121.977 211.457 121.719 211.074C121.461 210.691 121.127 210.5 120.717 210.5C120.307 210.5 119.979 210.67 119.732 211.01C119.49 211.346 119.369 211.771 119.369 212.287C119.369 212.822 119.492 213.254 119.738 213.582C119.984 213.91 120.312 214.074 120.723 214.074Z" fill="black"/>
<path d="M153.939 183.939C153.354 184.525 153.354 185.475 153.939 186.061C154.525 186.646 155.475 186.646 156.061 186.061L153.939 183.939ZM178.5 163C178.5 162.172 177.828 161.5 177 161.5L163.5 161.5C162.672 161.5 162 162.172 162 163C162 163.828 162.672 164.5 163.5 164.5H175.5V176.5C175.5 177.328 176.172 178 177 178C177.828 178 178.5 177.328 178.5 176.5L178.5 163ZM156.061 186.061L178.061 164.061L175.939 161.939L153.939 183.939L156.061 186.061Z" fill="#1CCF2E"/>
<rect width="168" height="160" transform="translate(218 74)" fill="#F5F7FA"/>
<rect x="218" y="74" width="168" height="160" rx="8" fill="#F5F7FA"/>
<path d="M218 82C218 77.5817 221.582 74 226 74H378C382.418 74 386 77.5817 386 82V114H218V82Z" fill="#EEF0F3"/>
<path d="M238.684 95.6094H234.811L233.932 98H233.176L236.404 89.4688H237.09L240.318 98H239.568L238.684 95.6094ZM235.033 94.9941H238.455L236.744 90.3477L235.033 94.9941ZM243.758 97.5254C244.246 97.5254 244.654 97.3887 244.982 97.1152C245.314 96.8379 245.494 96.4805 245.521 96.043H246.195C246.176 96.4297 246.055 96.7832 245.832 97.1035C245.609 97.4199 245.312 97.668 244.941 97.8477C244.574 98.0273 244.18 98.1172 243.758 98.1172C242.926 98.1172 242.266 97.8281 241.777 97.25C241.293 96.6719 241.051 95.8945 241.051 94.918V94.707C241.051 94.082 241.16 93.5293 241.379 93.0488C241.598 92.5684 241.91 92.1973 242.316 91.9355C242.727 91.6738 243.205 91.543 243.752 91.543C244.447 91.543 245.02 91.75 245.469 92.1641C245.922 92.5781 246.164 93.123 246.195 93.7988H245.521C245.49 93.3027 245.311 92.9023 244.982 92.5977C244.658 92.293 244.248 92.1406 243.752 92.1406C243.119 92.1406 242.627 92.3691 242.275 92.8262C241.928 93.2832 241.754 93.9238 241.754 94.748V94.9531C241.754 95.7617 241.928 96.3926 242.275 96.8457C242.627 97.2988 243.121 97.5254 243.758 97.5254ZM248.299 92.7324C248.529 92.3535 248.824 92.0605 249.184 91.8535C249.543 91.6465 249.936 91.543 250.361 91.543C251.041 91.543 251.547 91.7344 251.879 92.1172C252.211 92.5 252.379 93.0742 252.383 93.8398V98H251.686V93.834C251.682 93.2676 251.561 92.8457 251.322 92.5684C251.088 92.291 250.711 92.1523 250.191 92.1523C249.758 92.1523 249.373 92.2891 249.037 92.5625C248.705 92.832 248.459 93.1973 248.299 93.6582V98H247.602V89H248.299V92.7324ZM258.189 98C258.119 97.8008 258.074 97.5059 258.055 97.1152C257.809 97.4355 257.494 97.6836 257.111 97.8594C256.732 98.0312 256.33 98.1172 255.904 98.1172C255.295 98.1172 254.801 97.9473 254.422 97.6074C254.047 97.2676 253.859 96.8379 253.859 96.3184C253.859 95.7012 254.115 95.2129 254.627 94.8535C255.143 94.4941 255.859 94.3145 256.777 94.3145H258.049V93.5938C258.049 93.1406 257.908 92.7852 257.627 92.5273C257.35 92.2656 256.943 92.1348 256.408 92.1348C255.92 92.1348 255.516 92.2598 255.195 92.5098C254.875 92.7598 254.715 93.0605 254.715 93.4121L254.012 93.4062C254.012 92.9023 254.246 92.4668 254.715 92.0996C255.184 91.7285 255.76 91.543 256.443 91.543C257.15 91.543 257.707 91.7207 258.113 92.0762C258.523 92.4277 258.734 92.9199 258.746 93.5527V96.5527C258.746 97.166 258.811 97.625 258.939 97.9297V98H258.189ZM255.986 97.4961C256.455 97.4961 256.873 97.3828 257.24 97.1562C257.611 96.9297 257.881 96.627 258.049 96.248V94.8535H256.795C256.096 94.8613 255.549 94.9902 255.154 95.2402C254.76 95.4863 254.562 95.8262 254.562 96.2598C254.562 96.6152 254.693 96.9102 254.955 97.1445C255.221 97.3789 255.564 97.4961 255.986 97.4961ZM261.711 90.0371V91.6602H263.023V92.2344H261.711V96.459C261.711 96.8105 261.773 97.0723 261.898 97.2441C262.027 97.416 262.24 97.502 262.537 97.502C262.654 97.502 262.844 97.4824 263.105 97.4434L263.135 98.0176C262.951 98.084 262.701 98.1172 262.385 98.1172C261.904 98.1172 261.555 97.9785 261.336 97.7012C261.117 97.4199 261.008 97.0078 261.008 96.4648V92.2344H259.842V91.6602H261.008V90.0371H261.711ZM271.396 98C271.326 97.8008 271.281 97.5059 271.262 97.1152C271.016 97.4355 270.701 97.6836 270.318 97.8594C269.939 98.0312 269.537 98.1172 269.111 98.1172C268.502 98.1172 268.008 97.9473 267.629 97.6074C267.254 97.2676 267.066 96.8379 267.066 96.3184C267.066 95.7012 267.322 95.2129 267.834 94.8535C268.35 94.4941 269.066 94.3145 269.984 94.3145H271.256V93.5938C271.256 93.1406 271.115 92.7852 270.834 92.5273C270.557 92.2656 270.15 92.1348 269.615 92.1348C269.127 92.1348 268.723 92.2598 268.402 92.5098C268.082 92.7598 267.922 93.0605 267.922 93.4121L267.219 93.4062C267.219 92.9023 267.453 92.4668 267.922 92.0996C268.391 91.7285 268.967 91.543 269.65 91.543C270.357 91.543 270.914 91.7207 271.32 92.0762C271.73 92.4277 271.941 92.9199 271.953 93.5527V96.5527C271.953 97.166 272.018 97.625 272.146 97.9297V98H271.396ZM269.193 97.4961C269.662 97.4961 270.08 97.3828 270.447 97.1562C270.818 96.9297 271.088 96.627 271.256 96.248V94.8535H270.002C269.303 94.8613 268.756 94.9902 268.361 95.2402C267.967 95.4863 267.77 95.8262 267.77 96.2598C267.77 96.6152 267.9 96.9102 268.162 97.1445C268.428 97.3789 268.771 97.4961 269.193 97.4961ZM278.926 94.8945C278.926 95.8828 278.707 96.668 278.27 97.25C277.832 97.8281 277.246 98.1172 276.512 98.1172C275.645 98.1172 274.98 97.8125 274.52 97.2031V100.438H273.822V91.6602H274.473L274.508 92.5566C274.965 91.8809 275.627 91.543 276.494 91.543C277.252 91.543 277.846 91.8301 278.275 92.4043C278.709 92.9785 278.926 93.7754 278.926 94.7949V94.8945ZM278.223 94.7715C278.223 93.9629 278.057 93.3242 277.725 92.8555C277.393 92.3867 276.93 92.1523 276.336 92.1523C275.906 92.1523 275.537 92.2559 275.229 92.4629C274.92 92.6699 274.684 92.9707 274.52 93.3652V96.4062C274.688 96.7695 274.928 97.0469 275.24 97.2383C275.553 97.4297 275.922 97.5254 276.348 97.5254C276.938 97.5254 277.396 97.291 277.725 96.8223C278.057 96.3496 278.223 95.666 278.223 94.7715ZM285.582 94.8945C285.582 95.8828 285.363 96.668 284.926 97.25C284.488 97.8281 283.902 98.1172 283.168 98.1172C282.301 98.1172 281.637 97.8125 281.176 97.2031V100.438H280.479V91.6602H281.129L281.164 92.5566C281.621 91.8809 282.283 91.543 283.15 91.543C283.908 91.543 284.502 91.8301 284.932 92.4043C285.365 92.9785 285.582 93.7754 285.582 94.7949V94.8945ZM284.879 94.7715C284.879 93.9629 284.713 93.3242 284.381 92.8555C284.049 92.3867 283.586 92.1523 282.992 92.1523C282.562 92.1523 282.193 92.2559 281.885 92.4629C281.576 92.6699 281.34 92.9707 281.176 93.3652V96.4062C281.344 96.7695 281.584 97.0469 281.896 97.2383C282.209 97.4297 282.578 97.5254 283.004 97.5254C283.594 97.5254 284.053 97.291 284.381 96.8223C284.713 96.3496 284.879 95.666 284.879 94.7715ZM291.143 98C291.072 97.8008 291.027 97.5059 291.008 97.1152C290.762 97.4355 290.447 97.6836 290.064 97.8594C289.686 98.0312 289.283 98.1172 288.857 98.1172C288.248 98.1172 287.754 97.9473 287.375 97.6074C287 97.2676 286.812 96.8379 286.812 96.3184C286.812 95.7012 287.068 95.2129 287.58 94.8535C288.096 94.4941 288.812 94.3145 289.73 94.3145H291.002V93.5938C291.002 93.1406 290.861 92.7852 290.58 92.5273C290.303 92.2656 289.896 92.1348 289.361 92.1348C288.873 92.1348 288.469 92.2598 288.148 92.5098C287.828 92.7598 287.668 93.0605 287.668 93.4121L286.965 93.4062C286.965 92.9023 287.199 92.4668 287.668 92.0996C288.137 91.7285 288.713 91.543 289.396 91.543C290.104 91.543 290.66 91.7207 291.066 92.0762C291.477 92.4277 291.688 92.9199 291.699 93.5527V96.5527C291.699 97.166 291.764 97.625 291.893 97.9297V98H291.143ZM288.939 97.4961C289.408 97.4961 289.826 97.3828 290.193 97.1562C290.564 96.9297 290.834 96.627 291.002 96.248V94.8535H289.748C289.049 94.8613 288.502 94.9902 288.107 95.2402C287.713 95.4863 287.516 95.8262 287.516 96.2598C287.516 96.6152 287.646 96.9102 287.908 97.1445C288.174 97.3789 288.518 97.4961 288.939 97.4961ZM296.504 92.2578C296.355 92.2305 296.197 92.2168 296.029 92.2168C295.592 92.2168 295.221 92.3398 294.916 92.5859C294.615 92.8281 294.4 93.1816 294.271 93.6465V98H293.574V91.6602H294.26L294.271 92.668C294.643 91.918 295.238 91.543 296.059 91.543C296.254 91.543 296.408 91.5684 296.521 91.6191L296.504 92.2578ZM299 90.0371V91.6602H300.312V92.2344H299V96.459C299 96.8105 299.062 97.0723 299.188 97.2441C299.316 97.416 299.529 97.502 299.826 97.502C299.943 97.502 300.133 97.4824 300.395 97.4434L300.424 98.0176C300.24 98.084 299.99 98.1172 299.674 98.1172C299.193 98.1172 298.844 97.9785 298.625 97.7012C298.406 97.4199 298.297 97.0078 298.297 96.4648V92.2344H297.131V91.6602H298.297V90.0371H299ZM304.221 98.1172C303.682 98.1172 303.193 97.9844 302.756 97.7188C302.322 97.4531 301.984 97.084 301.742 96.6113C301.5 96.1348 301.379 95.6016 301.379 95.0117V94.7598C301.379 94.1504 301.496 93.6016 301.73 93.1133C301.969 92.625 302.299 92.2422 302.721 91.9648C303.143 91.6836 303.6 91.543 304.092 91.543C304.861 91.543 305.471 91.8066 305.92 92.334C306.373 92.8574 306.6 93.5742 306.6 94.4844V94.877H302.076V95.0117C302.076 95.7305 302.281 96.3301 302.691 96.8105C303.105 97.2871 303.625 97.5254 304.25 97.5254C304.625 97.5254 304.955 97.457 305.24 97.3203C305.529 97.1836 305.791 96.9648 306.025 96.6641L306.465 96.998C305.949 97.7441 305.201 98.1172 304.221 98.1172ZM304.092 92.1406C303.564 92.1406 303.119 92.334 302.756 92.7207C302.396 93.1074 302.178 93.627 302.1 94.2793H305.902V94.2031C305.883 93.5938 305.709 93.0977 305.381 92.7148C305.053 92.332 304.623 92.1406 304.092 92.1406ZM308.604 91.6602L308.627 92.6914C308.861 92.3086 309.154 92.0215 309.506 91.8301C309.857 91.6387 310.248 91.543 310.678 91.543C311.678 91.543 312.312 91.9531 312.582 92.7734C312.809 92.3789 313.111 92.0762 313.49 91.8652C313.869 91.6504 314.287 91.543 314.744 91.543C316.104 91.543 316.797 92.2852 316.824 93.7695V98H316.121V93.8223C316.117 93.2559 315.994 92.8359 315.752 92.5625C315.514 92.2891 315.123 92.1523 314.58 92.1523C314.076 92.1602 313.65 92.3242 313.303 92.6445C312.955 92.9609 312.762 93.3477 312.723 93.8047V98H312.02V93.7695C312.016 93.2266 311.887 92.8223 311.633 92.5566C311.383 92.2871 310.996 92.1523 310.473 92.1523C310.031 92.1523 309.652 92.2793 309.336 92.5332C309.02 92.7832 308.785 93.1562 308.633 93.6523V98H307.93V91.6602H308.604ZM321.061 98.1172C320.521 98.1172 320.033 97.9844 319.596 97.7188C319.162 97.4531 318.824 97.084 318.582 96.6113C318.34 96.1348 318.219 95.6016 318.219 95.0117V94.7598C318.219 94.1504 318.336 93.6016 318.57 93.1133C318.809 92.625 319.139 92.2422 319.561 91.9648C319.982 91.6836 320.439 91.543 320.932 91.543C321.701 91.543 322.311 91.8066 322.76 92.334C323.213 92.8574 323.439 93.5742 323.439 94.4844V94.877H318.916V95.0117C318.916 95.7305 319.121 96.3301 319.531 96.8105C319.945 97.2871 320.465 97.5254 321.09 97.5254C321.465 97.5254 321.795 97.457 322.08 97.3203C322.369 97.1836 322.631 96.9648 322.865 96.6641L323.305 96.998C322.789 97.7441 322.041 98.1172 321.061 98.1172ZM320.932 92.1406C320.404 92.1406 319.959 92.334 319.596 92.7207C319.236 93.1074 319.018 93.627 318.939 94.2793H322.742V94.2031C322.723 93.5938 322.549 93.0977 322.221 92.7148C321.893 92.332 321.463 92.1406 320.932 92.1406ZM325.473 91.6602L325.496 92.7441C325.734 92.3535 326.031 92.0566 326.387 91.8535C326.742 91.6465 327.135 91.543 327.564 91.543C328.244 91.543 328.75 91.7344 329.082 92.1172C329.414 92.5 329.582 93.0742 329.586 93.8398V98H328.889V93.834C328.885 93.2676 328.764 92.8457 328.525 92.5684C328.291 92.291 327.914 92.1523 327.395 92.1523C326.961 92.1523 326.576 92.2891 326.24 92.5625C325.908 92.832 325.662 93.1973 325.502 93.6582V98H324.805V91.6602H325.473ZM332.492 90.0371V91.6602H333.805V92.2344H332.492V96.459C332.492 96.8105 332.555 97.0723 332.68 97.2441C332.809 97.416 333.021 97.502 333.318 97.502C333.436 97.502 333.625 97.4824 333.887 97.4434L333.916 98.0176C333.732 98.084 333.482 98.1172 333.166 98.1172C332.686 98.1172 332.336 97.9785 332.117 97.7012C331.898 97.4199 331.789 97.0078 331.789 96.4648V92.2344H330.623V91.6602H331.789V90.0371H332.492Z" fill="black"/>
<path d="M235.35 134.83V138H233.867V129.469H237.131C238.084 129.469 238.84 129.717 239.398 130.213C239.961 130.709 240.242 131.365 240.242 132.182C240.242 133.018 239.967 133.668 239.416 134.133C238.869 134.598 238.102 134.83 237.113 134.83H235.35ZM235.35 133.641H237.131C237.658 133.641 238.061 133.518 238.338 133.271C238.615 133.021 238.754 132.662 238.754 132.193C238.754 131.732 238.613 131.365 238.332 131.092C238.051 130.814 237.664 130.672 237.172 130.664H235.35V133.641ZM244.725 132.961C244.537 132.93 244.344 132.914 244.145 132.914C243.492 132.914 243.053 133.164 242.826 133.664V138H241.402V131.66H242.762L242.797 132.369C243.141 131.818 243.617 131.543 244.227 131.543C244.43 131.543 244.598 131.57 244.73 131.625L244.725 132.961ZM245.146 134.771C245.146 134.15 245.27 133.592 245.516 133.096C245.762 132.596 246.107 132.213 246.553 131.947C246.998 131.678 247.51 131.543 248.088 131.543C248.943 131.543 249.637 131.818 250.168 132.369C250.703 132.92 250.992 133.65 251.035 134.561L251.041 134.895C251.041 135.52 250.92 136.078 250.678 136.57C250.439 137.062 250.096 137.443 249.646 137.713C249.201 137.982 248.686 138.117 248.1 138.117C247.205 138.117 246.488 137.82 245.949 137.227C245.414 136.629 245.146 135.834 245.146 134.842V134.771ZM246.57 134.895C246.57 135.547 246.705 136.059 246.975 136.43C247.244 136.797 247.619 136.98 248.1 136.98C248.58 136.98 248.953 136.793 249.219 136.418C249.488 136.043 249.623 135.494 249.623 134.771C249.623 134.131 249.484 133.623 249.207 133.248C248.934 132.873 248.561 132.686 248.088 132.686C247.623 132.686 247.254 132.871 246.98 133.242C246.707 133.609 246.57 134.16 246.57 134.895ZM253.73 131.66V138.562C253.73 139.211 253.568 139.705 253.244 140.045C252.924 140.389 252.453 140.561 251.832 140.561C251.57 140.561 251.318 140.527 251.076 140.461V139.336C251.225 139.371 251.393 139.389 251.58 139.389C252.053 139.389 252.295 139.131 252.307 138.615V131.66H253.73ZM252.184 130.014C252.184 129.795 252.252 129.613 252.389 129.469C252.529 129.324 252.729 129.252 252.986 129.252C253.244 129.252 253.443 129.324 253.584 129.469C253.725 129.613 253.795 129.795 253.795 130.014C253.795 130.229 253.725 130.408 253.584 130.553C253.443 130.693 253.244 130.764 252.986 130.764C252.729 130.764 252.529 130.693 252.389 130.553C252.252 130.408 252.184 130.229 252.184 130.014ZM258.049 138.117C257.146 138.117 256.414 137.834 255.852 137.268C255.293 136.697 255.014 135.939 255.014 134.994V134.818C255.014 134.186 255.135 133.621 255.377 133.125C255.623 132.625 255.967 132.236 256.408 131.959C256.85 131.682 257.342 131.543 257.885 131.543C258.748 131.543 259.414 131.818 259.883 132.369C260.355 132.92 260.592 133.699 260.592 134.707V135.281H256.449C256.492 135.805 256.666 136.219 256.971 136.523C257.279 136.828 257.666 136.98 258.131 136.98C258.783 136.98 259.314 136.717 259.725 136.189L260.492 136.922C260.238 137.301 259.898 137.596 259.473 137.807C259.051 138.014 258.576 138.117 258.049 138.117ZM257.879 132.686C257.488 132.686 257.172 132.822 256.93 133.096C256.691 133.369 256.539 133.75 256.473 134.238H259.186V134.133C259.154 133.656 259.027 133.297 258.805 133.055C258.582 132.809 258.273 132.686 257.879 132.686ZM264.307 136.98C264.662 136.98 264.957 136.877 265.191 136.67C265.426 136.463 265.551 136.207 265.566 135.902H266.908C266.893 136.297 266.77 136.666 266.539 137.01C266.309 137.35 265.996 137.619 265.602 137.818C265.207 138.018 264.781 138.117 264.324 138.117C263.438 138.117 262.734 137.83 262.215 137.256C261.695 136.682 261.436 135.889 261.436 134.877V134.73C261.436 133.766 261.693 132.994 262.209 132.416C262.725 131.834 263.428 131.543 264.318 131.543C265.072 131.543 265.686 131.764 266.158 132.205C266.635 132.643 266.885 133.219 266.908 133.934H265.566C265.551 133.57 265.426 133.271 265.191 133.037C264.961 132.803 264.666 132.686 264.307 132.686C263.846 132.686 263.49 132.854 263.24 133.189C262.99 133.521 262.863 134.027 262.859 134.707V134.936C262.859 135.623 262.982 136.137 263.229 136.477C263.479 136.812 263.838 136.98 264.307 136.98ZM269.768 130.119V131.66H270.887V132.715H269.768V136.254C269.768 136.496 269.814 136.672 269.908 136.781C270.006 136.887 270.178 136.939 270.424 136.939C270.588 136.939 270.754 136.92 270.922 136.881V137.982C270.598 138.072 270.285 138.117 269.984 138.117C268.891 138.117 268.344 137.514 268.344 136.307V132.715H267.301V131.66H268.344V130.119H269.768ZM273.494 138H272.07V131.66H273.494V138ZM271.982 130.014C271.982 129.795 272.051 129.613 272.188 129.469C272.328 129.324 272.527 129.252 272.785 129.252C273.043 129.252 273.242 129.324 273.383 129.469C273.523 129.613 273.594 129.795 273.594 130.014C273.594 130.229 273.523 130.408 273.383 130.553C273.242 130.693 273.043 130.764 272.785 130.764C272.527 130.764 272.328 130.693 272.188 130.553C272.051 130.408 271.982 130.229 271.982 130.014ZM274.783 134.771C274.783 134.15 274.906 133.592 275.152 133.096C275.398 132.596 275.744 132.213 276.189 131.947C276.635 131.678 277.146 131.543 277.725 131.543C278.58 131.543 279.273 131.818 279.805 132.369C280.34 132.92 280.629 133.65 280.672 134.561L280.678 134.895C280.678 135.52 280.557 136.078 280.314 136.57C280.076 137.062 279.732 137.443 279.283 137.713C278.838 137.982 278.322 138.117 277.736 138.117C276.842 138.117 276.125 137.82 275.586 137.227C275.051 136.629 274.783 135.834 274.783 134.842V134.771ZM276.207 134.895C276.207 135.547 276.342 136.059 276.611 136.43C276.881 136.797 277.256 136.98 277.736 136.98C278.217 136.98 278.59 136.793 278.855 136.418C279.125 136.043 279.26 135.494 279.26 134.771C279.26 134.131 279.121 133.623 278.844 133.248C278.57 132.873 278.197 132.686 277.725 132.686C277.26 132.686 276.891 132.871 276.617 133.242C276.344 133.609 276.207 134.16 276.207 134.895ZM283.203 131.66L283.244 132.393C283.713 131.826 284.328 131.543 285.09 131.543C286.41 131.543 287.082 132.299 287.105 133.811V138H285.682V133.893C285.682 133.49 285.594 133.193 285.418 133.002C285.246 132.807 284.963 132.709 284.568 132.709C283.994 132.709 283.566 132.969 283.285 133.488V138H281.861V131.66H283.203ZM292.051 138V132.715H291.084V131.66H292.051V131.08C292.051 130.377 292.246 129.834 292.637 129.451C293.027 129.068 293.574 128.877 294.277 128.877C294.527 128.877 294.793 128.912 295.074 128.982L295.039 130.096C294.883 130.064 294.701 130.049 294.494 130.049C293.814 130.049 293.475 130.398 293.475 131.098V131.66H294.764V132.715H293.475V138H292.051ZM299.645 137.379C299.227 137.871 298.633 138.117 297.863 138.117C297.176 138.117 296.654 137.916 296.299 137.514C295.947 137.111 295.771 136.529 295.771 135.768V131.66H297.195V135.75C297.195 136.555 297.529 136.957 298.197 136.957C298.889 136.957 299.355 136.709 299.598 136.213V131.66H301.021V138H299.68L299.645 137.379ZM304.256 130.119V131.66H305.375V132.715H304.256V136.254C304.256 136.496 304.303 136.672 304.396 136.781C304.494 136.887 304.666 136.939 304.912 136.939C305.076 136.939 305.242 136.92 305.41 136.881V137.982C305.086 138.072 304.773 138.117 304.473 138.117C303.379 138.117 302.832 137.514 302.832 136.307V132.715H301.789V131.66H302.832V130.119H304.256ZM310.309 137.379C309.891 137.871 309.297 138.117 308.527 138.117C307.84 138.117 307.318 137.916 306.963 137.514C306.611 137.111 306.436 136.529 306.436 135.768V131.66H307.859V135.75C307.859 136.555 308.193 136.957 308.861 136.957C309.553 136.957 310.02 136.709 310.262 136.213V131.66H311.686V138H310.344L310.309 137.379ZM316.455 132.961C316.268 132.93 316.074 132.914 315.875 132.914C315.223 132.914 314.783 133.164 314.557 133.664V138H313.133V131.66H314.492L314.527 132.369C314.871 131.818 315.348 131.543 315.957 131.543C316.16 131.543 316.328 131.57 316.461 131.625L316.455 132.961ZM320.029 138.117C319.127 138.117 318.395 137.834 317.832 137.268C317.273 136.697 316.994 135.939 316.994 134.994V134.818C316.994 134.186 317.115 133.621 317.357 133.125C317.604 132.625 317.947 132.236 318.389 131.959C318.83 131.682 319.322 131.543 319.865 131.543C320.729 131.543 321.395 131.818 321.863 132.369C322.336 132.92 322.572 133.699 322.572 134.707V135.281H318.43C318.473 135.805 318.646 136.219 318.951 136.523C319.26 136.828 319.646 136.98 320.111 136.98C320.764 136.98 321.295 136.717 321.705 136.189L322.473 136.922C322.219 137.301 321.879 137.596 321.453 137.807C321.031 138.014 320.557 138.117 320.029 138.117ZM319.859 132.686C319.469 132.686 319.152 132.822 318.91 133.096C318.672 133.369 318.52 133.75 318.453 134.238H321.166V134.133C321.135 133.656 321.008 133.297 320.785 133.055C320.562 132.809 320.254 132.686 319.859 132.686Z" fill="black"/>
<path d="M243.719 173.484H249.656V176.953H243.719V183.719H240.031V176.953H234.062V173.484H240.031V167.156H243.719V173.484ZM267.844 186H252.547V183.391L260.125 175.125C261.219 173.906 261.995 172.891 262.453 172.078C262.922 171.255 263.156 170.432 263.156 169.609C263.156 168.526 262.849 167.651 262.234 166.984C261.63 166.318 260.812 165.984 259.781 165.984C258.552 165.984 257.599 166.359 256.922 167.109C256.245 167.859 255.906 168.885 255.906 170.188H252.109C252.109 168.802 252.422 167.557 253.047 166.453C253.682 165.339 254.583 164.474 255.75 163.859C256.927 163.245 258.281 162.938 259.812 162.938C262.021 162.938 263.76 163.495 265.031 164.609C266.312 165.714 266.953 167.245 266.953 169.203C266.953 170.339 266.63 171.531 265.984 172.781C265.349 174.021 264.302 175.432 262.844 177.016L257.281 182.969H267.844V186ZM281.016 186H277.234V167.734L271.656 169.641V166.438L280.531 163.172H281.016V186ZM291.531 182C292.24 182 292.786 182.203 293.172 182.609C293.557 183.005 293.75 183.505 293.75 184.109C293.75 184.703 293.557 185.198 293.172 185.594C292.786 185.979 292.24 186.172 291.531 186.172C290.854 186.172 290.318 185.979 289.922 185.594C289.526 185.208 289.328 184.714 289.328 184.109C289.328 183.505 289.521 183.005 289.906 182.609C290.292 182.203 290.833 182 291.531 182ZM302.25 172.891H304.562C305.729 172.88 306.651 172.578 307.328 171.984C308.016 171.391 308.359 170.531 308.359 169.406C308.359 168.323 308.073 167.484 307.5 166.891C306.938 166.286 306.073 165.984 304.906 165.984C303.885 165.984 303.047 166.281 302.391 166.875C301.734 167.458 301.406 168.224 301.406 169.172H297.609C297.609 168.005 297.917 166.943 298.531 165.984C299.156 165.026 300.021 164.281 301.125 163.75C302.24 163.208 303.484 162.938 304.859 162.938C307.13 162.938 308.911 163.51 310.203 164.656C311.505 165.792 312.156 167.375 312.156 169.406C312.156 170.427 311.828 171.391 311.172 172.297C310.526 173.193 309.688 173.87 308.656 174.328C309.906 174.755 310.854 175.427 311.5 176.344C312.156 177.26 312.484 178.354 312.484 179.625C312.484 181.667 311.781 183.292 310.375 184.5C308.979 185.708 307.141 186.312 304.859 186.312C302.672 186.312 300.88 185.729 299.484 184.562C298.089 183.396 297.391 181.844 297.391 179.906H301.188C301.188 180.906 301.521 181.719 302.188 182.344C302.865 182.969 303.771 183.281 304.906 183.281C306.083 183.281 307.01 182.969 307.688 182.344C308.365 181.719 308.703 180.812 308.703 179.625C308.703 178.427 308.349 177.505 307.641 176.859C306.932 176.214 305.88 175.891 304.484 175.891H302.25V172.891ZM315.891 167.625C315.891 166.25 316.333 165.125 317.219 164.25C318.104 163.365 319.266 162.922 320.703 162.922C322.161 162.922 323.328 163.365 324.203 164.25C325.089 165.125 325.531 166.276 325.531 167.703V168.828C325.531 170.193 325.089 171.312 324.203 172.188C323.328 173.062 322.172 173.5 320.734 173.5C319.328 173.5 318.167 173.073 317.25 172.219C316.344 171.354 315.891 170.193 315.891 168.734V167.625ZM318.547 168.828C318.547 169.547 318.745 170.13 319.141 170.578C319.547 171.016 320.078 171.234 320.734 171.234C321.38 171.234 321.901 171.016 322.297 170.578C322.693 170.13 322.891 169.526 322.891 168.766V167.625C322.891 166.906 322.688 166.323 322.281 165.875C321.885 165.427 321.359 165.203 320.703 165.203C320.047 165.203 319.521 165.432 319.125 165.891C318.74 166.339 318.547 166.932 318.547 167.672V168.828ZM326.828 180.422C326.828 179.026 327.281 177.896 328.188 177.031C329.094 176.167 330.25 175.734 331.656 175.734C333.073 175.734 334.229 176.167 335.125 177.031C336.031 177.896 336.484 179.062 336.484 180.531V181.641C336.484 182.995 336.047 184.115 335.172 185C334.307 185.875 333.146 186.312 331.688 186.312C330.229 186.312 329.052 185.88 328.156 185.016C327.271 184.141 326.828 182.99 326.828 181.562V180.422ZM329.484 181.641C329.484 182.349 329.688 182.932 330.094 183.391C330.51 183.839 331.042 184.062 331.688 184.062C332.354 184.062 332.875 183.849 333.25 183.422C333.635 182.984 333.828 182.375 333.828 181.594V180.422C333.828 179.693 333.625 179.109 333.219 178.672C332.812 178.234 332.292 178.016 331.656 178.016C331.01 178.016 330.484 178.234 330.078 178.672C329.682 179.109 329.484 179.714 329.484 180.484V181.641ZM321.516 184.297L319.562 183.172L330.672 165.391L332.625 166.516L321.516 184.297Z" fill="#1CCF2E"/>
<path d="M233.463 214.783C233.463 213.807 233.689 213.023 234.143 212.434C234.596 211.84 235.203 211.543 235.965 211.543C236.637 211.543 237.18 211.777 237.594 212.246V209H239.018V218H237.729L237.658 217.344C237.232 217.859 236.664 218.117 235.953 218.117C235.211 218.117 234.609 217.818 234.148 217.221C233.691 216.623 233.463 215.811 233.463 214.783ZM234.887 214.906C234.887 215.551 235.01 216.055 235.256 216.418C235.506 216.777 235.859 216.957 236.316 216.957C236.898 216.957 237.324 216.697 237.594 216.178V213.471C237.332 212.963 236.91 212.709 236.328 212.709C235.867 212.709 235.512 212.893 235.262 213.26C235.012 213.623 234.887 214.172 234.887 214.906ZM243.295 218.117C242.393 218.117 241.66 217.834 241.098 217.268C240.539 216.697 240.26 215.939 240.26 214.994V214.818C240.26 214.186 240.381 213.621 240.623 213.125C240.869 212.625 241.213 212.236 241.654 211.959C242.096 211.682 242.588 211.543 243.131 211.543C243.994 211.543 244.66 211.818 245.129 212.369C245.602 212.92 245.838 213.699 245.838 214.707V215.281H241.695C241.738 215.805 241.912 216.219 242.217 216.523C242.525 216.828 242.912 216.98 243.377 216.98C244.029 216.98 244.561 216.717 244.971 216.189L245.738 216.922C245.484 217.301 245.145 217.596 244.719 217.807C244.297 218.014 243.822 218.117 243.295 218.117ZM243.125 212.686C242.734 212.686 242.418 212.822 242.176 213.096C241.938 213.369 241.785 213.75 241.719 214.238H244.432V214.133C244.4 213.656 244.273 213.297 244.051 213.055C243.828 212.809 243.52 212.686 243.125 212.686ZM255.582 218H249.846V217.021L252.688 213.922C253.098 213.465 253.389 213.084 253.561 212.779C253.736 212.471 253.824 212.162 253.824 211.854C253.824 211.447 253.709 211.119 253.479 210.869C253.252 210.619 252.945 210.494 252.559 210.494C252.098 210.494 251.74 210.635 251.486 210.916C251.232 211.197 251.105 211.582 251.105 212.07H249.682C249.682 211.551 249.799 211.084 250.033 210.67C250.271 210.252 250.609 209.928 251.047 209.697C251.488 209.467 251.996 209.352 252.57 209.352C253.398 209.352 254.051 209.561 254.527 209.979C255.008 210.393 255.248 210.967 255.248 211.701C255.248 212.127 255.127 212.574 254.885 213.043C254.646 213.508 254.254 214.037 253.707 214.631L251.621 216.863H255.582V218ZM262.227 214.408C262.227 215.635 261.996 216.561 261.535 217.186C261.078 217.807 260.381 218.117 259.443 218.117C258.521 218.117 257.826 217.814 257.357 217.209C256.893 216.6 256.654 215.699 256.643 214.508V213.031C256.643 211.805 256.871 210.885 257.328 210.271C257.789 209.658 258.49 209.352 259.432 209.352C260.365 209.352 261.061 209.65 261.518 210.248C261.979 210.846 262.215 211.74 262.227 212.932V214.408ZM260.803 212.814C260.803 212.014 260.693 211.428 260.475 211.057C260.256 210.682 259.908 210.494 259.432 210.494C258.967 210.494 258.625 210.672 258.406 211.027C258.188 211.379 258.072 211.93 258.061 212.68V214.613C258.061 215.41 258.172 216.004 258.395 216.395C258.617 216.785 258.967 216.98 259.443 216.98C259.9 216.98 260.238 216.801 260.457 216.441C260.676 216.078 260.791 215.512 260.803 214.742V212.814ZM269.223 218H263.486V217.021L266.328 213.922C266.738 213.465 267.029 213.084 267.201 212.779C267.377 212.471 267.465 212.162 267.465 211.854C267.465 211.447 267.35 211.119 267.119 210.869C266.893 210.619 266.586 210.494 266.199 210.494C265.738 210.494 265.381 210.635 265.127 210.916C264.873 211.197 264.746 211.582 264.746 212.07H263.322C263.322 211.551 263.439 211.084 263.674 210.67C263.912 210.252 264.25 209.928 264.688 209.697C265.129 209.467 265.637 209.352 266.211 209.352C267.039 209.352 267.691 209.561 268.168 209.979C268.648 210.393 268.889 210.967 268.889 211.701C268.889 212.127 268.768 212.574 268.525 213.043C268.287 213.508 267.895 214.037 267.348 214.631L265.262 216.863H269.223V218ZM274.162 218H272.744V211.15L270.652 211.865V210.664L273.98 209.439H274.162V218ZM283.994 218C283.932 217.879 283.877 217.682 283.83 217.408C283.377 217.881 282.822 218.117 282.166 218.117C281.529 218.117 281.01 217.936 280.607 217.572C280.205 217.209 280.004 216.76 280.004 216.225C280.004 215.549 280.254 215.031 280.754 214.672C281.258 214.309 281.977 214.127 282.91 214.127H283.783V213.711C283.783 213.383 283.691 213.121 283.508 212.926C283.324 212.727 283.045 212.627 282.67 212.627C282.346 212.627 282.08 212.709 281.873 212.873C281.666 213.033 281.562 213.238 281.562 213.488H280.139C280.139 213.141 280.254 212.816 280.484 212.516C280.715 212.211 281.027 211.973 281.422 211.801C281.82 211.629 282.264 211.543 282.752 211.543C283.494 211.543 284.086 211.73 284.527 212.105C284.969 212.477 285.195 213 285.207 213.676V216.535C285.207 217.105 285.287 217.561 285.447 217.9V218H283.994ZM282.43 216.975C282.711 216.975 282.975 216.906 283.221 216.77C283.471 216.633 283.658 216.449 283.783 216.219V215.023H283.016C282.488 215.023 282.092 215.115 281.826 215.299C281.561 215.482 281.428 215.742 281.428 216.078C281.428 216.352 281.518 216.57 281.697 216.734C281.881 216.895 282.125 216.975 282.43 216.975ZM283.543 210.775H282.359L280.777 209H282.4L283.543 210.775ZM295.332 218H289.596V217.021L292.438 213.922C292.848 213.465 293.139 213.084 293.311 212.779C293.486 212.471 293.574 212.162 293.574 211.854C293.574 211.447 293.459 211.119 293.229 210.869C293.002 210.619 292.695 210.494 292.309 210.494C291.848 210.494 291.49 210.635 291.236 210.916C290.982 211.197 290.855 211.582 290.855 212.07H289.432C289.432 211.551 289.549 211.084 289.783 210.67C290.021 210.252 290.359 209.928 290.797 209.697C291.238 209.467 291.746 209.352 292.32 209.352C293.148 209.352 293.801 209.561 294.277 209.979C294.758 210.393 294.998 210.967 294.998 211.701C294.998 212.127 294.877 212.574 294.635 213.043C294.396 213.508 294.004 214.037 293.457 214.631L291.371 216.863H295.332V218ZM301.977 214.408C301.977 215.635 301.746 216.561 301.285 217.186C300.828 217.807 300.131 218.117 299.193 218.117C298.271 218.117 297.576 217.814 297.107 217.209C296.643 216.6 296.404 215.699 296.393 214.508V213.031C296.393 211.805 296.621 210.885 297.078 210.271C297.539 209.658 298.24 209.352 299.182 209.352C300.115 209.352 300.811 209.65 301.268 210.248C301.729 210.846 301.965 211.74 301.977 212.932V214.408ZM300.553 212.814C300.553 212.014 300.443 211.428 300.225 211.057C300.006 210.682 299.658 210.494 299.182 210.494C298.717 210.494 298.375 210.672 298.156 211.027C297.938 211.379 297.822 211.93 297.811 212.68V214.613C297.811 215.41 297.922 216.004 298.145 216.395C298.367 216.785 298.717 216.98 299.193 216.98C299.65 216.98 299.988 216.801 300.207 216.441C300.426 216.078 300.541 215.512 300.553 214.742V212.814ZM308.973 218H303.236V217.021L306.078 213.922C306.488 213.465 306.779 213.084 306.951 212.779C307.127 212.471 307.215 212.162 307.215 211.854C307.215 211.447 307.1 211.119 306.869 210.869C306.643 210.619 306.336 210.494 305.949 210.494C305.488 210.494 305.131 210.635 304.877 210.916C304.623 211.197 304.496 211.582 304.496 212.07H303.072C303.072 211.551 303.189 211.084 303.424 210.67C303.662 210.252 304 209.928 304.438 209.697C304.879 209.467 305.387 209.352 305.961 209.352C306.789 209.352 307.441 209.561 307.918 209.979C308.398 210.393 308.639 210.967 308.639 211.701C308.639 212.127 308.518 212.574 308.275 213.043C308.037 213.508 307.645 214.037 307.098 214.631L305.012 216.863H308.973V218ZM314.486 209.428V210.605H314.311C313.514 210.617 312.877 210.836 312.4 211.262C311.924 211.688 311.641 212.291 311.551 213.072C312.008 212.592 312.592 212.352 313.303 212.352C314.057 212.352 314.65 212.617 315.084 213.148C315.521 213.68 315.74 214.365 315.74 215.205C315.74 216.072 315.484 216.775 314.973 217.314C314.465 217.85 313.797 218.117 312.969 218.117C312.117 218.117 311.426 217.803 310.895 217.174C310.367 216.545 310.104 215.721 310.104 214.701V214.215C310.104 212.719 310.467 211.547 311.193 210.699C311.924 209.852 312.973 209.428 314.34 209.428H314.486ZM312.957 213.5C312.645 213.5 312.357 213.588 312.096 213.764C311.838 213.939 311.648 214.174 311.527 214.467V214.9C311.527 215.533 311.66 216.037 311.926 216.412C312.191 216.783 312.535 216.969 312.957 216.969C313.379 216.969 313.713 216.811 313.959 216.494C314.205 216.178 314.328 215.762 314.328 215.246C314.328 214.73 314.203 214.311 313.953 213.986C313.703 213.662 313.371 213.5 312.957 213.5Z" fill="black"/>
<path d="M345.939 183.939C345.354 184.525 345.354 185.475 345.939 186.061C346.525 186.646 347.475 186.646 348.061 186.061L345.939 183.939ZM370.5 163C370.5 162.172 369.828 161.5 369 161.5L355.5 161.5C354.672 161.5 354 162.172 354 163C354 163.828 354.672 164.5 355.5 164.5H367.5V176.5C367.5 177.328 368.172 178 369 178C369.828 178 370.5 177.328 370.5 176.5L370.5 163ZM348.061 186.061L370.061 164.061L367.939 161.939L345.939 183.939L348.061 186.061Z" fill="#1CCF2E"/>
<defs>
<filter id="filter0_d" x="0" y="0" width="432" height="288" filterUnits="userSpaceOnUse" color-interpolation-filters="sRGB">
<feFlood flood-opacity="0" result="BackgroundImageFix"/>
<feColorMatrix in="SourceAlpha" type="matrix" values="0 0 0 0 0 0 0 0 0 0 0 0 0 0 0 0 0 0 127 0" result="hardAlpha"/>
<feOffset dx="10" dy="10"/>
<feGaussianBlur stdDeviation="10"/>
<feComposite in2="hardAlpha" operator="out"/>
<feColorMatrix type="matrix" values="0 0 0 0 0 0 0 0 0 0 0 0 0 0 0 0 0 0 0.05 0"/>
<feBlend mode="normal" in2="BackgroundImageFix" result="effect1_dropShadow"/>
<feBlend mode="normal" in="SourceGraphic" in2="effect1_dropShadow" result="shape"/>
</filter>
</defs>
</svg>
