<svg width="16" height="9" viewBox="0 0 16 9" fill="none" xmlns="http://www.w3.org/2000/svg">
<path d="M15.8822 4.15385C13.8396 1.58242 11.0638 0 8 0C4.93617 0 2.16039 1.58242 0.11784 4.15385C-0.0392799 4.37637 -0.0392799 4.64835 0.11784 4.87088C2.16039 7.41758 4.93617 9 8 9C11.0638 9 13.8396 7.41758 15.8822 4.84615C16.0393 4.64835 16.0393 4.35165 15.8822 4.15385ZM11.3519 4.6978C11.2471 6.28022 9.88543 7.56593 8.20949 7.66484C6.16694 7.78846 4.51718 6.20604 4.62193 4.27747C4.72668 2.69506 6.08838 1.40934 7.76432 1.31044C9.80687 1.21154 11.4828 2.79396 11.3519 4.6978ZM9.80687 4.5989C9.7545 5.43956 9.02128 6.13187 8.10475 6.20604C7.00491 6.28022 6.11457 5.41484 6.16694 4.37637C6.21931 3.53571 6.95254 2.84341 7.86907 2.76923C8.9689 2.71978 9.88543 3.58517 9.80687 4.5989Z" fill="#FF862F"/>
</svg>
