<svg width="20" height="21" viewBox="0 0 20 21" fill="none" xmlns="http://www.w3.org/2000/svg">
<path d="M10 0.5C4.48601 0.5 0 4.98601 0 10.5C0 16.014 4.48601 20.5 10 20.5C15.514 20.5 20 16.014 20 10.5C20 4.98601 15.514 0.5 10 0.5ZM10 19.5903C4.98772 19.5903 0.909711 15.5125 0.909711 10.5C0.909711 5.48749 4.98772 1.40971 10 1.40971C15.0123 1.40971 19.0903 5.48749 19.0903 10.5C19.0903 15.5125 15.0123 19.5903 10 19.5903ZM17.2479 7.86684H12.8708V3.41039C12.8708 3.15931 12.667 2.95554 12.416 2.95554H7.74232C7.49124 2.95554 7.28747 3.15931 7.28747 3.41039V7.86684H2.83125C2.58017 7.86684 2.37639 8.07062 2.37639 8.3217V12.9951C2.37639 13.2462 2.58017 13.45 2.83125 13.45H7.2877V17.8273C7.2877 18.0783 7.49147 18.2821 7.74255 18.2821H12.4162C12.6673 18.2821 12.871 18.0783 12.871 17.8273V13.45H17.2481C17.4992 13.45 17.703 13.2462 17.703 12.9951V8.3217C17.7028 8.07039 17.4992 7.86684 17.2479 7.86684Z" fill="#FF862F"/>
</svg>
