<svg width="20" height="16" viewBox="0 0 20 16" fill="none" xmlns="http://www.w3.org/2000/svg">
<path d="M4.71387 10.1429H4.76207V10.0942L4.71387 10.1429Z" fill="#FF862F"/>
<path d="M0 1.09539V15.3809H6.1903H8.09546V6.7612V1.09539V0.619101H0V1.09539ZM6.66683 13.952H6.19054H4.76192V12.0474H6.19054H6.66683V13.952ZM4.76192 2.04773H6.66683V3.95264H4.76192V2.04773ZM4.76192 5.38102H6.66683V7.28569H4.76192V5.38102ZM4.76192 10.0942V8.71431H6.14235H6.66659V10.6187H6.1903H4.76167V10.1429H4.71347L4.76192 10.0942ZM1.42862 2.04773H3.33354V3.95264H1.42862V2.04773ZM1.42862 5.38102H3.33354V7.28569H1.42862V5.38102ZM1.42862 8.71431H3.33354V10.6187H1.42862V8.71431ZM1.42862 12.0474H3.33354V13.952H1.42862V12.0474Z" fill="#FF862F"/>
<path d="M19.0477 12.0474H20.0001L17.1431 8.66216V5.85706H15.7147V7.24837L12.8572 4.42868L10.0301 7.26418L9.04785 8.23802V15.3809H19.0477V12.0474Z" fill="#FF862F"/>
</svg>
