<svg width="432" height="240" viewBox="0 0 432 240" fill="none" xmlns="http://www.w3.org/2000/svg">
<g filter="url(#filter0_d)">
<rect x="10" y="10" width="392" height="200" fill="white"/>
</g>
<path d="M29.5186 39.833L32.0479 32.0469H33.9482L30.3662 42H28.6914L25.123 32.0469H27.0166L29.5186 39.833ZM37.8721 42.1367C36.8193 42.1367 35.9648 41.8063 35.3086 41.1455C34.6569 40.4801 34.3311 39.596 34.3311 38.4932V38.2881C34.3311 37.5498 34.4723 36.8913 34.7549 36.3125C35.042 35.7292 35.443 35.2757 35.958 34.9521C36.473 34.6286 37.0472 34.4668 37.6807 34.4668C38.6878 34.4668 39.4648 34.7881 40.0117 35.4307C40.5632 36.0732 40.8389 36.9824 40.8389 38.1582V38.8281H36.0059C36.056 39.4388 36.2588 39.9219 36.6143 40.2773C36.9743 40.6328 37.4255 40.8105 37.9678 40.8105C38.7288 40.8105 39.3486 40.5029 39.8271 39.8877L40.7227 40.7422C40.4264 41.1842 40.0299 41.5283 39.5332 41.7744C39.041 42.016 38.4873 42.1367 37.8721 42.1367ZM37.6738 35.7998C37.2181 35.7998 36.849 35.9593 36.5664 36.2783C36.2884 36.5973 36.1107 37.0417 36.0332 37.6113H39.1982V37.4883C39.1618 36.9323 39.0137 36.513 38.7539 36.2305C38.4941 35.9434 38.1341 35.7998 37.6738 35.7998ZM43.6758 34.6035L43.7236 35.458C44.2705 34.7972 44.9883 34.4668 45.877 34.4668C47.4173 34.4668 48.2012 35.3486 48.2285 37.1123V42H46.5674V37.208C46.5674 36.7386 46.4648 36.3923 46.2598 36.1689C46.0592 35.9411 45.7288 35.8271 45.2686 35.8271C44.5986 35.8271 44.0996 36.1302 43.7715 36.7363V42H42.1104V34.6035H43.6758ZM52.0088 32.8057V34.6035H53.3145V35.834H52.0088V39.9629C52.0088 40.2454 52.0635 40.4505 52.1729 40.5781C52.2868 40.7012 52.4873 40.7627 52.7744 40.7627C52.9658 40.7627 53.1595 40.7399 53.3555 40.6943V41.9795C52.9772 42.0843 52.6126 42.1367 52.2617 42.1367C50.9857 42.1367 50.3477 41.4326 50.3477 40.0244V35.834H49.1309V34.6035H50.3477V32.8057H52.0088ZM57.8467 42.1367C56.7939 42.1367 55.9395 41.8063 55.2832 41.1455C54.6315 40.4801 54.3057 39.596 54.3057 38.4932V38.2881C54.3057 37.5498 54.4469 36.8913 54.7295 36.3125C55.0166 35.7292 55.4176 35.2757 55.9326 34.9521C56.4476 34.6286 57.0218 34.4668 57.6553 34.4668C58.6624 34.4668 59.4395 34.7881 59.9863 35.4307C60.5378 36.0732 60.8135 36.9824 60.8135 38.1582V38.8281H55.9805C56.0306 39.4388 56.2334 39.9219 56.5889 40.2773C56.9489 40.6328 57.4001 40.8105 57.9424 40.8105C58.7035 40.8105 59.3232 40.5029 59.8018 39.8877L60.6973 40.7422C60.401 41.1842 60.0046 41.5283 59.5078 41.7744C59.0156 42.016 58.4619 42.1367 57.8467 42.1367ZM57.6484 35.7998C57.1927 35.7998 56.8236 35.9593 56.541 36.2783C56.263 36.5973 56.0853 37.0417 56.0078 37.6113H59.1729V37.4883C59.1364 36.9323 58.9883 36.513 58.7285 36.2305C58.4688 35.9434 58.1087 35.7998 57.6484 35.7998ZM66.2549 39.9902C66.2549 39.694 66.1318 39.4684 65.8857 39.3135C65.6442 39.1585 65.2409 39.0218 64.6758 38.9033C64.1107 38.7848 63.639 38.6344 63.2607 38.4521C62.4313 38.0511 62.0166 37.4701 62.0166 36.709C62.0166 36.071 62.2855 35.5378 62.8232 35.1094C63.361 34.681 64.0446 34.4668 64.874 34.4668C65.7581 34.4668 66.4714 34.6855 67.0137 35.123C67.5605 35.5605 67.834 36.1279 67.834 36.8252H66.1729C66.1729 36.5062 66.0544 36.2419 65.8174 36.0322C65.5804 35.818 65.266 35.7109 64.874 35.7109C64.5094 35.7109 64.2109 35.7952 63.9785 35.9639C63.7507 36.1325 63.6367 36.3581 63.6367 36.6406C63.6367 36.8958 63.7438 37.0941 63.958 37.2354C64.1722 37.3766 64.6051 37.5202 65.2568 37.666C65.9085 37.8073 66.4189 37.9782 66.7881 38.1787C67.1618 38.3747 67.4375 38.6117 67.6152 38.8896C67.7975 39.1676 67.8887 39.5049 67.8887 39.9014C67.8887 40.5667 67.613 41.1068 67.0615 41.5215C66.5101 41.9316 65.7878 42.1367 64.8945 42.1367C64.2884 42.1367 63.7484 42.0273 63.2744 41.8086C62.8005 41.5898 62.4313 41.2891 62.167 40.9062C61.9027 40.5234 61.7705 40.111 61.7705 39.6689H63.3838C63.4066 40.0609 63.5547 40.3639 63.8281 40.5781C64.1016 40.7878 64.4639 40.8926 64.915 40.8926C65.3525 40.8926 65.6852 40.8105 65.9131 40.6465C66.141 40.4779 66.2549 40.2591 66.2549 39.9902ZM72.5166 38.2471C72.5166 37.1077 72.7809 36.194 73.3096 35.5059C73.8382 34.8132 74.5469 34.4668 75.4355 34.4668C76.2194 34.4668 76.8529 34.7402 77.3359 35.2871V31.5H78.9971V42H77.4932L77.4111 41.2344C76.9144 41.8359 76.2513 42.1367 75.4219 42.1367C74.556 42.1367 73.8542 41.7881 73.3164 41.0908C72.7832 40.3936 72.5166 39.4456 72.5166 38.2471ZM74.1777 38.3906C74.1777 39.1426 74.3213 39.7305 74.6084 40.1543C74.9001 40.5736 75.3125 40.7832 75.8457 40.7832C76.5247 40.7832 77.0215 40.4801 77.3359 39.874V36.7158C77.0306 36.1234 76.5384 35.8271 75.8594 35.8271C75.3216 35.8271 74.9069 36.0413 74.6152 36.4697C74.3236 36.8936 74.1777 37.5339 74.1777 38.3906ZM83.9873 42.1367C82.9346 42.1367 82.0801 41.8063 81.4238 41.1455C80.7721 40.4801 80.4463 39.596 80.4463 38.4932V38.2881C80.4463 37.5498 80.5876 36.8913 80.8701 36.3125C81.1572 35.7292 81.5583 35.2757 82.0732 34.9521C82.5882 34.6286 83.1624 34.4668 83.7959 34.4668C84.8031 34.4668 85.5801 34.7881 86.127 35.4307C86.6784 36.0732 86.9541 36.9824 86.9541 38.1582V38.8281H82.1211C82.1712 39.4388 82.374 39.9219 82.7295 40.2773C83.0895 40.6328 83.5407 40.8105 84.083 40.8105C84.8441 40.8105 85.4639 40.5029 85.9424 39.8877L86.8379 40.7422C86.5417 41.1842 86.1452 41.5283 85.6484 41.7744C85.1562 42.016 84.6025 42.1367 83.9873 42.1367ZM83.7891 35.7998C83.3333 35.7998 82.9642 35.9593 82.6816 36.2783C82.4036 36.5973 82.2259 37.0417 82.1484 37.6113H85.3135V37.4883C85.277 36.9323 85.1289 36.513 84.8691 36.2305C84.6094 35.9434 84.2493 35.7998 83.7891 35.7998ZM93.5029 42H91.8418V31.5H93.5029V42ZM95.0068 38.2334C95.0068 37.5088 95.1504 36.8571 95.4375 36.2783C95.7246 35.695 96.1279 35.2484 96.6475 34.9385C97.167 34.624 97.764 34.4668 98.4385 34.4668C99.4365 34.4668 100.245 34.7881 100.865 35.4307C101.49 36.0732 101.827 36.9255 101.877 37.9873L101.884 38.377C101.884 39.1061 101.743 39.7578 101.46 40.332C101.182 40.9062 100.781 41.3506 100.257 41.665C99.7373 41.9795 99.1357 42.1367 98.4521 42.1367C97.4085 42.1367 96.5723 41.7904 95.9434 41.0977C95.319 40.4004 95.0068 39.473 95.0068 38.3154V38.2334ZM96.668 38.377C96.668 39.138 96.8252 39.735 97.1396 40.168C97.4541 40.5964 97.8916 40.8105 98.4521 40.8105C99.0127 40.8105 99.4479 40.5918 99.7578 40.1543C100.072 39.7168 100.229 39.0765 100.229 38.2334C100.229 37.486 100.068 36.8936 99.7441 36.4561C99.4251 36.0186 98.9899 35.7998 98.4385 35.7998C97.8962 35.7998 97.4655 36.0163 97.1465 36.4492C96.8275 36.8776 96.668 37.5202 96.668 38.377ZM102.998 38.2471C102.998 37.0986 103.267 36.1826 103.805 35.499C104.347 34.8109 105.065 34.4668 105.958 34.4668C106.801 34.4668 107.464 34.7607 107.947 35.3486L108.022 34.6035H109.52V41.7744C109.52 42.7451 109.216 43.5107 108.61 44.0713C108.009 44.6318 107.195 44.9121 106.17 44.9121C105.628 44.9121 105.097 44.7982 104.577 44.5703C104.062 44.347 103.67 44.0531 103.401 43.6885L104.188 42.6904C104.698 43.2965 105.327 43.5996 106.074 43.5996C106.626 43.5996 107.061 43.4492 107.38 43.1484C107.699 42.8522 107.858 42.4147 107.858 41.8359V41.3369C107.38 41.8701 106.742 42.1367 105.944 42.1367C105.078 42.1367 104.37 41.7926 103.818 41.1045C103.271 40.4163 102.998 39.4639 102.998 38.2471ZM104.652 38.3906C104.652 39.1335 104.803 39.7191 105.104 40.1475C105.409 40.5713 105.83 40.7832 106.368 40.7832C107.038 40.7832 107.535 40.4961 107.858 39.9219V36.668C107.544 36.1074 107.052 35.8271 106.382 35.8271C105.835 35.8271 105.409 36.0436 105.104 36.4766C104.803 36.9095 104.652 37.5475 104.652 38.3906ZM114.489 42.1367C113.437 42.1367 112.582 41.8063 111.926 41.1455C111.274 40.4801 110.948 39.596 110.948 38.4932V38.2881C110.948 37.5498 111.09 36.8913 111.372 36.3125C111.659 35.7292 112.06 35.2757 112.575 34.9521C113.09 34.6286 113.664 34.4668 114.298 34.4668C115.305 34.4668 116.082 34.7881 116.629 35.4307C117.18 36.0732 117.456 36.9824 117.456 38.1582V38.8281H112.623C112.673 39.4388 112.876 39.9219 113.231 40.2773C113.591 40.6328 114.043 40.8105 114.585 40.8105C115.346 40.8105 115.966 40.5029 116.444 39.8877L117.34 40.7422C117.044 41.1842 116.647 41.5283 116.15 41.7744C115.658 42.016 115.104 42.1367 114.489 42.1367ZM114.291 35.7998C113.835 35.7998 113.466 35.9593 113.184 36.2783C112.906 36.5973 112.728 37.0417 112.65 37.6113H115.815V37.4883C115.779 36.9323 115.631 36.513 115.371 36.2305C115.111 35.9434 114.751 35.7998 114.291 35.7998ZM120.313 34.6035L120.361 35.376C120.881 34.7699 121.592 34.4668 122.494 34.4668C123.483 34.4668 124.16 34.8451 124.524 35.6016C125.062 34.8451 125.819 34.4668 126.794 34.4668C127.61 34.4668 128.216 34.6924 128.612 35.1436C129.013 35.5947 129.218 36.2601 129.228 37.1396V42H127.566V37.1875C127.566 36.7181 127.464 36.374 127.259 36.1553C127.054 35.9365 126.714 35.8271 126.24 35.8271C125.862 35.8271 125.552 35.9297 125.311 36.1348C125.074 36.3353 124.907 36.5996 124.812 36.9277L124.818 42H123.157V37.1328C123.134 36.2624 122.69 35.8271 121.824 35.8271C121.159 35.8271 120.687 36.0983 120.409 36.6406V42H118.748V34.6035H120.313ZM134.19 42.1367C133.138 42.1367 132.283 41.8063 131.627 41.1455C130.975 40.4801 130.649 39.596 130.649 38.4932V38.2881C130.649 37.5498 130.791 36.8913 131.073 36.3125C131.36 35.7292 131.761 35.2757 132.276 34.9521C132.791 34.6286 133.366 34.4668 133.999 34.4668C135.006 34.4668 135.783 34.7881 136.33 35.4307C136.882 36.0732 137.157 36.9824 137.157 38.1582V38.8281H132.324C132.374 39.4388 132.577 39.9219 132.933 40.2773C133.293 40.6328 133.744 40.8105 134.286 40.8105C135.047 40.8105 135.667 40.5029 136.146 39.8877L137.041 40.7422C136.745 41.1842 136.348 41.5283 135.852 41.7744C135.359 42.016 134.806 42.1367 134.19 42.1367ZM133.992 35.7998C133.536 35.7998 133.167 35.9593 132.885 36.2783C132.607 36.5973 132.429 37.0417 132.352 37.6113H135.517V37.4883C135.48 36.9323 135.332 36.513 135.072 36.2305C134.812 35.9434 134.452 35.7998 133.992 35.7998ZM139.994 34.6035L140.042 35.458C140.589 34.7972 141.307 34.4668 142.195 34.4668C143.736 34.4668 144.52 35.3486 144.547 37.1123V42H142.886V37.208C142.886 36.7386 142.783 36.3923 142.578 36.1689C142.378 35.9411 142.047 35.8271 141.587 35.8271C140.917 35.8271 140.418 36.1302 140.09 36.7363V42H138.429V34.6035H139.994ZM148.327 32.8057V34.6035H149.633V35.834H148.327V39.9629C148.327 40.2454 148.382 40.4505 148.491 40.5781C148.605 40.7012 148.806 40.7627 149.093 40.7627C149.284 40.7627 149.478 40.7399 149.674 40.6943V41.9795C149.296 42.0843 148.931 42.1367 148.58 42.1367C147.304 42.1367 146.666 41.4326 146.666 40.0244V35.834H145.449V34.6035H146.666V32.8057H148.327ZM155.054 39.9902C155.054 39.694 154.931 39.4684 154.685 39.3135C154.443 39.1585 154.04 39.0218 153.475 38.9033C152.91 38.7848 152.438 38.6344 152.06 38.4521C151.23 38.0511 150.815 37.4701 150.815 36.709C150.815 36.071 151.084 35.5378 151.622 35.1094C152.16 34.681 152.843 34.4668 153.673 34.4668C154.557 34.4668 155.27 34.6855 155.812 35.123C156.359 35.5605 156.633 36.1279 156.633 36.8252H154.972C154.972 36.5062 154.853 36.2419 154.616 36.0322C154.379 35.818 154.065 35.7109 153.673 35.7109C153.308 35.7109 153.01 35.7952 152.777 35.9639C152.549 36.1325 152.436 36.3581 152.436 36.6406C152.436 36.8958 152.543 37.0941 152.757 37.2354C152.971 37.3766 153.404 37.5202 154.056 37.666C154.707 37.8073 155.218 37.9782 155.587 38.1787C155.961 38.3747 156.236 38.6117 156.414 38.8896C156.596 39.1676 156.688 39.5049 156.688 39.9014C156.688 40.5667 156.412 41.1068 155.86 41.5215C155.309 41.9316 154.587 42.1367 153.693 42.1367C153.087 42.1367 152.547 42.0273 152.073 41.8086C151.599 41.5898 151.23 41.2891 150.966 40.9062C150.701 40.5234 150.569 40.111 150.569 39.6689H152.183C152.205 40.0609 152.354 40.3639 152.627 40.5781C152.9 40.7878 153.263 40.8926 153.714 40.8926C154.151 40.8926 154.484 40.8105 154.712 40.6465C154.94 40.4779 155.054 40.2591 155.054 39.9902Z" fill="black"/>
<path d="M140.179 80.7549L142.21 74.8906H143.235L140.599 82H139.769L137.137 74.8906H138.157L140.179 80.7549ZM146.028 82.0977C145.312 82.0977 144.729 81.8633 144.28 81.3945C143.831 80.9225 143.606 80.2926 143.606 79.5049V79.3389C143.606 78.8148 143.706 78.3477 143.904 77.9375C144.106 77.5241 144.386 77.2018 144.744 76.9707C145.105 76.7363 145.496 76.6191 145.916 76.6191C146.603 76.6191 147.137 76.8454 147.518 77.2979C147.898 77.7503 148.089 78.3981 148.089 79.2412V79.6172H144.51C144.523 80.138 144.674 80.5596 144.964 80.8818C145.257 81.2008 145.628 81.3604 146.077 81.3604C146.396 81.3604 146.666 81.2952 146.888 81.165C147.109 81.0348 147.303 80.8623 147.469 80.6475L148.021 81.0771C147.578 81.7575 146.914 82.0977 146.028 82.0977ZM145.916 77.3613C145.551 77.3613 145.245 77.4948 144.998 77.7617C144.751 78.0254 144.598 78.3965 144.539 78.875H147.186V78.8066C147.16 78.3477 147.036 77.9928 146.814 77.7422C146.593 77.4883 146.294 77.3613 145.916 77.3613ZM149.993 76.7168L150.022 77.3809C150.426 76.873 150.953 76.6191 151.604 76.6191C152.721 76.6191 153.284 77.249 153.294 78.5088V82H152.391V78.5039C152.387 78.123 152.299 77.8415 152.127 77.6592C151.958 77.4769 151.692 77.3857 151.331 77.3857C151.038 77.3857 150.781 77.4639 150.56 77.6201C150.338 77.7764 150.166 77.9814 150.042 78.2354V82H149.139V76.7168H149.993ZM155.882 75.4375V76.7168H156.868V77.415H155.882V80.6914C155.882 80.903 155.926 81.0625 156.014 81.1699C156.102 81.2741 156.251 81.3262 156.463 81.3262C156.567 81.3262 156.71 81.3066 156.893 81.2676V82C156.655 82.0651 156.424 82.0977 156.199 82.0977C155.796 82.0977 155.491 81.9756 155.286 81.7314C155.081 81.4873 154.979 81.1406 154.979 80.6914V77.415H154.017V76.7168H154.979V75.4375H155.882ZM160.12 82.0977C159.404 82.0977 158.821 81.8633 158.372 81.3945C157.923 80.9225 157.698 80.2926 157.698 79.5049V79.3389C157.698 78.8148 157.798 78.3477 157.996 77.9375C158.198 77.5241 158.478 77.2018 158.836 76.9707C159.197 76.7363 159.588 76.6191 160.008 76.6191C160.695 76.6191 161.229 76.8454 161.609 77.2979C161.99 77.7503 162.181 78.3981 162.181 79.2412V79.6172H158.602C158.615 80.138 158.766 80.5596 159.056 80.8818C159.349 81.2008 159.72 81.3604 160.169 81.3604C160.488 81.3604 160.758 81.2952 160.979 81.165C161.201 81.0348 161.395 80.8623 161.561 80.6475L162.112 81.0771C161.67 81.7575 161.006 82.0977 160.12 82.0977ZM160.008 77.3613C159.643 77.3613 159.337 77.4948 159.09 77.7617C158.842 78.0254 158.689 78.3965 158.631 78.875H161.277V78.8066C161.251 78.3477 161.128 77.9928 160.906 77.7422C160.685 77.4883 160.385 77.3613 160.008 77.3613ZM165.491 79.3145C165.491 78.5039 165.683 77.8529 166.067 77.3613C166.451 76.8665 166.954 76.6191 167.576 76.6191C168.195 76.6191 168.685 76.8307 169.046 77.2539V74.5H169.949V82H169.119L169.075 81.4336C168.714 81.8763 168.211 82.0977 167.566 82.0977C166.954 82.0977 166.455 81.847 166.067 81.3457C165.683 80.8444 165.491 80.1901 165.491 79.3828V79.3145ZM166.395 79.417C166.395 80.016 166.518 80.4847 166.766 80.8232C167.013 81.1618 167.355 81.3311 167.791 81.3311C168.364 81.3311 168.782 81.0739 169.046 80.5596V78.1328C168.776 77.6348 168.361 77.3857 167.801 77.3857C167.358 77.3857 167.013 77.5566 166.766 77.8984C166.518 78.2402 166.395 78.7464 166.395 79.417ZM173.548 82.0977C172.832 82.0977 172.249 81.8633 171.8 81.3945C171.351 80.9225 171.126 80.2926 171.126 79.5049V79.3389C171.126 78.8148 171.225 78.3477 171.424 77.9375C171.626 77.5241 171.906 77.2018 172.264 76.9707C172.625 76.7363 173.016 76.6191 173.436 76.6191C174.122 76.6191 174.656 76.8454 175.037 77.2979C175.418 77.7503 175.608 78.3981 175.608 79.2412V79.6172H172.029C172.042 80.138 172.194 80.5596 172.483 80.8818C172.776 81.2008 173.147 81.3604 173.597 81.3604C173.916 81.3604 174.186 81.2952 174.407 81.165C174.629 81.0348 174.822 80.8623 174.988 80.6475L175.54 81.0771C175.097 81.7575 174.433 82.0977 173.548 82.0977ZM173.436 77.3613C173.071 77.3613 172.765 77.4948 172.518 77.7617C172.27 78.0254 172.117 78.3965 172.059 78.875H174.705V78.8066C174.679 78.3477 174.555 77.9928 174.334 77.7422C174.113 77.4883 173.813 77.3613 173.436 77.3613ZM179.988 76.7168L180.013 77.3027C180.4 76.847 180.923 76.6191 181.58 76.6191C182.319 76.6191 182.822 76.9023 183.089 77.4688C183.265 77.2148 183.493 77.0098 183.772 76.8535C184.056 76.6973 184.389 76.6191 184.773 76.6191C185.932 76.6191 186.521 77.2327 186.541 78.46V82H185.638V78.5137C185.638 78.1361 185.551 77.8545 185.379 77.6689C185.206 77.4801 184.917 77.3857 184.51 77.3857C184.174 77.3857 183.896 77.4867 183.675 77.6885C183.453 77.887 183.325 78.1556 183.289 78.4941V82H182.381V78.5381C182.381 77.7699 182.005 77.3857 181.253 77.3857C180.66 77.3857 180.255 77.638 180.037 78.1426V82H179.134V76.7168H179.988ZM191.17 82C191.118 81.8958 191.076 81.7103 191.043 81.4434C190.623 81.8796 190.122 82.0977 189.539 82.0977C189.018 82.0977 188.59 81.9512 188.255 81.6582C187.923 81.362 187.757 80.9876 187.757 80.5352C187.757 79.985 187.965 79.5586 188.382 79.2559C188.802 78.9499 189.391 78.7969 190.149 78.7969H191.028V78.3818C191.028 78.0661 190.934 77.8154 190.745 77.6299C190.556 77.4411 190.278 77.3467 189.91 77.3467C189.588 77.3467 189.318 77.4281 189.1 77.5908C188.882 77.7536 188.772 77.9505 188.772 78.1816H187.864C187.864 77.918 187.957 77.6641 188.143 77.4199C188.331 77.1725 188.585 76.9772 188.904 76.834C189.227 76.6908 189.58 76.6191 189.964 76.6191C190.573 76.6191 191.049 76.7721 191.395 77.0781C191.74 77.3809 191.919 77.7992 191.932 78.333V80.7646C191.932 81.2497 191.993 81.6354 192.117 81.9219V82H191.17ZM189.671 81.3115C189.954 81.3115 190.223 81.2383 190.477 81.0918C190.73 80.9453 190.914 80.7549 191.028 80.5205V79.4365H190.32C189.214 79.4365 188.66 79.7604 188.66 80.4082C188.66 80.6914 188.755 80.9128 188.943 81.0723C189.132 81.2318 189.375 81.3115 189.671 81.3115ZM194.329 82H193.426V76.7168H194.329V82ZM193.353 75.3154C193.353 75.1689 193.396 75.0452 193.484 74.9443C193.576 74.8434 193.709 74.793 193.885 74.793C194.061 74.793 194.194 74.8434 194.285 74.9443C194.376 75.0452 194.422 75.1689 194.422 75.3154C194.422 75.4619 194.376 75.584 194.285 75.6816C194.194 75.7793 194.061 75.8281 193.885 75.8281C193.709 75.8281 193.576 75.7793 193.484 75.6816C193.396 75.584 193.353 75.4619 193.353 75.3154ZM198.855 80.5986C198.855 80.3545 198.763 80.1657 198.577 80.0322C198.395 79.8955 198.074 79.7783 197.615 79.6807C197.16 79.583 196.797 79.4658 196.526 79.3291C196.259 79.1924 196.061 79.0296 195.931 78.8408C195.804 78.652 195.74 78.4274 195.74 78.167C195.74 77.734 195.923 77.3678 196.287 77.0684C196.655 76.7689 197.124 76.6191 197.693 76.6191C198.292 76.6191 198.777 76.7738 199.148 77.083C199.523 77.3923 199.71 77.7878 199.71 78.2695H198.802C198.802 78.0221 198.696 77.8089 198.484 77.6299C198.276 77.4508 198.012 77.3613 197.693 77.3613C197.365 77.3613 197.107 77.4329 196.922 77.5762C196.736 77.7194 196.644 77.9066 196.644 78.1377C196.644 78.3558 196.73 78.5202 196.902 78.6309C197.075 78.7415 197.386 78.8473 197.835 78.9482C198.287 79.0492 198.654 79.1696 198.934 79.3096C199.214 79.4495 199.42 79.6188 199.554 79.8174C199.69 80.0127 199.759 80.252 199.759 80.5352C199.759 81.0072 199.57 81.3864 199.192 81.6729C198.815 81.9561 198.325 82.0977 197.723 82.0977C197.299 82.0977 196.925 82.0228 196.6 81.873C196.274 81.7233 196.019 81.515 195.833 81.248C195.651 80.9779 195.56 80.6865 195.56 80.374H196.463C196.479 80.6768 196.6 80.9176 196.824 81.0967C197.052 81.2725 197.352 81.3604 197.723 81.3604C198.064 81.3604 198.338 81.292 198.543 81.1553C198.751 81.0153 198.855 80.8298 198.855 80.5986ZM200.696 79.3096C200.696 78.792 200.797 78.3265 200.999 77.9131C201.204 77.4997 201.487 77.1807 201.849 76.9561C202.213 76.7314 202.628 76.6191 203.094 76.6191C203.813 76.6191 204.394 76.8682 204.837 77.3662C205.283 77.8643 205.506 78.5267 205.506 79.3535V79.417C205.506 79.9313 205.407 80.3936 205.208 80.8037C205.013 81.2106 204.731 81.528 204.363 81.7559C203.999 81.9837 203.579 82.0977 203.104 82.0977C202.387 82.0977 201.806 81.8486 201.36 81.3506C200.918 80.8525 200.696 80.1934 200.696 79.373V79.3096ZM201.604 79.417C201.604 80.0029 201.74 80.4733 202.01 80.8281C202.283 81.1829 202.648 81.3604 203.104 81.3604C203.562 81.3604 203.927 81.1813 204.197 80.8232C204.467 80.4619 204.603 79.9574 204.603 79.3096C204.603 78.7301 204.464 78.2614 204.188 77.9033C203.914 77.542 203.549 77.3613 203.094 77.3613C202.648 77.3613 202.288 77.5387 202.015 77.8936C201.741 78.2484 201.604 78.7562 201.604 79.417ZM207.493 76.7168L207.522 77.3809C207.926 76.873 208.453 76.6191 209.104 76.6191C210.221 76.6191 210.784 77.249 210.794 78.5088V82H209.891V78.5039C209.887 78.123 209.799 77.8415 209.627 77.6592C209.458 77.4769 209.192 77.3857 208.831 77.3857C208.538 77.3857 208.281 77.4639 208.06 77.6201C207.838 77.7764 207.666 77.9814 207.542 78.2354V82H206.639V76.7168H207.493Z" fill="black"/>
<path d="M140.179 136.755L142.21 130.891H143.235L140.599 138H139.769L137.137 130.891H138.157L140.179 136.755ZM146.028 138.098C145.312 138.098 144.729 137.863 144.28 137.395C143.831 136.923 143.606 136.293 143.606 135.505V135.339C143.606 134.815 143.706 134.348 143.904 133.938C144.106 133.524 144.386 133.202 144.744 132.971C145.105 132.736 145.496 132.619 145.916 132.619C146.603 132.619 147.137 132.845 147.518 133.298C147.898 133.75 148.089 134.398 148.089 135.241V135.617H144.51C144.523 136.138 144.674 136.56 144.964 136.882C145.257 137.201 145.628 137.36 146.077 137.36C146.396 137.36 146.666 137.295 146.888 137.165C147.109 137.035 147.303 136.862 147.469 136.647L148.021 137.077C147.578 137.757 146.914 138.098 146.028 138.098ZM145.916 133.361C145.551 133.361 145.245 133.495 144.998 133.762C144.751 134.025 144.598 134.396 144.539 134.875H147.186V134.807C147.16 134.348 147.036 133.993 146.814 133.742C146.593 133.488 146.294 133.361 145.916 133.361ZM149.993 132.717L150.022 133.381C150.426 132.873 150.953 132.619 151.604 132.619C152.721 132.619 153.284 133.249 153.294 134.509V138H152.391V134.504C152.387 134.123 152.299 133.841 152.127 133.659C151.958 133.477 151.692 133.386 151.331 133.386C151.038 133.386 150.781 133.464 150.56 133.62C150.338 133.776 150.166 133.981 150.042 134.235V138H149.139V132.717H149.993ZM155.882 131.438V132.717H156.868V133.415H155.882V136.691C155.882 136.903 155.926 137.062 156.014 137.17C156.102 137.274 156.251 137.326 156.463 137.326C156.567 137.326 156.71 137.307 156.893 137.268V138C156.655 138.065 156.424 138.098 156.199 138.098C155.796 138.098 155.491 137.976 155.286 137.731C155.081 137.487 154.979 137.141 154.979 136.691V133.415H154.017V132.717H154.979V131.438H155.882ZM160.12 138.098C159.404 138.098 158.821 137.863 158.372 137.395C157.923 136.923 157.698 136.293 157.698 135.505V135.339C157.698 134.815 157.798 134.348 157.996 133.938C158.198 133.524 158.478 133.202 158.836 132.971C159.197 132.736 159.588 132.619 160.008 132.619C160.695 132.619 161.229 132.845 161.609 133.298C161.99 133.75 162.181 134.398 162.181 135.241V135.617H158.602C158.615 136.138 158.766 136.56 159.056 136.882C159.349 137.201 159.72 137.36 160.169 137.36C160.488 137.36 160.758 137.295 160.979 137.165C161.201 137.035 161.395 136.862 161.561 136.647L162.112 137.077C161.67 137.757 161.006 138.098 160.12 138.098ZM160.008 133.361C159.643 133.361 159.337 133.495 159.09 133.762C158.842 134.025 158.689 134.396 158.631 134.875H161.277V134.807C161.251 134.348 161.128 133.993 160.906 133.742C160.685 133.488 160.385 133.361 160.008 133.361ZM165.491 135.314C165.491 134.504 165.683 133.853 166.067 133.361C166.451 132.867 166.954 132.619 167.576 132.619C168.195 132.619 168.685 132.831 169.046 133.254V130.5H169.949V138H169.119L169.075 137.434C168.714 137.876 168.211 138.098 167.566 138.098C166.954 138.098 166.455 137.847 166.067 137.346C165.683 136.844 165.491 136.19 165.491 135.383V135.314ZM166.395 135.417C166.395 136.016 166.518 136.485 166.766 136.823C167.013 137.162 167.355 137.331 167.791 137.331C168.364 137.331 168.782 137.074 169.046 136.56V134.133C168.776 133.635 168.361 133.386 167.801 133.386C167.358 133.386 167.013 133.557 166.766 133.898C166.518 134.24 166.395 134.746 166.395 135.417ZM173.548 138.098C172.832 138.098 172.249 137.863 171.8 137.395C171.351 136.923 171.126 136.293 171.126 135.505V135.339C171.126 134.815 171.225 134.348 171.424 133.938C171.626 133.524 171.906 133.202 172.264 132.971C172.625 132.736 173.016 132.619 173.436 132.619C174.122 132.619 174.656 132.845 175.037 133.298C175.418 133.75 175.608 134.398 175.608 135.241V135.617H172.029C172.042 136.138 172.194 136.56 172.483 136.882C172.776 137.201 173.147 137.36 173.597 137.36C173.916 137.36 174.186 137.295 174.407 137.165C174.629 137.035 174.822 136.862 174.988 136.647L175.54 137.077C175.097 137.757 174.433 138.098 173.548 138.098ZM173.436 133.361C173.071 133.361 172.765 133.495 172.518 133.762C172.27 134.025 172.117 134.396 172.059 134.875H174.705V134.807C174.679 134.348 174.555 133.993 174.334 133.742C174.113 133.488 173.813 133.361 173.436 133.361ZM179.988 132.717L180.013 133.303C180.4 132.847 180.923 132.619 181.58 132.619C182.319 132.619 182.822 132.902 183.089 133.469C183.265 133.215 183.493 133.01 183.772 132.854C184.056 132.697 184.389 132.619 184.773 132.619C185.932 132.619 186.521 133.233 186.541 134.46V138H185.638V134.514C185.638 134.136 185.551 133.854 185.379 133.669C185.206 133.48 184.917 133.386 184.51 133.386C184.174 133.386 183.896 133.487 183.675 133.688C183.453 133.887 183.325 134.156 183.289 134.494V138H182.381V134.538C182.381 133.77 182.005 133.386 181.253 133.386C180.66 133.386 180.255 133.638 180.037 134.143V138H179.134V132.717H179.988ZM191.17 138C191.118 137.896 191.076 137.71 191.043 137.443C190.623 137.88 190.122 138.098 189.539 138.098C189.018 138.098 188.59 137.951 188.255 137.658C187.923 137.362 187.757 136.988 187.757 136.535C187.757 135.985 187.965 135.559 188.382 135.256C188.802 134.95 189.391 134.797 190.149 134.797H191.028V134.382C191.028 134.066 190.934 133.815 190.745 133.63C190.556 133.441 190.278 133.347 189.91 133.347C189.588 133.347 189.318 133.428 189.1 133.591C188.882 133.754 188.772 133.951 188.772 134.182H187.864C187.864 133.918 187.957 133.664 188.143 133.42C188.331 133.173 188.585 132.977 188.904 132.834C189.227 132.691 189.58 132.619 189.964 132.619C190.573 132.619 191.049 132.772 191.395 133.078C191.74 133.381 191.919 133.799 191.932 134.333V136.765C191.932 137.25 191.993 137.635 192.117 137.922V138H191.17ZM189.671 137.312C189.954 137.312 190.223 137.238 190.477 137.092C190.73 136.945 190.914 136.755 191.028 136.521V135.437H190.32C189.214 135.437 188.66 135.76 188.66 136.408C188.66 136.691 188.755 136.913 188.943 137.072C189.132 137.232 189.375 137.312 189.671 137.312ZM194.329 138H193.426V132.717H194.329V138ZM193.353 131.315C193.353 131.169 193.396 131.045 193.484 130.944C193.576 130.843 193.709 130.793 193.885 130.793C194.061 130.793 194.194 130.843 194.285 130.944C194.376 131.045 194.422 131.169 194.422 131.315C194.422 131.462 194.376 131.584 194.285 131.682C194.194 131.779 194.061 131.828 193.885 131.828C193.709 131.828 193.576 131.779 193.484 131.682C193.396 131.584 193.353 131.462 193.353 131.315ZM198.855 136.599C198.855 136.354 198.763 136.166 198.577 136.032C198.395 135.896 198.074 135.778 197.615 135.681C197.16 135.583 196.797 135.466 196.526 135.329C196.259 135.192 196.061 135.03 195.931 134.841C195.804 134.652 195.74 134.427 195.74 134.167C195.74 133.734 195.923 133.368 196.287 133.068C196.655 132.769 197.124 132.619 197.693 132.619C198.292 132.619 198.777 132.774 199.148 133.083C199.523 133.392 199.71 133.788 199.71 134.27H198.802C198.802 134.022 198.696 133.809 198.484 133.63C198.276 133.451 198.012 133.361 197.693 133.361C197.365 133.361 197.107 133.433 196.922 133.576C196.736 133.719 196.644 133.907 196.644 134.138C196.644 134.356 196.73 134.52 196.902 134.631C197.075 134.742 197.386 134.847 197.835 134.948C198.287 135.049 198.654 135.17 198.934 135.31C199.214 135.45 199.42 135.619 199.554 135.817C199.69 136.013 199.759 136.252 199.759 136.535C199.759 137.007 199.57 137.386 199.192 137.673C198.815 137.956 198.325 138.098 197.723 138.098C197.299 138.098 196.925 138.023 196.6 137.873C196.274 137.723 196.019 137.515 195.833 137.248C195.651 136.978 195.56 136.687 195.56 136.374H196.463C196.479 136.677 196.6 136.918 196.824 137.097C197.052 137.272 197.352 137.36 197.723 137.36C198.064 137.36 198.338 137.292 198.543 137.155C198.751 137.015 198.855 136.83 198.855 136.599ZM200.696 135.31C200.696 134.792 200.797 134.326 200.999 133.913C201.204 133.5 201.487 133.181 201.849 132.956C202.213 132.731 202.628 132.619 203.094 132.619C203.813 132.619 204.394 132.868 204.837 133.366C205.283 133.864 205.506 134.527 205.506 135.354V135.417C205.506 135.931 205.407 136.394 205.208 136.804C205.013 137.211 204.731 137.528 204.363 137.756C203.999 137.984 203.579 138.098 203.104 138.098C202.387 138.098 201.806 137.849 201.36 137.351C200.918 136.853 200.696 136.193 200.696 135.373V135.31ZM201.604 135.417C201.604 136.003 201.74 136.473 202.01 136.828C202.283 137.183 202.648 137.36 203.104 137.36C203.562 137.36 203.927 137.181 204.197 136.823C204.467 136.462 204.603 135.957 204.603 135.31C204.603 134.73 204.464 134.261 204.188 133.903C203.914 133.542 203.549 133.361 203.094 133.361C202.648 133.361 202.288 133.539 202.015 133.894C201.741 134.248 201.604 134.756 201.604 135.417ZM207.493 132.717L207.522 133.381C207.926 132.873 208.453 132.619 209.104 132.619C210.221 132.619 210.784 133.249 210.794 134.509V138H209.891V134.504C209.887 134.123 209.799 133.841 209.627 133.659C209.458 133.477 209.192 133.386 208.831 133.386C208.538 133.386 208.281 133.464 208.06 133.62C207.838 133.776 207.666 133.981 207.542 134.235V138H206.639V132.717H207.493Z" fill="black"/>
<rect x="138" y="114" width="7.99999" height="240" rx="3.99999" transform="rotate(-90 138 114)" fill="#EAEFF4"/>
<rect x="138" y="114" width="7.99999" height="169.091" rx="3.99999" transform="rotate(-90 138 114)" fill="url(#paint0_linear)"/>
<path d="M274 98L270 90L278 90L274 98Z" fill="black"/>
<rect x="26" y="74" width="96" height="40" rx="8" fill="#F5F7FA"/>
<path d="M66.2889 103.333H54.8162V101.376L60.4998 95.1771C61.3201 94.263 61.9021 93.5013 62.2459 92.8919C62.5975 92.2747 62.7732 91.6576 62.7732 91.0404C62.7732 90.2279 62.5428 89.5716 62.0818 89.0716C61.6287 88.5716 61.0154 88.3216 60.242 88.3216C59.3201 88.3216 58.6053 88.6029 58.0975 89.1654C57.5896 89.7279 57.3357 90.4974 57.3357 91.474H54.4881C54.4881 90.4349 54.7225 89.5013 55.1912 88.6732C55.6678 87.8372 56.3436 87.1888 57.2186 86.7279C58.1014 86.2669 59.117 86.0365 60.2654 86.0365C61.9217 86.0365 63.2264 86.4544 64.1795 87.2904C65.1404 88.1185 65.6209 89.2669 65.6209 90.7357C65.6209 91.5872 65.3787 92.4818 64.8943 93.4193C64.4178 94.349 63.6326 95.4076 62.5389 96.5951L58.367 101.06H66.2889V103.333ZM79.9295 103.333H68.4568V101.376L74.1404 95.1771C74.9607 94.263 75.5428 93.5013 75.8865 92.8919C76.2381 92.2747 76.4139 91.6576 76.4139 91.0404C76.4139 90.2279 76.1834 89.5716 75.7225 89.0716C75.2693 88.5716 74.6561 88.3216 73.8826 88.3216C72.9607 88.3216 72.2459 88.6029 71.7381 89.1654C71.2303 89.7279 70.9764 90.4974 70.9764 91.474H68.1287C68.1287 90.4349 68.3631 89.5013 68.8318 88.6732C69.3084 87.8372 69.9842 87.1888 70.8592 86.7279C71.742 86.2669 72.7576 86.0365 73.9061 86.0365C75.5623 86.0365 76.867 86.4544 77.8201 87.2904C78.7811 88.1185 79.2615 89.2669 79.2615 90.7357C79.2615 91.5872 79.0193 92.4818 78.535 93.4193C78.0584 94.349 77.2732 95.4076 76.1795 96.5951L72.0076 101.06H79.9295V103.333ZM92.8436 90.7708C92.8436 91.6068 92.6287 92.3529 92.199 93.0091C91.7693 93.6576 91.1834 94.1693 90.4412 94.5443C91.3318 94.9583 92.0154 95.5247 92.492 96.2435C92.9764 96.9622 93.2186 97.7747 93.2186 98.681C93.2186 100.181 92.7107 101.372 91.6951 102.255C90.6795 103.13 89.3279 103.568 87.6404 103.568C85.9451 103.568 84.5857 103.126 83.5623 102.243C82.5467 101.361 82.0389 100.173 82.0389 98.681C82.0389 97.7669 82.2811 96.9466 82.7654 96.2201C83.2498 95.4935 83.9295 94.9349 84.8045 94.5443C84.0701 94.1693 83.4881 93.6576 83.0584 93.0091C82.6365 92.3529 82.4256 91.6068 82.4256 90.7708C82.4256 89.3177 82.8943 88.1654 83.8318 87.3138C84.7693 86.4622 86.035 86.0365 87.6287 86.0365C89.2303 86.0365 90.4998 86.4622 91.4373 87.3138C92.3748 88.1654 92.8436 89.3177 92.8436 90.7708ZM90.3709 98.5404C90.3709 97.6966 90.117 97.0169 89.6092 96.5013C89.1092 95.9779 88.4451 95.7162 87.617 95.7162C86.7889 95.7162 86.1248 95.974 85.6248 96.4896C85.1326 97.0052 84.8865 97.6888 84.8865 98.5404C84.8865 99.3763 85.1287 100.044 85.6131 100.544C86.1053 101.044 86.7811 101.294 87.6404 101.294C88.4998 101.294 89.1678 101.052 89.6443 100.568C90.1287 100.083 90.3709 99.4076 90.3709 98.5404ZM90.0076 90.8763C90.0076 90.1341 89.7928 89.5247 89.3631 89.0482C88.9334 88.5638 88.3553 88.3216 87.6287 88.3216C86.9021 88.3216 86.3279 88.5521 85.9061 89.013C85.4842 89.4662 85.2732 90.0872 85.2732 90.8763C85.2732 91.6576 85.4842 92.2787 85.9061 92.7396C86.3357 93.2005 86.9139 93.431 87.6404 93.431C88.367 93.431 88.9412 93.2005 89.3631 92.7396C89.7928 92.2787 90.0076 91.6576 90.0076 90.8763Z" fill="#3F3F3F"/>
<rect x="138" y="170" width="7.99999" height="240" rx="3.99999" transform="rotate(-90 138 170)" fill="#EAEFF4"/>
<rect x="138" y="170" width="7.99999" height="169.091" rx="3.99999" transform="rotate(-90 138 170)" fill="url(#paint1_linear)"/>
<path d="M274 154L270 146L278 146L274 154Z" fill="black"/>
<rect x="26" y="130" width="96" height="40" rx="8" fill="#F5F7FA"/>
<path d="M77.3162 142.189V144.544H76.9646C75.3709 144.568 74.0975 145.005 73.1443 145.857C72.1912 146.708 71.6248 147.915 71.4451 149.478C72.3592 148.517 73.5271 148.036 74.949 148.036C76.4568 148.036 77.6443 148.568 78.5115 149.63C79.3865 150.693 79.824 152.064 79.824 153.743C79.824 155.478 79.3123 156.884 78.2889 157.962C77.2732 159.033 75.9373 159.568 74.2811 159.568C72.5779 159.568 71.1951 158.939 70.1326 157.681C69.0779 156.423 68.5506 154.775 68.5506 152.736V151.763C68.5506 148.771 69.2771 146.427 70.7303 144.732C72.1912 143.036 74.2889 142.189 77.0232 142.189H77.3162ZM74.2576 150.333C73.6326 150.333 73.0584 150.509 72.535 150.861C72.0193 151.212 71.6404 151.681 71.3982 152.267V153.134C71.3982 154.4 71.6639 155.408 72.1951 156.158C72.7264 156.9 73.4139 157.271 74.2576 157.271C75.1014 157.271 75.7693 156.954 76.2615 156.322C76.7537 155.689 76.9998 154.857 76.9998 153.826C76.9998 152.794 76.7498 151.954 76.2498 151.306C75.7498 150.658 75.0857 150.333 74.2576 150.333Z" fill="#3F3F3F"/>
<defs>
<filter id="filter0_d" x="0" y="0" width="432" height="240" filterUnits="userSpaceOnUse" color-interpolation-filters="sRGB">
<feFlood flood-opacity="0" result="BackgroundImageFix"/>
<feColorMatrix in="SourceAlpha" type="matrix" values="0 0 0 0 0 0 0 0 0 0 0 0 0 0 0 0 0 0 127 0" result="hardAlpha"/>
<feOffset dx="10" dy="10"/>
<feGaussianBlur stdDeviation="10"/>
<feComposite in2="hardAlpha" operator="out"/>
<feColorMatrix type="matrix" values="0 0 0 0 0 0 0 0 0 0 0 0 0 0 0 0 0 0 0.05 0"/>
<feBlend mode="normal" in2="BackgroundImageFix" result="effect1_dropShadow"/>
<feBlend mode="normal" in="SourceGraphic" in2="effect1_dropShadow" result="shape"/>
</filter>
<linearGradient id="paint0_linear" x1="142" y1="114" x2="142" y2="283.091" gradientUnits="userSpaceOnUse">
<stop stop-color="#5F96E9"/>
<stop offset="0.341768" stop-color="#2FD136"/>
<stop offset="0.673373" stop-color="#FFE922"/>
<stop offset="1" stop-color="#EE6445"/>
</linearGradient>
<linearGradient id="paint1_linear" x1="142" y1="170" x2="142" y2="339.091" gradientUnits="userSpaceOnUse">
<stop stop-color="#5F96E9"/>
<stop offset="0.341768" stop-color="#2FD136"/>
<stop offset="0.673373" stop-color="#FFE922"/>
<stop offset="1" stop-color="#EE6445"/>
</linearGradient>
</defs>
</svg>
