<svg width="41" height="52" viewBox="0 0 41 52" fill="none" xmlns="http://www.w3.org/2000/svg">
<g filter="url(#filter0_d)">
<path d="M34.3669 25.4505L34.2844 25.5698C34.1835 25.7211 34.0781 25.8679 33.9727 26.0284L22.0285 43.2C21.8567 43.447 21.6278 43.6487 21.3612 43.788C21.0947 43.9273 20.7984 44 20.4977 44C20.197 44 19.9008 43.9273 19.6342 43.788C19.3677 43.6487 19.1387 43.447 18.9669 43.2L7.05021 26.0422C6.93563 25.8816 6.82563 25.7257 6.71563 25.5835L6.6423 25.4735C5.03204 22.9803 4.12328 20.0988 4.01168 17.1323C3.90009 14.1658 4.58978 11.2241 6.00815 8.61684C7.42653 6.00956 9.52112 3.83316 12.0714 2.31675C14.6217 0.800332 17.5334 0 20.5 0C23.4666 0 26.3783 0.800332 28.9286 2.31675C31.4789 3.83316 33.5735 6.00956 34.9919 8.61684C36.4102 11.2241 37.0999 14.1658 36.9883 17.1323C36.8767 20.0988 35.968 22.9803 34.3577 25.4735L34.3669 25.4505ZM20.4977 9.64108C19.138 9.64108 17.8088 10.0446 16.6782 10.8005C15.5476 11.5565 14.6664 12.6309 14.146 13.888C13.6257 15.1451 13.4895 16.5284 13.7548 17.8629C14.0201 19.1974 14.6749 20.4232 15.6364 21.3854C16.5978 22.3475 17.8228 23.0027 19.1565 23.2682C20.4901 23.5336 21.8724 23.3974 23.1287 22.8767C24.3849 22.356 25.4586 21.4742 26.2141 20.3429C26.9695 19.2115 27.3727 17.8814 27.3727 16.5207C27.3727 14.6961 26.6484 12.9463 25.3591 11.6561C24.0698 10.3659 22.3211 9.64108 20.4977 9.64108Z" fill="#FF862F"/>
<path d="M33.9557 25.166L33.9596 25.1682C35.5074 22.7583 36.381 19.9767 36.4887 17.1135C36.5969 14.2368 35.9281 11.3841 34.5526 8.85577C33.1772 6.32743 31.1461 4.21697 28.673 2.74651C26.2 1.27606 23.3766 0.5 20.5 0.5C17.6234 0.5 14.8 1.27606 12.327 2.74651C9.85395 4.21697 7.8228 6.32743 6.44736 8.85577C5.07193 11.3841 4.40311 14.2368 4.51133 17.1135C4.61951 19.989 5.50008 22.7822 7.06037 25.1992L7.12212 25.2919C7.22188 25.4216 7.32123 25.561 7.4171 25.6955C7.43053 25.7143 7.44389 25.7331 7.45717 25.7517L7.45721 25.7517L7.46088 25.757L19.3773 42.9144C19.5031 43.0952 19.6707 43.2429 19.8658 43.3448C20.0609 43.4468 20.2777 43.5 20.4977 43.5C20.7178 43.5 20.9346 43.4468 21.1296 43.3448C21.3247 43.2429 21.4923 43.0952 21.6181 42.9144L33.5585 25.7483C33.6118 25.6673 33.6812 25.5664 33.7446 25.474C33.7923 25.4045 33.8367 25.34 33.8683 25.2925L33.8682 25.2925L33.8732 25.2853L33.9557 25.166ZM16.4003 10.3849C17.6131 9.57393 19.039 9.14108 20.4977 9.14108C22.4538 9.14108 24.3297 9.91866 25.7127 11.3026C27.0958 12.6866 27.8727 14.5636 27.8727 16.5207C27.8727 17.9802 27.4402 19.4069 26.6299 20.6205C25.8195 21.8341 24.6678 22.78 23.3201 23.3386C21.9725 23.8972 20.4895 24.0433 19.0589 23.7586C17.6282 23.4738 16.3141 22.7709 15.2827 21.7388C14.2513 20.7067 13.549 19.3918 13.2644 17.9604C12.9799 16.5289 13.1259 15.0452 13.6841 13.6968C14.2422 12.3484 15.1874 11.1958 16.4003 10.3849Z" stroke="#DE6D1B"/>
</g>
<defs>
<filter id="filter0_d" x="0" y="0" width="41" height="52" filterUnits="userSpaceOnUse" color-interpolation-filters="sRGB">
<feFlood flood-opacity="0" result="BackgroundImageFix"/>
<feColorMatrix in="SourceAlpha" type="matrix" values="0 0 0 0 0 0 0 0 0 0 0 0 0 0 0 0 0 0 127 0" result="hardAlpha"/>
<feOffset dy="4"/>
<feGaussianBlur stdDeviation="2"/>
<feComposite in2="hardAlpha" operator="out"/>
<feColorMatrix type="matrix" values="0 0 0 0 0 0 0 0 0 0 0 0 0 0 0 0 0 0 0.25 0"/>
<feBlend mode="normal" in2="BackgroundImageFix" result="effect1_dropShadow"/>
<feBlend mode="normal" in="SourceGraphic" in2="effect1_dropShadow" result="shape"/>
</filter>
</defs>
</svg>
