<svg width="506" height="452" viewBox="0 0 506 452" fill="none" xmlns="http://www.w3.org/2000/svg">
<g filter="url(#filter0_d)">
<path fill-rule="evenodd" clip-rule="evenodd" d="M20 68C15.5817 68 12 71.5817 12 76V136C12 140.418 15.5817 144 20 144H112.804L118 150L123.196 144H215C219.418 144 223 140.418 223 136V76C223 71.5817 219.418 68 215 68H20Z" fill="white"/>
</g>
<path d="M215 76L211 80" stroke="#FF862F" stroke-width="2" stroke-linecap="round"/>
<path d="M211 76L215 80" stroke="#FF862F" stroke-width="2" stroke-linecap="round"/>
<path d="M33.5781 88.2422H30.4961L29.9102 90H28.041L31.2168 81.4688H32.8457L36.0391 90H34.1699L33.5781 88.2422ZM30.9707 86.8184H33.1035L32.0312 83.625L30.9707 86.8184ZM42.1504 86.8887C42.1504 87.8652 41.9277 88.6484 41.4824 89.2383C41.041 89.8242 40.4434 90.1172 39.6895 90.1172C39.0488 90.1172 38.5312 89.8945 38.1367 89.4492V92.4375H36.4434V83.6602H38.0137L38.0723 84.2812C38.4824 83.7891 39.0176 83.543 39.6777 83.543C40.459 83.543 41.0664 83.832 41.5 84.4102C41.9336 84.9883 42.1504 85.7852 42.1504 86.8008V86.8887ZM40.457 86.7656C40.457 86.1758 40.3516 85.7207 40.1406 85.4004C39.9336 85.0801 39.6309 84.9199 39.2324 84.9199C38.7012 84.9199 38.3359 85.123 38.1367 85.5293V88.125C38.3438 88.543 38.7129 88.752 39.2441 88.752C40.0527 88.752 40.457 88.0898 40.457 86.7656ZM48.9121 86.8887C48.9121 87.8652 48.6895 88.6484 48.2441 89.2383C47.8027 89.8242 47.2051 90.1172 46.4512 90.1172C45.8105 90.1172 45.293 89.8945 44.8984 89.4492V92.4375H43.2051V83.6602H44.7754L44.834 84.2812C45.2441 83.7891 45.7793 83.543 46.4395 83.543C47.2207 83.543 47.8281 83.832 48.2617 84.4102C48.6953 84.9883 48.9121 85.7852 48.9121 86.8008V86.8887ZM47.2188 86.7656C47.2188 86.1758 47.1133 85.7207 46.9023 85.4004C46.6953 85.0801 46.3926 84.9199 45.9941 84.9199C45.4629 84.9199 45.0977 85.123 44.8984 85.5293V88.125C45.1055 88.543 45.4746 88.752 46.0059 88.752C46.8145 88.752 47.2188 88.0898 47.2188 86.7656ZM53.6406 90C53.5625 89.8477 53.5059 89.6582 53.4707 89.4316C53.0605 89.8887 52.5273 90.1172 51.8711 90.1172C51.25 90.1172 50.7344 89.9375 50.3242 89.5781C49.918 89.2188 49.7148 88.7656 49.7148 88.2188C49.7148 87.5469 49.9629 87.0312 50.459 86.6719C50.959 86.3125 51.6797 86.1309 52.6211 86.127H53.4004V85.7637C53.4004 85.4707 53.3242 85.2363 53.1719 85.0605C53.0234 84.8848 52.7871 84.7969 52.4629 84.7969C52.1777 84.7969 51.9531 84.8652 51.7891 85.002C51.6289 85.1387 51.5488 85.3262 51.5488 85.5645H49.8555C49.8555 85.1973 49.9688 84.8574 50.1953 84.5449C50.4219 84.2324 50.7422 83.9883 51.1562 83.8125C51.5703 83.6328 52.0352 83.543 52.5508 83.543C53.332 83.543 53.9512 83.7402 54.4082 84.1348C54.8691 84.5254 55.0996 85.0762 55.0996 85.7871V88.5352C55.1035 89.1367 55.1875 89.5918 55.3516 89.9004V90H53.6406ZM52.2402 88.8223C52.4902 88.8223 52.7207 88.7676 52.9316 88.6582C53.1426 88.5449 53.2988 88.3945 53.4004 88.207V87.1172H52.7676C51.9199 87.1172 51.4688 87.4102 51.4141 87.9961L51.4082 88.0957C51.4082 88.3066 51.4824 88.4805 51.6309 88.6172C51.7793 88.7539 51.9824 88.8223 52.2402 88.8223ZM59.9629 85.248C59.7324 85.2168 59.5293 85.2012 59.3535 85.2012C58.7129 85.2012 58.293 85.418 58.0938 85.8516V90H56.4004V83.6602H58L58.0469 84.416C58.3867 83.834 58.8574 83.543 59.459 83.543C59.6465 83.543 59.8223 83.5684 59.9863 83.6191L59.9629 85.248ZM63.1035 82.1016V83.6602H64.1875V84.9023H63.1035V88.0664C63.1035 88.3008 63.1484 88.4688 63.2383 88.5703C63.3281 88.6719 63.5 88.7227 63.7539 88.7227C63.9414 88.7227 64.1074 88.709 64.252 88.6816V89.9648C63.9199 90.0664 63.5781 90.1172 63.2266 90.1172C62.0391 90.1172 61.4336 89.5176 61.4102 88.3184V84.9023H60.4844V83.6602H61.4102V82.1016H63.1035ZM68.0488 90.1172C67.1191 90.1172 66.3613 89.832 65.7754 89.2617C65.1934 88.6914 64.9023 87.9316 64.9023 86.9824V86.8184C64.9023 86.1816 65.0254 85.6133 65.2715 85.1133C65.5176 84.6094 65.8652 84.2227 66.3145 83.9531C66.7676 83.6797 67.2832 83.543 67.8613 83.543C68.7285 83.543 69.4102 83.8164 69.9062 84.3633C70.4062 84.9102 70.6562 85.6855 70.6562 86.6895V87.3809H66.6191C66.6738 87.7949 66.8379 88.127 67.1113 88.377C67.3887 88.627 67.7383 88.752 68.1602 88.752C68.8125 88.752 69.3223 88.5156 69.6895 88.043L70.5215 88.9746C70.2676 89.334 69.9238 89.6152 69.4902 89.8184C69.0566 90.0176 68.5762 90.1172 68.0488 90.1172ZM67.8555 84.9141C67.5195 84.9141 67.2461 85.0273 67.0352 85.2539C66.8281 85.4805 66.6953 85.8047 66.6367 86.2266H68.9922V86.0918C68.9844 85.7168 68.8828 85.4277 68.6875 85.2246C68.4922 85.0176 68.2148 84.9141 67.8555 84.9141ZM73.2109 83.6602L73.2637 84.3691C73.7129 83.8184 74.3203 83.543 75.0859 83.543C75.9023 83.543 76.4629 83.8652 76.7676 84.5098C77.2129 83.8652 77.8477 83.543 78.6719 83.543C79.3594 83.543 79.8711 83.7441 80.207 84.1465C80.543 84.5449 80.7109 85.1465 80.7109 85.9512V90H79.0117V85.957C79.0117 85.5977 78.9414 85.3359 78.8008 85.1719C78.6602 85.0039 78.4121 84.9199 78.0566 84.9199C77.5488 84.9199 77.1973 85.1621 77.002 85.6465L77.0078 90H75.3145V85.9629C75.3145 85.5957 75.2422 85.3301 75.0977 85.166C74.9531 85.002 74.707 84.9199 74.3594 84.9199C73.8789 84.9199 73.5312 85.1191 73.3164 85.5176V90H71.623V83.6602H73.2109ZM84.9355 90.1172C84.0059 90.1172 83.248 89.832 82.6621 89.2617C82.0801 88.6914 81.7891 87.9316 81.7891 86.9824V86.8184C81.7891 86.1816 81.9121 85.6133 82.1582 85.1133C82.4043 84.6094 82.752 84.2227 83.2012 83.9531C83.6543 83.6797 84.1699 83.543 84.748 83.543C85.6152 83.543 86.2969 83.8164 86.793 84.3633C87.293 84.9102 87.543 85.6855 87.543 86.6895V87.3809H83.5059C83.5605 87.7949 83.7246 88.127 83.998 88.377C84.2754 88.627 84.625 88.752 85.0469 88.752C85.6992 88.752 86.209 88.5156 86.5762 88.043L87.4082 88.9746C87.1543 89.334 86.8105 89.6152 86.377 89.8184C85.9434 90.0176 85.4629 90.1172 84.9355 90.1172ZM84.7422 84.9141C84.4062 84.9141 84.1328 85.0273 83.9219 85.2539C83.7148 85.4805 83.582 85.8047 83.5234 86.2266H85.8789V86.0918C85.8711 85.7168 85.7695 85.4277 85.5742 85.2246C85.3789 85.0176 85.1016 84.9141 84.7422 84.9141ZM90.0684 83.6602L90.1211 84.3926C90.5742 83.8262 91.1816 83.543 91.9434 83.543C92.6152 83.543 93.1152 83.7402 93.4434 84.1348C93.7715 84.5293 93.9395 85.1191 93.9473 85.9043V90H92.2539V85.9453C92.2539 85.5859 92.1758 85.3262 92.0195 85.166C91.8633 85.002 91.6035 84.9199 91.2402 84.9199C90.7637 84.9199 90.4062 85.123 90.168 85.5293V90H88.4746V83.6602H90.0684ZM97.2637 82.1016V83.6602H98.3477V84.9023H97.2637V88.0664C97.2637 88.3008 97.3086 88.4688 97.3984 88.5703C97.4883 88.6719 97.6602 88.7227 97.9141 88.7227C98.1016 88.7227 98.2676 88.709 98.4121 88.6816V89.9648C98.0801 90.0664 97.7383 90.1172 97.3867 90.1172C96.1992 90.1172 95.5938 89.5176 95.5703 88.3184V84.9023H94.6445V83.6602H95.5703V82.1016H97.2637ZM108.057 90H102.209V88.8398L104.969 85.8984C105.348 85.4844 105.627 85.123 105.807 84.8145C105.99 84.5059 106.082 84.2129 106.082 83.9355C106.082 83.5566 105.986 83.2598 105.795 83.0449C105.604 82.8262 105.33 82.7168 104.975 82.7168C104.592 82.7168 104.289 82.8496 104.066 83.1152C103.848 83.377 103.738 83.7227 103.738 84.1523H102.039C102.039 83.6328 102.162 83.1582 102.408 82.7285C102.658 82.2988 103.01 81.9629 103.463 81.7207C103.916 81.4746 104.43 81.3516 105.004 81.3516C105.883 81.3516 106.564 81.5625 107.049 81.9844C107.537 82.4062 107.781 83.002 107.781 83.7715C107.781 84.1934 107.672 84.623 107.453 85.0605C107.234 85.498 106.859 86.0078 106.328 86.5898L104.389 88.6348H108.057V90ZM117.865 86.8887C117.865 87.8652 117.643 88.6484 117.197 89.2383C116.756 89.8242 116.158 90.1172 115.404 90.1172C114.764 90.1172 114.246 89.8945 113.852 89.4492V92.4375H112.158V83.6602H113.729L113.787 84.2812C114.197 83.7891 114.732 83.543 115.393 83.543C116.174 83.543 116.781 83.832 117.215 84.4102C117.648 84.9883 117.865 85.7852 117.865 86.8008V86.8887ZM116.172 86.7656C116.172 86.1758 116.066 85.7207 115.855 85.4004C115.648 85.0801 115.346 84.9199 114.947 84.9199C114.416 84.9199 114.051 85.123 113.852 85.5293V88.125C114.059 88.543 114.428 88.752 114.959 88.752C115.768 88.752 116.172 88.0898 116.172 86.7656ZM120.707 90H119.008V83.6602H120.707V90ZM118.908 82.0195C118.908 81.7656 118.992 81.5566 119.16 81.3926C119.332 81.2285 119.564 81.1465 119.857 81.1465C120.146 81.1465 120.377 81.2285 120.549 81.3926C120.721 81.5566 120.807 81.7656 120.807 82.0195C120.807 82.2773 120.719 82.4883 120.543 82.6523C120.371 82.8164 120.143 82.8984 119.857 82.8984C119.572 82.8984 119.342 82.8164 119.166 82.6523C118.994 82.4883 118.908 82.2773 118.908 82.0195ZM125.025 90.1172C124.096 90.1172 123.338 89.832 122.752 89.2617C122.17 88.6914 121.879 87.9316 121.879 86.9824V86.8184C121.879 86.1816 122.002 85.6133 122.248 85.1133C122.494 84.6094 122.842 84.2227 123.291 83.9531C123.744 83.6797 124.26 83.543 124.838 83.543C125.705 83.543 126.387 83.8164 126.883 84.3633C127.383 84.9102 127.633 85.6855 127.633 86.6895V87.3809H123.596C123.65 87.7949 123.814 88.127 124.088 88.377C124.365 88.627 124.715 88.752 125.137 88.752C125.789 88.752 126.299 88.5156 126.666 88.043L127.498 88.9746C127.244 89.334 126.9 89.6152 126.467 89.8184C126.033 90.0176 125.553 90.1172 125.025 90.1172ZM124.832 84.9141C124.496 84.9141 124.223 85.0273 124.012 85.2539C123.805 85.4805 123.672 85.8047 123.613 86.2266H125.969V86.0918C125.961 85.7168 125.859 85.4277 125.664 85.2246C125.469 85.0176 125.191 84.9141 124.832 84.9141ZM125.488 82.8164H124.1L122.482 81H124.328L125.488 82.8164ZM131.236 88.752C131.549 88.752 131.803 88.666 131.998 88.4941C132.193 88.3223 132.295 88.0938 132.303 87.8086H133.891C133.887 88.2383 133.77 88.6328 133.539 88.9922C133.309 89.3477 132.992 89.625 132.59 89.8242C132.191 90.0195 131.75 90.1172 131.266 90.1172C130.359 90.1172 129.645 89.8301 129.121 89.2559C128.598 88.6777 128.336 87.8809 128.336 86.8652V86.7539C128.336 85.7773 128.596 84.998 129.115 84.416C129.635 83.834 130.348 83.543 131.254 83.543C132.047 83.543 132.682 83.7695 133.158 84.2227C133.639 84.6719 133.883 85.2715 133.891 86.0215H132.303C132.295 85.6934 132.193 85.4277 131.998 85.2246C131.803 85.0176 131.545 84.9141 131.225 84.9141C130.83 84.9141 130.531 85.0586 130.328 85.3477C130.129 85.6328 130.029 86.0977 130.029 86.7422V86.918C130.029 87.5703 130.129 88.0391 130.328 88.3242C130.527 88.6094 130.83 88.752 131.236 88.752ZM137.775 90.1172C136.846 90.1172 136.088 89.832 135.502 89.2617C134.92 88.6914 134.629 87.9316 134.629 86.9824V86.8184C134.629 86.1816 134.752 85.6133 134.998 85.1133C135.244 84.6094 135.592 84.2227 136.041 83.9531C136.494 83.6797 137.01 83.543 137.588 83.543C138.455 83.543 139.137 83.8164 139.633 84.3633C140.133 84.9102 140.383 85.6855 140.383 86.6895V87.3809H136.346C136.4 87.7949 136.564 88.127 136.838 88.377C137.115 88.627 137.465 88.752 137.887 88.752C138.539 88.752 139.049 88.5156 139.416 88.043L140.248 88.9746C139.994 89.334 139.65 89.6152 139.217 89.8184C138.783 90.0176 138.303 90.1172 137.775 90.1172ZM137.582 84.9141C137.246 84.9141 136.973 85.0273 136.762 85.2539C136.555 85.4805 136.422 85.8047 136.363 86.2266H138.719V86.0918C138.711 85.7168 138.609 85.4277 138.414 85.2246C138.219 85.0176 137.941 84.9141 137.582 84.9141ZM144.783 88.248C144.783 88.041 144.68 87.8789 144.473 87.7617C144.27 87.6406 143.941 87.5332 143.488 87.4395C141.98 87.123 141.227 86.4824 141.227 85.5176C141.227 84.9551 141.459 84.4863 141.924 84.1113C142.393 83.7324 143.004 83.543 143.758 83.543C144.562 83.543 145.205 83.7324 145.686 84.1113C146.17 84.4902 146.412 84.9824 146.412 85.5879H144.719C144.719 85.3457 144.641 85.1465 144.484 84.9902C144.328 84.8301 144.084 84.75 143.752 84.75C143.467 84.75 143.246 84.8145 143.09 84.9434C142.934 85.0723 142.855 85.2363 142.855 85.4355C142.855 85.623 142.943 85.7754 143.119 85.8926C143.299 86.0059 143.6 86.1055 144.021 86.1914C144.443 86.2734 144.799 86.3672 145.088 86.4727C145.982 86.8008 146.43 87.3691 146.43 88.1777C146.43 88.7559 146.182 89.2246 145.686 89.584C145.189 89.9395 144.549 90.1172 143.764 90.1172C143.232 90.1172 142.76 90.0234 142.346 89.8359C141.936 89.6445 141.613 89.3848 141.379 89.0566C141.145 88.7246 141.027 88.3672 141.027 87.9844H142.633C142.648 88.2852 142.76 88.5156 142.967 88.6758C143.174 88.8359 143.451 88.916 143.799 88.916C144.123 88.916 144.367 88.8555 144.531 88.7344C144.699 88.6094 144.783 88.4473 144.783 88.248ZM150.25 86.7832C150.25 85.7949 150.471 85.0078 150.912 84.4219C151.357 83.8359 151.965 83.543 152.734 83.543C153.352 83.543 153.861 83.7734 154.264 84.2344V81H155.963V90H154.434L154.352 89.3262C153.93 89.8535 153.387 90.1172 152.723 90.1172C151.977 90.1172 151.377 89.8242 150.924 89.2383C150.475 88.6484 150.25 87.8301 150.25 86.7832ZM151.943 86.9062C151.943 87.5 152.047 87.9551 152.254 88.2715C152.461 88.5879 152.762 88.7461 153.156 88.7461C153.68 88.7461 154.049 88.5254 154.264 88.084V85.582C154.053 85.1406 153.688 84.9199 153.168 84.9199C152.352 84.9199 151.943 85.582 151.943 86.9062ZM160.193 90.1172C159.264 90.1172 158.506 89.832 157.92 89.2617C157.338 88.6914 157.047 87.9316 157.047 86.9824V86.8184C157.047 86.1816 157.17 85.6133 157.416 85.1133C157.662 84.6094 158.01 84.2227 158.459 83.9531C158.912 83.6797 159.428 83.543 160.006 83.543C160.873 83.543 161.555 83.8164 162.051 84.3633C162.551 84.9102 162.801 85.6855 162.801 86.6895V87.3809H158.764C158.818 87.7949 158.982 88.127 159.256 88.377C159.533 88.627 159.883 88.752 160.305 88.752C160.957 88.752 161.467 88.5156 161.834 88.043L162.666 88.9746C162.412 89.334 162.068 89.6152 161.635 89.8184C161.201 90.0176 160.721 90.1172 160.193 90.1172ZM160 84.9141C159.664 84.9141 159.391 85.0273 159.18 85.2539C158.973 85.4805 158.84 85.8047 158.781 86.2266H161.137V86.0918C161.129 85.7168 161.027 85.4277 160.832 85.2246C160.637 85.0176 160.359 84.9141 160 84.9141ZM171.695 86.7891H172.662V88.1543H171.695V90H170.002V88.1543H166.504L166.428 87.0879L169.984 81.4688H171.695V86.7891ZM168.115 86.7891H170.002V83.7773L169.891 83.9707L168.115 86.7891ZM179.137 83.7363C179.137 84.1504 179.033 84.5176 178.826 84.8379C178.619 85.1582 178.334 85.4141 177.971 85.6055C178.385 85.8047 178.713 86.0801 178.955 86.4316C179.197 86.7793 179.318 87.1895 179.318 87.6621C179.318 88.4199 179.061 89.0195 178.545 89.4609C178.029 89.8984 177.328 90.1172 176.441 90.1172C175.555 90.1172 174.852 89.8965 174.332 89.4551C173.812 89.0137 173.553 88.416 173.553 87.6621C173.553 87.1895 173.674 86.7773 173.916 86.4258C174.158 86.0742 174.484 85.8008 174.895 85.6055C174.531 85.4141 174.246 85.1582 174.039 84.8379C173.836 84.5176 173.734 84.1504 173.734 83.7363C173.734 83.0098 173.977 82.4316 174.461 82.002C174.945 81.5684 175.604 81.3516 176.436 81.3516C177.264 81.3516 177.92 81.5664 178.404 81.9961C178.893 82.4219 179.137 83.002 179.137 83.7363ZM177.619 87.5391C177.619 87.168 177.512 86.8711 177.297 86.6484C177.082 86.4258 176.793 86.3145 176.43 86.3145C176.07 86.3145 175.783 86.4258 175.568 86.6484C175.354 86.8672 175.246 87.1641 175.246 87.5391C175.246 87.9023 175.352 88.1953 175.562 88.418C175.773 88.6406 176.066 88.752 176.441 88.752C176.809 88.752 177.096 88.6445 177.303 88.4297C177.514 88.2148 177.619 87.918 177.619 87.5391ZM177.443 83.8184C177.443 83.4863 177.355 83.2207 177.18 83.0215C177.004 82.8184 176.756 82.7168 176.436 82.7168C176.119 82.7168 175.873 82.8145 175.697 83.0098C175.521 83.2051 175.434 83.4746 175.434 83.8184C175.434 84.1582 175.521 84.4316 175.697 84.6387C175.873 84.8457 176.121 84.9492 176.441 84.9492C176.762 84.9492 177.008 84.8457 177.18 84.6387C177.355 84.4316 177.443 84.1582 177.443 83.8184ZM182.125 83.6602L182.178 84.3691C182.627 83.8184 183.234 83.543 184 83.543C184.816 83.543 185.377 83.8652 185.682 84.5098C186.127 83.8652 186.762 83.543 187.586 83.543C188.273 83.543 188.785 83.7441 189.121 84.1465C189.457 84.5449 189.625 85.1465 189.625 85.9512V90H187.926V85.957C187.926 85.5977 187.855 85.3359 187.715 85.1719C187.574 85.0039 187.326 84.9199 186.971 84.9199C186.463 84.9199 186.111 85.1621 185.916 85.6465L185.922 90H184.229V85.9629C184.229 85.5957 184.156 85.3301 184.012 85.166C183.867 85.002 183.621 84.9199 183.273 84.9199C182.793 84.9199 182.445 85.1191 182.23 85.5176V90H180.537V83.6602H182.125ZM194.342 86.0918H190.709V85.2832L192.391 83.7773C192.609 83.5859 192.766 83.4082 192.859 83.2441C192.957 83.0801 193.006 82.9531 193.006 82.8633C193.006 82.5352 192.82 82.3711 192.449 82.3711C192.254 82.3711 192.098 82.4316 191.98 82.5527C191.867 82.6738 191.811 82.8262 191.811 83.0098H190.604C190.604 82.5566 190.77 82.1758 191.102 81.8672C191.438 81.5586 191.869 81.4043 192.396 81.4043C192.975 81.4043 193.42 81.5312 193.732 81.7852C194.049 82.0352 194.207 82.3926 194.207 82.8574C194.207 83.1309 194.137 83.3809 193.996 83.6074C193.855 83.834 193.574 84.1172 193.152 84.457L192.285 85.1309H194.342V86.0918ZM31.8145 108.506L34.252 101.469H35.4824L32.3184 110H31.3223L28.1641 101.469H29.3887L31.8145 108.506ZM38.834 110.117C37.9746 110.117 37.2754 109.836 36.7363 109.273C36.1973 108.707 35.9277 107.951 35.9277 107.006V106.807C35.9277 106.178 36.0469 105.617 36.2852 105.125C36.5273 104.629 36.8633 104.242 37.293 103.965C37.7266 103.684 38.1953 103.543 38.6992 103.543C39.5234 103.543 40.1641 103.814 40.6211 104.357C41.0781 104.9 41.3066 105.678 41.3066 106.689V107.141H37.0117C37.0273 107.766 37.209 108.271 37.5566 108.658C37.9082 109.041 38.3535 109.232 38.8926 109.232C39.2754 109.232 39.5996 109.154 39.8652 108.998C40.1309 108.842 40.3633 108.635 40.5625 108.377L41.2246 108.893C40.6934 109.709 39.8965 110.117 38.834 110.117ZM38.6992 104.434C38.2617 104.434 37.8945 104.594 37.5977 104.914C37.3008 105.23 37.1172 105.676 37.0469 106.25H40.2227V106.168C40.1914 105.617 40.043 105.191 39.7773 104.891C39.5117 104.586 39.1523 104.434 38.6992 104.434ZM43.5918 103.66L43.627 104.457C44.1113 103.848 44.7441 103.543 45.5254 103.543C46.8652 103.543 47.541 104.299 47.5527 105.811V110H46.4688V105.805C46.4648 105.348 46.3594 105.01 46.1523 104.791C45.9492 104.572 45.6309 104.463 45.1973 104.463C44.8457 104.463 44.5371 104.557 44.2715 104.744C44.0059 104.932 43.7988 105.178 43.6504 105.482V110H42.5664V103.66H43.5918ZM48.9238 106.777C48.9238 105.805 49.1543 105.023 49.6152 104.434C50.0762 103.84 50.6797 103.543 51.4258 103.543C52.168 103.543 52.7559 103.797 53.1895 104.305V101H54.2734V110H53.2773L53.2246 109.32C52.791 109.852 52.1875 110.117 51.4141 110.117C50.6797 110.117 50.0801 109.816 49.6152 109.215C49.1543 108.613 48.9238 107.828 48.9238 106.859V106.777ZM50.0078 106.9C50.0078 107.619 50.1562 108.182 50.4531 108.588C50.75 108.994 51.1602 109.197 51.6836 109.197C52.3711 109.197 52.873 108.889 53.1895 108.271V105.359C52.8652 104.762 52.3672 104.463 51.6953 104.463C51.1641 104.463 50.75 104.668 50.4531 105.078C50.1562 105.488 50.0078 106.096 50.0078 106.9ZM59.875 109.373C59.4531 109.869 58.834 110.117 58.0176 110.117C57.3418 110.117 56.8262 109.922 56.4707 109.531C56.1191 109.137 55.9414 108.555 55.9375 107.785V103.66H57.0215V107.756C57.0215 108.717 57.4121 109.197 58.1934 109.197C59.0215 109.197 59.5723 108.889 59.8457 108.271V103.66H60.9297V110H59.8984L59.875 109.373ZM68.1895 110.117C67.3301 110.117 66.6309 109.836 66.0918 109.273C65.5527 108.707 65.2832 107.951 65.2832 107.006V106.807C65.2832 106.178 65.4023 105.617 65.6406 105.125C65.8828 104.629 66.2188 104.242 66.6484 103.965C67.082 103.684 67.5508 103.543 68.0547 103.543C68.8789 103.543 69.5195 103.814 69.9766 104.357C70.4336 104.9 70.6621 105.678 70.6621 106.689V107.141H66.3672C66.3828 107.766 66.5645 108.271 66.9121 108.658C67.2637 109.041 67.709 109.232 68.248 109.232C68.6309 109.232 68.9551 109.154 69.2207 108.998C69.4863 108.842 69.7188 108.635 69.918 108.377L70.5801 108.893C70.0488 109.709 69.252 110.117 68.1895 110.117ZM68.0547 104.434C67.6172 104.434 67.25 104.594 66.9531 104.914C66.6562 105.23 66.4727 105.676 66.4023 106.25H69.5781V106.168C69.5469 105.617 69.3984 105.191 69.1328 104.891C68.8672 104.586 68.5078 104.434 68.0547 104.434ZM72.9473 103.66L72.9824 104.457C73.4668 103.848 74.0996 103.543 74.8809 103.543C76.2207 103.543 76.8965 104.299 76.9082 105.811V110H75.8242V105.805C75.8203 105.348 75.7148 105.01 75.5078 104.791C75.3047 104.572 74.9863 104.463 74.5527 104.463C74.2012 104.463 73.8926 104.557 73.627 104.744C73.3613 104.932 73.1543 105.178 73.0059 105.482V110H71.9219V103.66H72.9473ZM87.127 110H81.2793V108.84L84.0391 105.898C84.418 105.484 84.6973 105.123 84.877 104.814C85.0605 104.506 85.1523 104.213 85.1523 103.936C85.1523 103.557 85.0566 103.26 84.8652 103.045C84.6738 102.826 84.4004 102.717 84.0449 102.717C83.6621 102.717 83.3594 102.85 83.1367 103.115C82.918 103.377 82.8086 103.723 82.8086 104.152H81.1094C81.1094 103.633 81.2324 103.158 81.4785 102.729C81.7285 102.299 82.0801 101.963 82.5332 101.721C82.9863 101.475 83.5 101.352 84.0742 101.352C84.9531 101.352 85.6348 101.562 86.1191 101.984C86.6074 102.406 86.8516 103.002 86.8516 103.771C86.8516 104.193 86.7422 104.623 86.5234 105.061C86.3047 105.498 85.9297 106.008 85.3984 106.59L83.459 108.635H87.127V110ZM93.9121 106.473C93.9121 107.652 93.668 108.555 93.1797 109.18C92.6914 109.805 91.9766 110.117 91.0352 110.117C90.1055 110.117 89.3945 109.811 88.9023 109.197C88.4102 108.584 88.1582 107.705 88.1465 106.561V104.99C88.1465 103.799 88.3926 102.895 88.8848 102.277C89.3809 101.66 90.0938 101.352 91.0234 101.352C91.9531 101.352 92.6641 101.658 93.1562 102.271C93.6484 102.881 93.9004 103.758 93.9121 104.902V106.473ZM92.2188 104.75C92.2188 104.043 92.1211 103.529 91.9258 103.209C91.7344 102.885 91.4336 102.723 91.0234 102.723C90.625 102.723 90.3301 102.877 90.1387 103.186C89.9512 103.49 89.8516 103.969 89.8398 104.621V106.695C89.8398 107.391 89.9336 107.908 90.1211 108.248C90.3125 108.584 90.6172 108.752 91.0352 108.752C91.4492 108.752 91.748 108.59 91.9316 108.266C92.1152 107.941 92.2109 107.445 92.2188 106.777V104.75ZM99.1738 110H97.4805V103.473L95.459 104.1V102.723L98.9922 101.457H99.1738V110ZM107.512 103.736C107.512 104.15 107.408 104.518 107.201 104.838C106.994 105.158 106.709 105.414 106.346 105.605C106.76 105.805 107.088 106.08 107.33 106.432C107.572 106.779 107.693 107.189 107.693 107.662C107.693 108.42 107.436 109.02 106.92 109.461C106.404 109.898 105.703 110.117 104.816 110.117C103.93 110.117 103.227 109.896 102.707 109.455C102.188 109.014 101.928 108.416 101.928 107.662C101.928 107.189 102.049 106.777 102.291 106.426C102.533 106.074 102.859 105.801 103.27 105.605C102.906 105.414 102.621 105.158 102.414 104.838C102.211 104.518 102.109 104.15 102.109 103.736C102.109 103.01 102.352 102.432 102.836 102.002C103.32 101.568 103.979 101.352 104.811 101.352C105.639 101.352 106.295 101.566 106.779 101.996C107.268 102.422 107.512 103.002 107.512 103.736ZM105.994 107.539C105.994 107.168 105.887 106.871 105.672 106.648C105.457 106.426 105.168 106.314 104.805 106.314C104.445 106.314 104.158 106.426 103.943 106.648C103.729 106.867 103.621 107.164 103.621 107.539C103.621 107.902 103.727 108.195 103.938 108.418C104.148 108.641 104.441 108.752 104.816 108.752C105.184 108.752 105.471 108.645 105.678 108.43C105.889 108.215 105.994 107.918 105.994 107.539ZM105.818 103.818C105.818 103.486 105.73 103.221 105.555 103.021C105.379 102.818 105.131 102.717 104.811 102.717C104.494 102.717 104.248 102.814 104.072 103.01C103.896 103.205 103.809 103.475 103.809 103.818C103.809 104.158 103.896 104.432 104.072 104.639C104.248 104.846 104.496 104.949 104.816 104.949C105.137 104.949 105.383 104.846 105.555 104.639C105.73 104.432 105.818 104.158 105.818 103.818ZM115.973 110C115.91 109.875 115.859 109.652 115.82 109.332C115.316 109.855 114.715 110.117 114.016 110.117C113.391 110.117 112.877 109.941 112.475 109.59C112.076 109.234 111.877 108.785 111.877 108.242C111.877 107.582 112.127 107.07 112.627 106.707C113.131 106.34 113.838 106.156 114.748 106.156H115.803V105.658C115.803 105.279 115.689 104.979 115.463 104.756C115.236 104.529 114.902 104.416 114.461 104.416C114.074 104.416 113.75 104.514 113.488 104.709C113.227 104.904 113.096 105.141 113.096 105.418H112.006C112.006 105.102 112.117 104.797 112.34 104.504C112.566 104.207 112.871 103.973 113.254 103.801C113.641 103.629 114.064 103.543 114.525 103.543C115.256 103.543 115.828 103.727 116.242 104.094C116.656 104.457 116.871 104.959 116.887 105.6V108.518C116.887 109.1 116.961 109.562 117.109 109.906V110H115.973ZM114.174 109.174C114.514 109.174 114.836 109.086 115.141 108.91C115.445 108.734 115.666 108.506 115.803 108.225V106.924H114.953C113.625 106.924 112.961 107.312 112.961 108.09C112.961 108.43 113.074 108.695 113.301 108.887C113.527 109.078 113.818 109.174 114.174 109.174ZM115.264 102.723H114.332L112.82 101H114.127L115.264 102.723ZM125.436 110H123.742V103.473L121.721 104.1V102.723L125.254 101.457H125.436V110ZM134.014 102.418L130.715 110H128.928L132.232 102.84H127.99V101.469H134.014V102.418ZM139.697 101.381V102.775H139.533C138.768 102.787 138.15 102.986 137.682 103.373C137.217 103.76 136.938 104.297 136.844 104.984C137.297 104.523 137.869 104.293 138.561 104.293C139.303 104.293 139.893 104.559 140.33 105.09C140.768 105.621 140.986 106.32 140.986 107.188C140.986 107.742 140.865 108.244 140.623 108.693C140.385 109.143 140.045 109.492 139.604 109.742C139.166 109.992 138.67 110.117 138.115 110.117C137.217 110.117 136.49 109.805 135.936 109.18C135.385 108.555 135.109 107.721 135.109 106.678V106.068C135.109 105.143 135.283 104.326 135.631 103.619C135.982 102.908 136.484 102.359 137.137 101.973C137.793 101.582 138.553 101.385 139.416 101.381H139.697ZM138.045 105.652C137.771 105.652 137.523 105.725 137.301 105.869C137.078 106.01 136.914 106.197 136.809 106.432V106.947C136.809 107.514 136.92 107.957 137.143 108.277C137.365 108.594 137.678 108.752 138.08 108.752C138.443 108.752 138.736 108.609 138.959 108.324C139.186 108.035 139.299 107.662 139.299 107.205C139.299 106.74 139.186 106.365 138.959 106.08C138.732 105.795 138.428 105.652 138.045 105.652ZM150.725 106.473C150.725 107.652 150.48 108.555 149.992 109.18C149.504 109.805 148.789 110.117 147.848 110.117C146.918 110.117 146.207 109.811 145.715 109.197C145.223 108.584 144.971 107.705 144.959 106.561V104.99C144.959 103.799 145.205 102.895 145.697 102.277C146.193 101.66 146.906 101.352 147.836 101.352C148.766 101.352 149.477 101.658 149.969 102.271C150.461 102.881 150.713 103.758 150.725 104.902V106.473ZM149.031 104.75C149.031 104.043 148.934 103.529 148.738 103.209C148.547 102.885 148.246 102.723 147.836 102.723C147.438 102.723 147.143 102.877 146.951 103.186C146.764 103.49 146.664 103.969 146.652 104.621V106.695C146.652 107.391 146.746 107.908 146.934 108.248C147.125 108.584 147.43 108.752 147.848 108.752C148.262 108.752 148.561 108.59 148.744 108.266C148.928 107.941 149.023 107.445 149.031 106.777V104.75ZM157.615 106.473C157.615 107.652 157.371 108.555 156.883 109.18C156.395 109.805 155.68 110.117 154.738 110.117C153.809 110.117 153.098 109.811 152.605 109.197C152.113 108.584 151.861 107.705 151.85 106.561V104.99C151.85 103.799 152.096 102.895 152.588 102.277C153.084 101.66 153.797 101.352 154.727 101.352C155.656 101.352 156.367 101.658 156.859 102.271C157.352 102.881 157.604 103.758 157.615 104.902V106.473ZM155.922 104.75C155.922 104.043 155.824 103.529 155.629 103.209C155.438 102.885 155.137 102.723 154.727 102.723C154.328 102.723 154.033 102.877 153.842 103.186C153.654 103.49 153.555 103.969 153.543 104.621V106.695C153.543 107.391 153.637 107.908 153.824 108.248C154.016 108.584 154.32 108.752 154.738 108.752C155.152 108.752 155.451 108.59 155.635 108.266C155.818 107.941 155.914 107.445 155.922 106.777V104.75ZM164.506 106.473C164.506 107.652 164.262 108.555 163.773 109.18C163.285 109.805 162.57 110.117 161.629 110.117C160.699 110.117 159.988 109.811 159.496 109.197C159.004 108.584 158.752 107.705 158.74 106.561V104.99C158.74 103.799 158.986 102.895 159.479 102.277C159.975 101.66 160.688 101.352 161.617 101.352C162.547 101.352 163.258 101.658 163.75 102.271C164.242 102.881 164.494 103.758 164.506 104.902V106.473ZM162.812 104.75C162.812 104.043 162.715 103.529 162.52 103.209C162.328 102.885 162.027 102.723 161.617 102.723C161.219 102.723 160.924 102.877 160.732 103.186C160.545 103.49 160.445 103.969 160.434 104.621V106.695C160.434 107.391 160.527 107.908 160.715 108.248C160.906 108.584 161.211 108.752 161.629 108.752C162.043 108.752 162.342 108.59 162.525 108.266C162.709 107.941 162.805 107.445 162.812 106.777V104.75ZM170.312 106.977H168.35C168.369 107.551 168.521 107.982 168.807 108.271C169.096 108.561 169.543 108.705 170.148 108.705C170.559 108.705 170.93 108.645 171.262 108.523L171.473 109.941C170.988 110.055 170.488 110.111 169.973 110.111C168.945 110.111 168.131 109.836 167.529 109.285C166.932 108.73 166.617 107.961 166.586 106.977H165.596V106.086H166.586V105.359H165.596V104.469H166.598C166.664 103.484 167.006 102.721 167.623 102.178C168.244 101.631 169.066 101.357 170.09 101.357C170.5 101.357 170.961 101.418 171.473 101.539L171.262 102.963C170.895 102.838 170.533 102.775 170.178 102.775C169.072 102.775 168.467 103.34 168.361 104.469H170.312V105.359H168.35V106.086H170.312V106.977Z" fill="black"/>
<path d="M34.8848 122.395H32.1426V130H31.0234V122.395H28.2871V121.469H34.8848V122.395ZM35.1074 126.771C35.1074 126.15 35.2285 125.592 35.4707 125.096C35.7168 124.6 36.0566 124.217 36.4902 123.947C36.9277 123.678 37.4258 123.543 37.9844 123.543C38.8477 123.543 39.5449 123.842 40.0762 124.439C40.6113 125.037 40.8789 125.832 40.8789 126.824V126.9C40.8789 127.518 40.7598 128.072 40.5215 128.564C40.2871 129.053 39.9492 129.434 39.5078 129.707C39.0703 129.98 38.5664 130.117 37.9961 130.117C37.1367 130.117 36.4395 129.818 35.9043 129.221C35.373 128.623 35.1074 127.832 35.1074 126.848V126.771ZM36.1973 126.9C36.1973 127.604 36.3594 128.168 36.6836 128.594C37.0117 129.02 37.4492 129.232 37.9961 129.232C38.5469 129.232 38.9844 129.018 39.3086 128.588C39.6328 128.154 39.7949 127.549 39.7949 126.771C39.7949 126.076 39.6289 125.514 39.2969 125.084C38.9688 124.65 38.5312 124.434 37.9844 124.434C37.4492 124.434 37.0176 124.646 36.6895 125.072C36.3613 125.498 36.1973 126.107 36.1973 126.9ZM46.1523 129.373C45.7305 129.869 45.1113 130.117 44.2949 130.117C43.6191 130.117 43.1035 129.922 42.748 129.531C42.3965 129.137 42.2188 128.555 42.2148 127.785V123.66H43.2988V127.756C43.2988 128.717 43.6895 129.197 44.4707 129.197C45.2988 129.197 45.8496 128.889 46.123 128.271V123.66H47.207V130H46.1758L46.1523 129.373ZM50.0371 130H48.9531V121H50.0371V130ZM51.4902 126.771C51.4902 126.15 51.6113 125.592 51.8535 125.096C52.0996 124.6 52.4395 124.217 52.873 123.947C53.3105 123.678 53.8086 123.543 54.3672 123.543C55.2305 123.543 55.9277 123.842 56.459 124.439C56.9941 125.037 57.2617 125.832 57.2617 126.824V126.9C57.2617 127.518 57.1426 128.072 56.9043 128.564C56.6699 129.053 56.332 129.434 55.8906 129.707C55.4531 129.98 54.9492 130.117 54.3789 130.117C53.5195 130.117 52.8223 129.818 52.2871 129.221C51.7559 128.623 51.4902 127.832 51.4902 126.848V126.771ZM52.5801 126.9C52.5801 127.604 52.7422 128.168 53.0664 128.594C53.3945 129.02 53.832 129.232 54.3789 129.232C54.9297 129.232 55.3672 129.018 55.6914 128.588C56.0156 128.154 56.1777 127.549 56.1777 126.771C56.1777 126.076 56.0117 125.514 55.6797 125.084C55.3516 124.65 54.9141 124.434 54.3672 124.434C53.832 124.434 53.4004 124.646 53.0723 125.072C52.7441 125.498 52.5801 126.107 52.5801 126.9ZM62.5352 129.373C62.1133 129.869 61.4941 130.117 60.6777 130.117C60.002 130.117 59.4863 129.922 59.1309 129.531C58.7793 129.137 58.6016 128.555 58.5977 127.785V123.66H59.6816V127.756C59.6816 128.717 60.0723 129.197 60.8535 129.197C61.6816 129.197 62.2324 128.889 62.5059 128.271V123.66H63.5898V130H62.5586L62.5352 129.373ZM68.9336 128.318C68.9336 128.025 68.8223 127.799 68.5996 127.639C68.3809 127.475 67.9961 127.334 67.4453 127.217C66.8984 127.1 66.4629 126.959 66.1387 126.795C65.8184 126.631 65.5801 126.436 65.4238 126.209C65.2715 125.982 65.1953 125.713 65.1953 125.4C65.1953 124.881 65.4141 124.441 65.8516 124.082C66.293 123.723 66.8555 123.543 67.5391 123.543C68.2578 123.543 68.8398 123.729 69.2852 124.1C69.7344 124.471 69.959 124.945 69.959 125.523H68.8691C68.8691 125.227 68.7422 124.971 68.4883 124.756C68.2383 124.541 67.9219 124.434 67.5391 124.434C67.1445 124.434 66.8359 124.52 66.6133 124.691C66.3906 124.863 66.2793 125.088 66.2793 125.365C66.2793 125.627 66.3828 125.824 66.5898 125.957C66.7969 126.09 67.1699 126.217 67.709 126.338C68.252 126.459 68.6914 126.604 69.0273 126.771C69.3633 126.939 69.6113 127.143 69.7715 127.381C69.9355 127.615 70.0176 127.902 70.0176 128.242C70.0176 128.809 69.791 129.264 69.3379 129.607C68.8848 129.947 68.2969 130.117 67.5742 130.117C67.0664 130.117 66.6172 130.027 66.2266 129.848C65.8359 129.668 65.5293 129.418 65.3066 129.098C65.0879 128.773 64.9785 128.424 64.9785 128.049H66.0625C66.082 128.412 66.2266 128.701 66.4961 128.916C66.7695 129.127 67.1289 129.232 67.5742 129.232C67.9844 129.232 68.3125 129.15 68.5586 128.986C68.8086 128.818 68.9336 128.596 68.9336 128.318ZM74.0605 130.117C73.2012 130.117 72.502 129.836 71.9629 129.273C71.4238 128.707 71.1543 127.951 71.1543 127.006V126.807C71.1543 126.178 71.2734 125.617 71.5117 125.125C71.7539 124.629 72.0898 124.242 72.5195 123.965C72.9531 123.684 73.4219 123.543 73.9258 123.543C74.75 123.543 75.3906 123.814 75.8477 124.357C76.3047 124.9 76.5332 125.678 76.5332 126.689V127.141H72.2383C72.2539 127.766 72.4355 128.271 72.7832 128.658C73.1348 129.041 73.5801 129.232 74.1191 129.232C74.502 129.232 74.8262 129.154 75.0918 128.998C75.3574 128.842 75.5898 128.635 75.7891 128.377L76.4512 128.893C75.9199 129.709 75.123 130.117 74.0605 130.117ZM73.9258 124.434C73.4883 124.434 73.1211 124.594 72.8242 124.914C72.5273 125.23 72.3438 125.676 72.2734 126.25H75.4492V126.168C75.418 125.617 75.2695 125.191 75.0039 124.891C74.7383 124.586 74.3789 124.434 73.9258 124.434ZM82.2344 125.207H83.0488C83.5605 125.199 83.9629 125.064 84.2559 124.803C84.5488 124.541 84.6953 124.188 84.6953 123.742C84.6953 122.742 84.1973 122.242 83.2012 122.242C82.7324 122.242 82.3574 122.377 82.0762 122.646C81.7988 122.912 81.6602 123.266 81.6602 123.707H80.5762C80.5762 123.031 80.8223 122.471 81.3145 122.025C81.8105 121.576 82.4395 121.352 83.2012 121.352C84.0059 121.352 84.6367 121.564 85.0938 121.99C85.5508 122.416 85.7793 123.008 85.7793 123.766C85.7793 124.137 85.6582 124.496 85.416 124.844C85.1777 125.191 84.8516 125.451 84.4375 125.623C84.9062 125.771 85.2676 126.018 85.5215 126.361C85.7793 126.705 85.9082 127.125 85.9082 127.621C85.9082 128.387 85.6582 128.994 85.1582 129.443C84.6582 129.893 84.0078 130.117 83.207 130.117C82.4062 130.117 81.7539 129.9 81.25 129.467C80.75 129.033 80.5 128.461 80.5 127.75H81.5898C81.5898 128.199 81.7363 128.559 82.0293 128.828C82.3223 129.098 82.7148 129.232 83.207 129.232C83.7305 129.232 84.1309 129.096 84.4082 128.822C84.6855 128.549 84.8242 128.156 84.8242 127.645C84.8242 127.148 84.6719 126.768 84.3672 126.502C84.0625 126.236 83.623 126.1 83.0488 126.092H82.2344V125.207ZM90.959 130H89.8691V122.775L87.6836 123.578V122.594L90.7891 121.428H90.959V130ZM95.7109 125.207H96.5254C97.0371 125.199 97.4395 125.064 97.7324 124.803C98.0254 124.541 98.1719 124.188 98.1719 123.742C98.1719 122.742 97.6738 122.242 96.6777 122.242C96.209 122.242 95.834 122.377 95.5527 122.646C95.2754 122.912 95.1367 123.266 95.1367 123.707H94.0527C94.0527 123.031 94.2988 122.471 94.791 122.025C95.2871 121.576 95.916 121.352 96.6777 121.352C97.4824 121.352 98.1133 121.564 98.5703 121.99C99.0273 122.416 99.2559 123.008 99.2559 123.766C99.2559 124.137 99.1348 124.496 98.8926 124.844C98.6543 125.191 98.3281 125.451 97.9141 125.623C98.3828 125.771 98.7441 126.018 98.998 126.361C99.2559 126.705 99.3848 127.125 99.3848 127.621C99.3848 128.387 99.1348 128.994 98.6348 129.443C98.1348 129.893 97.4844 130.117 96.6836 130.117C95.8828 130.117 95.2305 129.9 94.7266 129.467C94.2266 129.033 93.9766 128.461 93.9766 127.75H95.0664C95.0664 128.199 95.2129 128.559 95.5059 128.828C95.7988 129.098 96.1914 129.232 96.6836 129.232C97.207 129.232 97.6074 129.096 97.8848 128.822C98.1621 128.549 98.3008 128.156 98.3008 127.645C98.3008 127.148 98.1484 126.768 97.8438 126.502C97.5391 126.236 97.0996 126.1 96.5254 126.092H95.7109V125.207ZM106.223 126.361C106.223 127.631 106.006 128.574 105.572 129.191C105.139 129.809 104.461 130.117 103.539 130.117C102.629 130.117 101.955 129.816 101.518 129.215C101.08 128.609 100.854 127.707 100.838 126.508V125.061C100.838 123.807 101.055 122.875 101.488 122.266C101.922 121.656 102.602 121.352 103.527 121.352C104.445 121.352 105.121 121.646 105.555 122.236C105.988 122.822 106.211 123.729 106.223 124.955V126.361ZM105.139 124.879C105.139 123.961 105.01 123.293 104.752 122.875C104.494 122.453 104.086 122.242 103.527 122.242C102.973 122.242 102.568 122.451 102.314 122.869C102.061 123.287 101.93 123.93 101.922 124.797V126.531C101.922 127.453 102.055 128.135 102.32 128.576C102.59 129.014 102.996 129.232 103.539 129.232C104.074 129.232 104.471 129.025 104.729 128.611C104.99 128.197 105.127 127.545 105.139 126.654V124.879ZM112.961 126.361C112.961 127.631 112.744 128.574 112.311 129.191C111.877 129.809 111.199 130.117 110.277 130.117C109.367 130.117 108.693 129.816 108.256 129.215C107.818 128.609 107.592 127.707 107.576 126.508V125.061C107.576 123.807 107.793 122.875 108.227 122.266C108.66 121.656 109.34 121.352 110.266 121.352C111.184 121.352 111.859 121.646 112.293 122.236C112.727 122.822 112.949 123.729 112.961 124.955V126.361ZM111.877 124.879C111.877 123.961 111.748 123.293 111.49 122.875C111.232 122.453 110.824 122.242 110.266 122.242C109.711 122.242 109.307 122.451 109.053 122.869C108.799 123.287 108.668 123.93 108.66 124.797V126.531C108.66 127.453 108.793 128.135 109.059 128.576C109.328 129.014 109.734 129.232 110.277 129.232C110.812 129.232 111.209 129.025 111.467 128.611C111.729 128.197 111.865 127.545 111.877 126.654V124.879Z" fill="#656565"/>
<g filter="url(#filter1_d)">
<g filter="url(#filter2_b)">
<circle cx="118" cy="162" r="12" fill="white" fill-opacity="0.5"/>
</g>
<circle cx="118" cy="162" r="8" fill="#FF862F"/>
</g>
<g filter="url(#filter3_d)">
<g filter="url(#filter4_b)">
<circle cx="464" cy="22" r="12" fill="white" fill-opacity="0.5"/>
</g>
<circle cx="464" cy="22" r="8" fill="#FF862F"/>
</g>
<g filter="url(#filter5_d)">
<g filter="url(#filter6_b)">
<circle cx="304" cy="410" r="12" fill="white" fill-opacity="0.5"/>
</g>
<circle cx="304" cy="410" r="8" fill="#FF862F"/>
</g>
<defs>
<filter id="filter0_d" x="0" y="54" width="243" height="114" filterUnits="userSpaceOnUse" color-interpolation-filters="sRGB">
<feFlood flood-opacity="0" result="BackgroundImageFix"/>
<feColorMatrix in="SourceAlpha" type="matrix" values="0 0 0 0 0 0 0 0 0 0 0 0 0 0 0 0 0 0 127 0" result="hardAlpha"/>
<feOffset dx="4" dy="2"/>
<feGaussianBlur stdDeviation="8"/>
<feComposite in2="hardAlpha" operator="out"/>
<feColorMatrix type="matrix" values="0 0 0 0 0 0 0 0 0 0 0 0 0 0 0 0 0 0 0.35 0"/>
<feBlend mode="normal" in2="BackgroundImageFix" result="effect1_dropShadow"/>
<feBlend mode="normal" in="SourceGraphic" in2="effect1_dropShadow" result="shape"/>
</filter>
<filter id="filter1_d" x="96" y="140" width="64" height="64" filterUnits="userSpaceOnUse" color-interpolation-filters="sRGB">
<feFlood flood-opacity="0" result="BackgroundImageFix"/>
<feColorMatrix in="SourceAlpha" type="matrix" values="0 0 0 0 0 0 0 0 0 0 0 0 0 0 0 0 0 0 127 0" result="hardAlpha"/>
<feOffset dx="10" dy="10"/>
<feGaussianBlur stdDeviation="10"/>
<feComposite in2="hardAlpha" operator="out"/>
<feColorMatrix type="matrix" values="0 0 0 0 0 0 0 0 0 0 0 0 0 0 0 0 0 0 0.05 0"/>
<feBlend mode="normal" in2="BackgroundImageFix" result="effect1_dropShadow"/>
<feBlend mode="normal" in="SourceGraphic" in2="effect1_dropShadow" result="shape"/>
</filter>
<filter id="filter2_b" x="102" y="146" width="32" height="32" filterUnits="userSpaceOnUse" color-interpolation-filters="sRGB">
<feFlood flood-opacity="0" result="BackgroundImageFix"/>
<feGaussianBlur in="BackgroundImage" stdDeviation="2"/>
<feComposite in2="SourceAlpha" operator="in" result="effect1_backgroundBlur"/>
<feBlend mode="normal" in="SourceGraphic" in2="effect1_backgroundBlur" result="shape"/>
</filter>
<filter id="filter3_d" x="442" y="0" width="64" height="64" filterUnits="userSpaceOnUse" color-interpolation-filters="sRGB">
<feFlood flood-opacity="0" result="BackgroundImageFix"/>
<feColorMatrix in="SourceAlpha" type="matrix" values="0 0 0 0 0 0 0 0 0 0 0 0 0 0 0 0 0 0 127 0" result="hardAlpha"/>
<feOffset dx="10" dy="10"/>
<feGaussianBlur stdDeviation="10"/>
<feComposite in2="hardAlpha" operator="out"/>
<feColorMatrix type="matrix" values="0 0 0 0 0 0 0 0 0 0 0 0 0 0 0 0 0 0 0.05 0"/>
<feBlend mode="normal" in2="BackgroundImageFix" result="effect1_dropShadow"/>
<feBlend mode="normal" in="SourceGraphic" in2="effect1_dropShadow" result="shape"/>
</filter>
<filter id="filter4_b" x="448" y="6" width="32" height="32" filterUnits="userSpaceOnUse" color-interpolation-filters="sRGB">
<feFlood flood-opacity="0" result="BackgroundImageFix"/>
<feGaussianBlur in="BackgroundImage" stdDeviation="2"/>
<feComposite in2="SourceAlpha" operator="in" result="effect1_backgroundBlur"/>
<feBlend mode="normal" in="SourceGraphic" in2="effect1_backgroundBlur" result="shape"/>
</filter>
<filter id="filter5_d" x="282" y="388" width="64" height="64" filterUnits="userSpaceOnUse" color-interpolation-filters="sRGB">
<feFlood flood-opacity="0" result="BackgroundImageFix"/>
<feColorMatrix in="SourceAlpha" type="matrix" values="0 0 0 0 0 0 0 0 0 0 0 0 0 0 0 0 0 0 127 0" result="hardAlpha"/>
<feOffset dx="10" dy="10"/>
<feGaussianBlur stdDeviation="10"/>
<feComposite in2="hardAlpha" operator="out"/>
<feColorMatrix type="matrix" values="0 0 0 0 0 0 0 0 0 0 0 0 0 0 0 0 0 0 0.05 0"/>
<feBlend mode="normal" in2="BackgroundImageFix" result="effect1_dropShadow"/>
<feBlend mode="normal" in="SourceGraphic" in2="effect1_dropShadow" result="shape"/>
</filter>
<filter id="filter6_b" x="288" y="394" width="32" height="32" filterUnits="userSpaceOnUse" color-interpolation-filters="sRGB">
<feFlood flood-opacity="0" result="BackgroundImageFix"/>
<feGaussianBlur in="BackgroundImage" stdDeviation="2"/>
<feComposite in2="SourceAlpha" operator="in" result="effect1_backgroundBlur"/>
<feBlend mode="normal" in="SourceGraphic" in2="effect1_backgroundBlur" result="shape"/>
</filter>
</defs>
</svg>
