<svg width="688" height="96" viewBox="0 0 688 96" fill="none" xmlns="http://www.w3.org/2000/svg">
<g filter="url(#filter0_d)">
<rect x="10" y="10" width="648" height="56" rx="4" fill="white"/>
<g clip-path="url(#clip0)">
<path d="M82 18V58" stroke="#C4C4C4"/>
<path d="M50.6153 31.4668C50.2239 31.8662 49.6787 32.1148 49.0768 32.1148C48.4744 32.1148 47.9298 31.8668 47.5384 31.4668C47.147 31.8662 46.6018 32.1148 45.9999 32.1148C45.3975 32.1148 44.8528 31.8668 44.4615 31.4668C44.0701 31.8662 43.5248 32.1148 42.923 32.1148C42.3205 32.1148 41.7759 31.8668 41.3845 31.4668C40.9932 31.8662 40.4479 32.1148 39.8461 32.1148C39.5144 32.1148 39.2042 32.033 38.923 31.8988V38.8846H38.3076V39.5H53.6922V38.8846H53.0768V31.8988C52.7956 32.033 52.4855 32.1148 52.1538 32.1148C51.5513 32.1148 51.0067 31.8668 50.6153 31.4668ZM47.5384 33.9616H50.6153V38.8846H47.5384V33.9616ZM41.3845 33.9616H45.0768V36.4231H41.3845V33.9616Z" fill="#FF862F"/>
<path d="M51.2305 25.3462V23.5H40.7701V25.3462H40.7695H51.2311H51.2305Z" fill="#FF862F"/>
<path d="M51.7241 25.9614H40.2767L38.7998 27.8076H53.201L51.7241 25.9614Z" fill="#FF862F"/>
<path d="M38.3076 29.9607C38.3076 30.8105 38.9962 31.4992 39.8461 31.4992C40.6959 31.4992 41.3845 30.8105 41.3845 29.9607C41.3845 30.8105 42.0732 31.4992 42.923 31.4992C43.7728 31.4992 44.4615 30.8105 44.4615 29.9607C44.4615 30.8105 45.1501 31.4992 45.9999 31.4992C46.8498 31.4992 47.5384 30.8105 47.5384 29.9607C47.5384 30.8105 48.227 31.4992 49.0768 31.4992C49.9267 31.4992 50.6153 30.8105 50.6153 29.9607C50.6153 30.8105 51.3039 31.4992 52.1538 31.4992C53.0036 31.4992 53.6922 30.8105 53.6922 29.9607V28.4229H38.3076V29.9607Z" fill="#FF862F"/>
<path d="M25.7725 51.0186C25.6758 51.8457 25.3696 52.4849 24.854 52.936C24.342 53.3836 23.6598 53.6074 22.8076 53.6074C21.8838 53.6074 21.1426 53.2762 20.584 52.6138C20.029 51.9513 19.7515 51.0651 19.7515 49.9551V49.2031C19.7515 48.4762 19.8804 47.8371 20.1382 47.2856C20.3996 46.7342 20.7684 46.3117 21.2446 46.0181C21.7209 45.7209 22.2723 45.5723 22.8989 45.5723C23.7297 45.5723 24.3957 45.805 24.897 46.2705C25.3983 46.7324 25.6901 47.3734 25.7725 48.1934H24.7358C24.6463 47.5703 24.4512 47.1191 24.1504 46.8398C23.8532 46.5605 23.436 46.4209 22.8989 46.4209C22.2401 46.4209 21.7227 46.6644 21.3467 47.1514C20.9743 47.6383 20.7881 48.3312 20.7881 49.23V49.9873C20.7881 50.8359 20.9653 51.5109 21.3198 52.0122C21.6743 52.5135 22.1702 52.7642 22.8076 52.7642C23.3805 52.7642 23.8192 52.6353 24.1235 52.3774C24.4315 52.116 24.6356 51.6631 24.7358 51.0186H25.7725ZM26.7661 50.5405C26.7661 49.9712 26.8771 49.4591 27.0991 49.0044C27.3247 48.5496 27.6362 48.1987 28.0337 47.9517C28.4347 47.7046 28.8913 47.5811 29.4033 47.5811C30.1947 47.5811 30.8338 47.855 31.3208 48.4028C31.8114 48.9507 32.0566 49.6794 32.0566 50.5889V50.6587C32.0566 51.2244 31.9474 51.7329 31.729 52.1841C31.5142 52.6317 31.2044 52.9808 30.7998 53.2314C30.3988 53.4821 29.9368 53.6074 29.4141 53.6074C28.6263 53.6074 27.9871 53.3335 27.4966 52.7856C27.0096 52.2378 26.7661 51.5127 26.7661 50.6104V50.5405ZM27.7651 50.6587C27.7651 51.3032 27.9137 51.8206 28.2109 52.2109C28.5117 52.6012 28.9128 52.7964 29.4141 52.7964C29.9189 52.7964 30.32 52.5994 30.6172 52.2056C30.9144 51.8081 31.063 51.2531 31.063 50.5405C31.063 49.9032 30.9108 49.3875 30.6064 48.9937C30.3057 48.5962 29.9046 48.3975 29.4033 48.3975C28.9128 48.3975 28.5171 48.5926 28.2163 48.9829C27.9155 49.3732 27.7651 49.9318 27.7651 50.6587ZM34.2373 47.6885L34.2642 48.333C34.6903 47.8317 35.265 47.5811 35.9883 47.5811C36.8011 47.5811 37.3543 47.8926 37.6479 48.5156C37.8413 48.2363 38.092 48.0107 38.3999 47.8389C38.7114 47.667 39.0785 47.5811 39.501 47.5811C40.7757 47.5811 41.4238 48.256 41.4453 49.606V53.5H40.4517V49.665C40.4517 49.2497 40.3568 48.9399 40.167 48.7358C39.9772 48.5282 39.6585 48.4243 39.2109 48.4243C38.8421 48.4243 38.536 48.5353 38.2925 48.7573C38.049 48.9757 37.9076 49.2712 37.8682 49.6436V53.5H36.8691V49.6919C36.8691 48.8468 36.4556 48.4243 35.6284 48.4243C34.9767 48.4243 34.5309 48.7018 34.291 49.2568V53.5H33.2974V47.6885H34.2373ZM43.8838 47.6885L43.9106 48.333C44.3368 47.8317 44.9115 47.5811 45.6348 47.5811C46.4476 47.5811 47.0008 47.8926 47.2944 48.5156C47.4878 48.2363 47.7384 48.0107 48.0464 47.8389C48.3579 47.667 48.7249 47.5811 49.1475 47.5811C50.4222 47.5811 51.0703 48.256 51.0918 49.606V53.5H50.0981V49.665C50.0981 49.2497 50.0033 48.9399 49.8135 48.7358C49.6237 48.5282 49.305 48.4243 48.8574 48.4243C48.4886 48.4243 48.1825 48.5353 47.939 48.7573C47.6955 48.9757 47.554 49.2712 47.5146 49.6436V53.5H46.5156V49.6919C46.5156 48.8468 46.1021 48.4243 45.2749 48.4243C44.6232 48.4243 44.1774 48.7018 43.9375 49.2568V53.5H42.9438V47.6885H43.8838ZM55.0073 53.6074C54.2196 53.6074 53.5786 53.3496 53.0845 52.834C52.5903 52.3148 52.3433 51.6219 52.3433 50.7554V50.5728C52.3433 49.9963 52.4525 49.4824 52.6709 49.0312C52.8929 48.5765 53.2008 48.222 53.5947 47.9678C53.9922 47.71 54.4219 47.5811 54.8838 47.5811C55.6393 47.5811 56.2266 47.8299 56.6455 48.3276C57.0645 48.8254 57.2739 49.5379 57.2739 50.4653V50.8789H53.3369C53.3512 51.4518 53.5177 51.9155 53.8364 52.27C54.1587 52.6209 54.5669 52.7964 55.061 52.7964C55.4119 52.7964 55.7091 52.7248 55.9526 52.5815C56.1961 52.4383 56.4092 52.2485 56.5918 52.0122L57.1987 52.4849C56.7118 53.2332 55.9813 53.6074 55.0073 53.6074ZM54.8838 48.3975C54.4827 48.3975 54.1462 48.5443 53.874 48.8379C53.6019 49.1279 53.4336 49.5361 53.3691 50.0625H56.2803V49.9873C56.2516 49.4824 56.1156 49.0921 55.8721 48.8164C55.6286 48.5371 55.2992 48.3975 54.8838 48.3975ZM61.2378 48.5801C61.0874 48.555 60.9245 48.5425 60.749 48.5425C60.0973 48.5425 59.6551 48.82 59.4224 49.375V53.5H58.4287V47.6885H59.3955L59.4116 48.3599C59.7375 47.8407 60.1994 47.5811 60.7974 47.5811C60.9907 47.5811 61.1375 47.6061 61.2378 47.6562V48.5801ZM64.3799 52.7964C64.7344 52.7964 65.0441 52.689 65.3091 52.4741C65.5741 52.2593 65.7209 51.9907 65.7495 51.6685H66.6895C66.6715 52.0015 66.557 52.3184 66.3457 52.6191C66.1344 52.9199 65.8516 53.1598 65.4971 53.3389C65.1462 53.5179 64.7738 53.6074 64.3799 53.6074C63.5885 53.6074 62.9583 53.3442 62.4893 52.8179C62.0238 52.2879 61.791 51.5646 61.791 50.6479V50.4814C61.791 49.9157 61.8949 49.4126 62.1025 48.9722C62.3102 48.5317 62.6074 48.1898 62.9941 47.9463C63.3844 47.7028 63.8446 47.5811 64.3745 47.5811C65.0262 47.5811 65.5669 47.7762 65.9966 48.1665C66.4299 48.5568 66.6608 49.0635 66.6895 49.6865H65.7495C65.7209 49.3105 65.5776 49.0026 65.3198 48.7627C65.0656 48.5192 64.7505 48.3975 64.3745 48.3975C63.8696 48.3975 63.4775 48.5801 63.1982 48.9453C62.9225 49.307 62.7847 49.8315 62.7847 50.519V50.707C62.7847 51.3766 62.9225 51.8923 63.1982 52.2539C63.474 52.6156 63.8678 52.7964 64.3799 52.7964ZM70.2183 53.6074C69.4305 53.6074 68.7896 53.3496 68.2954 52.834C67.8013 52.3148 67.5542 51.6219 67.5542 50.7554V50.5728C67.5542 49.9963 67.6634 49.4824 67.8818 49.0312C68.1038 48.5765 68.4118 48.222 68.8057 47.9678C69.2031 47.71 69.6328 47.5811 70.0947 47.5811C70.8503 47.5811 71.4375 47.8299 71.8564 48.3276C72.2754 48.8254 72.4849 49.5379 72.4849 50.4653V50.8789H68.5479C68.5622 51.4518 68.7287 51.9155 69.0474 52.27C69.3696 52.6209 69.7778 52.7964 70.272 52.7964C70.6229 52.7964 70.9201 52.7248 71.1636 52.5815C71.4071 52.4383 71.6201 52.2485 71.8027 52.0122L72.4097 52.4849C71.9227 53.2332 71.1922 53.6074 70.2183 53.6074ZM70.0947 48.3975C69.6937 48.3975 69.3571 48.5443 69.085 48.8379C68.8128 49.1279 68.6445 49.5361 68.5801 50.0625H71.4912V49.9873C71.4626 49.4824 71.3265 49.0921 71.083 48.8164C70.8395 48.5371 70.5101 48.3975 70.0947 48.3975Z" fill="#656565"/>
</g>
<g clip-path="url(#clip1)">
<path d="M154 18V58" stroke="#C4C4C4"/>
<path d="M122.507 36.29C123.005 36.073 123.419 35.6995 123.686 35.226C123.953 34.7525 124.059 34.2048 123.987 33.666L122.987 26.233C122.921 25.7539 122.685 25.3147 122.321 24.9963C121.957 24.6778 121.49 24.5016 121.007 24.5H115.007C114.523 24.5013 114.056 24.6772 113.692 24.9955C113.328 25.3137 113.091 25.7529 113.025 26.232L112.025 33.666C111.953 34.205 112.058 34.7529 112.326 35.2264C112.593 35.6999 113.008 36.0733 113.507 36.29L112.153 37.646C112.105 37.6921 112.067 37.7473 112.041 37.8083C112.014 37.8693 112.001 37.9349 112 38.0013C111.999 38.0677 112.012 38.1335 112.037 38.195C112.062 38.2564 112.1 38.3123 112.146 38.3592C112.193 38.4061 112.249 38.4433 112.311 38.4684C112.372 38.4936 112.438 38.5062 112.504 38.5056C112.571 38.505 112.636 38.4913 112.697 38.4651C112.758 38.4388 112.814 38.4008 112.86 38.353L114.714 36.5H121.3L123.153 38.353C123.199 38.4008 123.254 38.4388 123.315 38.4651C123.376 38.4913 123.442 38.505 123.508 38.5056C123.574 38.5062 123.64 38.4936 123.702 38.4684C123.763 38.4433 123.819 38.4061 123.866 38.3592C123.913 38.3123 123.95 38.2564 123.975 38.195C124 38.1335 124.013 38.0677 124.012 38.0013C124.012 37.9349 123.998 37.8693 123.972 37.8083C123.945 37.7473 123.907 37.6921 123.86 37.646L122.507 36.29ZM113.864 27.5H122.15L122.686 31.5H113.328L113.864 27.5ZM115.007 35C114.809 35 114.616 34.9414 114.451 34.8315C114.287 34.7216 114.158 34.5654 114.083 34.3827C114.007 34.2 113.987 33.9989 114.026 33.8049C114.064 33.6109 114.16 33.4327 114.3 33.2929C114.439 33.153 114.618 33.0578 114.812 33.0192C115.006 32.9806 115.207 33.0004 115.389 33.0761C115.572 33.1518 115.728 33.28 115.838 33.4444C115.948 33.6089 116.007 33.8022 116.007 34C116.007 34.2652 115.901 34.5196 115.714 34.7071C115.526 34.8946 115.272 35 115.007 35ZM120.007 34C120.007 33.8022 120.065 33.6089 120.175 33.4444C120.285 33.28 120.441 33.1518 120.624 33.0761C120.807 33.0004 121.008 32.9806 121.202 33.0192C121.396 33.0578 121.574 33.153 121.714 33.2929C121.854 33.4327 121.949 33.6109 121.987 33.8049C122.026 33.9989 122.006 34.2 121.931 34.3827C121.855 34.5654 121.727 34.7216 121.562 34.8315C121.398 34.9414 121.204 35 121.007 35C120.741 35 120.487 34.8946 120.3 34.7071C120.112 34.5196 120.007 34.2652 120.007 34Z" fill="#FF862F"/>
<path d="M97.7563 46.5283H95.2427V53.5H94.2168V46.5283H91.7085V45.6797H97.7563V46.5283ZM101.162 48.5801C101.011 48.555 100.848 48.5425 100.673 48.5425C100.021 48.5425 99.5789 48.82 99.3462 49.375V53.5H98.3525V47.6885H99.3193L99.3354 48.3599C99.6613 47.8407 100.123 47.5811 100.721 47.5811C100.915 47.5811 101.061 47.6061 101.162 47.6562V48.5801ZM105.453 53.5C105.396 53.3854 105.349 53.1813 105.313 52.8877C104.852 53.3675 104.3 53.6074 103.659 53.6074C103.086 53.6074 102.615 53.4463 102.247 53.124C101.881 52.7982 101.699 52.3864 101.699 51.8887C101.699 51.2835 101.928 50.8145 102.386 50.4814C102.848 50.1449 103.496 49.9766 104.331 49.9766H105.297V49.52C105.297 49.1727 105.194 48.897 104.986 48.6929C104.778 48.4852 104.472 48.3813 104.067 48.3813C103.713 48.3813 103.416 48.4709 103.176 48.6499C102.936 48.8289 102.816 49.0456 102.816 49.2998H101.817C101.817 49.0098 101.919 48.7305 102.123 48.4619C102.331 48.1898 102.61 47.9749 102.961 47.8174C103.315 47.6598 103.704 47.5811 104.126 47.5811C104.796 47.5811 105.321 47.7493 105.7 48.0859C106.08 48.4189 106.277 48.8791 106.291 49.4663V52.1411C106.291 52.6746 106.359 53.099 106.495 53.4141V53.5H105.453ZM103.804 52.7427C104.116 52.7427 104.411 52.6621 104.69 52.501C104.97 52.3398 105.172 52.1304 105.297 51.8726V50.6802H104.519C103.301 50.6802 102.692 51.0365 102.692 51.749C102.692 52.0605 102.796 52.304 103.004 52.4795C103.212 52.6549 103.478 52.7427 103.804 52.7427ZM108.789 47.6885L108.821 48.4189C109.265 47.8604 109.845 47.5811 110.561 47.5811C111.789 47.5811 112.409 48.2739 112.419 49.6597V53.5H111.426V49.6543C111.422 49.2354 111.326 48.9256 111.136 48.7251C110.95 48.5246 110.658 48.4243 110.26 48.4243C109.938 48.4243 109.655 48.5103 109.412 48.6821C109.168 48.854 108.978 49.0796 108.842 49.3589V53.5H107.849V47.6885H108.789ZM117.302 51.9585C117.302 51.6899 117.2 51.4823 116.996 51.3354C116.795 51.1851 116.442 51.0562 115.938 50.9487C115.436 50.8413 115.037 50.7124 114.74 50.562C114.446 50.4116 114.228 50.2326 114.084 50.0249C113.945 49.8172 113.875 49.5701 113.875 49.2837C113.875 48.8075 114.076 48.4046 114.477 48.0752C114.881 47.7458 115.397 47.5811 116.023 47.5811C116.682 47.5811 117.216 47.7511 117.624 48.0913C118.036 48.4315 118.242 48.8665 118.242 49.3965H117.243C117.243 49.1243 117.126 48.8898 116.894 48.6929C116.664 48.4959 116.374 48.3975 116.023 48.3975C115.662 48.3975 115.379 48.4762 115.175 48.6338C114.971 48.7913 114.869 48.9972 114.869 49.2515C114.869 49.4914 114.964 49.6722 115.153 49.7939C115.343 49.9157 115.685 50.0321 116.179 50.1431C116.677 50.2541 117.08 50.3866 117.388 50.5405C117.696 50.6945 117.923 50.8807 118.07 51.0991C118.22 51.314 118.295 51.5771 118.295 51.8887C118.295 52.4079 118.088 52.825 117.672 53.1401C117.257 53.4517 116.718 53.6074 116.056 53.6074C115.59 53.6074 115.178 53.5251 114.82 53.3604C114.462 53.1956 114.181 52.9665 113.977 52.6729C113.777 52.3757 113.676 52.0552 113.676 51.7114H114.67C114.688 52.0444 114.82 52.3094 115.067 52.5063C115.318 52.6997 115.647 52.7964 116.056 52.7964C116.432 52.7964 116.732 52.7212 116.958 52.5708C117.187 52.4168 117.302 52.2127 117.302 51.9585ZM124.499 50.6587C124.499 51.5431 124.297 52.2557 123.892 52.7964C123.487 53.3371 122.94 53.6074 122.249 53.6074C121.543 53.6074 120.988 53.3836 120.583 52.936V55.7344H119.59V47.6885H120.498L120.546 48.333C120.951 47.8317 121.513 47.5811 122.232 47.5811C122.931 47.5811 123.482 47.8442 123.887 48.3706C124.295 48.897 124.499 49.6292 124.499 50.5674V50.6587ZM123.505 50.5459C123.505 49.8906 123.366 49.3732 123.086 48.9937C122.807 48.6141 122.424 48.4243 121.937 48.4243C121.335 48.4243 120.884 48.6911 120.583 49.2246V52.0015C120.881 52.5314 121.335 52.7964 121.948 52.7964C122.424 52.7964 122.802 52.6084 123.081 52.2324C123.364 51.8529 123.505 51.2907 123.505 50.5459ZM125.503 50.5405C125.503 49.9712 125.614 49.4591 125.836 49.0044C126.062 48.5496 126.374 48.1987 126.771 47.9517C127.172 47.7046 127.629 47.5811 128.141 47.5811C128.932 47.5811 129.571 47.855 130.058 48.4028C130.549 48.9507 130.794 49.6794 130.794 50.5889V50.6587C130.794 51.2244 130.685 51.7329 130.466 52.1841C130.251 52.6317 129.942 52.9808 129.537 53.2314C129.136 53.4821 128.674 53.6074 128.151 53.6074C127.364 53.6074 126.724 53.3335 126.234 52.7856C125.747 52.2378 125.503 51.5127 125.503 50.6104V50.5405ZM126.502 50.6587C126.502 51.3032 126.651 51.8206 126.948 52.2109C127.249 52.6012 127.65 52.7964 128.151 52.7964C128.656 52.7964 129.057 52.5994 129.354 52.2056C129.652 51.8081 129.8 51.2531 129.8 50.5405C129.8 49.9032 129.648 49.3875 129.344 48.9937C129.043 48.5962 128.642 48.3975 128.141 48.3975C127.65 48.3975 127.254 48.5926 126.954 48.9829C126.653 49.3732 126.502 49.9318 126.502 50.6587ZM134.849 48.5801C134.699 48.555 134.536 48.5425 134.36 48.5425C133.709 48.5425 133.266 48.82 133.034 49.375V53.5H132.04V47.6885H133.007L133.023 48.3599C133.349 47.8407 133.811 47.5811 134.409 47.5811C134.602 47.5811 134.749 47.6061 134.849 47.6562V48.5801ZM137.384 46.2812V47.6885H138.469V48.4565H137.384V52.0605C137.384 52.2933 137.433 52.4688 137.529 52.5869C137.626 52.7015 137.791 52.7588 138.023 52.7588C138.138 52.7588 138.296 52.7373 138.496 52.6943V53.5C138.235 53.5716 137.98 53.6074 137.733 53.6074C137.289 53.6074 136.955 53.4731 136.729 53.2046C136.503 52.936 136.391 52.5547 136.391 52.0605V48.4565H135.333V47.6885H136.391V46.2812H137.384ZM143.019 51.9585C143.019 51.6899 142.917 51.4823 142.712 51.3354C142.512 51.1851 142.159 51.0562 141.654 50.9487C141.153 50.8413 140.754 50.7124 140.457 50.562C140.163 50.4116 139.944 50.2326 139.801 50.0249C139.662 49.8172 139.592 49.5701 139.592 49.2837C139.592 48.8075 139.792 48.4046 140.193 48.0752C140.598 47.7458 141.114 47.5811 141.74 47.5811C142.399 47.5811 142.933 47.7511 143.341 48.0913C143.753 48.4315 143.958 48.8665 143.958 49.3965H142.959C142.959 49.1243 142.843 48.8898 142.61 48.6929C142.381 48.4959 142.091 48.3975 141.74 48.3975C141.379 48.3975 141.096 48.4762 140.892 48.6338C140.688 48.7913 140.585 48.9972 140.585 49.2515C140.585 49.4914 140.68 49.6722 140.87 49.7939C141.06 49.9157 141.402 50.0321 141.896 50.1431C142.394 50.2541 142.797 50.3866 143.104 50.5405C143.412 50.6945 143.64 50.8807 143.787 51.0991C143.937 51.314 144.012 51.5771 144.012 51.8887C144.012 52.4079 143.805 52.825 143.389 53.1401C142.974 53.4517 142.435 53.6074 141.772 53.6074C141.307 53.6074 140.895 53.5251 140.537 53.3604C140.179 53.1956 139.898 52.9665 139.694 52.6729C139.493 52.3757 139.393 52.0552 139.393 51.7114H140.387C140.405 52.0444 140.537 52.3094 140.784 52.5063C141.035 52.6997 141.364 52.7964 141.772 52.7964C142.148 52.7964 142.449 52.7212 142.675 52.5708C142.904 52.4168 143.019 52.2127 143.019 51.9585Z" fill="#656565"/>
</g>
<g clip-path="url(#clip2)">
<path d="M226 18V58" stroke="#C4C4C4"/>
<path fill-rule="evenodd" clip-rule="evenodd" d="M183.516 35.6355V30.8798L189.102 33.1793C189.389 33.2961 189.694 33.2943 189.981 33.1772L195.709 30.8202V35.6355C195.708 35.7113 195.693 35.7886 195.661 35.8628C195.658 35.8701 194.565 38.4714 189.667 38.8487C189.635 38.8518 189.602 38.8523 189.569 38.8497C185.116 38.5105 183.802 36.3334 183.594 35.928C183.544 35.8418 183.516 35.742 183.516 35.6355ZM180.359 27.8797L189.32 24.192C189.467 24.1317 189.625 24.1362 189.761 24.192L198.722 27.8797C199.083 28.0281 199.195 28.483 198.953 28.7816V34.335L199.912 35.8701C200.154 36.2595 199.867 36.7591 199.419 36.7577L197.323 36.7591C196.846 36.7591 196.58 36.219 196.849 35.8399L197.789 34.3354V29.3371L189.761 32.6406C189.614 32.7009 189.457 32.6964 189.32 32.6406L180.359 28.9531C179.875 28.7548 179.886 28.074 180.359 27.8797Z" fill="#FF862F"/>
<path d="M170.938 49.8853H167.549V52.6567H171.486V53.5H166.518V45.6797H171.432V46.5283H167.549V49.042H170.938V49.8853ZM172.265 50.5459C172.265 49.6543 172.476 48.9382 172.898 48.3975C173.321 47.8532 173.874 47.5811 174.558 47.5811C175.238 47.5811 175.777 47.8138 176.175 48.2793V45.25H177.168V53.5H176.255L176.207 52.877C175.81 53.3639 175.256 53.6074 174.547 53.6074C173.874 53.6074 173.325 53.3317 172.898 52.7803C172.476 52.2288 172.265 51.5091 172.265 50.6211V50.5459ZM173.258 50.6587C173.258 51.3175 173.394 51.8332 173.667 52.2056C173.939 52.578 174.315 52.7642 174.794 52.7642C175.425 52.7642 175.885 52.4813 176.175 51.9155V49.2461C175.878 48.6982 175.421 48.4243 174.805 48.4243C174.318 48.4243 173.939 48.6123 173.667 48.9883C173.394 49.3643 173.258 49.9211 173.258 50.6587ZM182.303 52.9253C181.917 53.38 181.349 53.6074 180.601 53.6074C179.981 53.6074 179.508 53.4284 179.183 53.0703C178.86 52.7087 178.697 52.1751 178.694 51.4697V47.6885H179.688V51.4429C179.688 52.3237 180.046 52.7642 180.762 52.7642C181.521 52.7642 182.026 52.4813 182.276 51.9155V47.6885H183.27V53.5H182.325L182.303 52.9253ZM187.116 52.7964C187.47 52.7964 187.78 52.689 188.045 52.4741C188.31 52.2593 188.457 51.9907 188.485 51.6685H189.425C189.407 52.0015 189.293 52.3184 189.082 52.6191C188.87 52.9199 188.587 53.1598 188.233 53.3389C187.882 53.5179 187.51 53.6074 187.116 53.6074C186.324 53.6074 185.694 53.3442 185.225 52.8179C184.76 52.2879 184.527 51.5646 184.527 50.6479V50.4814C184.527 49.9157 184.631 49.4126 184.838 48.9722C185.046 48.5317 185.343 48.1898 185.73 47.9463C186.12 47.7028 186.58 47.5811 187.11 47.5811C187.762 47.5811 188.303 47.7762 188.732 48.1665C189.166 48.5568 189.397 49.0635 189.425 49.6865H188.485C188.457 49.3105 188.313 49.0026 188.056 48.7627C187.801 48.5192 187.486 48.3975 187.11 48.3975C186.605 48.3975 186.213 48.5801 185.934 48.9453C185.658 49.307 185.521 49.8315 185.521 50.519V50.707C185.521 51.3766 185.658 51.8923 185.934 52.2539C186.21 52.6156 186.604 52.7964 187.116 52.7964ZM194.13 53.5C194.073 53.3854 194.027 53.1813 193.991 52.8877C193.529 53.3675 192.977 53.6074 192.336 53.6074C191.764 53.6074 191.293 53.4463 190.924 53.124C190.559 52.7982 190.376 52.3864 190.376 51.8887C190.376 51.2835 190.605 50.8145 191.063 50.4814C191.525 50.1449 192.174 49.9766 193.008 49.9766H193.975V49.52C193.975 49.1727 193.871 48.897 193.663 48.6929C193.455 48.4852 193.149 48.3813 192.745 48.3813C192.39 48.3813 192.093 48.4709 191.853 48.6499C191.613 48.8289 191.493 49.0456 191.493 49.2998H190.494C190.494 49.0098 190.596 48.7305 190.8 48.4619C191.008 48.1898 191.287 47.9749 191.638 47.8174C191.993 47.6598 192.381 47.5811 192.804 47.5811C193.473 47.5811 193.998 47.7493 194.377 48.0859C194.757 48.4189 194.954 48.8791 194.968 49.4663V52.1411C194.968 52.6746 195.036 53.099 195.172 53.4141V53.5H194.13ZM192.481 52.7427C192.793 52.7427 193.088 52.6621 193.368 52.501C193.647 52.3398 193.849 52.1304 193.975 51.8726V50.6802H193.196C191.978 50.6802 191.37 51.0365 191.37 51.749C191.37 52.0605 191.473 52.304 191.681 52.4795C191.889 52.6549 192.156 52.7427 192.481 52.7427ZM197.874 46.2812V47.6885H198.959V48.4565H197.874V52.0605C197.874 52.2933 197.922 52.4688 198.019 52.5869C198.116 52.7015 198.28 52.7588 198.513 52.7588C198.628 52.7588 198.785 52.7373 198.986 52.6943V53.5C198.724 53.5716 198.47 53.6074 198.223 53.6074C197.779 53.6074 197.444 53.4731 197.219 53.2046C196.993 52.936 196.88 52.5547 196.88 52.0605V48.4565H195.822V47.6885H196.88V46.2812H197.874ZM201.204 53.5H200.21V47.6885H201.204V53.5ZM200.13 46.147C200.13 45.9858 200.178 45.8498 200.275 45.7388C200.375 45.6278 200.522 45.5723 200.715 45.5723C200.909 45.5723 201.056 45.6278 201.156 45.7388C201.256 45.8498 201.306 45.9858 201.306 46.147C201.306 46.3081 201.256 46.4424 201.156 46.5498C201.056 46.6572 200.909 46.7109 200.715 46.7109C200.522 46.7109 200.375 46.6572 200.275 46.5498C200.178 46.4424 200.13 46.3081 200.13 46.147ZM202.536 50.5405C202.536 49.9712 202.647 49.4591 202.869 49.0044C203.095 48.5496 203.406 48.1987 203.804 47.9517C204.205 47.7046 204.661 47.5811 205.173 47.5811C205.965 47.5811 206.604 47.855 207.091 48.4028C207.581 48.9507 207.827 49.6794 207.827 50.5889V50.6587C207.827 51.2244 207.717 51.7329 207.499 52.1841C207.284 52.6317 206.974 52.9808 206.57 53.2314C206.169 53.4821 205.707 53.6074 205.184 53.6074C204.396 53.6074 203.757 53.3335 203.267 52.7856C202.78 52.2378 202.536 51.5127 202.536 50.6104V50.5405ZM203.535 50.6587C203.535 51.3032 203.684 51.8206 203.981 52.2109C204.282 52.6012 204.683 52.7964 205.184 52.7964C205.689 52.7964 206.09 52.5994 206.387 52.2056C206.684 51.8081 206.833 51.2531 206.833 50.5405C206.833 49.9032 206.681 49.3875 206.376 48.9937C206.076 48.5962 205.675 48.3975 205.173 48.3975C204.683 48.3975 204.287 48.5926 203.986 48.9829C203.686 49.3732 203.535 49.9318 203.535 50.6587ZM210.013 47.6885L210.045 48.4189C210.489 47.8604 211.069 47.5811 211.785 47.5811C213.013 47.5811 213.633 48.2739 213.644 49.6597V53.5H212.65V49.6543C212.646 49.2354 212.55 48.9256 212.36 48.7251C212.174 48.5246 211.882 48.4243 211.484 48.4243C211.162 48.4243 210.879 48.5103 210.636 48.6821C210.392 48.854 210.202 49.0796 210.066 49.3589V53.5H209.073V47.6885H210.013Z" fill="#656565"/>
</g>
<g clip-path="url(#clip3)">
<path d="M298 18V58" stroke="#C4C4C4"/>
<path d="M262 21.5C256.486 21.5 252 25.986 252 31.5C252 37.014 256.486 41.5 262 41.5C267.514 41.5 272 37.014 272 31.5C272 25.986 267.514 21.5 262 21.5ZM262 40.5903C256.988 40.5903 252.91 36.5125 252.91 31.5C252.91 26.4875 256.988 22.4097 262 22.4097C267.012 22.4097 271.09 26.4875 271.09 31.5C271.09 36.5125 267.012 40.5903 262 40.5903ZM269.248 28.8668H264.871V24.4104C264.871 24.1593 264.667 23.9555 264.416 23.9555H259.742C259.491 23.9555 259.287 24.1593 259.287 24.4104V28.8668H254.831C254.58 28.8668 254.376 29.0706 254.376 29.3217V33.9951C254.376 34.2462 254.58 34.45 254.831 34.45H259.288V38.8273C259.288 39.0783 259.491 39.2821 259.743 39.2821H264.416C264.667 39.2821 264.871 39.0783 264.871 38.8273V34.45H269.248C269.499 34.45 269.703 34.2462 269.703 33.9951V29.3217C269.703 29.0704 269.499 28.8668 269.248 28.8668Z" fill="#FF862F"/>
<path d="M251.204 50.0142C250.32 49.7599 249.675 49.4484 249.271 49.0796C248.869 48.7072 248.669 48.2489 248.669 47.7046C248.669 47.0887 248.914 46.5802 249.405 46.1792C249.899 45.7746 250.54 45.5723 251.328 45.5723C251.865 45.5723 252.343 45.6761 252.762 45.8838C253.184 46.0915 253.51 46.3779 253.739 46.7432C253.972 47.1084 254.088 47.5076 254.088 47.9409H253.052C253.052 47.4683 252.901 47.0977 252.601 46.8291C252.3 46.557 251.875 46.4209 251.328 46.4209C250.819 46.4209 250.422 46.5337 250.135 46.7593C249.852 46.9813 249.711 47.291 249.711 47.6885C249.711 48.0072 249.845 48.2775 250.114 48.4995C250.386 48.7179 250.846 48.9185 251.494 49.1011C252.146 49.2837 252.654 49.486 253.02 49.708C253.388 49.9264 253.66 50.1825 253.836 50.4761C254.015 50.7697 254.104 51.1152 254.104 51.5127C254.104 52.1465 253.857 52.6549 253.363 53.0381C252.869 53.4176 252.208 53.6074 251.381 53.6074C250.844 53.6074 250.343 53.5054 249.877 53.3013C249.412 53.0936 249.052 52.8107 248.798 52.4526C248.547 52.0946 248.422 51.6882 248.422 51.2334H249.458C249.458 51.7061 249.632 52.0802 249.979 52.356C250.33 52.6281 250.798 52.7642 251.381 52.7642C251.926 52.7642 252.343 52.6532 252.633 52.4312C252.923 52.2091 253.068 51.9066 253.068 51.5234C253.068 51.1403 252.934 50.8449 252.665 50.6372C252.396 50.4259 251.91 50.2183 251.204 50.0142ZM258.863 53.5C258.806 53.3854 258.759 53.1813 258.724 52.8877C258.262 53.3675 257.71 53.6074 257.069 53.6074C256.496 53.6074 256.026 53.4463 255.657 53.124C255.292 52.7982 255.109 52.3864 255.109 51.8887C255.109 51.2835 255.338 50.8145 255.796 50.4814C256.258 50.1449 256.906 49.9766 257.741 49.9766H258.708V49.52C258.708 49.1727 258.604 48.897 258.396 48.6929C258.188 48.4852 257.882 48.3813 257.478 48.3813C257.123 48.3813 256.826 48.4709 256.586 48.6499C256.346 48.8289 256.226 49.0456 256.226 49.2998H255.227C255.227 49.0098 255.329 48.7305 255.533 48.4619C255.741 48.1898 256.02 47.9749 256.371 47.8174C256.726 47.6598 257.114 47.5811 257.537 47.5811C258.206 47.5811 258.731 47.7493 259.11 48.0859C259.49 48.4189 259.687 48.8791 259.701 49.4663V52.1411C259.701 52.6746 259.769 53.099 259.905 53.4141V53.5H258.863ZM257.214 52.7427C257.526 52.7427 257.821 52.6621 258.101 52.501C258.38 52.3398 258.582 52.1304 258.708 51.8726V50.6802H257.929C256.711 50.6802 256.103 51.0365 256.103 51.749C256.103 52.0605 256.206 52.304 256.414 52.4795C256.622 52.6549 256.889 52.7427 257.214 52.7427ZM262.199 47.6885L262.231 48.4189C262.675 47.8604 263.255 47.5811 263.971 47.5811C265.199 47.5811 265.819 48.2739 265.83 49.6597V53.5H264.836V49.6543C264.832 49.2354 264.736 48.9256 264.546 48.7251C264.36 48.5246 264.068 48.4243 263.67 48.4243C263.348 48.4243 263.065 48.5103 262.822 48.6821C262.578 48.854 262.389 49.0796 262.252 49.3589V53.5H261.259V47.6885H262.199ZM268.676 46.2812V47.6885H269.761V48.4565H268.676V52.0605C268.676 52.2933 268.725 52.4688 268.821 52.5869C268.918 52.7015 269.083 52.7588 269.315 52.7588C269.43 52.7588 269.588 52.7373 269.788 52.6943V53.5C269.527 53.5716 269.272 53.6074 269.025 53.6074C268.581 53.6074 268.247 53.4731 268.021 53.2046C267.795 52.936 267.683 52.5547 267.683 52.0605V48.4565H266.625V47.6885H267.683V46.2812H268.676ZM273.338 53.6074C272.551 53.6074 271.91 53.3496 271.416 52.834C270.921 52.3148 270.674 51.6219 270.674 50.7554V50.5728C270.674 49.9963 270.784 49.4824 271.002 49.0312C271.224 48.5765 271.532 48.222 271.926 47.9678C272.323 47.71 272.753 47.5811 273.215 47.5811C273.97 47.5811 274.558 47.8299 274.977 48.3276C275.396 48.8254 275.605 49.5379 275.605 50.4653V50.8789H271.668C271.682 51.4518 271.849 51.9155 272.167 52.27C272.49 52.6209 272.898 52.7964 273.392 52.7964C273.743 52.7964 274.04 52.7248 274.284 52.5815C274.527 52.4383 274.74 52.2485 274.923 52.0122L275.53 52.4849C275.043 53.2332 274.312 53.6074 273.338 53.6074ZM273.215 48.3975C272.814 48.3975 272.477 48.5443 272.205 48.8379C271.933 49.1279 271.765 49.5361 271.7 50.0625H274.611V49.9873C274.583 49.4824 274.447 49.0921 274.203 48.8164C273.96 48.5371 273.63 48.3975 273.215 48.3975ZM273.698 45.25H274.901L273.462 46.8291H272.662L273.698 45.25Z" fill="#656565"/>
</g>
<g clip-path="url(#clip4)">
<path d="M370 18V58" stroke="#C4C4C4"/>
<path d="M329.092 21.5C328.723 21.5 328.33 21.6534 328.174 22.0402L326.024 27.3727L325.26 28.1368L326.917 29.7933L327.68 29.0298L333.016 26.8795C333.377 26.7342 333.512 26.3428 333.519 25.9732C333.526 25.6035 333.424 25.2274 333.203 24.9997C333.008 24.7985 332.764 24.7093 332.506 24.7031C332.432 24.7007 332.356 24.7078 332.28 24.7196L327.284 28.3664L327.062 28.1442L331.823 24.6671C331.982 24.2258 331.963 23.7596 331.629 23.4263C331.432 23.2288 331.188 23.1409 330.93 23.1351C330.751 23.1316 330.564 23.1694 330.382 23.2359L326.84 27.9227L326.617 27.6993L330.333 22.7824C330.384 22.4431 330.313 22.1104 330.059 21.8553C329.833 21.6283 329.461 21.5 329.092 21.5001V21.5ZM339.337 24.5938C338.994 24.5938 338.663 24.6396 338.345 24.7177C338.355 24.7366 338.36 24.7504 338.386 24.7782L339.276 25.4196L340.201 24.7434H340.204C340.229 24.7264 340.244 24.7125 340.256 24.7C339.96 24.633 339.653 24.5939 339.336 24.5939L339.337 24.5938ZM340.58 24.7836C340.579 24.786 340.579 24.7895 340.577 24.7919C340.537 24.8765 340.47 24.9381 340.381 24.9994L339.436 25.6909L339.487 26.9854L341.04 28.1127L342.397 27.8558L342.639 26.7206C342.639 26.7194 342.639 26.717 342.639 26.7158L342.642 26.7111C342.654 26.6337 342.673 26.5669 342.704 26.5085C342.722 26.4753 342.747 26.4441 342.778 26.4175C342.255 25.6504 341.484 25.0669 340.58 24.7836L340.58 24.7836ZM338.035 24.8044C337.065 25.1241 336.254 25.7912 335.745 26.658C335.811 26.7101 335.864 26.7838 335.908 26.8747V26.8771L336.284 27.7205L337.637 28.1093L339.177 26.9906L339.125 25.696L338.178 25.0112L338.169 25.0018C338.107 24.9391 338.064 24.8738 338.035 24.804L338.035 24.8044ZM342.963 26.7184C342.958 26.7315 342.953 26.7415 342.949 26.7685V26.7732L342.704 27.9127L343.406 28.3162H343.408C343.442 28.3347 343.457 28.3377 343.477 28.3449C343.419 27.758 343.239 27.2083 342.962 26.7183L342.963 26.7184ZM335.588 26.9534C335.369 27.4071 335.23 27.905 335.189 28.4317C335.2 28.4649 335.211 28.4865 335.212 28.4897C335.219 28.4873 335.227 28.4849 335.248 28.4714C335.25 28.4707 335.25 28.472 335.251 28.4714L335.982 27.8116L335.627 27.0133C335.611 26.9811 335.601 26.9707 335.588 26.9535L335.588 26.9534ZM339.335 27.2598L337.852 28.3401L338.417 30.0832H340.252L340.82 28.3401L339.335 27.2598ZM336.213 28.0252L335.433 28.7271L335.422 28.7342C335.361 28.7734 335.3 28.8009 335.23 28.808C335.212 28.8103 335.193 28.8044 335.175 28.8033C335.186 29.73 335.502 30.5825 336.025 31.2696C336.028 31.2685 336.03 31.2661 336.032 31.2649C336.108 31.2289 336.193 31.2134 336.293 31.2075H336.295L337.444 31.2051L338.131 30.2146L337.545 28.4073L336.213 28.0252ZM342.498 28.1546L341.124 28.4152L340.54 30.2053L341.312 31.1257L342.441 31.1222H342.598V31.1497C342.645 31.1487 342.692 31.1473 342.738 31.1462C343.215 30.4691 343.498 29.6456 343.498 28.7554C343.498 28.7283 343.494 28.7019 343.493 28.6749C343.415 28.6655 343.334 28.6351 343.253 28.5894H343.25L342.498 28.1546ZM325.039 28.3584L324.822 28.5751C324.403 28.9943 324.412 29.6368 324.76 30.0954L324.727 30.1436L324.817 30.234C325.274 30.6901 326.021 30.6891 326.479 30.2316L326.696 30.0138L325.039 28.3584ZM338.386 30.3951L337.7 31.3839L338.04 32.427C338.106 32.5494 338.15 32.6511 338.17 32.7474C338.54 32.8557 338.931 32.9165 339.337 32.9165C339.797 32.9165 340.239 32.8383 340.654 32.6998C340.654 32.6915 340.651 32.6828 340.651 32.6742C340.656 32.5892 340.679 32.4999 340.718 32.3971L340.714 32.4065L341.065 31.3177L340.292 30.3948L338.386 30.3951ZM332.151 31.2484C331.001 31.2484 329.942 31.6323 329.086 32.2726L329.149 32.2866V32.2842C330.534 32.5873 331.94 32.9884 333.133 33.6905C333.219 33.5822 333.29 33.4686 333.345 33.3481C333.553 32.8963 333.554 32.342 333.253 31.6251L333.132 31.3449C332.814 31.2832 332.487 31.2485 332.151 31.2485V31.2484ZM342.52 31.4315C342.498 31.4339 342.49 31.4291 342.465 31.4339L342.444 31.4362L342.287 31.4594V31.4362L341.355 31.4386L341.011 32.5067L341.009 32.5114C340.998 32.5389 341.001 32.5486 340.994 32.5713C341.587 32.3128 342.109 31.9206 342.52 31.4318L342.52 31.4315ZM333.514 31.4374L333.542 31.5021V31.5045C333.866 32.2764 333.877 32.9363 333.629 33.4771C333.568 33.6099 333.492 33.734 333.403 33.8513C333.599 33.978 333.79 34.1122 333.971 34.2583C334.221 34.4601 334.455 34.6818 334.671 34.9254C334.731 34.8393 334.797 34.7533 334.85 34.6673C335.261 34.003 335.457 33.3503 335.362 32.7453L335.284 32.3236C334.764 31.9208 334.165 31.617 333.514 31.4373L333.514 31.4374ZM337.415 31.5162L336.303 31.5209C336.273 31.5233 336.265 31.528 336.243 31.5315C336.665 31.9999 337.188 32.3729 337.782 32.6125C337.773 32.5934 337.773 32.5846 337.761 32.563L337.754 32.5512L337.415 31.5162ZM328.777 32.522C327.919 33.2734 327.315 34.3036 327.107 35.4724L327.223 35.4653C329.082 35.3152 330.925 35.0401 332.116 34.4552C332.433 34.2994 332.701 34.1229 332.915 33.9242C331.781 33.2732 330.432 32.8865 329.083 32.5912L328.777 32.522ZM335.663 32.6478L335.671 32.6899V32.6923C335.784 33.3979 335.552 34.1255 335.115 34.8309C335.043 34.9471 334.964 35.0624 334.881 35.1776C335.119 35.4815 335.328 35.8192 335.506 36.1895C335.562 36.1515 335.619 36.1167 335.678 36.0857C336.137 35.8442 336.679 35.8633 337.212 36.2469L337.224 36.2563L337.276 36.3082C337.258 34.8654 336.641 33.5683 335.663 32.6473L335.663 32.6478ZM333.193 34.0888C332.94 34.3413 332.623 34.5555 332.255 34.7364C330.986 35.3597 329.121 35.6258 327.249 35.777L327.058 35.7897C327.036 35.9819 327.023 36.1764 327.023 36.3745C327.023 37.6269 327.475 38.7741 328.222 39.6648L328.435 39.5922C329.792 38.9862 331.64 37.8938 333.087 36.6351C333.623 36.1689 334.104 35.6795 334.485 35.1873C334.268 34.9362 334.03 34.7079 333.774 34.5013C333.59 34.3526 333.395 34.217 333.193 34.0887L333.193 34.0888ZM334.686 35.434C334.296 35.9284 333.82 36.4111 333.292 36.8701C331.811 38.1583 329.943 39.261 328.554 39.8803L328.55 39.885L328.452 39.918C329.386 40.891 330.697 41.5 332.15 41.5C332.488 41.5 332.817 41.4653 333.136 41.4029L333.186 41.1698C333.4 40.0893 333.848 38.5161 334.508 37.3704C334.732 36.9816 334.98 36.6426 335.259 36.3877C335.097 36.0375 334.904 35.7209 334.685 35.4338L334.686 35.434ZM336.246 36.2335C336.102 36.2441 335.962 36.2899 335.823 36.3629C335.761 36.3959 335.699 36.4376 335.637 36.4831C335.982 37.3189 336.174 38.3189 336.155 39.5226V39.5274L336.152 39.5744C336.784 38.7853 337.185 37.8057 337.26 36.7357L337.028 36.501C336.74 36.2945 336.486 36.2158 336.246 36.2336L336.246 36.2335ZM335.393 36.7023C335.177 36.9198 334.969 37.1969 334.779 37.5274C334.15 38.6183 333.702 40.1749 333.493 41.2298L333.491 41.2322L333.472 41.3219C334.371 41.082 335.175 40.6077 335.808 39.9627L335.844 39.5067L335.842 39.5186C335.859 38.3985 335.694 37.4748 335.393 36.7024L335.393 36.7023Z" fill="#FF862F"/>
<path d="M323.924 50.0142C323.039 49.7599 322.395 49.4484 321.99 49.0796C321.589 48.7072 321.389 48.2489 321.389 47.7046C321.389 47.0887 321.634 46.5802 322.125 46.1792C322.619 45.7746 323.26 45.5723 324.047 45.5723C324.584 45.5723 325.062 45.6761 325.481 45.8838C325.904 46.0915 326.23 46.3779 326.459 46.7432C326.692 47.1084 326.808 47.5076 326.808 47.9409H325.771C325.771 47.4683 325.621 47.0977 325.32 46.8291C325.02 46.557 324.595 46.4209 324.047 46.4209C323.539 46.4209 323.141 46.5337 322.855 46.7593C322.572 46.9813 322.431 47.291 322.431 47.6885C322.431 48.0072 322.565 48.2775 322.833 48.4995C323.106 48.7179 323.566 48.9185 324.214 49.1011C324.866 49.2837 325.374 49.486 325.739 49.708C326.108 49.9264 326.38 50.1825 326.556 50.4761C326.735 50.7697 326.824 51.1152 326.824 51.5127C326.824 52.1465 326.577 52.6549 326.083 53.0381C325.589 53.4176 324.928 53.6074 324.101 53.6074C323.564 53.6074 323.063 53.5054 322.597 53.3013C322.132 53.0936 321.772 52.8107 321.518 52.4526C321.267 52.0946 321.142 51.6882 321.142 51.2334H322.178C322.178 51.7061 322.352 52.0802 322.699 52.356C323.05 52.6281 323.517 52.7642 324.101 52.7642C324.645 52.7642 325.062 52.6532 325.353 52.4312C325.643 52.2091 325.788 51.9066 325.788 51.5234C325.788 51.1403 325.653 50.8449 325.385 50.6372C325.116 50.4259 324.629 50.2183 323.924 50.0142ZM332.904 50.6587C332.904 51.5431 332.702 52.2557 332.297 52.7964C331.893 53.3371 331.345 53.6074 330.654 53.6074C329.948 53.6074 329.393 53.3836 328.989 52.936V55.7344H327.995V47.6885H328.903L328.951 48.333C329.356 47.8317 329.918 47.5811 330.638 47.5811C331.336 47.5811 331.887 47.8442 332.292 48.3706C332.7 48.897 332.904 49.6292 332.904 50.5674V50.6587ZM331.911 50.5459C331.911 49.8906 331.771 49.3732 331.492 48.9937C331.212 48.6141 330.829 48.4243 330.342 48.4243C329.741 48.4243 329.29 48.6911 328.989 49.2246V52.0015C329.286 52.5314 329.741 52.7964 330.353 52.7964C330.829 52.7964 331.207 52.6084 331.486 52.2324C331.769 51.8529 331.911 51.2907 331.911 50.5459ZM333.909 50.5405C333.909 49.9712 334.02 49.4591 334.242 49.0044C334.467 48.5496 334.779 48.1987 335.176 47.9517C335.577 47.7046 336.034 47.5811 336.546 47.5811C337.337 47.5811 337.976 47.855 338.463 48.4028C338.954 48.9507 339.199 49.6794 339.199 50.5889V50.6587C339.199 51.2244 339.09 51.7329 338.872 52.1841C338.657 52.6317 338.347 52.9808 337.942 53.2314C337.541 53.4821 337.079 53.6074 336.557 53.6074C335.769 53.6074 335.13 53.3335 334.639 52.7856C334.152 52.2378 333.909 51.5127 333.909 50.6104V50.5405ZM334.908 50.6587C334.908 51.3032 335.056 51.8206 335.354 52.2109C335.654 52.6012 336.055 52.7964 336.557 52.7964C337.062 52.7964 337.463 52.5994 337.76 52.2056C338.057 51.8081 338.206 51.2531 338.206 50.5405C338.206 49.9032 338.053 49.3875 337.749 48.9937C337.448 48.5962 337.047 48.3975 336.546 48.3975C336.055 48.3975 335.66 48.5926 335.359 48.9829C335.058 49.3732 334.908 49.9318 334.908 50.6587ZM343.254 48.5801C343.104 48.555 342.941 48.5425 342.766 48.5425C342.114 48.5425 341.672 48.82 341.439 49.375V53.5H340.445V47.6885H341.412L341.428 48.3599C341.754 47.8407 342.216 47.5811 342.814 47.5811C343.007 47.5811 343.154 47.6061 343.254 47.6562V48.5801ZM345.79 46.2812V47.6885H346.875V48.4565H345.79V52.0605C345.79 52.2933 345.838 52.4688 345.935 52.5869C346.031 52.7015 346.196 52.7588 346.429 52.7588C346.543 52.7588 346.701 52.7373 346.901 52.6943V53.5C346.64 53.5716 346.386 53.6074 346.139 53.6074C345.695 53.6074 345.36 53.4731 345.134 53.2046C344.909 52.936 344.796 52.5547 344.796 52.0605V48.4565H343.738V47.6885H344.796V46.2812H345.79Z" fill="#656565"/>
</g>
<g clip-path="url(#clip5)">
<path d="M442 18V58" stroke="#C4C4C4"/>
<path d="M399.595 28.7289L401.344 28.0334C401.239 27.8859 401.175 27.7384 401.112 27.5698C401.049 27.4012 401.007 27.2326 400.986 27.064L399.194 27.7805C399.3 27.928 399.384 28.0756 399.468 28.2231C399.51 28.3917 399.553 28.5603 399.595 28.7289Z" fill="#FF862F"/>
<path d="M400.859 24.9142C400.438 23.8394 399.384 23.2704 398.541 23.6076C397.677 23.9448 397.34 25.0828 397.783 26.1576C397.972 26.6002 398.246 26.9585 398.583 27.2114L401.007 26.2419C401.07 25.8205 401.028 25.3568 400.859 24.9142Z" fill="#FF862F"/>
<path d="M402.756 33.9972C402.63 33.3228 402.545 32.6063 402.545 31.8897C402.545 30.9835 402.714 30.1405 402.925 29.424C402.566 29.0868 402.208 28.8128 401.913 28.6021L399.574 29.5504C399.321 30.6674 399.237 32.4798 399.932 34.229C400.29 35.0931 400.712 35.8518 401.197 36.484C401.218 36.5262 401.26 36.5473 401.281 36.5894C401.492 35.5778 402.018 34.6716 402.756 33.9972Z" fill="#FF862F"/>
<path d="M410.912 27.5698C410.849 27.7384 410.765 27.8859 410.681 28.0334L412.43 28.7289C412.451 28.5603 412.514 28.3917 412.577 28.2231C412.641 28.0545 412.746 27.907 412.851 27.7805L411.06 27.064C410.997 27.2326 410.976 27.4012 410.912 27.5698Z" fill="#FF862F"/>
<path d="M413.463 23.6077C412.62 23.2705 411.566 23.8606 411.144 24.9143C410.955 25.3569 410.934 25.8205 410.997 26.2209L413.42 27.1904C413.758 26.9375 414.032 26.6003 414.221 26.1366C414.664 25.0829 414.306 23.9449 413.463 23.6077Z" fill="#FF862F"/>
<path d="M410.09 28.623C409.774 28.8338 409.415 29.1078 409.078 29.445C409.31 30.1615 409.457 30.9834 409.457 31.9107C409.457 32.6273 409.394 33.3438 409.247 34.0182C409.984 34.6926 410.511 35.5988 410.701 36.6315C410.743 36.5893 410.764 36.5683 410.785 36.5261C411.27 35.8939 411.712 35.1352 412.05 34.2711C412.745 32.5219 412.661 30.7095 412.408 29.5925L410.09 28.623Z" fill="#FF862F"/>
<path d="M407.308 24.8509C407.519 24.4926 407.667 24.0711 407.667 23.5864C407.667 22.4484 406.929 21.5 406.002 21.5C405.075 21.5 404.337 22.4273 404.337 23.5864C404.337 24.0711 404.463 24.5137 404.695 24.8509H407.308Z" fill="#FF862F"/>
<path d="M406.002 32.7327C406.929 32.7327 407.814 33.0067 408.552 33.4703C408.636 32.9646 408.678 32.4588 408.678 31.9108C408.678 30.0141 407.92 28.3702 407.266 27.4219H404.737C404.084 28.3702 403.325 30.0141 403.325 31.9108C403.325 32.4588 403.367 32.9856 403.452 33.4703C404.189 33.0067 405.074 32.7327 406.002 32.7327Z" fill="#FF862F"/>
<path d="M405.032 25.6094C405.074 25.778 405.117 25.9466 405.117 26.1152C405.117 26.2838 405.095 26.4524 405.053 26.621H406.95C406.908 26.4524 406.887 26.2838 406.887 26.1152C406.887 25.9466 406.929 25.778 406.971 25.6094H405.032Z" fill="#FF862F"/>
<path d="M406.001 33.4917C403.788 33.4917 401.997 35.2831 401.997 37.4959C401.997 39.7088 403.788 41.5001 406.001 41.5001C408.214 41.5001 410.005 39.7088 410.005 37.4959C410.005 35.2831 408.214 33.4917 406.001 33.4917ZM404.336 37.0955C404.02 37.1166 403.746 36.8847 403.725 36.5686C403.704 36.2525 403.936 35.9785 404.252 35.9575C404.568 35.9364 404.842 36.1682 404.863 36.4843C404.863 36.7794 404.631 37.0744 404.336 37.0955ZM405.222 35.262C405.348 34.9669 405.685 34.8616 405.98 34.988C406.275 35.1145 406.381 35.4517 406.254 35.7467C406.128 36.0418 405.791 36.1471 405.495 36.0207C405.222 35.8942 405.095 35.536 405.222 35.262ZM406.233 37.7488C405.98 37.9385 405.622 37.8753 405.432 37.6013C405.243 37.3484 405.306 36.9901 405.58 36.8004C405.833 36.6108 406.191 36.674 406.381 36.948C406.549 37.2219 406.486 37.5591 406.233 37.7488Z" fill="#FF862F"/>
<path d="M394.474 52.6567H398.18V53.5H393.437V45.6797H394.474V52.6567ZM398.937 50.5405C398.937 49.9712 399.048 49.4591 399.27 49.0044C399.496 48.5496 399.807 48.1987 400.205 47.9517C400.606 47.7046 401.062 47.5811 401.574 47.5811C402.366 47.5811 403.005 47.855 403.492 48.4028C403.982 48.9507 404.228 49.6794 404.228 50.5889V50.6587C404.228 51.2244 404.118 51.7329 403.9 52.1841C403.685 52.6317 403.375 52.9808 402.971 53.2314C402.57 53.4821 402.108 53.6074 401.585 53.6074C400.797 53.6074 400.158 53.3335 399.667 52.7856C399.181 52.2378 398.937 51.5127 398.937 50.6104V50.5405ZM399.936 50.6587C399.936 51.3032 400.085 51.8206 400.382 52.2109C400.683 52.6012 401.084 52.7964 401.585 52.7964C402.09 52.7964 402.491 52.5994 402.788 52.2056C403.085 51.8081 403.234 51.2531 403.234 50.5405C403.234 49.9032 403.082 49.3875 402.777 48.9937C402.477 48.5962 402.076 48.3975 401.574 48.3975C401.084 48.3975 400.688 48.5926 400.387 48.9829C400.086 49.3732 399.936 49.9318 399.936 50.6587ZM406.553 53.5H405.56V47.6885H406.553V53.5ZM405.479 46.147C405.479 45.9858 405.527 45.8498 405.624 45.7388C405.724 45.6278 405.871 45.5723 406.064 45.5723C406.258 45.5723 406.405 45.6278 406.505 45.7388C406.605 45.8498 406.655 45.9858 406.655 46.147C406.655 46.3081 406.605 46.4424 406.505 46.5498C406.405 46.6572 406.258 46.7109 406.064 46.7109C405.871 46.7109 405.724 46.6572 405.624 46.5498C405.527 46.4424 405.479 46.3081 405.479 46.147ZM411.532 51.9585C411.532 51.6899 411.43 51.4823 411.226 51.3354C411.026 51.1851 410.673 51.0562 410.168 50.9487C409.667 50.8413 409.267 50.7124 408.97 50.562C408.677 50.4116 408.458 50.2326 408.315 50.0249C408.175 49.8172 408.105 49.5701 408.105 49.2837C408.105 48.8075 408.306 48.4046 408.707 48.0752C409.112 47.7458 409.627 47.5811 410.254 47.5811C410.913 47.5811 411.446 47.7511 411.854 48.0913C412.266 48.4315 412.472 48.8665 412.472 49.3965H411.473C411.473 49.1243 411.357 48.8898 411.124 48.6929C410.895 48.4959 410.605 48.3975 410.254 48.3975C409.892 48.3975 409.609 48.4762 409.405 48.6338C409.201 48.7913 409.099 48.9972 409.099 49.2515C409.099 49.4914 409.194 49.6722 409.384 49.7939C409.574 49.9157 409.916 50.0321 410.41 50.1431C410.907 50.2541 411.31 50.3866 411.618 50.5405C411.926 50.6945 412.153 50.8807 412.3 51.0991C412.451 51.314 412.526 51.5771 412.526 51.8887C412.526 52.4079 412.318 52.825 411.903 53.1401C411.487 53.4517 410.949 53.6074 410.286 53.6074C409.821 53.6074 409.409 53.5251 409.051 53.3604C408.693 53.1956 408.412 52.9665 408.208 52.6729C408.007 52.3757 407.907 52.0552 407.907 51.7114H408.9C408.918 52.0444 409.051 52.3094 409.298 52.5063C409.549 52.6997 409.878 52.7964 410.286 52.7964C410.662 52.7964 410.963 52.7212 411.188 52.5708C411.418 52.4168 411.532 52.2127 411.532 51.9585ZM414.9 53.5H413.906V47.6885H414.9V53.5ZM413.826 46.147C413.826 45.9858 413.874 45.8498 413.971 45.7388C414.071 45.6278 414.218 45.5723 414.411 45.5723C414.604 45.5723 414.751 45.6278 414.852 45.7388C414.952 45.8498 415.002 45.9858 415.002 46.147C415.002 46.3081 414.952 46.4424 414.852 46.5498C414.751 46.6572 414.604 46.7109 414.411 46.7109C414.218 46.7109 414.071 46.6572 413.971 46.5498C413.874 46.4424 413.826 46.3081 413.826 46.147ZM419.304 48.5801C419.154 48.555 418.991 48.5425 418.815 48.5425C418.164 48.5425 417.722 48.82 417.489 49.375V53.5H416.495V47.6885H417.462L417.478 48.3599C417.804 47.8407 418.266 47.5811 418.864 47.5811C419.057 47.5811 419.204 47.6061 419.304 47.6562V48.5801Z" fill="#656565"/>
</g>
<g clip-path="url(#clip6)">
<path d="M514 18V58" stroke="#C4C4C4"/>
<path d="M473.504 34.4141H471.67C470.995 34.4141 470.447 34.9605 470.447 35.6368V36.4927H474.726V35.6368C474.726 34.9605 474.178 34.4141 473.504 34.4141Z" fill="#FF862F"/>
<path d="M480.073 35.6368C480.073 34.9605 479.525 34.4141 478.851 34.4141H477.017C476.34 34.4141 475.794 34.9605 475.794 35.6368V36.4927H480.073V35.6368Z" fill="#FF862F"/>
<path d="M485.462 35.6368C485.462 34.9605 484.914 34.4141 484.239 34.4141H482.405C481.73 34.4141 481.183 34.9605 481.183 35.6368V36.4927H485.462V35.6368Z" fill="#FF862F"/>
<path d="M472.156 37.0483H469.663C468.745 37.0483 468 37.7913 468 38.711V40.4861H473.819V38.711C473.819 37.7913 473.074 37.0483 472.156 37.0483Z" fill="#FF862F"/>
<path d="M479.219 37.0483H476.725C475.806 37.0483 475.062 37.7913 475.062 38.711V40.4861H480.881V38.711C480.881 37.7913 480.136 37.0483 479.219 37.0483Z" fill="#FF862F"/>
<path d="M486.337 37.0483H483.843C482.925 37.0483 482.181 37.7913 482.181 38.711V40.4861H488V38.711C488 37.7913 487.255 37.0483 486.337 37.0483Z" fill="#FF862F"/>
<path d="M469.85 33.6802V22.5142H486.15V33.8434C486.15 33.8434 482.319 30.8273 482.971 25.6111C482.971 25.6111 478.897 26.1004 477.837 22.7588C477.837 22.7588 476.696 26.1004 473.109 25.6928C473.11 25.6928 473.599 31.3165 469.85 33.6802Z" fill="#FF862F"/>
<path d="M467.145 51.0186C467.048 51.8457 466.742 52.4849 466.227 52.936C465.715 53.3836 465.032 53.6074 464.18 53.6074C463.256 53.6074 462.515 53.2762 461.957 52.6138C461.402 51.9513 461.124 51.0651 461.124 49.9551V49.2031C461.124 48.4762 461.253 47.8371 461.511 47.2856C461.772 46.7342 462.141 46.3117 462.617 46.0181C463.093 45.7209 463.645 45.5723 464.271 45.5723C465.102 45.5723 465.768 45.805 466.27 46.2705C466.771 46.7324 467.063 47.3734 467.145 48.1934H466.108C466.019 47.5703 465.824 47.1191 465.523 46.8398C465.226 46.5605 464.809 46.4209 464.271 46.4209C463.613 46.4209 463.095 46.6644 462.719 47.1514C462.347 47.6383 462.161 48.3312 462.161 49.23V49.9873C462.161 50.8359 462.338 51.5109 462.692 52.0122C463.047 52.5135 463.543 52.7642 464.18 52.7642C464.753 52.7642 465.192 52.6353 465.496 52.3774C465.804 52.116 466.008 51.6631 466.108 51.0186H467.145ZM471.99 52.9253C471.603 53.38 471.035 53.6074 470.287 53.6074C469.668 53.6074 469.195 53.4284 468.869 53.0703C468.547 52.7087 468.384 52.1751 468.38 51.4697V47.6885H469.374V51.4429C469.374 52.3237 469.732 52.7642 470.448 52.7642C471.207 52.7642 471.712 52.4813 471.963 51.9155V47.6885H472.957V53.5H472.011L471.99 52.9253ZM475.551 53.5H474.557V45.25H475.551V53.5ZM478.494 46.2812V47.6885H479.579V48.4565H478.494V52.0605C478.494 52.2933 478.542 52.4688 478.639 52.5869C478.736 52.7015 478.901 52.7588 479.133 52.7588C479.248 52.7588 479.405 52.7373 479.606 52.6943V53.5C479.345 53.5716 479.09 53.6074 478.843 53.6074C478.399 53.6074 478.064 53.4731 477.839 53.2046C477.613 52.936 477.5 52.5547 477.5 52.0605V48.4565H476.442V47.6885H477.5V46.2812H478.494ZM484.333 52.9253C483.946 53.38 483.378 53.6074 482.63 53.6074C482.01 53.6074 481.538 53.4284 481.212 53.0703C480.89 52.7087 480.727 52.1751 480.723 51.4697V47.6885H481.717V51.4429C481.717 52.3237 482.075 52.7642 482.791 52.7642C483.55 52.7642 484.055 52.4813 484.306 51.9155V47.6885H485.299V53.5H484.354L484.333 52.9253ZM489.623 48.5801C489.473 48.555 489.31 48.5425 489.134 48.5425C488.483 48.5425 488.04 48.82 487.808 49.375V53.5H486.814V47.6885H487.781L487.797 48.3599C488.123 47.8407 488.585 47.5811 489.183 47.5811C489.376 47.5811 489.523 47.6061 489.623 47.6562V48.5801ZM492.846 53.6074C492.058 53.6074 491.417 53.3496 490.923 52.834C490.429 52.3148 490.182 51.6219 490.182 50.7554V50.5728C490.182 49.9963 490.291 49.4824 490.509 49.0312C490.731 48.5765 491.039 48.222 491.433 47.9678C491.831 47.71 492.26 47.5811 492.722 47.5811C493.478 47.5811 494.065 47.8299 494.484 48.3276C494.903 48.8254 495.112 49.5379 495.112 50.4653V50.8789H491.175C491.19 51.4518 491.356 51.9155 491.675 52.27C491.997 52.6209 492.405 52.7964 492.899 52.7964C493.25 52.7964 493.548 52.7248 493.791 52.5815C494.035 52.4383 494.248 52.2485 494.43 52.0122L495.037 52.4849C494.55 53.2332 493.82 53.6074 492.846 53.6074ZM492.722 48.3975C492.321 48.3975 491.985 48.5443 491.712 48.8379C491.44 49.1279 491.272 49.5361 491.208 50.0625H494.119V49.9873C494.09 49.4824 493.954 49.0921 493.71 48.8164C493.467 48.5371 493.138 48.3975 492.722 48.3975Z" fill="#656565"/>
</g>
<g clip-path="url(#clip7)">
<path d="M586 18V58" stroke="#C4C4C4"/>
<path d="M543.348 32.9314L545.642 30.8262H543.979C543.874 30.8262 543.79 30.8472 543.705 30.9104L541.137 32.3841C541.053 32.4262 541.011 32.5104 541.011 32.6156V33.9841H543.137C542.948 33.6051 543.053 33.2051 543.348 32.9314Z" fill="#FF862F"/>
<path d="M556.905 33.9841H559.01V32.6156C559.01 32.5104 558.968 32.4262 558.884 32.3841L556.315 30.9104C556.231 30.8683 556.126 30.8262 556.042 30.8262H554.357L556.652 32.9314C556.947 33.2051 557.052 33.6051 556.905 33.9841Z" fill="#FF862F"/>
<path d="M559.789 37.7526H559.011V34.6158H555.389V37.7526H554.758V33.9842H556C556.316 33.9842 556.463 33.6053 556.232 33.3947L550.358 28.0053V26.5526H552.063C552.253 26.5526 552.358 26.3421 552.232 26.1947L551.705 25.479L552.232 24.7632C552.337 24.6158 552.232 24.4053 552.063 24.4053H549.853C549.726 24.4053 549.642 24.5105 549.642 24.6158V27.9632L543.768 33.3947C543.537 33.6053 543.684 33.9842 544 33.9842H545.242V37.7526H544.611V34.6158H540.968V37.7526H540.211C540.105 37.7526 540 37.8369 540 37.9632V38.3842C540 38.4895 540.084 38.5947 540.211 38.5947H559.789C559.895 38.5947 560 38.5105 560 38.3842V37.9632C560 37.8579 559.916 37.7526 559.789 37.7526ZM543.389 36.7211C543.389 36.8263 543.305 36.8895 543.221 36.8895H542.379C542.274 36.8895 542.211 36.8053 542.211 36.7211V35.879C542.211 35.7737 542.274 35.7105 542.379 35.7105H543.221C543.305 35.7105 543.389 35.7947 543.389 35.879V36.7211ZM547.916 36.7211C547.916 36.8263 547.832 36.8895 547.747 36.8895H546.905C546.821 36.8895 546.737 36.8053 546.737 36.7211V35.879C546.737 35.7737 546.821 35.7105 546.905 35.7105H547.747C547.832 35.7105 547.916 35.7947 547.916 35.879V36.7211ZM547.916 34.6369C547.916 34.7421 547.832 34.8053 547.747 34.8053H546.905C546.821 34.8053 546.737 34.7211 546.737 34.6369V33.7947C546.737 33.6895 546.821 33.6263 546.905 33.6263H547.747C547.832 33.6263 547.916 33.7105 547.916 33.7947V34.6369ZM550.589 37.7526H549.411V35.879C549.411 35.7737 549.474 35.7105 549.579 35.7105H550.421C550.505 35.7105 550.589 35.7947 550.589 35.879V37.7526ZM550.589 34.6369C550.589 34.7421 550.526 34.8053 550.421 34.8053H549.579C549.495 34.8053 549.411 34.7211 549.411 34.6369V33.7947C549.411 33.6895 549.495 33.6263 549.579 33.6263H550.421C550.526 33.6263 550.589 33.7105 550.589 33.7947V34.6369ZM550 31.7105C549.621 31.7105 549.326 31.4158 549.326 31.0369C549.326 30.6579 549.621 30.3632 550 30.3632C550.379 30.3632 550.674 30.6579 550.674 31.0369C550.674 31.4158 550.379 31.7105 550 31.7105ZM553.263 36.7211C553.263 36.8263 553.179 36.8895 553.095 36.8895H552.253C552.168 36.8895 552.084 36.8053 552.084 36.7211V35.879C552.084 35.7737 552.168 35.7105 552.253 35.7105H553.095C553.179 35.7105 553.263 35.7947 553.263 35.879V36.7211ZM553.263 34.6369C553.263 34.7421 553.179 34.8053 553.095 34.8053H552.253C552.168 34.8053 552.084 34.7211 552.084 34.6369V33.7947C552.084 33.6895 552.168 33.6263 552.253 33.6263H553.095C553.179 33.6263 553.263 33.7105 553.263 33.7947V34.6369ZM557.789 36.7211C557.789 36.8263 557.705 36.8895 557.621 36.8895H556.779C556.674 36.8895 556.611 36.8053 556.611 36.7211V35.879C556.611 35.7737 556.695 35.7105 556.779 35.7105H557.621C557.705 35.7105 557.789 35.7947 557.789 35.879V36.7211Z" fill="#FF862F"/>
<path d="M527.366 53.5H526.335V45.6797H527.366V53.5ZM530.041 47.6885L530.073 48.4189C530.517 47.8604 531.097 47.5811 531.813 47.5811C533.042 47.5811 533.661 48.2739 533.672 49.6597V53.5H532.678V49.6543C532.675 49.2354 532.578 48.9256 532.388 48.7251C532.202 48.5246 531.91 48.4243 531.513 48.4243C531.19 48.4243 530.908 48.5103 530.664 48.6821C530.421 48.854 530.231 49.0796 530.095 49.3589V53.5H529.101V47.6885H530.041ZM538.554 51.9585C538.554 51.6899 538.452 51.4823 538.248 51.3354C538.048 51.1851 537.695 51.0562 537.19 50.9487C536.689 50.8413 536.289 50.7124 535.992 50.562C535.699 50.4116 535.48 50.2326 535.337 50.0249C535.197 49.8172 535.127 49.5701 535.127 49.2837C535.127 48.8075 535.328 48.4046 535.729 48.0752C536.134 47.7458 536.649 47.5811 537.276 47.5811C537.935 47.5811 538.468 47.7511 538.876 48.0913C539.288 48.4315 539.494 48.8665 539.494 49.3965H538.495C538.495 49.1243 538.379 48.8898 538.146 48.6929C537.917 48.4959 537.627 48.3975 537.276 48.3975C536.914 48.3975 536.631 48.4762 536.427 48.6338C536.223 48.7913 536.121 48.9972 536.121 49.2515C536.121 49.4914 536.216 49.6722 536.406 49.7939C536.596 49.9157 536.938 50.0321 537.432 50.1431C537.929 50.2541 538.332 50.3866 538.64 50.5405C538.948 50.6945 539.175 50.8807 539.322 51.0991C539.473 51.314 539.548 51.5771 539.548 51.8887C539.548 52.4079 539.34 52.825 538.925 53.1401C538.509 53.4517 537.971 53.6074 537.308 53.6074C536.843 53.6074 536.431 53.5251 536.073 53.3604C535.715 53.1956 535.434 52.9665 535.229 52.6729C535.029 52.3757 534.929 52.0552 534.929 51.7114H535.922C535.94 52.0444 536.073 52.3094 536.32 52.5063C536.57 52.6997 536.9 52.7964 537.308 52.7964C537.684 52.7964 537.985 52.7212 538.21 52.5708C538.44 52.4168 538.554 52.2127 538.554 51.9585ZM542.19 46.2812V47.6885H543.275V48.4565H542.19V52.0605C542.19 52.2933 542.239 52.4688 542.335 52.5869C542.432 52.7015 542.597 52.7588 542.83 52.7588C542.944 52.7588 543.102 52.7373 543.302 52.6943V53.5C543.041 53.5716 542.787 53.6074 542.54 53.6074C542.096 53.6074 541.761 53.4731 541.535 53.2046C541.31 52.936 541.197 52.5547 541.197 52.0605V48.4565H540.139V47.6885H541.197V46.2812H542.19ZM545.521 53.5H544.527V47.6885H545.521V53.5ZM544.446 46.147C544.446 45.9858 544.495 45.8498 544.591 45.7388C544.692 45.6278 544.838 45.5723 545.032 45.5723C545.225 45.5723 545.372 45.6278 545.472 45.7388C545.572 45.8498 545.623 45.9858 545.623 46.147C545.623 46.3081 545.572 46.4424 545.472 46.5498C545.372 46.6572 545.225 46.7109 545.032 46.7109C544.838 46.7109 544.692 46.6572 544.591 46.5498C544.495 46.4424 544.446 46.3081 544.446 46.147ZM548.464 46.2812V47.6885H549.549V48.4565H548.464V52.0605C548.464 52.2933 548.512 52.4688 548.609 52.5869C548.706 52.7015 548.87 52.7588 549.103 52.7588C549.218 52.7588 549.375 52.7373 549.576 52.6943V53.5C549.314 53.5716 549.06 53.6074 548.813 53.6074C548.369 53.6074 548.034 53.4731 547.809 53.2046C547.583 52.936 547.47 52.5547 547.47 52.0605V48.4565H546.412V47.6885H547.47V46.2812H548.464ZM554.302 52.9253C553.916 53.38 553.348 53.6074 552.6 53.6074C551.98 53.6074 551.507 53.4284 551.182 53.0703C550.859 52.7087 550.696 52.1751 550.693 51.4697V47.6885H551.687V51.4429C551.687 52.3237 552.045 52.7642 552.761 52.7642C553.52 52.7642 554.025 52.4813 554.275 51.9155V47.6885H555.269V53.5H554.324L554.302 52.9253ZM558.132 46.2812V47.6885H559.217V48.4565H558.132V52.0605C558.132 52.2933 558.18 52.4688 558.277 52.5869C558.374 52.7015 558.538 52.7588 558.771 52.7588C558.886 52.7588 559.043 52.7373 559.244 52.6943V53.5C558.982 53.5716 558.728 53.6074 558.481 53.6074C558.037 53.6074 557.702 53.4731 557.477 53.2046C557.251 52.936 557.138 52.5547 557.138 52.0605V48.4565H556.08V47.6885H557.138V46.2812H558.132ZM561.462 53.5H560.468V47.6885H561.462V53.5ZM560.388 46.147C560.388 45.9858 560.436 45.8498 560.533 45.7388C560.633 45.6278 560.78 45.5723 560.973 45.5723C561.167 45.5723 561.313 45.6278 561.414 45.7388C561.514 45.8498 561.564 45.9858 561.564 46.147C561.564 46.3081 561.514 46.4424 561.414 46.5498C561.313 46.6572 561.167 46.7109 560.973 46.7109C560.78 46.7109 560.633 46.6572 560.533 46.5498C560.436 46.4424 560.388 46.3081 560.388 46.147ZM562.794 50.5405C562.794 49.9712 562.905 49.4591 563.127 49.0044C563.353 48.5496 563.664 48.1987 564.062 47.9517C564.463 47.7046 564.919 47.5811 565.431 47.5811C566.222 47.5811 566.862 47.855 567.349 48.4028C567.839 48.9507 568.084 49.6794 568.084 50.5889V50.6587C568.084 51.2244 567.975 51.7329 567.757 52.1841C567.542 52.6317 567.232 52.9808 566.828 53.2314C566.427 53.4821 565.965 53.6074 565.442 53.6074C564.654 53.6074 564.015 53.3335 563.524 52.7856C563.037 52.2378 562.794 51.5127 562.794 50.6104V50.5405ZM563.793 50.6587C563.793 51.3032 563.942 51.8206 564.239 52.2109C564.54 52.6012 564.941 52.7964 565.442 52.7964C565.947 52.7964 566.348 52.5994 566.645 52.2056C566.942 51.8081 567.091 51.2531 567.091 50.5405C567.091 49.9032 566.939 49.3875 566.634 48.9937C566.333 48.5962 565.932 48.3975 565.431 48.3975C564.941 48.3975 564.545 48.5926 564.244 48.9829C563.943 49.3732 563.793 49.9318 563.793 50.6587ZM570.271 47.6885L570.303 48.4189C570.747 47.8604 571.327 47.5811 572.043 47.5811C573.271 47.5811 573.891 48.2739 573.901 49.6597V53.5H572.908V49.6543C572.904 49.2354 572.807 48.9256 572.618 48.7251C572.431 48.5246 572.14 48.4243 571.742 48.4243C571.42 48.4243 571.137 48.5103 570.894 48.6821C570.65 48.854 570.46 49.0796 570.324 49.3589V53.5H569.331V47.6885H570.271Z" fill="#656565"/>
</g>
<g clip-path="url(#clip8)">
<path d="M631.367 29.7234V28.1994L628.143 25.8938V23.4244L626.219 21.5C626.219 21.5 626.219 23.2972 626.219 24.5175L622 21.5L612.634 28.1994V29.7234L622 23.0241L631.367 29.7234Z" fill="#FF862F"/>
<path d="M614.133 29.6076V41.4998H629.869V29.6076L622.001 23.9917L614.133 29.6076ZM625.021 29.947L624.754 30.8267C624.422 30.627 623.862 30.4536 623.262 30.4536C622.542 30.4536 621.955 30.7067 621.502 31.1867C621.102 31.5733 620.836 32.1729 620.702 32.8795H624.422V33.5464H620.582C620.569 33.7195 620.555 33.9195 620.555 34.1064C620.555 34.1861 620.555 34.2529 620.555 34.3458H624.422V34.9992H620.649C620.755 35.7726 621.022 36.3461 621.382 36.7458C621.875 37.2654 622.542 37.5192 623.262 37.5192C623.968 37.5192 624.581 37.2526 624.888 37.0792L625.115 37.9189C624.701 38.1992 624.008 38.4789 623.129 38.4789C622.048 38.4789 621.089 38.0654 620.423 37.2923C619.916 36.7323 619.582 35.9595 619.462 34.9995H618.636V34.3461H619.396C619.396 34.2798 619.396 34.2129 619.396 34.1461C619.396 33.9333 619.409 33.7326 619.423 33.5464H618.636V32.8795H619.516C619.676 31.9464 620.076 31.1729 620.609 30.6267C621.289 29.9201 622.156 29.5204 623.249 29.5204C624.035 29.5208 624.648 29.747 625.021 29.947Z" fill="#FF862F"/>
<path d="M608.384 51.561L610.157 45.6797H611.951L609.228 53.5H607.546L604.834 45.6797H606.623L608.384 51.561ZM615.028 53.6074C614.176 53.6074 613.481 53.346 612.944 52.8232C612.411 52.3005 612.144 51.604 612.144 50.7339V50.5835C612.144 49.9998 612.257 49.4788 612.482 49.0205C612.708 48.5586 613.027 48.2041 613.438 47.957C613.854 47.7064 614.326 47.5811 614.856 47.5811C615.651 47.5811 616.276 47.8317 616.731 48.333C617.189 48.8343 617.418 49.5451 617.418 50.4653V51.0991H613.718C613.768 51.4787 613.918 51.783 614.169 52.0122C614.423 52.2414 614.744 52.356 615.13 52.356C615.728 52.356 616.196 52.1393 616.532 51.7061L617.295 52.5601C617.062 52.8895 616.747 53.1473 616.35 53.3335C615.952 53.5161 615.512 53.6074 615.028 53.6074ZM614.851 48.8379C614.543 48.8379 614.292 48.9417 614.099 49.1494C613.909 49.3571 613.788 49.6543 613.734 50.041H615.893V49.9175C615.886 49.5737 615.793 49.3088 615.614 49.1226C615.435 48.9328 615.181 48.8379 614.851 48.8379ZM619.733 47.6885L619.782 48.3599C620.197 47.8407 620.754 47.5811 621.452 47.5811C622.068 47.5811 622.526 47.7619 622.827 48.1235C623.128 48.4852 623.282 49.0259 623.289 49.7456V53.5H621.737V49.7832C621.737 49.4538 621.665 49.2157 621.522 49.0688C621.379 48.9185 621.141 48.8433 620.808 48.8433C620.371 48.8433 620.043 49.0295 619.825 49.4019V53.5H618.272V47.6885H619.733ZM626.329 46.2598V47.6885H627.323V48.8271H626.329V51.7275C626.329 51.9424 626.37 52.0964 626.453 52.1895C626.535 52.2826 626.693 52.3291 626.925 52.3291C627.097 52.3291 627.249 52.3166 627.382 52.2915V53.4678C627.077 53.5609 626.764 53.6074 626.442 53.6074C625.353 53.6074 624.798 53.0578 624.777 51.9585V48.8271H623.928V47.6885H624.777V46.2598H626.329ZM630.862 53.6074C630.01 53.6074 629.315 53.346 628.778 52.8232C628.245 52.3005 627.978 51.604 627.978 50.7339V50.5835C627.978 49.9998 628.091 49.4788 628.316 49.0205C628.542 48.5586 628.861 48.2041 629.272 47.957C629.688 47.7064 630.16 47.5811 630.69 47.5811C631.485 47.5811 632.11 47.8317 632.565 48.333C633.023 48.8343 633.252 49.5451 633.252 50.4653V51.0991H629.552C629.602 51.4787 629.752 51.783 630.003 52.0122C630.257 52.2414 630.578 52.356 630.964 52.356C631.562 52.356 632.03 52.1393 632.366 51.7061L633.129 52.5601C632.896 52.8895 632.581 53.1473 632.184 53.3335C631.786 53.5161 631.346 53.6074 630.862 53.6074ZM630.685 48.8379C630.377 48.8379 630.126 48.9417 629.933 49.1494C629.743 49.3571 629.622 49.6543 629.568 50.041H631.727V49.9175C631.72 49.5737 631.627 49.3088 631.448 49.1226C631.269 48.9328 631.014 48.8379 630.685 48.8379ZM637.286 51.894C637.286 51.7043 637.191 51.5557 637.001 51.4482C636.815 51.3372 636.514 51.2388 636.099 51.1528C634.717 50.8628 634.026 50.2756 634.026 49.3911C634.026 48.8755 634.239 48.4458 634.665 48.1021C635.095 47.7547 635.655 47.5811 636.346 47.5811C637.084 47.5811 637.673 47.7547 638.113 48.1021C638.557 48.4494 638.779 48.9006 638.779 49.4556H637.227C637.227 49.2336 637.155 49.0509 637.012 48.9077C636.869 48.7609 636.645 48.6875 636.341 48.6875C636.079 48.6875 635.877 48.7466 635.734 48.8647C635.591 48.9829 635.519 49.1333 635.519 49.3159C635.519 49.4878 635.6 49.6274 635.761 49.7349C635.925 49.8387 636.201 49.93 636.588 50.0088C636.975 50.084 637.3 50.1699 637.565 50.2666C638.385 50.5674 638.795 51.0884 638.795 51.8296C638.795 52.3595 638.568 52.7892 638.113 53.1187C637.659 53.4445 637.071 53.6074 636.352 53.6074C635.865 53.6074 635.431 53.5215 635.052 53.3496C634.676 53.1742 634.38 52.936 634.166 52.6353C633.951 52.3309 633.843 52.0033 633.843 51.6523H635.315C635.329 51.9281 635.431 52.1393 635.621 52.2861C635.811 52.4329 636.065 52.5063 636.384 52.5063C636.681 52.5063 636.905 52.4508 637.055 52.3398C637.209 52.2253 637.286 52.0767 637.286 51.894Z" fill="black"/>
<path d="M584.5 64H657.5C656.887 65.2257 655.634 66 654.264 66H584.5V64Z" fill="#FF862F"/>
</g>
</g>
<defs>
<filter id="filter0_d" x="0" y="0" width="688" height="96" filterUnits="userSpaceOnUse" color-interpolation-filters="sRGB">
<feFlood flood-opacity="0" result="BackgroundImageFix"/>
<feColorMatrix in="SourceAlpha" type="matrix" values="0 0 0 0 0 0 0 0 0 0 0 0 0 0 0 0 0 0 127 0" result="hardAlpha"/>
<feOffset dx="10" dy="10"/>
<feGaussianBlur stdDeviation="10"/>
<feComposite in2="hardAlpha" operator="out"/>
<feColorMatrix type="matrix" values="0 0 0 0 0 0 0 0 0 0 0 0 0 0 0 0 0 0 0.05 0"/>
<feBlend mode="normal" in2="BackgroundImageFix" result="effect1_dropShadow"/>
<feBlend mode="normal" in="SourceGraphic" in2="effect1_dropShadow" result="shape"/>
</filter>
<clipPath id="clip0">
<rect width="72" height="56" fill="white" transform="translate(10 10)"/>
</clipPath>
<clipPath id="clip1">
<rect width="72" height="56" fill="white" transform="translate(82 10)"/>
</clipPath>
<clipPath id="clip2">
<rect width="72" height="56" fill="white" transform="translate(154 10)"/>
</clipPath>
<clipPath id="clip3">
<rect width="72" height="56" fill="white" transform="translate(226 10)"/>
</clipPath>
<clipPath id="clip4">
<rect width="72" height="56" fill="white" transform="translate(298 10)"/>
</clipPath>
<clipPath id="clip5">
<rect width="72" height="56" fill="white" transform="translate(370 10)"/>
</clipPath>
<clipPath id="clip6">
<rect width="72" height="56" fill="white" transform="translate(442 10)"/>
</clipPath>
<clipPath id="clip7">
<rect width="72" height="56" fill="white" transform="translate(514 10)"/>
</clipPath>
<clipPath id="clip8">
<rect width="72" height="56" fill="white" transform="translate(586 10)"/>
</clipPath>
</defs>
</svg>
