<svg width="24" height="25" viewBox="0 0 24 25" fill="none" xmlns="http://www.w3.org/2000/svg">
<path d="M16.5066 17.29C17.0051 17.073 17.4192 16.6995 17.6863 16.226C17.9533 15.7525 18.0588 15.2048 17.9866 14.666L16.9866 7.233C16.9211 6.75394 16.6845 6.31472 16.3207 5.99626C15.9568 5.6778 15.4902 5.50156 15.0066 5.5H9.00664C8.52298 5.50125 8.05606 5.67721 7.69186 5.99547C7.32766 6.31374 7.09071 6.75287 7.02464 7.232L6.02464 14.666C5.95265 15.205 6.05839 15.7529 6.32583 16.2264C6.59327 16.6999 7.00783 17.0733 7.50664 17.29L6.15264 18.646C6.10489 18.6921 6.0668 18.7473 6.04059 18.8083C6.01439 18.8693 6.0006 18.9349 6.00002 19.0013C5.99944 19.0677 6.01209 19.1335 6.03723 19.195C6.06237 19.2564 6.0995 19.3123 6.14645 19.3592C6.19339 19.4061 6.24922 19.4433 6.31067 19.4684C6.37212 19.4936 6.43796 19.5062 6.50434 19.5056C6.57073 19.505 6.63634 19.4913 6.69735 19.4651C6.75835 19.4388 6.81352 19.4008 6.85964 19.353L8.71364 17.5H15.2996L17.1526 19.353C17.1988 19.4008 17.2539 19.4388 17.3149 19.4651C17.3759 19.4913 17.4416 19.505 17.5079 19.5056C17.5743 19.5062 17.6402 19.4936 17.7016 19.4684C17.7631 19.4433 17.8189 19.4061 17.8658 19.3592C17.9128 19.3123 17.9499 19.2564 17.9751 19.195C18.0002 19.1335 18.0128 19.0677 18.0123 19.0013C18.0117 18.9349 17.9979 18.8693 17.9717 18.8083C17.9455 18.7473 17.9074 18.6921 17.8596 18.646L16.5066 17.29ZM7.86364 8.5H16.1496L16.6856 12.5H7.32764L7.86364 8.5ZM9.00664 16C8.80886 16 8.61552 15.9414 8.45107 15.8315C8.28662 15.7216 8.15845 15.5654 8.08276 15.3827C8.00708 15.2 7.98727 14.9989 8.02586 14.8049C8.06444 14.6109 8.15968 14.4327 8.29954 14.2929C8.43939 14.153 8.61757 14.0578 8.81155 14.0192C9.00553 13.9806 9.2066 14.0004 9.38933 14.0761C9.57205 14.1518 9.72823 14.28 9.83811 14.4444C9.94799 14.6089 10.0066 14.8022 10.0066 15C10.0066 15.2652 9.90129 15.5196 9.71375 15.7071C9.52621 15.8946 9.27186 16 9.00664 16ZM14.0066 15C14.0066 14.8022 14.0653 14.6089 14.1752 14.4444C14.2851 14.28 14.4412 14.1518 14.624 14.0761C14.8067 14.0004 15.0078 13.9806 15.2017 14.0192C15.3957 14.0578 15.5739 14.153 15.7138 14.2929C15.8536 14.4327 15.9488 14.6109 15.9874 14.8049C16.026 14.9989 16.0062 15.2 15.9305 15.3827C15.8548 15.5654 15.7267 15.7216 15.5622 15.8315C15.3978 15.9414 15.2044 16 15.0066 16C14.7414 16 14.4871 15.8946 14.2995 15.7071C14.112 15.5196 14.0066 15.2652 14.0066 15Z" fill="#FF862F"/>
</svg>
