<svg width="21" height="24" viewBox="0 0 21 24" fill="none" xmlns="http://www.w3.org/2000/svg">
<path d="M6.79412 8C3.50021 8 0 9.07815 0 11.0769V20.9231C0 22.9218 3.50021 24 6.79412 24C10.088 24 13.5882 22.9218 13.5882 20.9231V11.0769C13.5882 9.07815 10.088 8 6.79412 8ZM6.79412 22.7692C3.40076 22.7692 1.23529 21.6763 1.23529 20.9231V20.2818C2.54594 21.1077 4.70956 21.5385 6.79412 21.5385C8.87868 21.5385 11.0423 21.1077 12.3529 20.2818V20.9231C12.3529 21.6763 10.1875 22.7692 6.79412 22.7692ZM6.79412 20.3077C3.40076 20.3077 1.23529 19.2148 1.23529 18.4615V17.8203C2.54594 18.6462 4.70956 19.0769 6.79412 19.0769C8.87868 19.0769 11.0423 18.6462 12.3529 17.8203V18.4615C12.3529 19.2148 10.1875 20.3077 6.79412 20.3077ZM6.79412 17.8462C3.40076 17.8462 1.23529 16.7532 1.23529 16V15.3588C2.54594 16.1846 4.70956 16.6154 6.79412 16.6154C8.87868 16.6154 11.0423 16.1846 12.3529 15.3588V16C12.3529 16.7532 10.1875 17.8462 6.79412 17.8462ZM6.79412 15.3846C3.40076 15.3846 1.23529 14.2917 1.23529 13.5385V12.8972C2.54594 13.7231 4.70956 14.1538 6.79412 14.1538C8.87868 14.1538 11.0423 13.7231 12.3529 12.8972V13.5385C12.3529 14.2917 10.1875 15.3846 6.79412 15.3846ZM6.79412 12.9231C3.40076 12.9231 1.23529 11.8302 1.23529 11.0769C1.23529 10.3237 3.40076 9.23077 6.79412 9.23077C10.1875 9.23077 12.3529 10.3237 12.3529 11.0769C12.3529 11.8302 10.1875 12.9231 6.79412 12.9231ZM14.2059 0C10.912 0 7.41176 1.07815 7.41176 3.07692V5.53846C7.41176 7.53723 10.912 8.61539 14.2059 8.61539C16.2904 8.61539 18.4541 8.18462 19.7647 7.35877V8C19.7647 8.75323 17.5992 9.84615 14.2059 9.84615V11.0769C16.2904 11.0769 18.4541 10.6462 19.7647 9.82031V10.4615C19.7647 11.2148 17.5992 12.3077 14.2059 12.3077V13.5385C16.2904 13.5385 18.4541 13.1077 19.7647 12.2818V12.9231C19.7647 13.6763 17.5992 14.7692 14.2059 14.7692V16C16.2904 16 18.4541 15.5692 19.7647 14.7434V15.3846C19.7647 16.1378 17.5992 17.2308 14.2059 17.2308V18.4615C16.2904 18.4615 18.4541 18.0308 19.7647 17.2049V17.8462C19.7647 18.5994 17.5992 19.6923 14.2059 19.6923V20.9231C17.4998 20.9231 21 19.8449 21 17.8462V3.07692C21 1.07815 17.4998 0 14.2059 0ZM14.2059 1.23077C17.5992 1.23077 19.7647 2.32369 19.7647 3.07692C19.7647 3.83015 17.5992 4.92308 14.2059 4.92308C10.8125 4.92308 8.64706 3.83015 8.64706 3.07692C8.64706 2.32369 10.8125 1.23077 14.2059 1.23077ZM14.2059 7.38462C10.8125 7.38462 8.64706 6.29169 8.64706 5.53846V4.89723C9.95771 5.72308 12.1213 6.15385 14.2059 6.15385C16.2904 6.15385 18.4541 5.72308 19.7647 4.89723V5.53846C19.7647 6.29169 17.5992 7.38462 14.2059 7.38462Z" fill="#DE6D1B"/>
</svg>
