<svg width="432" height="240" viewBox="0 0 432 240" fill="none" xmlns="http://www.w3.org/2000/svg">
<g filter="url(#filter0_d)">
<rect x="10" y="10" width="392" height="200" fill="white"/>
</g>
<path d="M27.7412 38.3018V42H26.0117V32.0469H29.8193C30.9313 32.0469 31.8132 32.3363 32.4648 32.915C33.1211 33.4938 33.4492 34.2594 33.4492 35.2119C33.4492 36.1872 33.1279 36.946 32.4854 37.4883C31.8473 38.0306 30.9518 38.3018 29.7988 38.3018H27.7412ZM27.7412 36.9141H29.8193C30.4346 36.9141 30.904 36.7705 31.2275 36.4834C31.5511 36.1917 31.7129 35.7725 31.7129 35.2256C31.7129 34.6878 31.5488 34.2594 31.2207 33.9404C30.8926 33.6169 30.4414 33.4505 29.8672 33.4414H27.7412V36.9141ZM38.6787 36.1211C38.46 36.0846 38.2344 36.0664 38.002 36.0664C37.2409 36.0664 36.7282 36.3581 36.4639 36.9414V42H34.8027V34.6035H36.3887L36.4297 35.4307C36.8307 34.7881 37.3867 34.4668 38.0977 34.4668C38.3346 34.4668 38.5306 34.4987 38.6855 34.5625L38.6787 36.1211ZM41.4951 42H39.834V34.6035H41.4951V42ZM39.7314 32.6826C39.7314 32.4274 39.8112 32.2155 39.9707 32.0469C40.1348 31.8783 40.3672 31.7939 40.668 31.7939C40.9688 31.7939 41.2012 31.8783 41.3652 32.0469C41.5293 32.2155 41.6113 32.4274 41.6113 32.6826C41.6113 32.9333 41.5293 33.1429 41.3652 33.3115C41.2012 33.4756 40.9688 33.5576 40.668 33.5576C40.3672 33.5576 40.1348 33.4756 39.9707 33.3115C39.8112 33.1429 39.7314 32.9333 39.7314 32.6826ZM45.9658 37.0371L47.374 34.6035H49.2197L46.957 38.2471L49.2949 42H47.4629L45.9863 39.4707L44.5166 42H42.6709L45.0088 38.2471L42.7529 34.6035H44.585L45.9658 37.0371ZM53.5264 38.2471C53.5264 37.1077 53.7907 36.194 54.3193 35.5059C54.848 34.8132 55.5566 34.4668 56.4453 34.4668C57.2292 34.4668 57.8626 34.7402 58.3457 35.2871V31.5H60.0068V42H58.5029L58.4209 41.2344C57.9242 41.8359 57.2611 42.1367 56.4316 42.1367C55.5658 42.1367 54.8639 41.7881 54.3262 41.0908C53.793 40.3936 53.5264 39.4456 53.5264 38.2471ZM55.1875 38.3906C55.1875 39.1426 55.3311 39.7305 55.6182 40.1543C55.9098 40.5736 56.3223 40.7832 56.8555 40.7832C57.5345 40.7832 58.0312 40.4801 58.3457 39.874V36.7158C58.0404 36.1234 57.5482 35.8271 56.8691 35.8271C56.3314 35.8271 55.9167 36.0413 55.625 36.4697C55.3333 36.8936 55.1875 37.5339 55.1875 38.3906ZM64.9971 42.1367C63.9443 42.1367 63.0898 41.8063 62.4336 41.1455C61.7819 40.4801 61.4561 39.596 61.4561 38.4932V38.2881C61.4561 37.5498 61.5973 36.8913 61.8799 36.3125C62.167 35.7292 62.568 35.2757 63.083 34.9521C63.598 34.6286 64.1722 34.4668 64.8057 34.4668C65.8128 34.4668 66.5898 34.7881 67.1367 35.4307C67.6882 36.0732 67.9639 36.9824 67.9639 38.1582V38.8281H63.1309C63.181 39.4388 63.3838 39.9219 63.7393 40.2773C64.0993 40.6328 64.5505 40.8105 65.0928 40.8105C65.8538 40.8105 66.4736 40.5029 66.9521 39.8877L67.8477 40.7422C67.5514 41.1842 67.1549 41.5283 66.6582 41.7744C66.166 42.016 65.6123 42.1367 64.9971 42.1367ZM64.7988 35.7998C64.3431 35.7998 63.974 35.9593 63.6914 36.2783C63.4134 36.5973 63.2357 37.0417 63.1582 37.6113H66.3232V37.4883C66.2868 36.9323 66.1387 36.513 65.8789 36.2305C65.6191 35.9434 65.2591 35.7998 64.7988 35.7998ZM74.5127 42H72.8516V31.5H74.5127V42ZM76.6729 35L75.8252 34.4736C76.2354 33.8766 76.4473 33.2454 76.4609 32.5801V31.5H77.917V32.4434C77.917 32.9128 77.7962 33.3867 77.5547 33.8652C77.3177 34.3392 77.0238 34.7174 76.6729 35ZM81.1299 42H79.4688V34.6035H81.1299V42ZM79.3662 32.6826C79.3662 32.4274 79.446 32.2155 79.6055 32.0469C79.7695 31.8783 80.002 31.7939 80.3027 31.7939C80.6035 31.7939 80.8359 31.8783 81 32.0469C81.1641 32.2155 81.2461 32.4274 81.2461 32.6826C81.2461 32.9333 81.1641 33.1429 81 33.3115C80.8359 33.4756 80.6035 33.5576 80.3027 33.5576C80.002 33.5576 79.7695 33.4756 79.6055 33.3115C79.446 33.1429 79.3662 32.9333 79.3662 32.6826ZM84.5068 34.6035L84.5547 35.376C85.0742 34.7699 85.7852 34.4668 86.6875 34.4668C87.6764 34.4668 88.3532 34.8451 88.7178 35.6016C89.2555 34.8451 90.012 34.4668 90.9873 34.4668C91.8031 34.4668 92.4092 34.6924 92.8057 35.1436C93.2067 35.5947 93.4118 36.2601 93.4209 37.1396V42H91.7598V37.1875C91.7598 36.7181 91.6572 36.374 91.4521 36.1553C91.2471 35.9365 90.9076 35.8271 90.4336 35.8271C90.0553 35.8271 89.7454 35.9297 89.5039 36.1348C89.2669 36.3353 89.1006 36.5996 89.0049 36.9277L89.0117 42H87.3506V37.1328C87.3278 36.2624 86.8835 35.8271 86.0176 35.8271C85.3522 35.8271 84.8805 36.0983 84.6025 36.6406V42H82.9414V34.6035H84.5068ZM96.6885 34.6035L96.7363 35.376C97.2559 34.7699 97.9668 34.4668 98.8691 34.4668C99.8581 34.4668 100.535 34.8451 100.899 35.6016C101.437 34.8451 102.194 34.4668 103.169 34.4668C103.985 34.4668 104.591 34.6924 104.987 35.1436C105.388 35.5947 105.593 36.2601 105.603 37.1396V42H103.941V37.1875C103.941 36.7181 103.839 36.374 103.634 36.1553C103.429 35.9365 103.089 35.8271 102.615 35.8271C102.237 35.8271 101.927 35.9297 101.686 36.1348C101.449 36.3353 101.282 36.5996 101.187 36.9277L101.193 42H99.5322V37.1328C99.5094 36.2624 99.0651 35.8271 98.1992 35.8271C97.5339 35.8271 97.0622 36.0983 96.7842 36.6406V42H95.123V34.6035H96.6885ZM106.997 38.2334C106.997 37.5088 107.141 36.8571 107.428 36.2783C107.715 35.695 108.118 35.2484 108.638 34.9385C109.157 34.624 109.754 34.4668 110.429 34.4668C111.427 34.4668 112.236 34.7881 112.855 35.4307C113.48 36.0732 113.817 36.9255 113.867 37.9873L113.874 38.377C113.874 39.1061 113.733 39.7578 113.45 40.332C113.172 40.9062 112.771 41.3506 112.247 41.665C111.728 41.9795 111.126 42.1367 110.442 42.1367C109.399 42.1367 108.562 41.7904 107.934 41.0977C107.309 40.4004 106.997 39.473 106.997 38.3154V38.2334ZM108.658 38.377C108.658 39.138 108.815 39.735 109.13 40.168C109.444 40.5964 109.882 40.8105 110.442 40.8105C111.003 40.8105 111.438 40.5918 111.748 40.1543C112.062 39.7168 112.22 39.0765 112.22 38.2334C112.22 37.486 112.058 36.8936 111.734 36.4561C111.415 36.0186 110.98 35.7998 110.429 35.7998C109.886 35.7998 109.456 36.0163 109.137 36.4492C108.818 36.8776 108.658 37.5202 108.658 38.377ZM121.77 38.377C121.77 39.5254 121.512 40.4391 120.997 41.1182C120.487 41.7972 119.783 42.1367 118.885 42.1367C118.019 42.1367 117.344 41.8245 116.861 41.2002L116.779 42H115.275V31.5H116.937V35.3145C117.415 34.7493 118.06 34.4668 118.871 34.4668C119.773 34.4668 120.482 34.8018 120.997 35.4717C121.512 36.1416 121.77 37.0781 121.77 38.2812V38.377ZM120.108 38.2334C120.108 37.4313 119.967 36.8298 119.685 36.4287C119.402 36.0277 118.992 35.8271 118.454 35.8271C117.734 35.8271 117.228 36.1416 116.937 36.7705V39.8193C117.233 40.4619 117.743 40.7832 118.468 40.7832C118.987 40.7832 119.388 40.5895 119.671 40.2021C119.953 39.8148 120.099 39.2292 120.108 38.4453V38.2334ZM124.935 42H123.273V34.6035H124.935V42ZM123.171 32.6826C123.171 32.4274 123.251 32.2155 123.41 32.0469C123.574 31.8783 123.807 31.7939 124.107 31.7939C124.408 31.7939 124.641 31.8783 124.805 32.0469C124.969 32.2155 125.051 32.4274 125.051 32.6826C125.051 32.9333 124.969 33.1429 124.805 33.3115C124.641 33.4756 124.408 33.5576 124.107 33.5576C123.807 33.5576 123.574 33.4756 123.41 33.3115C123.251 33.1429 123.171 32.9333 123.171 32.6826ZM128.517 42H126.855V31.5H128.517V42ZM132.099 42H130.438V34.6035H132.099V42ZM130.335 32.6826C130.335 32.4274 130.415 32.2155 130.574 32.0469C130.738 31.8783 130.971 31.7939 131.271 31.7939C131.572 31.7939 131.805 31.8783 131.969 32.0469C132.133 32.2155 132.215 32.4274 132.215 32.6826C132.215 32.9333 132.133 33.1429 131.969 33.3115C131.805 33.4756 131.572 33.5576 131.271 33.5576C130.971 33.5576 130.738 33.4756 130.574 33.3115C130.415 33.1429 130.335 32.9333 130.335 32.6826ZM137.171 42.1367C136.118 42.1367 135.264 41.8063 134.607 41.1455C133.956 40.4801 133.63 39.596 133.63 38.4932V38.2881C133.63 37.5498 133.771 36.8913 134.054 36.3125C134.341 35.7292 134.742 35.2757 135.257 34.9521C135.772 34.6286 136.346 34.4668 136.979 34.4668C137.987 34.4668 138.764 34.7881 139.311 35.4307C139.862 36.0732 140.138 36.9824 140.138 38.1582V38.8281H135.305C135.355 39.4388 135.558 39.9219 135.913 40.2773C136.273 40.6328 136.724 40.8105 137.267 40.8105C138.028 40.8105 138.647 40.5029 139.126 39.8877L140.021 40.7422C139.725 41.1842 139.329 41.5283 138.832 41.7744C138.34 42.016 137.786 42.1367 137.171 42.1367ZM136.973 35.7998C136.517 35.7998 136.148 35.9593 135.865 36.2783C135.587 36.5973 135.41 37.0417 135.332 37.6113H138.497V37.4883C138.461 36.9323 138.312 36.513 138.053 36.2305C137.793 35.9434 137.433 35.7998 136.973 35.7998ZM145.306 36.1211C145.087 36.0846 144.861 36.0664 144.629 36.0664C143.868 36.0664 143.355 36.3581 143.091 36.9414V42H141.43V34.6035H143.016L143.057 35.4307C143.458 34.7881 144.014 34.4668 144.725 34.4668C144.962 34.4668 145.158 34.4987 145.312 34.5625L145.306 36.1211ZM154.261 42C154.188 41.8587 154.124 41.6286 154.069 41.3096C153.541 41.861 152.894 42.1367 152.128 42.1367C151.385 42.1367 150.779 41.9248 150.31 41.501C149.84 41.0771 149.605 40.5531 149.605 39.9287C149.605 39.1403 149.897 38.5365 150.48 38.1172C151.068 37.6934 151.907 37.4814 152.996 37.4814H154.015V36.9961C154.015 36.6133 153.908 36.3079 153.693 36.0801C153.479 35.8477 153.153 35.7314 152.716 35.7314C152.338 35.7314 152.028 35.8271 151.786 36.0186C151.545 36.2054 151.424 36.4447 151.424 36.7363H149.763C149.763 36.3307 149.897 35.9525 150.166 35.6016C150.435 35.2461 150.799 34.9681 151.26 34.7676C151.725 34.5671 152.242 34.4668 152.812 34.4668C153.677 34.4668 154.368 34.6855 154.883 35.123C155.398 35.556 155.662 36.1667 155.676 36.9551V40.291C155.676 40.9564 155.769 41.4873 155.956 41.8838V42H154.261ZM152.436 40.8037C152.764 40.8037 153.071 40.724 153.358 40.5645C153.65 40.4049 153.869 40.1908 154.015 39.9219V38.5273H153.119C152.504 38.5273 152.041 38.6344 151.731 38.8486C151.422 39.0628 151.267 39.3659 151.267 39.7578C151.267 40.0768 151.371 40.332 151.581 40.5234C151.795 40.7103 152.08 40.8037 152.436 40.8037ZM153.734 33.5713H152.354L150.508 31.5H152.401L153.734 33.5713ZM162.669 42H161.008V31.5H162.669V42ZM164.829 35L163.981 34.4736C164.392 33.8766 164.604 33.2454 164.617 32.5801V31.5H166.073V32.4434C166.073 32.9128 165.952 33.3867 165.711 33.8652C165.474 34.3392 165.18 34.7174 164.829 35ZM171.597 42C171.524 41.8587 171.46 41.6286 171.405 41.3096C170.877 41.861 170.229 42.1367 169.464 42.1367C168.721 42.1367 168.115 41.9248 167.646 41.501C167.176 41.0771 166.941 40.5531 166.941 39.9287C166.941 39.1403 167.233 38.5365 167.816 38.1172C168.404 37.6934 169.243 37.4814 170.332 37.4814H171.351V36.9961C171.351 36.6133 171.243 36.3079 171.029 36.0801C170.815 35.8477 170.489 35.7314 170.052 35.7314C169.674 35.7314 169.364 35.8271 169.122 36.0186C168.881 36.2054 168.76 36.4447 168.76 36.7363H167.099C167.099 36.3307 167.233 35.9525 167.502 35.6016C167.771 35.2461 168.135 34.9681 168.596 34.7676C169.061 34.5671 169.578 34.4668 170.147 34.4668C171.013 34.4668 171.704 34.6855 172.219 35.123C172.734 35.556 172.998 36.1667 173.012 36.9551V40.291C173.012 40.9564 173.105 41.4873 173.292 41.8838V42H171.597ZM169.771 40.8037C170.1 40.8037 170.407 40.724 170.694 40.5645C170.986 40.4049 171.205 40.1908 171.351 39.9219V38.5273H170.455C169.84 38.5273 169.377 38.6344 169.067 38.8486C168.757 39.0628 168.603 39.3659 168.603 39.7578C168.603 40.0768 168.707 40.332 168.917 40.5234C169.131 40.7103 169.416 40.8037 169.771 40.8037ZM177.79 40.8105C178.205 40.8105 178.549 40.6898 178.822 40.4482C179.096 40.2067 179.242 39.9082 179.26 39.5527H180.825C180.807 40.013 180.663 40.4437 180.395 40.8447C180.126 41.2412 179.761 41.5557 179.301 41.7881C178.84 42.0205 178.344 42.1367 177.811 42.1367C176.776 42.1367 175.956 41.8018 175.35 41.1318C174.743 40.4619 174.44 39.5368 174.44 38.3564V38.1855C174.44 37.0599 174.741 36.1598 175.343 35.4854C175.944 34.8063 176.765 34.4668 177.804 34.4668C178.683 34.4668 179.399 34.7243 179.95 35.2393C180.506 35.7497 180.798 36.4219 180.825 37.2559H179.26C179.242 36.832 179.096 36.4834 178.822 36.21C178.553 35.9365 178.209 35.7998 177.79 35.7998C177.252 35.7998 176.838 35.9958 176.546 36.3877C176.254 36.7751 176.106 37.3652 176.102 38.1582V38.4248C176.102 39.2269 176.245 39.8262 176.532 40.2227C176.824 40.6146 177.243 40.8105 177.79 40.8105ZM183.717 35.4102C184.259 34.7812 184.945 34.4668 185.774 34.4668C187.351 34.4668 188.151 35.3669 188.174 37.167V42H186.513V37.2285C186.513 36.7181 186.401 36.3581 186.178 36.1484C185.959 35.9342 185.635 35.8271 185.207 35.8271C184.542 35.8271 184.045 36.1234 183.717 36.7158V42H182.056V31.5H183.717V35.4102ZM194.278 42C194.205 41.8587 194.142 41.6286 194.087 41.3096C193.558 41.861 192.911 42.1367 192.146 42.1367C191.403 42.1367 190.797 41.9248 190.327 41.501C189.858 41.0771 189.623 40.5531 189.623 39.9287C189.623 39.1403 189.915 38.5365 190.498 38.1172C191.086 37.6934 191.924 37.4814 193.014 37.4814H194.032V36.9961C194.032 36.6133 193.925 36.3079 193.711 36.0801C193.497 35.8477 193.171 35.7314 192.733 35.7314C192.355 35.7314 192.045 35.8271 191.804 36.0186C191.562 36.2054 191.441 36.4447 191.441 36.7363H189.78C189.78 36.3307 189.915 35.9525 190.184 35.6016C190.452 35.2461 190.817 34.9681 191.277 34.7676C191.742 34.5671 192.259 34.4668 192.829 34.4668C193.695 34.4668 194.385 34.6855 194.9 35.123C195.415 35.556 195.68 36.1667 195.693 36.9551V40.291C195.693 40.9564 195.787 41.4873 195.974 41.8838V42H194.278ZM192.453 40.8037C192.781 40.8037 193.089 40.724 193.376 40.5645C193.668 40.4049 193.886 40.1908 194.032 39.9219V38.5273H193.137C192.521 38.5273 192.059 38.6344 191.749 38.8486C191.439 39.0628 191.284 39.3659 191.284 39.7578C191.284 40.0768 191.389 40.332 191.599 40.5234C191.813 40.7103 192.098 40.8037 192.453 40.8037ZM199.515 32.8057V34.6035H200.82V35.834H199.515V39.9629C199.515 40.2454 199.569 40.4505 199.679 40.5781C199.793 40.7012 199.993 40.7627 200.28 40.7627C200.472 40.7627 200.665 40.7399 200.861 40.6943V41.9795C200.483 42.0843 200.118 42.1367 199.768 42.1367C198.492 42.1367 197.854 41.4326 197.854 40.0244V35.834H196.637V34.6035H197.854V32.8057H199.515Z" fill="black"/>
<rect x="26" y="98" width="7.99999" height="352" rx="3.99999" transform="rotate(-90 26 98)" fill="#EAEFF4"/>
<rect x="26" y="98" width="7.99999" height="248" rx="3.99999" transform="rotate(-90 26 98)" fill="url(#paint0_linear)"/>
<path d="M274 82L270 74L278 74L274 82Z" fill="black"/>
<rect x="146" y="130" width="120" height="48" rx="8" fill="#F5F7FA"/>
<path d="M183.289 152.168H185.023C185.898 152.16 186.59 151.934 187.098 151.488C187.613 151.043 187.871 150.398 187.871 149.555C187.871 148.742 187.656 148.113 187.227 147.668C186.805 147.215 186.156 146.988 185.281 146.988C184.516 146.988 183.887 147.211 183.395 147.656C182.902 148.094 182.656 148.668 182.656 149.379H179.809C179.809 148.504 180.039 147.707 180.5 146.988C180.969 146.27 181.617 145.711 182.445 145.312C183.281 144.906 184.215 144.703 185.246 144.703C186.949 144.703 188.285 145.133 189.254 145.992C190.23 146.844 190.719 148.031 190.719 149.555C190.719 150.32 190.473 151.043 189.98 151.723C189.496 152.395 188.867 152.902 188.094 153.246C189.031 153.566 189.742 154.07 190.227 154.758C190.719 155.445 190.965 156.266 190.965 157.219C190.965 158.75 190.438 159.969 189.383 160.875C188.336 161.781 186.957 162.234 185.246 162.234C183.605 162.234 182.262 161.797 181.215 160.922C180.168 160.047 179.645 158.883 179.645 157.43H182.492C182.492 158.18 182.742 158.789 183.242 159.258C183.75 159.727 184.43 159.961 185.281 159.961C186.164 159.961 186.859 159.727 187.367 159.258C187.875 158.789 188.129 158.109 188.129 157.219C188.129 156.32 187.863 155.629 187.332 155.145C186.801 154.66 186.012 154.418 184.965 154.418H183.289V152.168ZM194.398 153.539L195.324 144.938H204.488V147.398H197.691L197.223 151.477C198.012 151.023 198.902 150.797 199.895 150.797C201.52 150.797 202.781 151.316 203.68 152.355C204.586 153.395 205.039 154.793 205.039 156.551C205.039 158.285 204.539 159.668 203.539 160.699C202.539 161.723 201.168 162.234 199.426 162.234C197.863 162.234 196.566 161.793 195.535 160.91C194.512 160.02 193.957 158.848 193.871 157.395H196.625C196.734 158.223 197.031 158.859 197.516 159.305C198 159.742 198.633 159.961 199.414 159.961C200.289 159.961 200.969 159.648 201.453 159.023C201.945 158.398 202.191 157.547 202.191 156.469C202.191 155.43 201.922 154.609 201.383 154.008C200.844 153.398 200.102 153.094 199.156 153.094C198.641 153.094 198.203 153.164 197.844 153.305C197.484 153.438 197.094 153.703 196.672 154.102L194.398 153.539ZM218.75 162H207.277V160.043L212.961 153.844C213.781 152.93 214.363 152.168 214.707 151.559C215.059 150.941 215.234 150.324 215.234 149.707C215.234 148.895 215.004 148.238 214.543 147.738C214.09 147.238 213.477 146.988 212.703 146.988C211.781 146.988 211.066 147.27 210.559 147.832C210.051 148.395 209.797 149.164 209.797 150.141H206.949C206.949 149.102 207.184 148.168 207.652 147.34C208.129 146.504 208.805 145.855 209.68 145.395C210.562 144.934 211.578 144.703 212.727 144.703C214.383 144.703 215.688 145.121 216.641 145.957C217.602 146.785 218.082 147.934 218.082 149.402C218.082 150.254 217.84 151.148 217.355 152.086C216.879 153.016 216.094 154.074 215 155.262L210.828 159.727H218.75V162ZM228.629 162H225.793V148.301L221.609 149.73V147.328L228.266 144.879H228.629V162Z" fill="#3F3F3F"/>
<path d="M279.121 174.912H277.035C277.059 175.592 277.229 176.1 277.545 176.436C277.865 176.771 278.322 176.939 278.916 176.939C279.346 176.939 279.746 176.875 280.117 176.746L280.281 177.941C279.812 178.055 279.328 178.111 278.828 178.111C277.828 178.111 277.041 177.83 276.467 177.268C275.893 176.705 275.59 175.92 275.559 174.912H274.551V174.086H275.559V173.336H274.551V172.51H275.564C275.615 171.514 275.934 170.74 276.52 170.189C277.105 169.635 277.893 169.357 278.881 169.357C279.295 169.357 279.762 169.418 280.281 169.539L280.117 170.74C279.719 170.607 279.322 170.541 278.928 170.541C278.338 170.541 277.885 170.709 277.568 171.045C277.252 171.381 277.076 171.869 277.041 172.51H279.121V173.336H277.035V174.086H279.121V174.912ZM281.951 178.732H280.832L284.189 169.469H285.309L281.951 178.732ZM287.635 171.66L287.676 172.322C288.121 171.803 288.73 171.543 289.504 171.543C290.352 171.543 290.932 171.867 291.244 172.516C291.705 171.867 292.354 171.543 293.189 171.543C293.889 171.543 294.408 171.736 294.748 172.123C295.092 172.51 295.268 173.08 295.275 173.834V178H293.852V173.875C293.852 173.473 293.764 173.178 293.588 172.99C293.412 172.803 293.121 172.709 292.715 172.709C292.391 172.709 292.125 172.797 291.918 172.973C291.715 173.145 291.572 173.371 291.49 173.652L291.496 178H290.072V173.828C290.053 173.082 289.672 172.709 288.93 172.709C288.359 172.709 287.955 172.941 287.717 173.406V178H286.293V171.66H287.635ZM302.383 178H296.646V177.021L299.488 173.922C299.898 173.465 300.189 173.084 300.361 172.779C300.537 172.471 300.625 172.162 300.625 171.854C300.625 171.447 300.51 171.119 300.279 170.869C300.053 170.619 299.746 170.494 299.359 170.494C298.898 170.494 298.541 170.635 298.287 170.916C298.033 171.197 297.906 171.582 297.906 172.07H296.482C296.482 171.551 296.6 171.084 296.834 170.67C297.072 170.252 297.41 169.928 297.848 169.697C298.289 169.467 298.797 169.352 299.371 169.352C300.199 169.352 300.852 169.561 301.328 169.979C301.809 170.393 302.049 170.967 302.049 171.701C302.049 172.127 301.928 172.574 301.686 173.043C301.447 173.508 301.055 174.037 300.508 174.631L298.422 176.863H302.383V178Z" fill="#3F3F3F"/>
<defs>
<filter id="filter0_d" x="0" y="0" width="432" height="240" filterUnits="userSpaceOnUse" color-interpolation-filters="sRGB">
<feFlood flood-opacity="0" result="BackgroundImageFix"/>
<feColorMatrix in="SourceAlpha" type="matrix" values="0 0 0 0 0 0 0 0 0 0 0 0 0 0 0 0 0 0 127 0" result="hardAlpha"/>
<feOffset dx="10" dy="10"/>
<feGaussianBlur stdDeviation="10"/>
<feComposite in2="hardAlpha" operator="out"/>
<feColorMatrix type="matrix" values="0 0 0 0 0 0 0 0 0 0 0 0 0 0 0 0 0 0 0.05 0"/>
<feBlend mode="normal" in2="BackgroundImageFix" result="effect1_dropShadow"/>
<feBlend mode="normal" in="SourceGraphic" in2="effect1_dropShadow" result="shape"/>
</filter>
<linearGradient id="paint0_linear" x1="30" y1="98" x2="30" y2="346" gradientUnits="userSpaceOnUse">
<stop stop-color="#5F96E9"/>
<stop offset="0.341768" stop-color="#2FD136"/>
<stop offset="0.673373" stop-color="#FFE922"/>
<stop offset="1" stop-color="#EE6445"/>
</linearGradient>
</defs>
</svg>
