<svg width="432" height="384" viewBox="0 0 432 384" fill="none" xmlns="http://www.w3.org/2000/svg">
<g filter="url(#filter0_d)">
<path d="M10 10H402V354H10V10Z" fill="white"/>
</g>
<path d="M27.7412 38.3018V42H26.0117V32.0469H29.8193C30.9313 32.0469 31.8132 32.3363 32.4648 32.915C33.1211 33.4938 33.4492 34.2594 33.4492 35.2119C33.4492 36.1872 33.1279 36.946 32.4854 37.4883C31.8473 38.0306 30.9518 38.3018 29.7988 38.3018H27.7412ZM27.7412 36.9141H29.8193C30.4346 36.9141 30.904 36.7705 31.2275 36.4834C31.5511 36.1917 31.7129 35.7725 31.7129 35.2256C31.7129 34.6878 31.5488 34.2594 31.2207 33.9404C30.8926 33.6169 30.4414 33.4505 29.8672 33.4414H27.7412V36.9141ZM38.6787 36.1211C38.46 36.0846 38.2344 36.0664 38.002 36.0664C37.2409 36.0664 36.7282 36.3581 36.4639 36.9414V42H34.8027V34.6035H36.3887L36.4297 35.4307C36.8307 34.7881 37.3867 34.4668 38.0977 34.4668C38.3346 34.4668 38.5306 34.4987 38.6855 34.5625L38.6787 36.1211ZM41.4951 42H39.834V34.6035H41.4951V42ZM39.7314 32.6826C39.7314 32.4274 39.8112 32.2155 39.9707 32.0469C40.1348 31.8783 40.3672 31.7939 40.668 31.7939C40.9688 31.7939 41.2012 31.8783 41.3652 32.0469C41.5293 32.2155 41.6113 32.4274 41.6113 32.6826C41.6113 32.9333 41.5293 33.1429 41.3652 33.3115C41.2012 33.4756 40.9688 33.5576 40.668 33.5576C40.3672 33.5576 40.1348 33.4756 39.9707 33.3115C39.8112 33.1429 39.7314 32.9333 39.7314 32.6826ZM45.9658 37.0371L47.374 34.6035H49.2197L46.957 38.2471L49.2949 42H47.4629L45.9863 39.4707L44.5166 42H42.6709L45.0088 38.2471L42.7529 34.6035H44.585L45.9658 37.0371ZM53.5264 38.2471C53.5264 37.1077 53.7907 36.194 54.3193 35.5059C54.848 34.8132 55.5566 34.4668 56.4453 34.4668C57.2292 34.4668 57.8626 34.7402 58.3457 35.2871V31.5H60.0068V42H58.5029L58.4209 41.2344C57.9242 41.8359 57.2611 42.1367 56.4316 42.1367C55.5658 42.1367 54.8639 41.7881 54.3262 41.0908C53.793 40.3936 53.5264 39.4456 53.5264 38.2471ZM55.1875 38.3906C55.1875 39.1426 55.3311 39.7305 55.6182 40.1543C55.9098 40.5736 56.3223 40.7832 56.8555 40.7832C57.5345 40.7832 58.0312 40.4801 58.3457 39.874V36.7158C58.0404 36.1234 57.5482 35.8271 56.8691 35.8271C56.3314 35.8271 55.9167 36.0413 55.625 36.4697C55.3333 36.8936 55.1875 37.5339 55.1875 38.3906ZM64.9971 42.1367C63.9443 42.1367 63.0898 41.8063 62.4336 41.1455C61.7819 40.4801 61.4561 39.596 61.4561 38.4932V38.2881C61.4561 37.5498 61.5973 36.8913 61.8799 36.3125C62.167 35.7292 62.568 35.2757 63.083 34.9521C63.598 34.6286 64.1722 34.4668 64.8057 34.4668C65.8128 34.4668 66.5898 34.7881 67.1367 35.4307C67.6882 36.0732 67.9639 36.9824 67.9639 38.1582V38.8281H63.1309C63.181 39.4388 63.3838 39.9219 63.7393 40.2773C64.0993 40.6328 64.5505 40.8105 65.0928 40.8105C65.8538 40.8105 66.4736 40.5029 66.9521 39.8877L67.8477 40.7422C67.5514 41.1842 67.1549 41.5283 66.6582 41.7744C66.166 42.016 65.6123 42.1367 64.9971 42.1367ZM64.7988 35.7998C64.3431 35.7998 63.974 35.9593 63.6914 36.2783C63.4134 36.5973 63.2357 37.0417 63.1582 37.6113H66.3232V37.4883C66.2868 36.9323 66.1387 36.513 65.8789 36.2305C65.6191 35.9434 65.2591 35.7998 64.7988 35.7998ZM74.5127 42H72.8516V31.5H74.5127V42ZM76.6729 35L75.8252 34.4736C76.2354 33.8766 76.4473 33.2454 76.4609 32.5801V31.5H77.917V32.4434C77.917 32.9128 77.7962 33.3867 77.5547 33.8652C77.3177 34.3392 77.0238 34.7174 76.6729 35ZM81.1299 42H79.4688V34.6035H81.1299V42ZM79.3662 32.6826C79.3662 32.4274 79.446 32.2155 79.6055 32.0469C79.7695 31.8783 80.002 31.7939 80.3027 31.7939C80.6035 31.7939 80.8359 31.8783 81 32.0469C81.1641 32.2155 81.2461 32.4274 81.2461 32.6826C81.2461 32.9333 81.1641 33.1429 81 33.3115C80.8359 33.4756 80.6035 33.5576 80.3027 33.5576C80.002 33.5576 79.7695 33.4756 79.6055 33.3115C79.446 33.1429 79.3662 32.9333 79.3662 32.6826ZM84.5068 34.6035L84.5547 35.376C85.0742 34.7699 85.7852 34.4668 86.6875 34.4668C87.6764 34.4668 88.3532 34.8451 88.7178 35.6016C89.2555 34.8451 90.012 34.4668 90.9873 34.4668C91.8031 34.4668 92.4092 34.6924 92.8057 35.1436C93.2067 35.5947 93.4118 36.2601 93.4209 37.1396V42H91.7598V37.1875C91.7598 36.7181 91.6572 36.374 91.4521 36.1553C91.2471 35.9365 90.9076 35.8271 90.4336 35.8271C90.0553 35.8271 89.7454 35.9297 89.5039 36.1348C89.2669 36.3353 89.1006 36.5996 89.0049 36.9277L89.0117 42H87.3506V37.1328C87.3278 36.2624 86.8835 35.8271 86.0176 35.8271C85.3522 35.8271 84.8805 36.0983 84.6025 36.6406V42H82.9414V34.6035H84.5068ZM96.6885 34.6035L96.7363 35.376C97.2559 34.7699 97.9668 34.4668 98.8691 34.4668C99.8581 34.4668 100.535 34.8451 100.899 35.6016C101.437 34.8451 102.194 34.4668 103.169 34.4668C103.985 34.4668 104.591 34.6924 104.987 35.1436C105.388 35.5947 105.593 36.2601 105.603 37.1396V42H103.941V37.1875C103.941 36.7181 103.839 36.374 103.634 36.1553C103.429 35.9365 103.089 35.8271 102.615 35.8271C102.237 35.8271 101.927 35.9297 101.686 36.1348C101.449 36.3353 101.282 36.5996 101.187 36.9277L101.193 42H99.5322V37.1328C99.5094 36.2624 99.0651 35.8271 98.1992 35.8271C97.5339 35.8271 97.0622 36.0983 96.7842 36.6406V42H95.123V34.6035H96.6885ZM106.997 38.2334C106.997 37.5088 107.141 36.8571 107.428 36.2783C107.715 35.695 108.118 35.2484 108.638 34.9385C109.157 34.624 109.754 34.4668 110.429 34.4668C111.427 34.4668 112.236 34.7881 112.855 35.4307C113.48 36.0732 113.817 36.9255 113.867 37.9873L113.874 38.377C113.874 39.1061 113.733 39.7578 113.45 40.332C113.172 40.9062 112.771 41.3506 112.247 41.665C111.728 41.9795 111.126 42.1367 110.442 42.1367C109.399 42.1367 108.562 41.7904 107.934 41.0977C107.309 40.4004 106.997 39.473 106.997 38.3154V38.2334ZM108.658 38.377C108.658 39.138 108.815 39.735 109.13 40.168C109.444 40.5964 109.882 40.8105 110.442 40.8105C111.003 40.8105 111.438 40.5918 111.748 40.1543C112.062 39.7168 112.22 39.0765 112.22 38.2334C112.22 37.486 112.058 36.8936 111.734 36.4561C111.415 36.0186 110.98 35.7998 110.429 35.7998C109.886 35.7998 109.456 36.0163 109.137 36.4492C108.818 36.8776 108.658 37.5202 108.658 38.377ZM121.77 38.377C121.77 39.5254 121.512 40.4391 120.997 41.1182C120.487 41.7972 119.783 42.1367 118.885 42.1367C118.019 42.1367 117.344 41.8245 116.861 41.2002L116.779 42H115.275V31.5H116.937V35.3145C117.415 34.7493 118.06 34.4668 118.871 34.4668C119.773 34.4668 120.482 34.8018 120.997 35.4717C121.512 36.1416 121.77 37.0781 121.77 38.2812V38.377ZM120.108 38.2334C120.108 37.4313 119.967 36.8298 119.685 36.4287C119.402 36.0277 118.992 35.8271 118.454 35.8271C117.734 35.8271 117.228 36.1416 116.937 36.7705V39.8193C117.233 40.4619 117.743 40.7832 118.468 40.7832C118.987 40.7832 119.388 40.5895 119.671 40.2021C119.953 39.8148 120.099 39.2292 120.108 38.4453V38.2334ZM124.935 42H123.273V34.6035H124.935V42ZM123.171 32.6826C123.171 32.4274 123.251 32.2155 123.41 32.0469C123.574 31.8783 123.807 31.7939 124.107 31.7939C124.408 31.7939 124.641 31.8783 124.805 32.0469C124.969 32.2155 125.051 32.4274 125.051 32.6826C125.051 32.9333 124.969 33.1429 124.805 33.3115C124.641 33.4756 124.408 33.5576 124.107 33.5576C123.807 33.5576 123.574 33.4756 123.41 33.3115C123.251 33.1429 123.171 32.9333 123.171 32.6826ZM128.517 42H126.855V31.5H128.517V42ZM132.099 42H130.438V34.6035H132.099V42ZM130.335 32.6826C130.335 32.4274 130.415 32.2155 130.574 32.0469C130.738 31.8783 130.971 31.7939 131.271 31.7939C131.572 31.7939 131.805 31.8783 131.969 32.0469C132.133 32.2155 132.215 32.4274 132.215 32.6826C132.215 32.9333 132.133 33.1429 131.969 33.3115C131.805 33.4756 131.572 33.5576 131.271 33.5576C130.971 33.5576 130.738 33.4756 130.574 33.3115C130.415 33.1429 130.335 32.9333 130.335 32.6826ZM137.171 42.1367C136.118 42.1367 135.264 41.8063 134.607 41.1455C133.956 40.4801 133.63 39.596 133.63 38.4932V38.2881C133.63 37.5498 133.771 36.8913 134.054 36.3125C134.341 35.7292 134.742 35.2757 135.257 34.9521C135.772 34.6286 136.346 34.4668 136.979 34.4668C137.987 34.4668 138.764 34.7881 139.311 35.4307C139.862 36.0732 140.138 36.9824 140.138 38.1582V38.8281H135.305C135.355 39.4388 135.558 39.9219 135.913 40.2773C136.273 40.6328 136.724 40.8105 137.267 40.8105C138.028 40.8105 138.647 40.5029 139.126 39.8877L140.021 40.7422C139.725 41.1842 139.329 41.5283 138.832 41.7744C138.34 42.016 137.786 42.1367 137.171 42.1367ZM136.973 35.7998C136.517 35.7998 136.148 35.9593 135.865 36.2783C135.587 36.5973 135.41 37.0417 135.332 37.6113H138.497V37.4883C138.461 36.9323 138.312 36.513 138.053 36.2305C137.793 35.9434 137.433 35.7998 136.973 35.7998ZM145.306 36.1211C145.087 36.0846 144.861 36.0664 144.629 36.0664C143.868 36.0664 143.355 36.3581 143.091 36.9414V42H141.43V34.6035H143.016L143.057 35.4307C143.458 34.7881 144.014 34.4668 144.725 34.4668C144.962 34.4668 145.158 34.4987 145.312 34.5625L145.306 36.1211ZM154.261 42C154.188 41.8587 154.124 41.6286 154.069 41.3096C153.541 41.861 152.894 42.1367 152.128 42.1367C151.385 42.1367 150.779 41.9248 150.31 41.501C149.84 41.0771 149.605 40.5531 149.605 39.9287C149.605 39.1403 149.897 38.5365 150.48 38.1172C151.068 37.6934 151.907 37.4814 152.996 37.4814H154.015V36.9961C154.015 36.6133 153.908 36.3079 153.693 36.0801C153.479 35.8477 153.153 35.7314 152.716 35.7314C152.338 35.7314 152.028 35.8271 151.786 36.0186C151.545 36.2054 151.424 36.4447 151.424 36.7363H149.763C149.763 36.3307 149.897 35.9525 150.166 35.6016C150.435 35.2461 150.799 34.9681 151.26 34.7676C151.725 34.5671 152.242 34.4668 152.812 34.4668C153.677 34.4668 154.368 34.6855 154.883 35.123C155.398 35.556 155.662 36.1667 155.676 36.9551V40.291C155.676 40.9564 155.769 41.4873 155.956 41.8838V42H154.261ZM152.436 40.8037C152.764 40.8037 153.071 40.724 153.358 40.5645C153.65 40.4049 153.869 40.1908 154.015 39.9219V38.5273H153.119C152.504 38.5273 152.041 38.6344 151.731 38.8486C151.422 39.0628 151.267 39.3659 151.267 39.7578C151.267 40.0768 151.371 40.332 151.581 40.5234C151.795 40.7103 152.08 40.8037 152.436 40.8037ZM153.734 33.5713H152.354L150.508 31.5H152.401L153.734 33.5713ZM162.669 42H161.008V31.5H162.669V42ZM164.829 35L163.981 34.4736C164.392 33.8766 164.604 33.2454 164.617 32.5801V31.5H166.073V32.4434C166.073 32.9128 165.952 33.3867 165.711 33.8652C165.474 34.3392 165.18 34.7174 164.829 35ZM171.597 42C171.524 41.8587 171.46 41.6286 171.405 41.3096C170.877 41.861 170.229 42.1367 169.464 42.1367C168.721 42.1367 168.115 41.9248 167.646 41.501C167.176 41.0771 166.941 40.5531 166.941 39.9287C166.941 39.1403 167.233 38.5365 167.816 38.1172C168.404 37.6934 169.243 37.4814 170.332 37.4814H171.351V36.9961C171.351 36.6133 171.243 36.3079 171.029 36.0801C170.815 35.8477 170.489 35.7314 170.052 35.7314C169.674 35.7314 169.364 35.8271 169.122 36.0186C168.881 36.2054 168.76 36.4447 168.76 36.7363H167.099C167.099 36.3307 167.233 35.9525 167.502 35.6016C167.771 35.2461 168.135 34.9681 168.596 34.7676C169.061 34.5671 169.578 34.4668 170.147 34.4668C171.013 34.4668 171.704 34.6855 172.219 35.123C172.734 35.556 172.998 36.1667 173.012 36.9551V40.291C173.012 40.9564 173.105 41.4873 173.292 41.8838V42H171.597ZM169.771 40.8037C170.1 40.8037 170.407 40.724 170.694 40.5645C170.986 40.4049 171.205 40.1908 171.351 39.9219V38.5273H170.455C169.84 38.5273 169.377 38.6344 169.067 38.8486C168.757 39.0628 168.603 39.3659 168.603 39.7578C168.603 40.0768 168.707 40.332 168.917 40.5234C169.131 40.7103 169.416 40.8037 169.771 40.8037ZM177.79 40.8105C178.205 40.8105 178.549 40.6898 178.822 40.4482C179.096 40.2067 179.242 39.9082 179.26 39.5527H180.825C180.807 40.013 180.663 40.4437 180.395 40.8447C180.126 41.2412 179.761 41.5557 179.301 41.7881C178.84 42.0205 178.344 42.1367 177.811 42.1367C176.776 42.1367 175.956 41.8018 175.35 41.1318C174.743 40.4619 174.44 39.5368 174.44 38.3564V38.1855C174.44 37.0599 174.741 36.1598 175.343 35.4854C175.944 34.8063 176.765 34.4668 177.804 34.4668C178.683 34.4668 179.399 34.7243 179.95 35.2393C180.506 35.7497 180.798 36.4219 180.825 37.2559H179.26C179.242 36.832 179.096 36.4834 178.822 36.21C178.553 35.9365 178.209 35.7998 177.79 35.7998C177.252 35.7998 176.838 35.9958 176.546 36.3877C176.254 36.7751 176.106 37.3652 176.102 38.1582V38.4248C176.102 39.2269 176.245 39.8262 176.532 40.2227C176.824 40.6146 177.243 40.8105 177.79 40.8105ZM183.717 35.4102C184.259 34.7812 184.945 34.4668 185.774 34.4668C187.351 34.4668 188.151 35.3669 188.174 37.167V42H186.513V37.2285C186.513 36.7181 186.401 36.3581 186.178 36.1484C185.959 35.9342 185.635 35.8271 185.207 35.8271C184.542 35.8271 184.045 36.1234 183.717 36.7158V42H182.056V31.5H183.717V35.4102ZM194.278 42C194.205 41.8587 194.142 41.6286 194.087 41.3096C193.558 41.861 192.911 42.1367 192.146 42.1367C191.403 42.1367 190.797 41.9248 190.327 41.501C189.858 41.0771 189.623 40.5531 189.623 39.9287C189.623 39.1403 189.915 38.5365 190.498 38.1172C191.086 37.6934 191.924 37.4814 193.014 37.4814H194.032V36.9961C194.032 36.6133 193.925 36.3079 193.711 36.0801C193.497 35.8477 193.171 35.7314 192.733 35.7314C192.355 35.7314 192.045 35.8271 191.804 36.0186C191.562 36.2054 191.441 36.4447 191.441 36.7363H189.78C189.78 36.3307 189.915 35.9525 190.184 35.6016C190.452 35.2461 190.817 34.9681 191.277 34.7676C191.742 34.5671 192.259 34.4668 192.829 34.4668C193.695 34.4668 194.385 34.6855 194.9 35.123C195.415 35.556 195.68 36.1667 195.693 36.9551V40.291C195.693 40.9564 195.787 41.4873 195.974 41.8838V42H194.278ZM192.453 40.8037C192.781 40.8037 193.089 40.724 193.376 40.5645C193.668 40.4049 193.886 40.1908 194.032 39.9219V38.5273H193.137C192.521 38.5273 192.059 38.6344 191.749 38.8486C191.439 39.0628 191.284 39.3659 191.284 39.7578C191.284 40.0768 191.389 40.332 191.599 40.5234C191.813 40.7103 192.098 40.8037 192.453 40.8037ZM199.515 32.8057V34.6035H200.82V35.834H199.515V39.9629C199.515 40.2454 199.569 40.4505 199.679 40.5781C199.793 40.7012 199.993 40.7627 200.28 40.7627C200.472 40.7627 200.665 40.7399 200.861 40.6943V41.9795C200.483 42.0843 200.118 42.1367 199.768 42.1367C198.492 42.1367 197.854 41.4326 197.854 40.0244V35.834H196.637V34.6035H197.854V32.8057H199.515Z" fill="black"/>
<rect x="26" y="98" width="7.99999" height="352" rx="3.99999" transform="rotate(-90 26 98)" fill="#EAEFF4"/>
<rect x="26" y="98" width="7.99999" height="248" rx="3.99999" transform="rotate(-90 26 98)" fill="url(#paint0_linear)"/>
<path d="M30.751 67.1445H27.7725L27.1035 69H26.1367L28.8516 61.8906H29.6719L32.3916 69H31.4297L30.751 67.1445ZM28.0557 66.373H30.4727L29.2617 63.0479L28.0557 66.373ZM35.3262 68.3604C35.6484 68.3604 35.93 68.2627 36.1709 68.0674C36.4118 67.8721 36.5452 67.6279 36.5713 67.335H37.4258C37.4095 67.6377 37.3053 67.9258 37.1133 68.1992C36.9212 68.4727 36.6641 68.6908 36.3418 68.8535C36.0228 69.0163 35.6842 69.0977 35.3262 69.0977C34.6068 69.0977 34.0339 68.8584 33.6074 68.3799C33.1842 67.8981 32.9727 67.2406 32.9727 66.4072V66.2559C32.9727 65.7415 33.0671 65.2842 33.2559 64.8838C33.4447 64.4834 33.7148 64.1725 34.0664 63.9512C34.4212 63.7298 34.8395 63.6191 35.3213 63.6191C35.9137 63.6191 36.4053 63.7965 36.7959 64.1514C37.1898 64.5062 37.3997 64.9668 37.4258 65.5332H36.5713C36.5452 65.1914 36.415 64.9115 36.1807 64.6934C35.9495 64.472 35.6631 64.3613 35.3213 64.3613C34.8623 64.3613 34.5059 64.5273 34.252 64.8594C34.0013 65.1882 33.876 65.665 33.876 66.29V66.4609C33.876 67.0697 34.0013 67.5384 34.252 67.8672C34.5026 68.196 34.8607 68.3604 35.3262 68.3604ZM39.3447 64.3564C39.7451 63.8649 40.266 63.6191 40.9072 63.6191C42.0238 63.6191 42.5869 64.249 42.5967 65.5088V69H41.6934V65.5039C41.6901 65.123 41.6022 64.8415 41.4297 64.6592C41.2604 64.4769 40.9951 64.3857 40.6338 64.3857C40.3408 64.3857 40.0837 64.4639 39.8623 64.6201C39.641 64.7764 39.4684 64.9814 39.3447 65.2354V69H38.4414V61.5H39.3447V64.3564ZM47.2109 69C47.1589 68.8958 47.1165 68.7103 47.084 68.4434C46.6641 68.8796 46.1628 69.0977 45.5801 69.0977C45.0592 69.0977 44.6312 68.9512 44.2959 68.6582C43.9639 68.362 43.7979 67.9876 43.7979 67.5352C43.7979 66.985 44.0062 66.5586 44.4229 66.2559C44.8428 65.9499 45.432 65.7969 46.1904 65.7969H47.0693V65.3818C47.0693 65.0661 46.9749 64.8154 46.7861 64.6299C46.5973 64.4411 46.319 64.3467 45.9512 64.3467C45.6289 64.3467 45.3587 64.4281 45.1406 64.5908C44.9225 64.7536 44.8135 64.9505 44.8135 65.1816H43.9053C43.9053 64.918 43.998 64.6641 44.1836 64.4199C44.3724 64.1725 44.6263 63.9772 44.9453 63.834C45.2676 63.6908 45.6208 63.6191 46.0049 63.6191C46.6136 63.6191 47.0905 63.7721 47.4355 64.0781C47.7806 64.3809 47.9596 64.7992 47.9727 65.333V67.7646C47.9727 68.2497 48.0345 68.6354 48.1582 68.9219V69H47.2109ZM45.7119 68.3115C45.9951 68.3115 46.2637 68.2383 46.5176 68.0918C46.7715 67.9453 46.9554 67.7549 47.0693 67.5205V66.4365H46.3613C45.2546 66.4365 44.7012 66.7604 44.7012 67.4082C44.7012 67.6914 44.7956 67.9128 44.9844 68.0723C45.1732 68.2318 45.4157 68.3115 45.7119 68.3115ZM50.6143 62.4375V63.7168H51.6006V64.415H50.6143V67.6914C50.6143 67.903 50.6582 68.0625 50.7461 68.1699C50.834 68.2741 50.9837 68.3262 51.1953 68.3262C51.2995 68.3262 51.4427 68.3066 51.625 68.2676V69C51.3874 69.0651 51.1562 69.0977 50.9316 69.0977C50.528 69.0977 50.2236 68.9756 50.0186 68.7314C49.8135 68.4873 49.7109 68.1406 49.7109 67.6914V64.415H48.749V63.7168H49.7109V62.4375H50.6143ZM54.9209 66.3145C54.9209 65.5039 55.113 64.8529 55.4971 64.3613C55.8812 63.8665 56.3841 63.6191 57.0059 63.6191C57.6243 63.6191 58.1143 63.8307 58.4756 64.2539V61.5H59.3789V69H58.5488L58.5049 68.4336C58.1436 68.8763 57.6406 69.0977 56.9961 69.0977C56.3841 69.0977 55.8844 68.847 55.4971 68.3457C55.113 67.8444 54.9209 67.1901 54.9209 66.3828V66.3145ZM55.8242 66.417C55.8242 67.016 55.9479 67.4847 56.1953 67.8232C56.4427 68.1618 56.7845 68.3311 57.2207 68.3311C57.7936 68.3311 58.2119 68.0739 58.4756 67.5596V65.1328C58.2054 64.6348 57.7904 64.3857 57.2305 64.3857C56.7878 64.3857 56.4427 64.5566 56.1953 64.8984C55.9479 65.2402 55.8242 65.7464 55.8242 66.417ZM60.8486 63.8926L60.3359 63.541C60.6387 63.1178 60.7949 62.6719 60.8047 62.2031V61.5H61.6982V62.1348C61.695 62.4603 61.6136 62.7858 61.4541 63.1113C61.2979 63.4336 61.096 63.694 60.8486 63.8926ZM65.8047 69C65.7526 68.8958 65.7103 68.7103 65.6777 68.4434C65.2578 68.8796 64.7565 69.0977 64.1738 69.0977C63.653 69.0977 63.2249 68.9512 62.8896 68.6582C62.5576 68.362 62.3916 67.9876 62.3916 67.5352C62.3916 66.985 62.5999 66.5586 63.0166 66.2559C63.4365 65.9499 64.0257 65.7969 64.7842 65.7969H65.6631V65.3818C65.6631 65.0661 65.5687 64.8154 65.3799 64.6299C65.1911 64.4411 64.9128 64.3467 64.5449 64.3467C64.2227 64.3467 63.9525 64.4281 63.7344 64.5908C63.5163 64.7536 63.4072 64.9505 63.4072 65.1816H62.499C62.499 64.918 62.5918 64.6641 62.7773 64.4199C62.9661 64.1725 63.2201 63.9772 63.5391 63.834C63.8613 63.6908 64.2145 63.6191 64.5986 63.6191C65.2074 63.6191 65.6842 63.7721 66.0293 64.0781C66.3743 64.3809 66.5534 64.7992 66.5664 65.333V67.7646C66.5664 68.2497 66.6283 68.6354 66.752 68.9219V69H65.8047ZM64.3057 68.3115C64.5889 68.3115 64.8574 68.2383 65.1113 68.0918C65.3652 67.9453 65.5492 67.7549 65.6631 67.5205V66.4365H64.9551C63.8483 66.4365 63.2949 66.7604 63.2949 67.4082C63.2949 67.6914 63.3893 67.9128 63.5781 68.0723C63.7669 68.2318 64.0094 68.3115 64.3057 68.3115ZM72.4453 66.417C72.4453 67.221 72.2614 67.8688 71.8936 68.3604C71.5257 68.8519 71.0277 69.0977 70.3994 69.0977C69.7581 69.0977 69.2536 68.8942 68.8857 68.4873V71.0312H67.9824V63.7168H68.8076L68.8516 64.3027C69.2194 63.847 69.7305 63.6191 70.3848 63.6191C71.0195 63.6191 71.5208 63.8584 71.8887 64.3369C72.2598 64.8154 72.4453 65.4811 72.4453 66.334V66.417ZM71.542 66.3145C71.542 65.7188 71.415 65.2484 71.1611 64.9033C70.9072 64.5583 70.5589 64.3857 70.1162 64.3857C69.5693 64.3857 69.1592 64.6283 68.8857 65.1133V67.6377C69.1559 68.1195 69.5693 68.3604 70.126 68.3604C70.5589 68.3604 70.9023 68.1895 71.1562 67.8477C71.4134 67.5026 71.542 66.9915 71.542 66.3145ZM78.0605 66.417C78.0605 67.221 77.8766 67.8688 77.5088 68.3604C77.141 68.8519 76.6429 69.0977 76.0146 69.0977C75.3734 69.0977 74.8688 68.8942 74.501 68.4873V71.0312H73.5977V63.7168H74.4229L74.4668 64.3027C74.8346 63.847 75.3457 63.6191 76 63.6191C76.6348 63.6191 77.1361 63.8584 77.5039 64.3369C77.875 64.8154 78.0605 65.4811 78.0605 66.334V66.417ZM77.1572 66.3145C77.1572 65.7188 77.0303 65.2484 76.7764 64.9033C76.5225 64.5583 76.1742 64.3857 75.7314 64.3857C75.1846 64.3857 74.7744 64.6283 74.501 65.1133V67.6377C74.7712 68.1195 75.1846 68.3604 75.7412 68.3604C76.1742 68.3604 76.5176 68.1895 76.7715 67.8477C77.0286 67.5026 77.1572 66.9915 77.1572 66.3145ZM82.4746 69C82.4225 68.8958 82.3802 68.7103 82.3477 68.4434C81.9277 68.8796 81.4264 69.0977 80.8438 69.0977C80.3229 69.0977 79.8949 68.9512 79.5596 68.6582C79.2275 68.362 79.0615 67.9876 79.0615 67.5352C79.0615 66.985 79.2699 66.5586 79.6865 66.2559C80.1064 65.9499 80.6956 65.7969 81.4541 65.7969H82.333V65.3818C82.333 65.0661 82.2386 64.8154 82.0498 64.6299C81.861 64.4411 81.5827 64.3467 81.2148 64.3467C80.8926 64.3467 80.6224 64.4281 80.4043 64.5908C80.1862 64.7536 80.0771 64.9505 80.0771 65.1816H79.1689C79.1689 64.918 79.2617 64.6641 79.4473 64.4199C79.6361 64.1725 79.89 63.9772 80.209 63.834C80.5312 63.6908 80.8844 63.6191 81.2686 63.6191C81.8773 63.6191 82.3542 63.7721 82.6992 64.0781C83.0443 64.3809 83.2233 64.7992 83.2363 65.333V67.7646C83.2363 68.2497 83.2982 68.6354 83.4219 68.9219V69H82.4746ZM80.9756 68.3115C81.2588 68.3115 81.5273 68.2383 81.7812 68.0918C82.0352 67.9453 82.2191 67.7549 82.333 67.5205V66.4365H81.625C80.5182 66.4365 79.9648 66.7604 79.9648 67.4082C79.9648 67.6914 80.0592 67.9128 80.248 68.0723C80.4368 68.2318 80.6794 68.3115 80.9756 68.3115ZM87.2061 64.5273C87.0693 64.5046 86.9212 64.4932 86.7617 64.4932C86.1693 64.4932 85.7673 64.7454 85.5557 65.25V69H84.6523V63.7168H85.5312L85.5459 64.3271C85.8421 63.8551 86.262 63.6191 86.8057 63.6191C86.9814 63.6191 87.1149 63.6419 87.2061 63.6875V64.5273ZM89.5107 62.4375V63.7168H90.4971V64.415H89.5107V67.6914C89.5107 67.903 89.5547 68.0625 89.6426 68.1699C89.7305 68.2741 89.8802 68.3262 90.0918 68.3262C90.196 68.3262 90.3392 68.3066 90.5215 68.2676V69C90.2839 69.0651 90.0527 69.0977 89.8281 69.0977C89.4245 69.0977 89.1201 68.9756 88.915 68.7314C88.71 68.4873 88.6074 68.1406 88.6074 67.6914V64.415H87.6455V63.7168H88.6074V62.4375H89.5107ZM93.749 69.0977C93.0329 69.0977 92.4502 68.8633 92.001 68.3945C91.5518 67.9225 91.3271 67.2926 91.3271 66.5049V66.3389C91.3271 65.8148 91.4264 65.3477 91.625 64.9375C91.8268 64.5241 92.1068 64.2018 92.4648 63.9707C92.8262 63.7363 93.2168 63.6191 93.6367 63.6191C94.3236 63.6191 94.8574 63.8454 95.2383 64.2979C95.6191 64.7503 95.8096 65.3981 95.8096 66.2412V66.6172H92.2305C92.2435 67.138 92.3949 67.5596 92.6846 67.8818C92.9775 68.2008 93.3486 68.3604 93.7979 68.3604C94.1169 68.3604 94.387 68.2952 94.6084 68.165C94.8298 68.0348 95.0234 67.8623 95.1895 67.6475L95.7412 68.0771C95.2985 68.7575 94.6344 69.0977 93.749 69.0977ZM93.6367 64.3613C93.2721 64.3613 92.9661 64.4948 92.7188 64.7617C92.4714 65.0254 92.3184 65.3965 92.2598 65.875H94.9062V65.8066C94.8802 65.3477 94.7565 64.9928 94.5352 64.7422C94.3138 64.4883 94.0143 64.3613 93.6367 64.3613ZM97.709 63.7168L97.7334 64.3027C98.1208 63.847 98.6432 63.6191 99.3008 63.6191C100.04 63.6191 100.543 63.9023 100.81 64.4688C100.985 64.2148 101.213 64.0098 101.493 63.8535C101.776 63.6973 102.11 63.6191 102.494 63.6191C103.653 63.6191 104.242 64.2327 104.262 65.46V69H103.358V65.5137C103.358 65.1361 103.272 64.8545 103.1 64.6689C102.927 64.4801 102.637 64.3857 102.23 64.3857C101.895 64.3857 101.617 64.4867 101.396 64.6885C101.174 64.887 101.046 65.1556 101.01 65.4941V69H100.102V65.5381C100.102 64.7699 99.7256 64.3857 98.9736 64.3857C98.3812 64.3857 97.9759 64.638 97.7578 65.1426V69H96.8545V63.7168H97.709ZM107.821 69.0977C107.105 69.0977 106.522 68.8633 106.073 68.3945C105.624 67.9225 105.399 67.2926 105.399 66.5049V66.3389C105.399 65.8148 105.499 65.3477 105.697 64.9375C105.899 64.5241 106.179 64.2018 106.537 63.9707C106.898 63.7363 107.289 63.6191 107.709 63.6191C108.396 63.6191 108.93 63.8454 109.311 64.2979C109.691 64.7503 109.882 65.3981 109.882 66.2412V66.6172H106.303C106.316 67.138 106.467 67.5596 106.757 67.8818C107.05 68.2008 107.421 68.3604 107.87 68.3604C108.189 68.3604 108.459 68.2952 108.681 68.165C108.902 68.0348 109.096 67.8623 109.262 67.6475L109.813 68.0771C109.371 68.7575 108.707 69.0977 107.821 69.0977ZM107.709 64.3613C107.344 64.3613 107.038 64.4948 106.791 64.7617C106.544 65.0254 106.391 65.3965 106.332 65.875H108.979V65.8066C108.952 65.3477 108.829 64.9928 108.607 64.7422C108.386 64.4883 108.087 64.3613 107.709 64.3613ZM111.786 63.7168L111.815 64.3809C112.219 63.873 112.746 63.6191 113.397 63.6191C114.514 63.6191 115.077 64.249 115.087 65.5088V69H114.184V65.5039C114.18 65.123 114.092 64.8415 113.92 64.6592C113.751 64.4769 113.485 64.3857 113.124 64.3857C112.831 64.3857 112.574 64.4639 112.353 64.6201C112.131 64.7764 111.959 64.9814 111.835 65.2354V69H110.932V63.7168H111.786ZM117.675 62.4375V63.7168H118.661V64.415H117.675V67.6914C117.675 67.903 117.719 68.0625 117.807 68.1699C117.895 68.2741 118.044 68.3262 118.256 68.3262C118.36 68.3262 118.503 68.3066 118.686 68.2676V69C118.448 69.0651 118.217 69.0977 117.992 69.0977C117.589 69.0977 117.284 68.9756 117.079 68.7314C116.874 68.4873 116.771 68.1406 116.771 67.6914V64.415H115.81V63.7168H116.771V62.4375H117.675Z" fill="black"/>
<rect x="26" y="246" width="7.99999" height="352" rx="3.99999" transform="rotate(-90 26 246)" fill="#EAEFF4"/>
<rect x="26" y="246" width="7.99999" height="248" rx="3.99999" transform="rotate(-90 26 246)" fill="url(#paint1_linear)"/>
<path d="M30.751 215.145H27.7725L27.1035 217H26.1367L28.8516 209.891H29.6719L32.3916 217H31.4297L30.751 215.145ZM28.0557 214.373H30.4727L29.2617 211.048L28.0557 214.373ZM35.3262 216.36C35.6484 216.36 35.93 216.263 36.1709 216.067C36.4118 215.872 36.5452 215.628 36.5713 215.335H37.4258C37.4095 215.638 37.3053 215.926 37.1133 216.199C36.9212 216.473 36.6641 216.691 36.3418 216.854C36.0228 217.016 35.6842 217.098 35.3262 217.098C34.6068 217.098 34.0339 216.858 33.6074 216.38C33.1842 215.898 32.9727 215.241 32.9727 214.407V214.256C32.9727 213.742 33.0671 213.284 33.2559 212.884C33.4447 212.483 33.7148 212.173 34.0664 211.951C34.4212 211.73 34.8395 211.619 35.3213 211.619C35.9137 211.619 36.4053 211.797 36.7959 212.151C37.1898 212.506 37.3997 212.967 37.4258 213.533H36.5713C36.5452 213.191 36.415 212.911 36.1807 212.693C35.9495 212.472 35.6631 212.361 35.3213 212.361C34.8623 212.361 34.5059 212.527 34.252 212.859C34.0013 213.188 33.876 213.665 33.876 214.29V214.461C33.876 215.07 34.0013 215.538 34.252 215.867C34.5026 216.196 34.8607 216.36 35.3262 216.36ZM39.3447 212.356C39.7451 211.865 40.266 211.619 40.9072 211.619C42.0238 211.619 42.5869 212.249 42.5967 213.509V217H41.6934V213.504C41.6901 213.123 41.6022 212.841 41.4297 212.659C41.2604 212.477 40.9951 212.386 40.6338 212.386C40.3408 212.386 40.0837 212.464 39.8623 212.62C39.641 212.776 39.4684 212.981 39.3447 213.235V217H38.4414V209.5H39.3447V212.356ZM47.2109 217C47.1589 216.896 47.1165 216.71 47.084 216.443C46.6641 216.88 46.1628 217.098 45.5801 217.098C45.0592 217.098 44.6312 216.951 44.2959 216.658C43.9639 216.362 43.7979 215.988 43.7979 215.535C43.7979 214.985 44.0062 214.559 44.4229 214.256C44.8428 213.95 45.432 213.797 46.1904 213.797H47.0693V213.382C47.0693 213.066 46.9749 212.815 46.7861 212.63C46.5973 212.441 46.319 212.347 45.9512 212.347C45.6289 212.347 45.3587 212.428 45.1406 212.591C44.9225 212.754 44.8135 212.951 44.8135 213.182H43.9053C43.9053 212.918 43.998 212.664 44.1836 212.42C44.3724 212.173 44.6263 211.977 44.9453 211.834C45.2676 211.691 45.6208 211.619 46.0049 211.619C46.6136 211.619 47.0905 211.772 47.4355 212.078C47.7806 212.381 47.9596 212.799 47.9727 213.333V215.765C47.9727 216.25 48.0345 216.635 48.1582 216.922V217H47.2109ZM45.7119 216.312C45.9951 216.312 46.2637 216.238 46.5176 216.092C46.7715 215.945 46.9554 215.755 47.0693 215.521V214.437H46.3613C45.2546 214.437 44.7012 214.76 44.7012 215.408C44.7012 215.691 44.7956 215.913 44.9844 216.072C45.1732 216.232 45.4157 216.312 45.7119 216.312ZM50.6143 210.438V211.717H51.6006V212.415H50.6143V215.691C50.6143 215.903 50.6582 216.062 50.7461 216.17C50.834 216.274 50.9837 216.326 51.1953 216.326C51.2995 216.326 51.4427 216.307 51.625 216.268V217C51.3874 217.065 51.1562 217.098 50.9316 217.098C50.528 217.098 50.2236 216.976 50.0186 216.731C49.8135 216.487 49.7109 216.141 49.7109 215.691V212.415H48.749V211.717H49.7109V210.438H50.6143ZM54.9209 214.314C54.9209 213.504 55.113 212.853 55.4971 212.361C55.8812 211.867 56.3841 211.619 57.0059 211.619C57.6243 211.619 58.1143 211.831 58.4756 212.254V209.5H59.3789V217H58.5488L58.5049 216.434C58.1436 216.876 57.6406 217.098 56.9961 217.098C56.3841 217.098 55.8844 216.847 55.4971 216.346C55.113 215.844 54.9209 215.19 54.9209 214.383V214.314ZM55.8242 214.417C55.8242 215.016 55.9479 215.485 56.1953 215.823C56.4427 216.162 56.7845 216.331 57.2207 216.331C57.7936 216.331 58.2119 216.074 58.4756 215.56V213.133C58.2054 212.635 57.7904 212.386 57.2305 212.386C56.7878 212.386 56.4427 212.557 56.1953 212.898C55.9479 213.24 55.8242 213.746 55.8242 214.417ZM62.9775 217.098C62.2614 217.098 61.6787 216.863 61.2295 216.395C60.7803 215.923 60.5557 215.293 60.5557 214.505V214.339C60.5557 213.815 60.6549 213.348 60.8535 212.938C61.0553 212.524 61.3353 212.202 61.6934 211.971C62.0547 211.736 62.4453 211.619 62.8652 211.619C63.5521 211.619 64.0859 211.845 64.4668 212.298C64.8477 212.75 65.0381 213.398 65.0381 214.241V214.617H61.459C61.472 215.138 61.6234 215.56 61.9131 215.882C62.2061 216.201 62.5771 216.36 63.0264 216.36C63.3454 216.36 63.6156 216.295 63.8369 216.165C64.0583 216.035 64.252 215.862 64.418 215.647L64.9697 216.077C64.527 216.757 63.863 217.098 62.9775 217.098ZM62.8652 212.361C62.5007 212.361 62.1947 212.495 61.9473 212.762C61.6999 213.025 61.5469 213.396 61.4883 213.875H64.1348V213.807C64.1087 213.348 63.985 212.993 63.7637 212.742C63.5423 212.488 63.2428 212.361 62.8652 212.361ZM69.418 211.717L69.4424 212.303C69.8298 211.847 70.3522 211.619 71.0098 211.619C71.7487 211.619 72.2516 211.902 72.5186 212.469C72.6943 212.215 72.9222 212.01 73.2021 211.854C73.4854 211.697 73.819 211.619 74.2031 211.619C75.362 211.619 75.9512 212.233 75.9707 213.46V217H75.0674V213.514C75.0674 213.136 74.9811 212.854 74.8086 212.669C74.6361 212.48 74.3464 212.386 73.9395 212.386C73.6042 212.386 73.3258 212.487 73.1045 212.688C72.8831 212.887 72.7546 213.156 72.7188 213.494V217H71.8105V213.538C71.8105 212.77 71.4346 212.386 70.6826 212.386C70.0902 212.386 69.6849 212.638 69.4668 213.143V217H68.5635V211.717H69.418ZM80.5996 217C80.5475 216.896 80.5052 216.71 80.4727 216.443C80.0527 216.88 79.5514 217.098 78.9688 217.098C78.4479 217.098 78.0199 216.951 77.6846 216.658C77.3525 216.362 77.1865 215.988 77.1865 215.535C77.1865 214.985 77.3949 214.559 77.8115 214.256C78.2314 213.95 78.8206 213.797 79.5791 213.797H80.458V213.382C80.458 213.066 80.3636 212.815 80.1748 212.63C79.986 212.441 79.7077 212.347 79.3398 212.347C79.0176 212.347 78.7474 212.428 78.5293 212.591C78.3112 212.754 78.2021 212.951 78.2021 213.182H77.2939C77.2939 212.918 77.3867 212.664 77.5723 212.42C77.7611 212.173 78.015 211.977 78.334 211.834C78.6562 211.691 79.0094 211.619 79.3936 211.619C80.0023 211.619 80.4792 211.772 80.8242 212.078C81.1693 212.381 81.3483 212.799 81.3613 213.333V215.765C81.3613 216.25 81.4232 216.635 81.5469 216.922V217H80.5996ZM79.1006 216.312C79.3838 216.312 79.6523 216.238 79.9062 216.092C80.1602 215.945 80.3441 215.755 80.458 215.521V214.437H79.75C78.6432 214.437 78.0898 214.76 78.0898 215.408C78.0898 215.691 78.1842 215.913 78.373 216.072C78.5618 216.232 78.8044 216.312 79.1006 216.312ZM83.7588 217H82.8555V211.717H83.7588V217ZM82.7822 210.315C82.7822 210.169 82.8262 210.045 82.9141 209.944C83.0052 209.843 83.1387 209.793 83.3145 209.793C83.4902 209.793 83.6237 209.843 83.7148 209.944C83.806 210.045 83.8516 210.169 83.8516 210.315C83.8516 210.462 83.806 210.584 83.7148 210.682C83.6237 210.779 83.4902 210.828 83.3145 210.828C83.1387 210.828 83.0052 210.779 82.9141 210.682C82.8262 210.584 82.7822 210.462 82.7822 210.315ZM88.2852 215.599C88.2852 215.354 88.1924 215.166 88.0068 215.032C87.8245 214.896 87.5039 214.778 87.0449 214.681C86.5892 214.583 86.2262 214.466 85.9561 214.329C85.6891 214.192 85.4906 214.03 85.3604 213.841C85.2334 213.652 85.1699 213.427 85.1699 213.167C85.1699 212.734 85.3522 212.368 85.7168 212.068C86.0846 211.769 86.5534 211.619 87.123 211.619C87.722 211.619 88.207 211.774 88.5781 212.083C88.9525 212.392 89.1396 212.788 89.1396 213.27H88.2314C88.2314 213.022 88.1257 212.809 87.9141 212.63C87.7057 212.451 87.4421 212.361 87.123 212.361C86.7943 212.361 86.5371 212.433 86.3516 212.576C86.166 212.719 86.0732 212.907 86.0732 213.138C86.0732 213.356 86.1595 213.52 86.332 213.631C86.5046 213.742 86.8154 213.847 87.2646 213.948C87.7171 214.049 88.0833 214.17 88.3633 214.31C88.6432 214.45 88.8499 214.619 88.9834 214.817C89.1201 215.013 89.1885 215.252 89.1885 215.535C89.1885 216.007 88.9997 216.386 88.6221 216.673C88.2445 216.956 87.7546 217.098 87.1523 217.098C86.7292 217.098 86.3548 217.023 86.0293 216.873C85.7038 216.723 85.4482 216.515 85.2627 216.248C85.0804 215.978 84.9893 215.687 84.9893 215.374H85.8926C85.9089 215.677 86.0293 215.918 86.2539 216.097C86.4818 216.272 86.7812 216.36 87.1523 216.36C87.4941 216.36 87.7676 216.292 87.9727 216.155C88.181 216.015 88.2852 215.83 88.2852 215.599ZM90.126 214.31C90.126 213.792 90.2269 213.326 90.4287 212.913C90.6338 212.5 90.917 212.181 91.2783 211.956C91.6429 211.731 92.0579 211.619 92.5234 211.619C93.2428 211.619 93.8239 211.868 94.2666 212.366C94.7126 212.864 94.9355 213.527 94.9355 214.354V214.417C94.9355 214.931 94.8363 215.394 94.6377 215.804C94.4424 216.211 94.1608 216.528 93.793 216.756C93.4284 216.984 93.0085 217.098 92.5332 217.098C91.8171 217.098 91.236 216.849 90.79 216.351C90.3473 215.853 90.126 215.193 90.126 214.373V214.31ZM91.0342 214.417C91.0342 215.003 91.1693 215.473 91.4395 215.828C91.7129 216.183 92.0775 216.36 92.5332 216.36C92.9922 216.36 93.3568 216.181 93.627 215.823C93.8971 215.462 94.0322 214.957 94.0322 214.31C94.0322 213.73 93.8939 213.261 93.6172 212.903C93.3438 212.542 92.9792 212.361 92.5234 212.361C92.0775 212.361 91.7178 212.539 91.4443 212.894C91.1709 213.248 91.0342 213.756 91.0342 214.417ZM96.9229 211.717L96.9521 212.381C97.3558 211.873 97.8831 211.619 98.5342 211.619C99.6507 211.619 100.214 212.249 100.224 213.509V217H99.3203V213.504C99.3171 213.123 99.2292 212.841 99.0566 212.659C98.8874 212.477 98.6221 212.386 98.2607 212.386C97.9678 212.386 97.7106 212.464 97.4893 212.62C97.2679 212.776 97.0954 212.981 96.9717 213.235V217H96.0684V211.717H96.9229Z" fill="black"/>
<path d="M274 82L270 74L278 74L274 82Z" fill="black"/>
<rect x="146" y="130" width="120" height="48" rx="8" fill="#F5F7FA"/>
<path d="M183.289 152.168H185.023C185.898 152.16 186.59 151.934 187.098 151.488C187.613 151.043 187.871 150.398 187.871 149.555C187.871 148.742 187.656 148.113 187.227 147.668C186.805 147.215 186.156 146.988 185.281 146.988C184.516 146.988 183.887 147.211 183.395 147.656C182.902 148.094 182.656 148.668 182.656 149.379H179.809C179.809 148.504 180.039 147.707 180.5 146.988C180.969 146.27 181.617 145.711 182.445 145.312C183.281 144.906 184.215 144.703 185.246 144.703C186.949 144.703 188.285 145.133 189.254 145.992C190.23 146.844 190.719 148.031 190.719 149.555C190.719 150.32 190.473 151.043 189.98 151.723C189.496 152.395 188.867 152.902 188.094 153.246C189.031 153.566 189.742 154.07 190.227 154.758C190.719 155.445 190.965 156.266 190.965 157.219C190.965 158.75 190.438 159.969 189.383 160.875C188.336 161.781 186.957 162.234 185.246 162.234C183.605 162.234 182.262 161.797 181.215 160.922C180.168 160.047 179.645 158.883 179.645 157.43H182.492C182.492 158.18 182.742 158.789 183.242 159.258C183.75 159.727 184.43 159.961 185.281 159.961C186.164 159.961 186.859 159.727 187.367 159.258C187.875 158.789 188.129 158.109 188.129 157.219C188.129 156.32 187.863 155.629 187.332 155.145C186.801 154.66 186.012 154.418 184.965 154.418H183.289V152.168ZM194.398 153.539L195.324 144.938H204.488V147.398H197.691L197.223 151.477C198.012 151.023 198.902 150.797 199.895 150.797C201.52 150.797 202.781 151.316 203.68 152.355C204.586 153.395 205.039 154.793 205.039 156.551C205.039 158.285 204.539 159.668 203.539 160.699C202.539 161.723 201.168 162.234 199.426 162.234C197.863 162.234 196.566 161.793 195.535 160.91C194.512 160.02 193.957 158.848 193.871 157.395H196.625C196.734 158.223 197.031 158.859 197.516 159.305C198 159.742 198.633 159.961 199.414 159.961C200.289 159.961 200.969 159.648 201.453 159.023C201.945 158.398 202.191 157.547 202.191 156.469C202.191 155.43 201.922 154.609 201.383 154.008C200.844 153.398 200.102 153.094 199.156 153.094C198.641 153.094 198.203 153.164 197.844 153.305C197.484 153.438 197.094 153.703 196.672 154.102L194.398 153.539ZM218.75 162H207.277V160.043L212.961 153.844C213.781 152.93 214.363 152.168 214.707 151.559C215.059 150.941 215.234 150.324 215.234 149.707C215.234 148.895 215.004 148.238 214.543 147.738C214.09 147.238 213.477 146.988 212.703 146.988C211.781 146.988 211.066 147.27 210.559 147.832C210.051 148.395 209.797 149.164 209.797 150.141H206.949C206.949 149.102 207.184 148.168 207.652 147.34C208.129 146.504 208.805 145.855 209.68 145.395C210.562 144.934 211.578 144.703 212.727 144.703C214.383 144.703 215.688 145.121 216.641 145.957C217.602 146.785 218.082 147.934 218.082 149.402C218.082 150.254 217.84 151.148 217.355 152.086C216.879 153.016 216.094 154.074 215 155.262L210.828 159.727H218.75V162ZM228.629 162H225.793V148.301L221.609 149.73V147.328L228.266 144.879H228.629V162Z" fill="#3F3F3F"/>
<path d="M279.121 174.912H277.035C277.059 175.592 277.229 176.1 277.545 176.436C277.865 176.771 278.322 176.939 278.916 176.939C279.346 176.939 279.746 176.875 280.117 176.746L280.281 177.941C279.812 178.055 279.328 178.111 278.828 178.111C277.828 178.111 277.041 177.83 276.467 177.268C275.893 176.705 275.59 175.92 275.559 174.912H274.551V174.086H275.559V173.336H274.551V172.51H275.564C275.615 171.514 275.934 170.74 276.52 170.189C277.105 169.635 277.893 169.357 278.881 169.357C279.295 169.357 279.762 169.418 280.281 169.539L280.117 170.74C279.719 170.607 279.322 170.541 278.928 170.541C278.338 170.541 277.885 170.709 277.568 171.045C277.252 171.381 277.076 171.869 277.041 172.51H279.121V173.336H277.035V174.086H279.121V174.912ZM281.951 178.732H280.832L284.189 169.469H285.309L281.951 178.732ZM287.635 171.66L287.676 172.322C288.121 171.803 288.73 171.543 289.504 171.543C290.352 171.543 290.932 171.867 291.244 172.516C291.705 171.867 292.354 171.543 293.189 171.543C293.889 171.543 294.408 171.736 294.748 172.123C295.092 172.51 295.268 173.08 295.275 173.834V178H293.852V173.875C293.852 173.473 293.764 173.178 293.588 172.99C293.412 172.803 293.121 172.709 292.715 172.709C292.391 172.709 292.125 172.797 291.918 172.973C291.715 173.145 291.572 173.371 291.49 173.652L291.496 178H290.072V173.828C290.053 173.082 289.672 172.709 288.93 172.709C288.359 172.709 287.955 172.941 287.717 173.406V178H286.293V171.66H287.635ZM302.383 178H296.646V177.021L299.488 173.922C299.898 173.465 300.189 173.084 300.361 172.779C300.537 172.471 300.625 172.162 300.625 171.854C300.625 171.447 300.51 171.119 300.279 170.869C300.053 170.619 299.746 170.494 299.359 170.494C298.898 170.494 298.541 170.635 298.287 170.916C298.033 171.197 297.906 171.582 297.906 172.07H296.482C296.482 171.551 296.6 171.084 296.834 170.67C297.072 170.252 297.41 169.928 297.848 169.697C298.289 169.467 298.797 169.352 299.371 169.352C300.199 169.352 300.852 169.561 301.328 169.979C301.809 170.393 302.049 170.967 302.049 171.701C302.049 172.127 301.928 172.574 301.686 173.043C301.447 173.508 301.055 174.037 300.508 174.631L298.422 176.863H302.383V178Z" fill="#3F3F3F"/>
<rect x="146" y="278" width="120" height="48" rx="8" fill="#F5F7FA"/>
<path d="M183.289 300.168H185.023C185.898 300.16 186.59 299.934 187.098 299.488C187.613 299.043 187.871 298.398 187.871 297.555C187.871 296.742 187.656 296.113 187.227 295.668C186.805 295.215 186.156 294.988 185.281 294.988C184.516 294.988 183.887 295.211 183.395 295.656C182.902 296.094 182.656 296.668 182.656 297.379H179.809C179.809 296.504 180.039 295.707 180.5 294.988C180.969 294.27 181.617 293.711 182.445 293.312C183.281 292.906 184.215 292.703 185.246 292.703C186.949 292.703 188.285 293.133 189.254 293.992C190.23 294.844 190.719 296.031 190.719 297.555C190.719 298.32 190.473 299.043 189.98 299.723C189.496 300.395 188.867 300.902 188.094 301.246C189.031 301.566 189.742 302.07 190.227 302.758C190.719 303.445 190.965 304.266 190.965 305.219C190.965 306.75 190.438 307.969 189.383 308.875C188.336 309.781 186.957 310.234 185.246 310.234C183.605 310.234 182.262 309.797 181.215 308.922C180.168 308.047 179.645 306.883 179.645 305.43H182.492C182.492 306.18 182.742 306.789 183.242 307.258C183.75 307.727 184.43 307.961 185.281 307.961C186.164 307.961 186.859 307.727 187.367 307.258C187.875 306.789 188.129 306.109 188.129 305.219C188.129 304.32 187.863 303.629 187.332 303.145C186.801 302.66 186.012 302.418 184.965 302.418H183.289V300.168ZM204.758 302.816C204.758 305.27 204.297 307.121 203.375 308.371C202.461 309.613 201.066 310.234 199.191 310.234C197.348 310.234 195.957 309.629 195.02 308.418C194.09 307.199 193.613 305.398 193.59 303.016V300.062C193.59 297.609 194.047 295.77 194.961 294.543C195.883 293.316 197.285 292.703 199.168 292.703C201.035 292.703 202.426 293.301 203.34 294.496C204.262 295.691 204.734 297.48 204.758 299.863V302.816ZM201.91 299.629C201.91 298.027 201.691 296.855 201.254 296.113C200.816 295.363 200.121 294.988 199.168 294.988C198.238 294.988 197.555 295.344 197.117 296.055C196.68 296.758 196.449 297.859 196.426 299.359V303.227C196.426 304.82 196.648 306.008 197.094 306.789C197.539 307.57 198.238 307.961 199.191 307.961C200.105 307.961 200.781 307.602 201.219 306.883C201.656 306.156 201.887 305.023 201.91 303.484V299.629ZM215.352 302.863C214.398 303.871 213.285 304.375 212.012 304.375C210.512 304.375 209.316 303.852 208.426 302.805C207.535 301.75 207.09 300.367 207.09 298.656C207.09 297.531 207.316 296.512 207.77 295.598C208.223 294.684 208.867 293.973 209.703 293.465C210.539 292.957 211.508 292.703 212.609 292.703C214.328 292.703 215.691 293.344 216.699 294.625C217.707 295.906 218.211 297.621 218.211 299.77V300.566C218.211 303.645 217.516 305.992 216.125 307.609C214.734 309.227 212.66 310.047 209.902 310.07H209.562V307.715H209.973C211.652 307.691 212.941 307.289 213.84 306.508C214.738 305.719 215.242 304.504 215.352 302.863ZM212.609 302.148C213.18 302.148 213.715 301.984 214.215 301.656C214.715 301.328 215.102 300.875 215.375 300.297V299.184C215.375 297.926 215.117 296.914 214.602 296.148C214.086 295.383 213.418 295 212.598 295C211.777 295 211.121 295.34 210.629 296.02C210.145 296.691 209.902 297.543 209.902 298.574C209.902 299.645 210.148 300.508 210.641 301.164C211.133 301.82 211.789 302.148 212.609 302.148ZM229.777 292.855V295.211H229.426C227.832 295.234 226.559 295.672 225.605 296.523C224.652 297.375 224.086 298.582 223.906 300.145C224.82 299.184 225.988 298.703 227.41 298.703C228.918 298.703 230.105 299.234 230.973 300.297C231.848 301.359 232.285 302.73 232.285 304.41C232.285 306.145 231.773 307.551 230.75 308.629C229.734 309.699 228.398 310.234 226.742 310.234C225.039 310.234 223.656 309.605 222.594 308.348C221.539 307.09 221.012 305.441 221.012 303.402V302.43C221.012 299.438 221.738 297.094 223.191 295.398C224.652 293.703 226.75 292.855 229.484 292.855H229.777ZM226.719 301C226.094 301 225.52 301.176 224.996 301.527C224.48 301.879 224.102 302.348 223.859 302.934V303.801C223.859 305.066 224.125 306.074 224.656 306.824C225.188 307.566 225.875 307.938 226.719 307.938C227.562 307.938 228.23 307.621 228.723 306.988C229.215 306.355 229.461 305.523 229.461 304.492C229.461 303.461 229.211 302.621 228.711 301.973C228.211 301.324 227.547 301 226.719 301Z" fill="#3F3F3F"/>
<path d="M279.121 322.912H277.035C277.059 323.592 277.229 324.1 277.545 324.436C277.865 324.771 278.322 324.939 278.916 324.939C279.346 324.939 279.746 324.875 280.117 324.746L280.281 325.941C279.812 326.055 279.328 326.111 278.828 326.111C277.828 326.111 277.041 325.83 276.467 325.268C275.893 324.705 275.59 323.92 275.559 322.912H274.551V322.086H275.559V321.336H274.551V320.51H275.564C275.615 319.514 275.934 318.74 276.52 318.189C277.105 317.635 277.893 317.357 278.881 317.357C279.295 317.357 279.762 317.418 280.281 317.539L280.117 318.74C279.719 318.607 279.322 318.541 278.928 318.541C278.338 318.541 277.885 318.709 277.568 319.045C277.252 319.381 277.076 319.869 277.041 320.51H279.121V321.336H277.035V322.086H279.121V322.912ZM281.951 326.732H280.832L284.189 317.469H285.309L281.951 326.732ZM287.635 319.66L287.676 320.322C288.121 319.803 288.73 319.543 289.504 319.543C290.352 319.543 290.932 319.867 291.244 320.516C291.705 319.867 292.354 319.543 293.189 319.543C293.889 319.543 294.408 319.736 294.748 320.123C295.092 320.51 295.268 321.08 295.275 321.834V326H293.852V321.875C293.852 321.473 293.764 321.178 293.588 320.99C293.412 320.803 293.121 320.709 292.715 320.709C292.391 320.709 292.125 320.797 291.918 320.973C291.715 321.145 291.572 321.371 291.49 321.652L291.496 326H290.072V321.828C290.053 321.082 289.672 320.709 288.93 320.709C288.359 320.709 287.955 320.941 287.717 321.406V326H286.293V319.66H287.635ZM302.383 326H296.646V325.021L299.488 321.922C299.898 321.465 300.189 321.084 300.361 320.779C300.537 320.471 300.625 320.162 300.625 319.854C300.625 319.447 300.51 319.119 300.279 318.869C300.053 318.619 299.746 318.494 299.359 318.494C298.898 318.494 298.541 318.635 298.287 318.916C298.033 319.197 297.906 319.582 297.906 320.07H296.482C296.482 319.551 296.6 319.084 296.834 318.67C297.072 318.252 297.41 317.928 297.848 317.697C298.289 317.467 298.797 317.352 299.371 317.352C300.199 317.352 300.852 317.561 301.328 317.979C301.809 318.393 302.049 318.967 302.049 319.701C302.049 320.127 301.928 320.574 301.686 321.043C301.447 321.508 301.055 322.037 300.508 322.631L298.422 324.863H302.383V326Z" fill="#3F3F3F"/>
<defs>
<filter id="filter0_d" x="0" y="0" width="432" height="384" filterUnits="userSpaceOnUse" color-interpolation-filters="sRGB">
<feFlood flood-opacity="0" result="BackgroundImageFix"/>
<feColorMatrix in="SourceAlpha" type="matrix" values="0 0 0 0 0 0 0 0 0 0 0 0 0 0 0 0 0 0 127 0" result="hardAlpha"/>
<feOffset dx="10" dy="10"/>
<feGaussianBlur stdDeviation="10"/>
<feComposite in2="hardAlpha" operator="out"/>
<feColorMatrix type="matrix" values="0 0 0 0 0 0 0 0 0 0 0 0 0 0 0 0 0 0 0.05 0"/>
<feBlend mode="normal" in2="BackgroundImageFix" result="effect1_dropShadow"/>
<feBlend mode="normal" in="SourceGraphic" in2="effect1_dropShadow" result="shape"/>
</filter>
<linearGradient id="paint0_linear" x1="30" y1="98" x2="30" y2="346" gradientUnits="userSpaceOnUse">
<stop stop-color="#5F96E9"/>
<stop offset="0.341768" stop-color="#2FD136"/>
<stop offset="0.673373" stop-color="#FFE922"/>
<stop offset="1" stop-color="#EE6445"/>
</linearGradient>
<linearGradient id="paint1_linear" x1="30" y1="246" x2="30" y2="494" gradientUnits="userSpaceOnUse">
<stop stop-color="#5F96E9"/>
<stop offset="0.341768" stop-color="#2FD136"/>
<stop offset="0.673373" stop-color="#FFE922"/>
<stop offset="1" stop-color="#EE6445"/>
</linearGradient>
</defs>
</svg>
