<svg width="264" height="88" viewBox="0 0 200 88" fill="none" xmlns="http://www.w3.org/2000/svg">
<g filter="url(#filter0_d)">
<rect x="10" y="10" width="210" height="48" rx="24" fill="white"/>
</g>
<path d="M211.306 41.5394L207.163 37.4175C208.215 36.0084 208.824 34.2839 208.824 32.4122C208.824 27.7855 205.06 24 200.412 24C195.785 24 192 27.7645 192 32.4122C192 37.0599 195.764 40.8244 200.412 40.8244C202.137 40.8244 203.756 40.2986 205.102 39.3943L209.287 43.5794C209.56 43.8528 209.939 44 210.297 44C210.654 44 211.033 43.8528 211.306 43.5794C211.853 43.0116 211.853 42.1073 211.306 41.5394ZM194.86 32.4122C194.86 29.3417 197.363 26.8391 200.412 26.8391C203.462 26.8391 205.964 29.3417 205.964 32.3912C205.964 35.4406 203.483 37.9642 200.412 37.9642C197.342 37.9642 194.86 35.4616 194.86 32.4122Z" fill="#5095EA"/>
<path d="M38.8057 34.9736H36.4678V39H35.1484V29.0469H38.4434C39.5645 29.0469 40.4258 29.3021 41.0273 29.8125C41.6335 30.3229 41.9365 31.0658 41.9365 32.041C41.9365 32.6608 41.7679 33.2008 41.4307 33.6611C41.098 34.1214 40.6331 34.4655 40.0361 34.6934L42.374 38.918V39H40.9658L38.8057 34.9736ZM36.4678 33.9004H38.4844C39.1361 33.9004 39.6533 33.7318 40.0361 33.3945C40.4235 33.0573 40.6172 32.6061 40.6172 32.041C40.6172 31.4258 40.4326 30.9541 40.0635 30.626C39.6989 30.2979 39.1702 30.1315 38.4775 30.127H36.4678V33.9004ZM46.6533 39.1367C45.6507 39.1367 44.835 38.8086 44.2061 38.1523C43.5771 37.4915 43.2627 36.6097 43.2627 35.5068V35.2744C43.2627 34.5407 43.4017 33.8867 43.6797 33.3125C43.9622 32.7337 44.3542 32.2826 44.8555 31.959C45.3613 31.6309 45.9082 31.4668 46.4961 31.4668C47.4577 31.4668 48.2051 31.7835 48.7383 32.417C49.2715 33.0505 49.5381 33.9574 49.5381 35.1377V35.6641H44.5273C44.5456 36.3932 44.7575 36.9834 45.1631 37.4346C45.5732 37.8812 46.0928 38.1045 46.7217 38.1045C47.1683 38.1045 47.5465 38.0133 47.8564 37.8311C48.1663 37.6488 48.4375 37.4072 48.6699 37.1064L49.4424 37.708C48.8226 38.6605 47.8929 39.1367 46.6533 39.1367ZM46.4961 32.5059C45.9857 32.5059 45.5573 32.6927 45.2109 33.0664C44.8646 33.4355 44.6504 33.9551 44.5684 34.625H48.2734V34.5293C48.237 33.8867 48.0638 33.39 47.7539 33.0391C47.444 32.6836 47.0247 32.5059 46.4961 32.5059ZM53.9746 38.1045C54.4258 38.1045 54.82 37.9678 55.1572 37.6943C55.4945 37.4209 55.6813 37.0791 55.7178 36.6689H56.9141C56.8913 37.0928 56.7454 37.4961 56.4766 37.8789C56.2077 38.2617 55.8477 38.5671 55.3965 38.7949C54.9499 39.0228 54.4759 39.1367 53.9746 39.1367C52.9674 39.1367 52.1654 38.8018 51.5684 38.1318C50.9759 37.4574 50.6797 36.5368 50.6797 35.3701V35.1582C50.6797 34.4382 50.8118 33.7979 51.0762 33.2373C51.3405 32.6768 51.7188 32.2415 52.2109 31.9316C52.7077 31.6217 53.2933 31.4668 53.9678 31.4668C54.7972 31.4668 55.4854 31.7152 56.0322 32.2119C56.5837 32.7087 56.8776 33.3535 56.9141 34.1465H55.7178C55.6813 33.668 55.499 33.276 55.1709 32.9707C54.8473 32.6608 54.4463 32.5059 53.9678 32.5059C53.3252 32.5059 52.8262 32.7383 52.4707 33.2031C52.1198 33.6634 51.9443 34.3311 51.9443 35.2061V35.4453C51.9443 36.2975 52.1198 36.9538 52.4707 37.4141C52.8216 37.8743 53.3229 38.1045 53.9746 38.1045ZM59.6006 32.499C60.1611 31.8109 60.8903 31.4668 61.7881 31.4668C63.3512 31.4668 64.1396 32.3486 64.1533 34.1123V39H62.8887V34.1055C62.8841 33.5723 62.7611 33.1781 62.5195 32.9229C62.2826 32.6676 61.9111 32.54 61.4053 32.54C60.9951 32.54 60.6351 32.6494 60.3252 32.8682C60.0153 33.0869 59.7738 33.374 59.6006 33.7295V39H58.3359V28.5H59.6006V32.499ZM69.1162 39.1367C68.1136 39.1367 67.2979 38.8086 66.6689 38.1523C66.04 37.4915 65.7256 36.6097 65.7256 35.5068V35.2744C65.7256 34.5407 65.8646 33.8867 66.1426 33.3125C66.4251 32.7337 66.8171 32.2826 67.3184 31.959C67.8242 31.6309 68.3711 31.4668 68.959 31.4668C69.9206 31.4668 70.668 31.7835 71.2012 32.417C71.7344 33.0505 72.001 33.9574 72.001 35.1377V35.6641H66.9902C67.0085 36.3932 67.2204 36.9834 67.626 37.4346C68.0361 37.8812 68.5557 38.1045 69.1846 38.1045C69.6312 38.1045 70.0094 38.0133 70.3193 37.8311C70.6292 37.6488 70.9004 37.4072 71.1328 37.1064L71.9053 37.708C71.2855 38.6605 70.3558 39.1367 69.1162 39.1367ZM68.959 32.5059C68.4486 32.5059 68.0202 32.6927 67.6738 33.0664C67.3275 33.4355 67.1133 33.9551 67.0312 34.625H70.7363V34.5293C70.6999 33.8867 70.5267 33.39 70.2168 33.0391C69.9069 32.6836 69.4876 32.5059 68.959 32.5059ZM77.0459 32.7383C76.8545 32.7064 76.6471 32.6904 76.4238 32.6904C75.5944 32.6904 75.0316 33.0436 74.7354 33.75V39H73.4707V31.6035H74.7012L74.7217 32.458C75.1364 31.7972 75.7243 31.4668 76.4854 31.4668C76.7314 31.4668 76.9183 31.4987 77.0459 31.5625V32.7383ZM81.0449 38.1045C81.4961 38.1045 81.8903 37.9678 82.2275 37.6943C82.5648 37.4209 82.7516 37.0791 82.7881 36.6689H83.9844C83.9616 37.0928 83.8158 37.4961 83.5469 37.8789C83.278 38.2617 82.918 38.5671 82.4668 38.7949C82.0202 39.0228 81.5462 39.1367 81.0449 39.1367C80.0378 39.1367 79.2357 38.8018 78.6387 38.1318C78.0462 37.4574 77.75 36.5368 77.75 35.3701V35.1582C77.75 34.4382 77.8822 33.7979 78.1465 33.2373C78.4108 32.6768 78.7891 32.2415 79.2812 31.9316C79.778 31.6217 80.3636 31.4668 81.0381 31.4668C81.8675 31.4668 82.5557 31.7152 83.1025 32.2119C83.654 32.7087 83.9479 33.3535 83.9844 34.1465H82.7881C82.7516 33.668 82.5693 33.276 82.2412 32.9707C81.9176 32.6608 81.5166 32.5059 81.0381 32.5059C80.3955 32.5059 79.8965 32.7383 79.541 33.2031C79.1901 33.6634 79.0146 34.3311 79.0146 35.2061V35.4453C79.0146 36.2975 79.1901 36.9538 79.541 37.4141C79.8919 37.8743 80.3932 38.1045 81.0449 38.1045ZM86.6709 32.499C87.2314 31.8109 87.9606 31.4668 88.8584 31.4668C90.4215 31.4668 91.21 32.3486 91.2236 34.1123V39H89.959V34.1055C89.9544 33.5723 89.8314 33.1781 89.5898 32.9229C89.3529 32.6676 88.9814 32.54 88.4756 32.54C88.0654 32.54 87.7054 32.6494 87.3955 32.8682C87.0856 33.0869 86.8441 33.374 86.6709 33.7295V39H85.4062V28.5H86.6709V32.499ZM96.1865 39.1367C95.1839 39.1367 94.3682 38.8086 93.7393 38.1523C93.1104 37.4915 92.7959 36.6097 92.7959 35.5068V35.2744C92.7959 34.5407 92.9349 33.8867 93.2129 33.3125C93.4954 32.7337 93.8874 32.2826 94.3887 31.959C94.8945 31.6309 95.4414 31.4668 96.0293 31.4668C96.9909 31.4668 97.7383 31.7835 98.2715 32.417C98.8047 33.0505 99.0713 33.9574 99.0713 35.1377V35.6641H94.0605C94.0788 36.3932 94.2907 36.9834 94.6963 37.4346C95.1064 37.8812 95.626 38.1045 96.2549 38.1045C96.7015 38.1045 97.0798 38.0133 97.3896 37.8311C97.6995 37.6488 97.9707 37.4072 98.2031 37.1064L98.9756 37.708C98.3558 38.6605 97.4261 39.1367 96.1865 39.1367ZM96.0293 32.5059C95.5189 32.5059 95.0905 32.6927 94.7441 33.0664C94.3978 33.4355 94.1836 33.9551 94.1016 34.625H97.8066V34.5293C97.7702 33.8867 97.597 33.39 97.2871 33.0391C96.9772 32.6836 96.5579 32.5059 96.0293 32.5059ZM104.116 32.7383C103.925 32.7064 103.717 32.6904 103.494 32.6904C102.665 32.6904 102.102 33.0436 101.806 33.75V39H100.541V31.6035H101.771L101.792 32.458C102.207 31.7972 102.795 31.4668 103.556 31.4668C103.802 31.4668 103.989 31.4987 104.116 31.5625V32.7383ZM104.465 38.3369C104.465 38.1182 104.529 37.9359 104.656 37.79C104.788 37.6442 104.984 37.5713 105.244 37.5713C105.504 37.5713 105.7 37.6442 105.832 37.79C105.969 37.9359 106.037 38.1182 106.037 38.3369C106.037 38.5465 105.969 38.722 105.832 38.8633C105.7 39.0046 105.504 39.0752 105.244 39.0752C104.984 39.0752 104.788 39.0046 104.656 38.8633C104.529 38.722 104.465 38.5465 104.465 38.3369ZM108.156 38.3369C108.156 38.1182 108.22 37.9359 108.348 37.79C108.48 37.6442 108.676 37.5713 108.936 37.5713C109.195 37.5713 109.391 37.6442 109.523 37.79C109.66 37.9359 109.729 38.1182 109.729 38.3369C109.729 38.5465 109.66 38.722 109.523 38.8633C109.391 39.0046 109.195 39.0752 108.936 39.0752C108.676 39.0752 108.48 39.0046 108.348 38.8633C108.22 38.722 108.156 38.5465 108.156 38.3369ZM111.848 38.3369C111.848 38.1182 111.911 37.9359 112.039 37.79C112.171 37.6442 112.367 37.5713 112.627 37.5713C112.887 37.5713 113.083 37.6442 113.215 37.79C113.352 37.9359 113.42 38.1182 113.42 38.3369C113.42 38.5465 113.352 38.722 113.215 38.8633C113.083 39.0046 112.887 39.0752 112.627 39.0752C112.367 39.0752 112.171 39.0046 112.039 38.8633C111.911 38.722 111.848 38.5465 111.848 38.3369Z" fill="#656565"/>
<defs>
<filter id="filter0_d" x="0" y="0" width="264" height="88" filterUnits="userSpaceOnUse" color-interpolation-filters="sRGB">
<feFlood flood-opacity="0" result="BackgroundImageFix"/>
<feColorMatrix in="SourceAlpha" type="matrix" values="0 0 0 0 0 0 0 0 0 0 0 0 0 0 0 0 0 0 127 0" result="hardAlpha"/>
<feOffset dx="10" dy="10"/>
<feGaussianBlur stdDeviation="10"/>
<feComposite in2="hardAlpha" operator="out"/>
<feColorMatrix type="matrix" values="0 0 0 0 0 0 0 0 0 0 0 0 0 0 0 0 0 0 0.05 0"/>
<feBlend mode="normal" in2="BackgroundImageFix" result="effect1_dropShadow"/>
<feBlend mode="normal" in="SourceGraphic" in2="effect1_dropShadow" result="shape"/>
</filter>
</defs>
</svg>
