<svg width="18" height="20" viewBox="0 0 18 20" fill="none" xmlns="http://www.w3.org/2000/svg">
<path d="M0.243654 4.59567C0.243654 7.1222 0.862653 15.3713 8.54328 19.8769C8.68205 19.9575 8.83968 20 9.00016 20C9.16065 20 9.31827 19.9575 9.45704 19.8769C17.1377 15.3692 17.7567 7.12851 17.7567 4.59567C17.7571 4.38815 17.6859 4.18682 17.5551 4.02571C17.4243 3.8646 17.2419 3.75357 17.0387 3.71139C13.5268 2.98291 10.6929 1.05222 9.54757 0.184785C9.39026 0.0649174 9.19794 0 9.00016 0C8.80238 0 8.61007 0.0649174 8.45275 0.184785C7.30739 1.05222 4.47347 2.98291 0.961608 3.71139C0.758413 3.75357 0.576006 3.8646 0.445198 4.02571C0.314391 4.18682 0.243201 4.38815 0.243654 4.59567ZM5.17459 10.3561L5.80622 9.72451C5.89048 9.6417 6.00389 9.5953 6.12203 9.5953C6.24017 9.5953 6.35359 9.6417 6.43785 9.72451L7.48214 10.7372C7.56666 10.8195 7.67998 10.8656 7.79796 10.8656C7.91594 10.8656 8.02925 10.8195 8.11377 10.7372L12.4089 6.44214C12.4934 6.35983 12.6067 6.31377 12.7247 6.31377C12.8427 6.31377 12.956 6.35983 13.0405 6.44214L13.6721 7.07377C13.7544 7.15829 13.8005 7.27161 13.8005 7.38958C13.8005 7.50756 13.7544 7.62088 13.6721 7.7054L8.1222 13.3016C8.03767 13.384 7.92436 13.43 7.80638 13.43C7.6884 13.43 7.57509 13.384 7.49056 13.3016L5.17459 10.9857C5.09241 10.9015 5.04641 10.7885 5.04641 10.6709C5.04641 10.5533 5.09241 10.4403 5.17459 10.3561Z" fill="#FF862F"/>
</svg>
