<svg width="30" height="18" viewBox="0 0 30 18" fill="none" xmlns="http://www.w3.org/2000/svg">
<path d="M29.2067 8.35385C25.5301 3.55385 20.5337 0.600006 15.0188 0.600006C9.5039 0.600006 4.5075 3.55385 0.830909 8.35385C0.548094 8.76924 0.548094 9.27693 0.830909 9.69232C4.5075 14.4462 9.5039 17.4 15.0188 17.4C20.5337 17.4 25.5301 14.4462 29.2067 9.64616C29.4895 9.27693 29.4895 8.72308 29.2067 8.35385ZM21.0522 9.36924C20.8636 12.3231 18.4126 14.7231 15.3959 14.9077C11.7193 15.1385 8.74973 12.1846 8.93827 8.58462C9.12682 5.63078 11.5779 3.23078 14.5946 3.04616C18.2712 2.86154 21.2879 5.81539 21.0522 9.36924ZM18.2712 9.18462C18.1769 10.7539 16.8571 12.0462 15.2073 12.1846C13.2276 12.3231 11.625 10.7077 11.7193 8.76924C11.8136 7.20001 13.1334 5.9077 14.7831 5.76924C16.7628 5.67693 18.4126 7.29232 18.2712 9.18462Z" fill="#5095EA"/>
</svg>
