<svg width="16" height="17" viewBox="0 0 16 17" fill="none" xmlns="http://www.w3.org/2000/svg">
<path d="M12.6153 8.46677C12.2239 8.86616 11.6787 9.11477 11.0768 9.11477C10.4744 9.11477 9.92977 8.86677 9.53839 8.46677C9.147 8.86616 8.60177 9.11477 7.99993 9.11477C7.39746 9.11477 6.85285 8.86677 6.46146 8.46677C6.07008 8.86616 5.52485 9.11477 4.923 9.11477C4.32054 9.11477 3.77593 8.86677 3.38454 8.46677C2.99316 8.86616 2.44793 9.11477 1.84608 9.11477C1.51439 9.11477 1.20423 9.03293 0.923002 8.89877V15.8846H0.307617V16.5H15.6922V15.8846H15.0768V8.89877C14.7956 9.03293 14.4855 9.11477 14.1538 9.11477C13.5513 9.11477 13.0067 8.86677 12.6153 8.46677ZM9.53839 10.9615H12.6153V15.8846H9.53839V10.9615ZM3.38454 10.9615H7.07685V13.4231H3.38454V10.9615Z" fill="#FF862F"/>
<path d="M13.23 2.34615V0.5H2.76966V2.34615H2.76904H13.2306H13.23Z" fill="#FF862F"/>
<path d="M13.7236 2.96154H2.27624L0.799316 4.80769H15.2005L13.7236 2.96154Z" fill="#FF862F"/>
<path d="M0.307617 6.96092C0.307617 7.81076 0.996233 8.49938 1.84608 8.49938C2.69593 8.49938 3.38454 7.81076 3.38454 6.96092C3.38454 7.81076 4.07316 8.49938 4.923 8.49938C5.77285 8.49938 6.46146 7.81076 6.46146 6.96092C6.46146 7.81076 7.15008 8.49938 7.99993 8.49938C8.84977 8.49938 9.53839 7.81076 9.53839 6.96092C9.53839 7.81076 10.227 8.49938 11.0768 8.49938C11.9267 8.49938 12.6153 7.81076 12.6153 6.96092C12.6153 7.81076 13.3039 8.49938 14.1538 8.49938C15.0036 8.49938 15.6922 7.81076 15.6922 6.96092V5.42307H0.307617V6.96092Z" fill="#FF862F"/>
</svg>
