<svg width="24" height="24" viewBox="0 0 24 24" fill="none" xmlns="http://www.w3.org/2000/svg">
<path d="M12 13.1874C14.1626 13.1874 15.9157 11.4342 15.9157 9.27156C15.9157 7.10893 14.1626 5.35577 12 5.35577C9.83733 5.35577 8.08417 7.10893 8.08417 9.27156C8.08417 11.4342 9.83733 13.1874 12 13.1874Z" fill="#DE6D1B"/>
<path d="M12 0C5.38105 0 0 5.38105 0 12C0 18.6189 5.38105 24 12 24C18.6189 24 24 18.6189 24 12C24 5.38105 18.6189 0 12 0ZM18.4168 19.4021V18.9221C18.4168 16.3705 16.3453 14.2989 13.7937 14.2989H10.1811C7.62947 14.2989 5.55789 16.3705 5.55789 18.9221V19.4021C3.51158 17.6084 2.19789 14.9558 2.19789 12C2.19789 6.59368 6.59368 2.19789 12 2.19789C17.4063 2.19789 21.8021 6.59368 21.8021 12C21.8021 14.9558 20.4884 17.6084 18.4168 19.4021Z" fill="#DE6D1B"/>
</svg>
