<svg width="20" height="16" viewBox="0 0 20 16" fill="none" xmlns="http://www.w3.org/2000/svg">
<path d="M10 0.878113C6.07388 0.878113 2.53012 2.50635 0 5.12164L2.31882 7.44047C4.25741 5.4167 6.98306 4.15247 10 4.15247C13.0169 4.15247 15.7426 5.4167 17.6812 7.44047L20 5.12164C17.4701 2.50658 13.9261 0.878113 10 0.878113Z" fill="#FF862F"/>
<path d="M10.0001 10.7012C8.78858 10.7012 7.70152 11.2334 6.95117 12.0729L10.0001 15.1219L13.0488 12.0732C12.2989 11.2334 11.2116 10.7012 10.0001 10.7012Z" fill="#FF862F"/>
<path d="M10.0001 5.78967C7.43443 5.78967 5.11772 6.86991 3.47607 8.59791L5.79419 10.916C6.84196 9.78073 8.33725 9.06426 10.0001 9.06426C11.6631 9.06426 13.1582 9.78073 14.206 10.916L16.5243 8.59791C14.8822 6.87014 12.5657 5.78967 10.0001 5.78967Z" fill="#FF862F"/>
</svg>
